<svg width="444" height="444" viewBox="0 0 444 444" fill="none" xmlns="http://www.w3.org/2000/svg">
<circle cx="222" cy="222" r="217" fill="white" stroke="#B7F4F1" stroke-width="10"/>
<path d="M149.411 324.57C150.051 324.75 150.536 325.06 150.866 325.5C151.196 325.93 151.361 326.475 151.361 327.135C151.361 328.055 151.036 328.78 150.386 329.31C149.746 329.84 148.876 330.105 147.776 330.105C147.126 330.105 146.501 330 145.901 329.79C145.311 329.58 144.811 329.29 144.401 328.92C144.201 328.76 144.101 328.56 144.101 328.32C144.101 328.14 144.151 327.99 144.251 327.87C144.351 327.74 144.471 327.675 144.611 327.675C144.761 327.675 144.931 327.74 145.121 327.87C145.551 328.19 145.971 328.435 146.381 328.605C146.801 328.765 147.251 328.845 147.731 328.845C149.151 328.845 149.861 328.24 149.861 327.03C149.861 326.44 149.671 326 149.291 325.71C148.921 325.41 148.356 325.26 147.596 325.26H146.771C146.581 325.26 146.431 325.2 146.321 325.08C146.211 324.95 146.156 324.8 146.156 324.63C146.156 324.47 146.211 324.33 146.321 324.21C146.431 324.08 146.581 324.015 146.771 324.015H147.356C148.086 324.015 148.641 323.865 149.021 323.565C149.411 323.255 149.606 322.805 149.606 322.215C149.606 321.695 149.446 321.29 149.126 321C148.816 320.71 148.376 320.565 147.806 320.565C146.966 320.565 146.126 320.89 145.286 321.54C145.096 321.67 144.926 321.735 144.776 321.735C144.636 321.735 144.516 321.675 144.416 321.555C144.316 321.425 144.266 321.27 144.266 321.09C144.266 320.85 144.366 320.65 144.566 320.49C144.976 320.12 145.471 319.83 146.051 319.62C146.641 319.41 147.246 319.305 147.866 319.305C148.856 319.305 149.646 319.555 150.236 320.055C150.826 320.555 151.116 321.225 151.106 322.065C151.106 322.645 150.956 323.16 150.656 323.61C150.356 324.05 149.941 324.37 149.411 324.57ZM154.145 328.14C154.445 328.14 154.68 328.25 154.85 328.47C155.03 328.69 155.12 329.015 155.12 329.445C155.12 330.295 154.835 331.03 154.265 331.65C154.145 331.77 154.015 331.83 153.875 331.83C153.745 331.83 153.635 331.785 153.545 331.695C153.455 331.615 153.41 331.515 153.41 331.395C153.41 331.295 153.455 331.19 153.545 331.08C153.825 330.79 154.005 330.445 154.085 330.045C153.835 330.025 153.625 329.93 153.455 329.76C153.295 329.59 153.215 329.375 153.215 329.115C153.215 328.835 153.305 328.605 153.485 328.425C153.665 328.235 153.885 328.14 154.145 328.14ZM160.944 323.31C161.604 323.31 162.184 323.45 162.684 323.73C163.194 324.01 163.589 324.405 163.869 324.915C164.149 325.425 164.289 326.01 164.289 326.67C164.289 327.34 164.134 327.935 163.824 328.455C163.514 328.975 163.079 329.38 162.519 329.67C161.969 329.96 161.334 330.105 160.614 330.105C159.994 330.105 159.384 330 158.784 329.79C158.194 329.58 157.699 329.29 157.299 328.92C157.099 328.75 156.999 328.55 156.999 328.32C156.999 328.14 157.049 327.99 157.149 327.87C157.249 327.74 157.369 327.675 157.509 327.675C157.599 327.675 157.679 327.69 157.749 327.72C157.829 327.75 157.919 327.8 158.019 327.87C158.429 328.19 158.839 328.435 159.249 328.605C159.669 328.765 160.109 328.845 160.569 328.845C161.269 328.845 161.814 328.66 162.204 328.29C162.594 327.91 162.789 327.38 162.789 326.7C162.789 326.05 162.589 325.53 162.189 325.14C161.799 324.75 161.274 324.555 160.614 324.555C160.184 324.555 159.799 324.63 159.459 324.78C159.119 324.92 158.799 325.145 158.499 325.455C158.349 325.595 158.169 325.665 157.959 325.665C157.789 325.665 157.644 325.615 157.524 325.515C157.414 325.405 157.359 325.265 157.359 325.095V320.16C157.359 319.93 157.419 319.75 157.539 319.62C157.669 319.49 157.854 319.425 158.094 319.425H163.254C163.484 319.425 163.664 319.48 163.794 319.59C163.924 319.7 163.989 319.85 163.989 320.04C163.989 320.24 163.924 320.395 163.794 320.505C163.664 320.615 163.484 320.67 163.254 320.67H158.889V324C159.439 323.54 160.124 323.31 160.944 323.31ZM168.674 332.73C168.374 332.75 168.144 332.71 167.984 332.61C167.824 332.51 167.744 332.355 167.744 332.145C167.744 331.985 167.794 331.855 167.894 331.755C167.994 331.665 168.154 331.61 168.374 331.59L168.794 331.56C169.184 331.54 169.474 331.42 169.664 331.2C169.864 330.98 169.964 330.63 169.964 330.15V323.265C169.964 323.025 170.034 322.845 170.174 322.725C170.324 322.595 170.509 322.53 170.729 322.53C170.949 322.53 171.129 322.595 171.269 322.725C171.409 322.845 171.479 323.025 171.479 323.265V330.06C171.479 330.9 171.284 331.535 170.894 331.965C170.504 332.395 169.899 332.64 169.079 332.7L168.674 332.73ZM170.729 321.06C170.439 321.06 170.209 320.98 170.039 320.82C169.869 320.66 169.784 320.45 169.784 320.19C169.784 319.93 169.869 319.725 170.039 319.575C170.209 319.415 170.439 319.335 170.729 319.335C171.009 319.335 171.234 319.415 171.404 319.575C171.584 319.725 171.674 319.93 171.674 320.19C171.674 320.45 171.589 320.66 171.419 320.82C171.249 320.98 171.019 321.06 170.729 321.06ZM179.266 322.53C179.496 322.53 179.676 322.595 179.806 322.725C179.946 322.855 180.016 323.035 180.016 323.265V329.37C180.016 329.58 179.946 329.75 179.806 329.88C179.666 330.01 179.481 330.075 179.251 330.075C179.041 330.075 178.871 330.015 178.741 329.895C178.611 329.765 178.546 329.595 178.546 329.385V328.815C178.316 329.235 177.996 329.555 177.586 329.775C177.186 329.995 176.736 330.105 176.236 330.105C174.456 330.105 173.566 329.125 173.566 327.165V323.265C173.566 323.035 173.631 322.855 173.761 322.725C173.901 322.595 174.091 322.53 174.331 322.53C174.561 322.53 174.741 322.595 174.871 322.725C175.011 322.855 175.081 323.035 175.081 323.265V327.15C175.081 327.74 175.201 328.175 175.441 328.455C175.681 328.735 176.051 328.875 176.551 328.875C177.141 328.875 177.611 328.685 177.961 328.305C178.321 327.925 178.501 327.42 178.501 326.79V323.265C178.501 323.045 178.571 322.87 178.711 322.74C178.851 322.6 179.036 322.53 179.266 322.53ZM185.721 328.92C185.941 328.94 186.096 329 186.186 329.1C186.286 329.19 186.336 329.32 186.336 329.49C186.336 329.69 186.256 329.845 186.096 329.955C185.946 330.055 185.721 330.095 185.421 330.075L185.016 330.045C184.206 329.985 183.601 329.74 183.201 329.31C182.801 328.87 182.601 328.225 182.601 327.375V323.85H181.701C181.261 323.85 181.041 323.655 181.041 323.265C181.041 323.085 181.096 322.945 181.206 322.845C181.326 322.735 181.491 322.68 181.701 322.68H182.601V321.135C182.601 320.905 182.666 320.725 182.796 320.595C182.936 320.465 183.121 320.4 183.351 320.4C183.581 320.4 183.766 320.465 183.906 320.595C184.046 320.725 184.116 320.905 184.116 321.135V322.68H185.601C185.811 322.68 185.971 322.735 186.081 322.845C186.201 322.945 186.261 323.085 186.261 323.265C186.261 323.455 186.201 323.6 186.081 323.7C185.971 323.8 185.811 323.85 185.601 323.85H184.116V327.48C184.116 327.95 184.211 328.295 184.401 328.515C184.601 328.735 184.901 328.86 185.301 328.89L185.721 328.92ZM190.5 322.5C191.47 322.5 192.19 322.745 192.66 323.235C193.14 323.725 193.38 324.47 193.38 325.47V329.355C193.38 329.585 193.315 329.765 193.185 329.895C193.055 330.015 192.875 330.075 192.645 330.075C192.425 330.075 192.25 330.01 192.12 329.88C191.99 329.75 191.925 329.575 191.925 329.355V328.8C191.735 329.22 191.45 329.545 191.07 329.775C190.7 329.995 190.265 330.105 189.765 330.105C189.285 330.105 188.845 330.01 188.445 329.82C188.055 329.62 187.745 329.35 187.515 329.01C187.285 328.67 187.17 328.285 187.17 327.855C187.16 327.315 187.295 326.895 187.575 326.595C187.855 326.285 188.31 326.065 188.94 325.935C189.57 325.795 190.445 325.725 191.565 325.725H191.91V325.29C191.91 324.73 191.795 324.325 191.565 324.075C191.335 323.825 190.965 323.7 190.455 323.7C190.105 323.7 189.775 323.745 189.465 323.835C189.155 323.925 188.815 324.055 188.445 324.225C188.175 324.375 187.985 324.45 187.875 324.45C187.725 324.45 187.6 324.395 187.5 324.285C187.41 324.175 187.365 324.035 187.365 323.865C187.365 323.715 187.405 323.585 187.485 323.475C187.575 323.355 187.715 323.24 187.905 323.13C188.255 322.94 188.665 322.79 189.135 322.68C189.605 322.56 190.06 322.5 190.5 322.5ZM190.035 328.98C190.585 328.98 191.035 328.795 191.385 328.425C191.735 328.045 191.91 327.56 191.91 326.97V326.58H191.64C190.86 326.58 190.26 326.615 189.84 326.685C189.42 326.755 189.12 326.875 188.94 327.045C188.76 327.205 188.67 327.44 188.67 327.75C188.67 328.11 188.8 328.405 189.06 328.635C189.32 328.865 189.645 328.98 190.035 328.98ZM202.587 330.105C201.867 330.105 201.232 329.95 200.682 329.64C200.142 329.33 199.722 328.89 199.422 328.32C199.132 327.74 198.987 327.07 198.987 326.31C198.987 325.54 199.132 324.87 199.422 324.3C199.722 323.72 200.142 323.275 200.682 322.965C201.232 322.655 201.867 322.5 202.587 322.5C203.307 322.5 203.937 322.655 204.477 322.965C205.027 323.275 205.447 323.72 205.737 324.3C206.037 324.87 206.187 325.54 206.187 326.31C206.187 327.07 206.037 327.74 205.737 328.32C205.447 328.89 205.027 329.33 204.477 329.64C203.937 329.95 203.307 330.105 202.587 330.105ZM202.587 328.905C203.257 328.905 203.767 328.685 204.117 328.245C204.477 327.805 204.657 327.16 204.657 326.31C204.657 325.47 204.477 324.83 204.117 324.39C203.757 323.94 203.247 323.715 202.587 323.715C201.927 323.715 201.417 323.94 201.057 324.39C200.697 324.83 200.517 325.47 200.517 326.31C200.517 327.16 200.692 327.805 201.042 328.245C201.402 328.685 201.917 328.905 202.587 328.905ZM211.714 322.53C212.194 322.5 212.434 322.705 212.434 323.145C212.434 323.365 212.379 323.53 212.269 323.64C212.159 323.75 211.969 323.815 211.699 323.835L211.249 323.88C210.619 323.94 210.149 324.16 209.839 324.54C209.539 324.92 209.389 325.38 209.389 325.92V329.355C209.389 329.595 209.319 329.775 209.179 329.895C209.039 330.015 208.859 330.075 208.639 330.075C208.419 330.075 208.234 330.015 208.084 329.895C207.944 329.775 207.874 329.595 207.874 329.355V323.25C207.874 323.02 207.944 322.845 208.084 322.725C208.234 322.595 208.419 322.53 208.639 322.53C208.839 322.53 209.004 322.595 209.134 322.725C209.274 322.845 209.344 323.015 209.344 323.235V323.955C209.544 323.515 209.834 323.18 210.214 322.95C210.594 322.72 211.024 322.585 211.504 322.545L211.714 322.53ZM216.398 322.5C217.368 322.5 218.088 322.745 218.558 323.235C219.038 323.725 219.278 324.47 219.278 325.47V329.355C219.278 329.585 219.213 329.765 219.083 329.895C218.953 330.015 218.773 330.075 218.543 330.075C218.323 330.075 218.148 330.01 218.018 329.88C217.888 329.75 217.823 329.575 217.823 329.355V328.8C217.633 329.22 217.348 329.545 216.968 329.775C216.598 329.995 216.163 330.105 215.663 330.105C215.183 330.105 214.743 330.01 214.343 329.82C213.953 329.62 213.643 329.35 213.413 329.01C213.183 328.67 213.068 328.285 213.068 327.855C213.058 327.315 213.193 326.895 213.473 326.595C213.753 326.285 214.208 326.065 214.838 325.935C215.468 325.795 216.343 325.725 217.463 325.725H217.808V325.29C217.808 324.73 217.693 324.325 217.463 324.075C217.233 323.825 216.863 323.7 216.353 323.7C216.003 323.7 215.673 323.745 215.363 323.835C215.053 323.925 214.713 324.055 214.343 324.225C214.073 324.375 213.883 324.45 213.773 324.45C213.623 324.45 213.498 324.395 213.398 324.285C213.308 324.175 213.263 324.035 213.263 323.865C213.263 323.715 213.303 323.585 213.383 323.475C213.473 323.355 213.613 323.24 213.803 323.13C214.153 322.94 214.563 322.79 215.033 322.68C215.503 322.56 215.958 322.5 216.398 322.5ZM215.933 328.98C216.483 328.98 216.933 328.795 217.283 328.425C217.633 328.045 217.808 327.56 217.808 326.97V326.58H217.538C216.758 326.58 216.158 326.615 215.738 326.685C215.318 326.755 215.018 326.875 214.838 327.045C214.658 327.205 214.568 327.44 214.568 327.75C214.568 328.11 214.698 328.405 214.958 328.635C215.218 328.865 215.543 328.98 215.933 328.98ZM225.295 322.5C227.045 322.5 227.92 323.485 227.92 325.455V329.355C227.92 329.585 227.85 329.765 227.71 329.895C227.58 330.015 227.395 330.075 227.155 330.075C226.925 330.075 226.74 330.01 226.6 329.88C226.47 329.75 226.405 329.575 226.405 329.355V325.53C226.405 324.91 226.28 324.455 226.03 324.165C225.79 323.875 225.41 323.73 224.89 323.73C224.28 323.73 223.79 323.92 223.42 324.3C223.05 324.68 222.865 325.19 222.865 325.83V329.355C222.865 329.575 222.795 329.75 222.655 329.88C222.525 330.01 222.345 330.075 222.115 330.075C221.885 330.075 221.7 330.01 221.56 329.88C221.42 329.75 221.35 329.575 221.35 329.355V323.25C221.35 323.04 221.42 322.87 221.56 322.74C221.71 322.6 221.895 322.53 222.115 322.53C222.335 322.53 222.51 322.595 222.64 322.725C222.77 322.855 222.835 323.025 222.835 323.235V323.85C223.075 323.41 223.41 323.075 223.84 322.845C224.27 322.615 224.755 322.5 225.295 322.5ZM236.053 322.53C236.283 322.53 236.463 322.6 236.593 322.74C236.733 322.87 236.803 323.045 236.803 323.265V329.415C236.803 330.535 236.503 331.38 235.903 331.95C235.313 332.52 234.438 332.805 233.278 332.805C232.198 332.805 231.298 332.6 230.578 332.19C230.208 331.98 230.023 331.73 230.023 331.44C230.023 331.27 230.068 331.13 230.158 331.02C230.258 330.91 230.378 330.855 230.518 330.855C230.648 330.855 230.853 330.93 231.133 331.08C231.493 331.25 231.828 331.38 232.138 331.47C232.448 331.57 232.818 331.62 233.248 331.62C234.628 331.62 235.318 330.925 235.318 329.535V328.38C235.108 328.82 234.788 329.165 234.358 329.415C233.928 329.655 233.428 329.775 232.858 329.775C232.218 329.775 231.648 329.625 231.148 329.325C230.648 329.025 230.258 328.6 229.978 328.05C229.708 327.5 229.573 326.865 229.573 326.145C229.573 325.425 229.713 324.79 229.993 324.24C230.273 323.69 230.658 323.265 231.148 322.965C231.648 322.655 232.218 322.5 232.858 322.5C233.418 322.5 233.908 322.62 234.328 322.86C234.758 323.1 235.083 323.44 235.303 323.88V323.25C235.303 323.03 235.368 322.855 235.498 322.725C235.638 322.595 235.823 322.53 236.053 322.53ZM233.218 328.575C233.868 328.575 234.378 328.36 234.748 327.93C235.118 327.5 235.303 326.905 235.303 326.145C235.303 325.395 235.118 324.805 234.748 324.375C234.388 323.935 233.878 323.715 233.218 323.715C232.558 323.715 232.038 323.93 231.658 324.36C231.288 324.79 231.103 325.385 231.103 326.145C231.103 326.905 231.293 327.5 231.673 327.93C232.053 328.36 232.568 328.575 233.218 328.575ZM249.019 328.815C249.199 328.965 249.289 329.15 249.289 329.37C249.289 329.56 249.224 329.725 249.094 329.865C248.964 330.005 248.809 330.075 248.629 330.075C248.439 330.075 248.269 330.005 248.119 329.865L244.384 326.565V329.34C244.384 329.58 244.314 329.765 244.174 329.895C244.034 330.015 243.854 330.075 243.634 330.075C243.414 330.075 243.229 330.015 243.079 329.895C242.939 329.765 242.869 329.58 242.869 329.34V320.085C242.869 319.845 242.939 319.665 243.079 319.545C243.229 319.415 243.414 319.35 243.634 319.35C243.854 319.35 244.034 319.415 244.174 319.545C244.314 319.665 244.384 319.845 244.384 320.085V325.965L247.804 322.77C247.974 322.62 248.139 322.545 248.299 322.545C248.489 322.545 248.654 322.615 248.794 322.755C248.934 322.895 249.004 323.06 249.004 323.25C249.004 323.44 248.919 323.615 248.749 323.775L246.079 326.22L249.019 328.815ZM256.231 328.155C256.371 328.155 256.486 328.21 256.576 328.32C256.666 328.43 256.711 328.57 256.711 328.74C256.711 329.03 256.531 329.275 256.171 329.475C255.821 329.675 255.436 329.83 255.016 329.94C254.606 330.05 254.211 330.105 253.831 330.105C252.671 330.105 251.756 329.77 251.086 329.1C250.416 328.42 250.081 327.495 250.081 326.325C250.081 325.575 250.226 324.91 250.516 324.33C250.816 323.75 251.231 323.3 251.761 322.98C252.301 322.66 252.911 322.5 253.591 322.5C254.571 322.5 255.346 322.815 255.916 323.445C256.486 324.075 256.771 324.925 256.771 325.995C256.771 326.395 256.591 326.595 256.231 326.595H251.596C251.696 328.145 252.441 328.92 253.831 328.92C254.201 328.92 254.521 328.87 254.791 328.77C255.061 328.67 255.346 328.54 255.646 328.38C255.676 328.36 255.756 328.32 255.886 328.26C256.026 328.19 256.141 328.155 256.231 328.155ZM253.621 323.61C253.041 323.61 252.576 323.795 252.226 324.165C251.876 324.535 251.666 325.055 251.596 325.725H255.466C255.436 325.045 255.261 324.525 254.941 324.165C254.631 323.795 254.191 323.61 253.621 323.61ZM262.4 322.5C264.14 322.5 265.01 323.485 265.01 325.455V329.355C265.01 329.575 264.94 329.75 264.8 329.88C264.66 330.01 264.475 330.075 264.245 330.075C264.015 330.075 263.83 330.01 263.69 329.88C263.56 329.75 263.495 329.575 263.495 329.355V325.47C263.495 324.87 263.37 324.43 263.12 324.15C262.88 323.87 262.5 323.73 261.98 323.73C261.37 323.73 260.88 323.92 260.51 324.3C260.14 324.68 259.955 325.19 259.955 325.83V329.355C259.955 329.575 259.885 329.75 259.745 329.88C259.615 330.01 259.435 330.075 259.205 330.075C258.975 330.075 258.79 330.01 258.65 329.88C258.51 329.75 258.44 329.575 258.44 329.355V320.07C258.44 319.85 258.51 319.675 258.65 319.545C258.8 319.415 258.99 319.35 259.22 319.35C259.44 319.35 259.615 319.415 259.745 319.545C259.885 319.665 259.955 319.83 259.955 320.04V323.79C260.205 323.37 260.54 323.05 260.96 322.83C261.38 322.61 261.86 322.5 262.4 322.5ZM267.848 330.075C267.628 330.075 267.443 330.015 267.293 329.895C267.153 329.775 267.083 329.595 267.083 329.355V323.265C267.083 323.025 267.153 322.845 267.293 322.725C267.443 322.595 267.628 322.53 267.848 322.53C268.068 322.53 268.248 322.595 268.388 322.725C268.528 322.845 268.598 323.025 268.598 323.265V329.355C268.598 329.595 268.528 329.775 268.388 329.895C268.248 330.015 268.068 330.075 267.848 330.075ZM267.848 321.06C267.558 321.06 267.328 320.98 267.158 320.82C266.988 320.66 266.903 320.45 266.903 320.19C266.903 319.93 266.988 319.725 267.158 319.575C267.328 319.415 267.558 319.335 267.848 319.335C268.128 319.335 268.353 319.415 268.523 319.575C268.703 319.725 268.793 319.93 268.793 320.19C268.793 320.45 268.708 320.66 268.538 320.82C268.368 320.98 268.138 321.06 267.848 321.06ZM271.481 330.075C271.261 330.075 271.076 330.015 270.926 329.895C270.786 329.775 270.716 329.595 270.716 329.355V320.085C270.716 319.845 270.786 319.665 270.926 319.545C271.076 319.415 271.261 319.35 271.481 319.35C271.701 319.35 271.881 319.415 272.021 319.545C272.161 319.665 272.231 319.845 272.231 320.085V329.355C272.231 329.595 272.161 329.775 272.021 329.895C271.881 330.015 271.701 330.075 271.481 330.075ZM277.423 322.5C278.393 322.5 279.113 322.745 279.583 323.235C280.063 323.725 280.303 324.47 280.303 325.47V329.355C280.303 329.585 280.238 329.765 280.108 329.895C279.978 330.015 279.798 330.075 279.568 330.075C279.348 330.075 279.173 330.01 279.043 329.88C278.913 329.75 278.848 329.575 278.848 329.355V328.8C278.658 329.22 278.373 329.545 277.993 329.775C277.623 329.995 277.188 330.105 276.688 330.105C276.208 330.105 275.768 330.01 275.368 329.82C274.978 329.62 274.668 329.35 274.438 329.01C274.208 328.67 274.093 328.285 274.093 327.855C274.083 327.315 274.218 326.895 274.498 326.595C274.778 326.285 275.233 326.065 275.863 325.935C276.493 325.795 277.368 325.725 278.488 325.725H278.833V325.29C278.833 324.73 278.718 324.325 278.488 324.075C278.258 323.825 277.888 323.7 277.378 323.7C277.028 323.7 276.698 323.745 276.388 323.835C276.078 323.925 275.738 324.055 275.368 324.225C275.098 324.375 274.908 324.45 274.798 324.45C274.648 324.45 274.523 324.395 274.423 324.285C274.333 324.175 274.288 324.035 274.288 323.865C274.288 323.715 274.328 323.585 274.408 323.475C274.498 323.355 274.638 323.24 274.828 323.13C275.178 322.94 275.588 322.79 276.058 322.68C276.528 322.56 276.983 322.5 277.423 322.5ZM276.958 328.98C277.508 328.98 277.958 328.795 278.308 328.425C278.658 328.045 278.833 327.56 278.833 326.97V326.58H278.563C277.783 326.58 277.183 326.615 276.763 326.685C276.343 326.755 276.043 326.875 275.863 327.045C275.683 327.205 275.593 327.44 275.593 327.75C275.593 328.11 275.723 328.405 275.983 328.635C276.243 328.865 276.568 328.98 276.958 328.98ZM286.321 322.5C288.071 322.5 288.946 323.485 288.946 325.455V329.355C288.946 329.585 288.876 329.765 288.736 329.895C288.606 330.015 288.421 330.075 288.181 330.075C287.951 330.075 287.766 330.01 287.626 329.88C287.496 329.75 287.431 329.575 287.431 329.355V325.53C287.431 324.91 287.306 324.455 287.056 324.165C286.816 323.875 286.436 323.73 285.916 323.73C285.306 323.73 284.816 323.92 284.446 324.3C284.076 324.68 283.891 325.19 283.891 325.83V329.355C283.891 329.575 283.821 329.75 283.681 329.88C283.551 330.01 283.371 330.075 283.141 330.075C282.911 330.075 282.726 330.01 282.586 329.88C282.446 329.75 282.376 329.575 282.376 329.355V323.25C282.376 323.04 282.446 322.87 282.586 322.74C282.736 322.6 282.921 322.53 283.141 322.53C283.361 322.53 283.536 322.595 283.666 322.725C283.796 322.855 283.861 323.025 283.861 323.235V323.85C284.101 323.41 284.436 323.075 284.866 322.845C285.296 322.615 285.781 322.5 286.321 322.5ZM297.078 322.53C297.308 322.53 297.488 322.6 297.618 322.74C297.758 322.87 297.828 323.045 297.828 323.265V329.415C297.828 330.535 297.528 331.38 296.928 331.95C296.338 332.52 295.463 332.805 294.303 332.805C293.223 332.805 292.323 332.6 291.603 332.19C291.233 331.98 291.048 331.73 291.048 331.44C291.048 331.27 291.093 331.13 291.183 331.02C291.283 330.91 291.403 330.855 291.543 330.855C291.673 330.855 291.878 330.93 292.158 331.08C292.518 331.25 292.853 331.38 293.163 331.47C293.473 331.57 293.843 331.62 294.273 331.62C295.653 331.62 296.343 330.925 296.343 329.535V328.38C296.133 328.82 295.813 329.165 295.383 329.415C294.953 329.655 294.453 329.775 293.883 329.775C293.243 329.775 292.673 329.625 292.173 329.325C291.673 329.025 291.283 328.6 291.003 328.05C290.733 327.5 290.598 326.865 290.598 326.145C290.598 325.425 290.738 324.79 291.018 324.24C291.298 323.69 291.683 323.265 292.173 322.965C292.673 322.655 293.243 322.5 293.883 322.5C294.443 322.5 294.933 322.62 295.353 322.86C295.783 323.1 296.108 323.44 296.328 323.88V323.25C296.328 323.03 296.393 322.855 296.523 322.725C296.663 322.595 296.848 322.53 297.078 322.53ZM294.243 328.575C294.893 328.575 295.403 328.36 295.773 327.93C296.143 327.5 296.328 326.905 296.328 326.145C296.328 325.395 296.143 324.805 295.773 324.375C295.413 323.935 294.903 323.715 294.243 323.715C293.583 323.715 293.063 323.93 292.683 324.36C292.313 324.79 292.128 325.385 292.128 326.145C292.128 326.905 292.318 327.5 292.698 327.93C293.078 328.36 293.593 328.575 294.243 328.575ZM303.014 322.5C303.984 322.5 304.704 322.745 305.174 323.235C305.654 323.725 305.894 324.47 305.894 325.47V329.355C305.894 329.585 305.829 329.765 305.699 329.895C305.569 330.015 305.389 330.075 305.159 330.075C304.939 330.075 304.764 330.01 304.634 329.88C304.504 329.75 304.439 329.575 304.439 329.355V328.8C304.249 329.22 303.964 329.545 303.584 329.775C303.214 329.995 302.779 330.105 302.279 330.105C301.799 330.105 301.359 330.01 300.959 329.82C300.569 329.62 300.259 329.35 300.029 329.01C299.799 328.67 299.684 328.285 299.684 327.855C299.674 327.315 299.809 326.895 300.089 326.595C300.369 326.285 300.824 326.065 301.454 325.935C302.084 325.795 302.959 325.725 304.079 325.725H304.424V325.29C304.424 324.73 304.309 324.325 304.079 324.075C303.849 323.825 303.479 323.7 302.969 323.7C302.619 323.7 302.289 323.745 301.979 323.835C301.669 323.925 301.329 324.055 300.959 324.225C300.689 324.375 300.499 324.45 300.389 324.45C300.239 324.45 300.114 324.395 300.014 324.285C299.924 324.175 299.879 324.035 299.879 323.865C299.879 323.715 299.919 323.585 299.999 323.475C300.089 323.355 300.229 323.24 300.419 323.13C300.769 322.94 301.179 322.79 301.649 322.68C302.119 322.56 302.574 322.5 303.014 322.5ZM302.549 328.98C303.099 328.98 303.549 328.795 303.899 328.425C304.249 328.045 304.424 327.56 304.424 326.97V326.58H304.154C303.374 326.58 302.774 326.615 302.354 326.685C301.934 326.755 301.634 326.875 301.454 327.045C301.274 327.205 301.184 327.44 301.184 327.75C301.184 328.11 301.314 328.405 301.574 328.635C301.834 328.865 302.159 328.98 302.549 328.98ZM311.912 322.5C313.662 322.5 314.537 323.485 314.537 325.455V329.355C314.537 329.585 314.467 329.765 314.327 329.895C314.197 330.015 314.012 330.075 313.772 330.075C313.542 330.075 313.357 330.01 313.217 329.88C313.087 329.75 313.022 329.575 313.022 329.355V325.53C313.022 324.91 312.897 324.455 312.647 324.165C312.407 323.875 312.027 323.73 311.507 323.73C310.897 323.73 310.407 323.92 310.037 324.3C309.667 324.68 309.482 325.19 309.482 325.83V329.355C309.482 329.575 309.412 329.75 309.272 329.88C309.142 330.01 308.962 330.075 308.732 330.075C308.502 330.075 308.317 330.01 308.177 329.88C308.037 329.75 307.967 329.575 307.967 329.355V323.25C307.967 323.04 308.037 322.87 308.177 322.74C308.327 322.6 308.512 322.53 308.732 322.53C308.952 322.53 309.127 322.595 309.257 322.725C309.387 322.855 309.452 323.025 309.452 323.235V323.85C309.692 323.41 310.027 323.075 310.457 322.845C310.887 322.615 311.372 322.5 311.912 322.5ZM140.077 350.075C139.857 350.075 139.672 350.015 139.522 349.895C139.382 349.775 139.312 349.595 139.312 349.355V340.085C139.312 339.845 139.382 339.665 139.522 339.545C139.672 339.415 139.857 339.35 140.077 339.35C140.297 339.35 140.477 339.415 140.617 339.545C140.757 339.665 140.827 339.845 140.827 340.085V349.355C140.827 349.595 140.757 349.775 140.617 349.895C140.477 350.015 140.297 350.075 140.077 350.075ZM146.02 342.5C146.99 342.5 147.71 342.745 148.18 343.235C148.66 343.725 148.9 344.47 148.9 345.47V349.355C148.9 349.585 148.835 349.765 148.705 349.895C148.575 350.015 148.395 350.075 148.165 350.075C147.945 350.075 147.77 350.01 147.64 349.88C147.51 349.75 147.445 349.575 147.445 349.355V348.8C147.255 349.22 146.97 349.545 146.59 349.775C146.22 349.995 145.785 350.105 145.285 350.105C144.805 350.105 144.365 350.01 143.965 349.82C143.575 349.62 143.265 349.35 143.035 349.01C142.805 348.67 142.69 348.285 142.69 347.855C142.68 347.315 142.815 346.895 143.095 346.595C143.375 346.285 143.83 346.065 144.46 345.935C145.09 345.795 145.965 345.725 147.085 345.725H147.43V345.29C147.43 344.73 147.315 344.325 147.085 344.075C146.855 343.825 146.485 343.7 145.975 343.7C145.625 343.7 145.295 343.745 144.985 343.835C144.675 343.925 144.335 344.055 143.965 344.225C143.695 344.375 143.505 344.45 143.395 344.45C143.245 344.45 143.12 344.395 143.02 344.285C142.93 344.175 142.885 344.035 142.885 343.865C142.885 343.715 142.925 343.585 143.005 343.475C143.095 343.355 143.235 343.24 143.425 343.13C143.775 342.94 144.185 342.79 144.655 342.68C145.125 342.56 145.58 342.5 146.02 342.5ZM145.555 348.98C146.105 348.98 146.555 348.795 146.905 348.425C147.255 348.045 147.43 347.56 147.43 346.97V346.58H147.16C146.38 346.58 145.78 346.615 145.36 346.685C144.94 346.755 144.64 346.875 144.46 347.045C144.28 347.205 144.19 347.44 144.19 347.75C144.19 348.11 144.32 348.405 144.58 348.635C144.84 348.865 145.165 348.98 145.555 348.98ZM154.902 342.5C155.532 342.5 156.092 342.66 156.582 342.98C157.082 343.3 157.467 343.75 157.737 344.33C158.017 344.91 158.157 345.58 158.157 346.34C158.157 347.09 158.022 347.75 157.752 348.32C157.482 348.89 157.097 349.33 156.597 349.64C156.107 349.95 155.542 350.105 154.902 350.105C154.352 350.105 153.867 349.99 153.447 349.76C153.027 349.52 152.707 349.18 152.487 348.74V352.085C152.487 352.295 152.417 352.46 152.277 352.58C152.147 352.71 151.972 352.775 151.752 352.775C151.522 352.775 151.332 352.71 151.182 352.58C151.042 352.45 150.972 352.275 150.972 352.055V343.265C150.972 343.045 151.042 342.87 151.182 342.74C151.322 342.6 151.507 342.53 151.737 342.53C151.957 342.53 152.137 342.6 152.277 342.74C152.417 342.87 152.487 343.045 152.487 343.265V343.88C152.707 343.44 153.027 343.1 153.447 342.86C153.867 342.62 154.352 342.5 154.902 342.5ZM154.542 348.905C155.202 348.905 155.712 348.685 156.072 348.245C156.432 347.795 156.612 347.16 156.612 346.34C156.612 345.51 156.427 344.865 156.057 344.405C155.697 343.945 155.192 343.715 154.542 343.715C153.882 343.715 153.372 343.94 153.012 344.39C152.662 344.84 152.487 345.48 152.487 346.31C152.487 347.14 152.662 347.78 153.012 348.23C153.372 348.68 153.882 348.905 154.542 348.905ZM162.909 342.5C163.879 342.5 164.599 342.745 165.069 343.235C165.549 343.725 165.789 344.47 165.789 345.47V349.355C165.789 349.585 165.724 349.765 165.594 349.895C165.464 350.015 165.284 350.075 165.054 350.075C164.834 350.075 164.659 350.01 164.529 349.88C164.399 349.75 164.334 349.575 164.334 349.355V348.8C164.144 349.22 163.859 349.545 163.479 349.775C163.109 349.995 162.674 350.105 162.174 350.105C161.694 350.105 161.254 350.01 160.854 349.82C160.464 349.62 160.154 349.35 159.924 349.01C159.694 348.67 159.579 348.285 159.579 347.855C159.569 347.315 159.704 346.895 159.984 346.595C160.264 346.285 160.719 346.065 161.349 345.935C161.979 345.795 162.854 345.725 163.974 345.725H164.319V345.29C164.319 344.73 164.204 344.325 163.974 344.075C163.744 343.825 163.374 343.7 162.864 343.7C162.514 343.7 162.184 343.745 161.874 343.835C161.564 343.925 161.224 344.055 160.854 344.225C160.584 344.375 160.394 344.45 160.284 344.45C160.134 344.45 160.009 344.395 159.909 344.285C159.819 344.175 159.774 344.035 159.774 343.865C159.774 343.715 159.814 343.585 159.894 343.475C159.984 343.355 160.124 343.24 160.314 343.13C160.664 342.94 161.074 342.79 161.544 342.68C162.014 342.56 162.469 342.5 162.909 342.5ZM162.444 348.98C162.994 348.98 163.444 348.795 163.794 348.425C164.144 348.045 164.319 347.56 164.319 346.97V346.58H164.049C163.269 346.58 162.669 346.615 162.249 346.685C161.829 346.755 161.529 346.875 161.349 347.045C161.169 347.205 161.079 347.44 161.079 347.75C161.079 348.11 161.209 348.405 161.469 348.635C161.729 348.865 162.054 348.98 162.444 348.98ZM171.807 342.5C173.557 342.5 174.432 343.485 174.432 345.455V349.355C174.432 349.585 174.362 349.765 174.222 349.895C174.092 350.015 173.907 350.075 173.667 350.075C173.437 350.075 173.252 350.01 173.112 349.88C172.982 349.75 172.917 349.575 172.917 349.355V345.53C172.917 344.91 172.792 344.455 172.542 344.165C172.302 343.875 171.922 343.73 171.402 343.73C170.792 343.73 170.302 343.92 169.932 344.3C169.562 344.68 169.377 345.19 169.377 345.83V349.355C169.377 349.575 169.307 349.75 169.167 349.88C169.037 350.01 168.857 350.075 168.627 350.075C168.397 350.075 168.212 350.01 168.072 349.88C167.932 349.75 167.862 349.575 167.862 349.355V343.25C167.862 343.04 167.932 342.87 168.072 342.74C168.222 342.6 168.407 342.53 168.627 342.53C168.847 342.53 169.022 342.595 169.152 342.725C169.282 342.855 169.347 343.025 169.347 343.235V343.85C169.587 343.41 169.922 343.075 170.352 342.845C170.782 342.615 171.267 342.5 171.807 342.5ZM182.564 342.53C182.794 342.53 182.974 342.6 183.104 342.74C183.244 342.87 183.314 343.045 183.314 343.265V349.415C183.314 350.535 183.014 351.38 182.414 351.95C181.824 352.52 180.949 352.805 179.789 352.805C178.709 352.805 177.809 352.6 177.089 352.19C176.719 351.98 176.534 351.73 176.534 351.44C176.534 351.27 176.579 351.13 176.669 351.02C176.769 350.91 176.889 350.855 177.029 350.855C177.159 350.855 177.364 350.93 177.644 351.08C178.004 351.25 178.339 351.38 178.649 351.47C178.959 351.57 179.329 351.62 179.759 351.62C181.139 351.62 181.829 350.925 181.829 349.535V348.38C181.619 348.82 181.299 349.165 180.869 349.415C180.439 349.655 179.939 349.775 179.369 349.775C178.729 349.775 178.159 349.625 177.659 349.325C177.159 349.025 176.769 348.6 176.489 348.05C176.219 347.5 176.084 346.865 176.084 346.145C176.084 345.425 176.224 344.79 176.504 344.24C176.784 343.69 177.169 343.265 177.659 342.965C178.159 342.655 178.729 342.5 179.369 342.5C179.929 342.5 180.419 342.62 180.839 342.86C181.269 343.1 181.594 343.44 181.814 343.88V343.25C181.814 343.03 181.879 342.855 182.009 342.725C182.149 342.595 182.334 342.53 182.564 342.53ZM179.729 348.575C180.379 348.575 180.889 348.36 181.259 347.93C181.629 347.5 181.814 346.905 181.814 346.145C181.814 345.395 181.629 344.805 181.259 344.375C180.899 343.935 180.389 343.715 179.729 343.715C179.069 343.715 178.549 343.93 178.169 344.36C177.799 344.79 177.614 345.385 177.614 346.145C177.614 346.905 177.804 347.5 178.184 347.93C178.564 348.36 179.079 348.575 179.729 348.575ZM188.5 342.5C189.47 342.5 190.19 342.745 190.66 343.235C191.14 343.725 191.38 344.47 191.38 345.47V349.355C191.38 349.585 191.315 349.765 191.185 349.895C191.055 350.015 190.875 350.075 190.645 350.075C190.425 350.075 190.25 350.01 190.12 349.88C189.99 349.75 189.925 349.575 189.925 349.355V348.8C189.735 349.22 189.45 349.545 189.07 349.775C188.7 349.995 188.265 350.105 187.765 350.105C187.285 350.105 186.845 350.01 186.445 349.82C186.055 349.62 185.745 349.35 185.515 349.01C185.285 348.67 185.17 348.285 185.17 347.855C185.16 347.315 185.295 346.895 185.575 346.595C185.855 346.285 186.31 346.065 186.94 345.935C187.57 345.795 188.445 345.725 189.565 345.725H189.91V345.29C189.91 344.73 189.795 344.325 189.565 344.075C189.335 343.825 188.965 343.7 188.455 343.7C188.105 343.7 187.775 343.745 187.465 343.835C187.155 343.925 186.815 344.055 186.445 344.225C186.175 344.375 185.985 344.45 185.875 344.45C185.725 344.45 185.6 344.395 185.5 344.285C185.41 344.175 185.365 344.035 185.365 343.865C185.365 343.715 185.405 343.585 185.485 343.475C185.575 343.355 185.715 343.24 185.905 343.13C186.255 342.94 186.665 342.79 187.135 342.68C187.605 342.56 188.06 342.5 188.5 342.5ZM188.035 348.98C188.585 348.98 189.035 348.795 189.385 348.425C189.735 348.045 189.91 347.56 189.91 346.97V346.58H189.64C188.86 346.58 188.26 346.615 187.84 346.685C187.42 346.755 187.12 346.875 186.94 347.045C186.76 347.205 186.67 347.44 186.67 347.75C186.67 348.11 186.8 348.405 187.06 348.635C187.32 348.865 187.645 348.98 188.035 348.98ZM197.397 342.5C199.147 342.5 200.022 343.485 200.022 345.455V349.355C200.022 349.585 199.952 349.765 199.812 349.895C199.682 350.015 199.497 350.075 199.257 350.075C199.027 350.075 198.842 350.01 198.702 349.88C198.572 349.75 198.507 349.575 198.507 349.355V345.53C198.507 344.91 198.382 344.455 198.132 344.165C197.892 343.875 197.512 343.73 196.992 343.73C196.382 343.73 195.892 343.92 195.522 344.3C195.152 344.68 194.967 345.19 194.967 345.83V349.355C194.967 349.575 194.897 349.75 194.757 349.88C194.627 350.01 194.447 350.075 194.217 350.075C193.987 350.075 193.802 350.01 193.662 349.88C193.522 349.75 193.452 349.575 193.452 349.355V343.25C193.452 343.04 193.522 342.87 193.662 342.74C193.812 342.6 193.997 342.53 194.217 342.53C194.437 342.53 194.612 342.595 194.742 342.725C194.872 342.855 194.937 343.025 194.937 343.235V343.85C195.177 343.41 195.512 343.075 195.942 342.845C196.372 342.615 196.857 342.5 197.397 342.5ZM209.98 342.5C210.61 342.5 211.17 342.66 211.66 342.98C212.16 343.3 212.545 343.75 212.815 344.33C213.095 344.91 213.235 345.58 213.235 346.34C213.235 347.09 213.1 347.75 212.83 348.32C212.56 348.89 212.175 349.33 211.675 349.64C211.185 349.95 210.62 350.105 209.98 350.105C209.43 350.105 208.945 349.99 208.525 349.76C208.105 349.52 207.785 349.18 207.565 348.74V352.085C207.565 352.295 207.495 352.46 207.355 352.58C207.225 352.71 207.05 352.775 206.83 352.775C206.6 352.775 206.41 352.71 206.26 352.58C206.12 352.45 206.05 352.275 206.05 352.055V343.265C206.05 343.045 206.12 342.87 206.26 342.74C206.4 342.6 206.585 342.53 206.815 342.53C207.035 342.53 207.215 342.6 207.355 342.74C207.495 342.87 207.565 343.045 207.565 343.265V343.88C207.785 343.44 208.105 343.1 208.525 342.86C208.945 342.62 209.43 342.5 209.98 342.5ZM209.62 348.905C210.28 348.905 210.79 348.685 211.15 348.245C211.51 347.795 211.69 347.16 211.69 346.34C211.69 345.51 211.505 344.865 211.135 344.405C210.775 343.945 210.27 343.715 209.62 343.715C208.96 343.715 208.45 343.94 208.09 344.39C207.74 344.84 207.565 345.48 207.565 346.31C207.565 347.14 207.74 347.78 208.09 348.23C208.45 348.68 208.96 348.905 209.62 348.905ZM220.642 348.155C220.782 348.155 220.897 348.21 220.987 348.32C221.077 348.43 221.122 348.57 221.122 348.74C221.122 349.03 220.942 349.275 220.582 349.475C220.232 349.675 219.847 349.83 219.427 349.94C219.017 350.05 218.622 350.105 218.242 350.105C217.082 350.105 216.167 349.77 215.497 349.1C214.827 348.42 214.492 347.495 214.492 346.325C214.492 345.575 214.637 344.91 214.927 344.33C215.227 343.75 215.642 343.3 216.172 342.98C216.712 342.66 217.322 342.5 218.002 342.5C218.982 342.5 219.757 342.815 220.327 343.445C220.897 344.075 221.182 344.925 221.182 345.995C221.182 346.395 221.002 346.595 220.642 346.595H216.007C216.107 348.145 216.852 348.92 218.242 348.92C218.612 348.92 218.932 348.87 219.202 348.77C219.472 348.67 219.757 348.54 220.057 348.38C220.087 348.36 220.167 348.32 220.297 348.26C220.437 348.19 220.552 348.155 220.642 348.155ZM218.032 343.61C217.452 343.61 216.987 343.795 216.637 344.165C216.287 344.535 216.077 345.055 216.007 345.725H219.877C219.847 345.045 219.672 344.525 219.352 344.165C219.042 343.795 218.602 343.61 218.032 343.61ZM229.002 348.815C229.182 348.965 229.272 349.15 229.272 349.37C229.272 349.56 229.207 349.725 229.077 349.865C228.947 350.005 228.792 350.075 228.612 350.075C228.422 350.075 228.252 350.005 228.102 349.865L224.367 346.565V349.34C224.367 349.58 224.297 349.765 224.157 349.895C224.017 350.015 223.837 350.075 223.617 350.075C223.397 350.075 223.212 350.015 223.062 349.895C222.922 349.765 222.852 349.58 222.852 349.34V340.085C222.852 339.845 222.922 339.665 223.062 339.545C223.212 339.415 223.397 339.35 223.617 339.35C223.837 339.35 224.017 339.415 224.157 339.545C224.297 339.665 224.367 339.845 224.367 340.085V345.965L227.787 342.77C227.957 342.62 228.122 342.545 228.282 342.545C228.472 342.545 228.637 342.615 228.777 342.755C228.917 342.895 228.987 343.06 228.987 343.25C228.987 343.44 228.902 343.615 228.732 343.775L226.062 346.22L229.002 348.815ZM236.214 348.155C236.354 348.155 236.469 348.21 236.559 348.32C236.649 348.43 236.694 348.57 236.694 348.74C236.694 349.03 236.514 349.275 236.154 349.475C235.804 349.675 235.419 349.83 234.999 349.94C234.589 350.05 234.194 350.105 233.814 350.105C232.654 350.105 231.739 349.77 231.069 349.1C230.399 348.42 230.064 347.495 230.064 346.325C230.064 345.575 230.209 344.91 230.499 344.33C230.799 343.75 231.214 343.3 231.744 342.98C232.284 342.66 232.894 342.5 233.574 342.5C234.554 342.5 235.329 342.815 235.899 343.445C236.469 344.075 236.754 344.925 236.754 345.995C236.754 346.395 236.574 346.595 236.214 346.595H231.579C231.679 348.145 232.424 348.92 233.814 348.92C234.184 348.92 234.504 348.87 234.774 348.77C235.044 348.67 235.329 348.54 235.629 348.38C235.659 348.36 235.739 348.32 235.869 348.26C236.009 348.19 236.124 348.155 236.214 348.155ZM233.604 343.61C233.024 343.61 232.559 343.795 232.209 344.165C231.859 344.535 231.649 345.055 231.579 345.725H235.449C235.419 345.045 235.244 344.525 234.924 344.165C234.614 343.795 234.174 343.61 233.604 343.61ZM242.263 342.53C242.743 342.5 242.983 342.705 242.983 343.145C242.983 343.365 242.928 343.53 242.818 343.64C242.708 343.75 242.518 343.815 242.248 343.835L241.798 343.88C241.168 343.94 240.698 344.16 240.388 344.54C240.088 344.92 239.938 345.38 239.938 345.92V349.355C239.938 349.595 239.868 349.775 239.728 349.895C239.588 350.015 239.408 350.075 239.188 350.075C238.968 350.075 238.783 350.015 238.633 349.895C238.493 349.775 238.423 349.595 238.423 349.355V343.25C238.423 343.02 238.493 342.845 238.633 342.725C238.783 342.595 238.968 342.53 239.188 342.53C239.388 342.53 239.553 342.595 239.683 342.725C239.823 342.845 239.893 343.015 239.893 343.235V343.955C240.093 343.515 240.383 343.18 240.763 342.95C241.143 342.72 241.573 342.585 242.053 342.545L242.263 342.53ZM242.626 352.73C242.326 352.75 242.096 352.71 241.936 352.61C241.776 352.51 241.696 352.355 241.696 352.145C241.696 351.985 241.746 351.855 241.846 351.755C241.946 351.665 242.106 351.61 242.326 351.59L242.746 351.56C243.136 351.54 243.426 351.42 243.616 351.2C243.816 350.98 243.916 350.63 243.916 350.15V343.265C243.916 343.025 243.986 342.845 244.126 342.725C244.276 342.595 244.461 342.53 244.681 342.53C244.901 342.53 245.081 342.595 245.221 342.725C245.361 342.845 245.431 343.025 245.431 343.265V350.06C245.431 350.9 245.236 351.535 244.846 351.965C244.456 352.395 243.851 352.64 243.031 352.7L242.626 352.73ZM244.681 341.06C244.391 341.06 244.161 340.98 243.991 340.82C243.821 340.66 243.736 340.45 243.736 340.19C243.736 339.93 243.821 339.725 243.991 339.575C244.161 339.415 244.391 339.335 244.681 339.335C244.961 339.335 245.186 339.415 245.356 339.575C245.536 339.725 245.626 339.93 245.626 340.19C245.626 340.45 245.541 340.66 245.371 340.82C245.201 340.98 244.971 341.06 244.681 341.06ZM250.624 342.5C251.594 342.5 252.314 342.745 252.784 343.235C253.264 343.725 253.504 344.47 253.504 345.47V349.355C253.504 349.585 253.439 349.765 253.309 349.895C253.179 350.015 252.999 350.075 252.769 350.075C252.549 350.075 252.374 350.01 252.244 349.88C252.114 349.75 252.049 349.575 252.049 349.355V348.8C251.859 349.22 251.574 349.545 251.194 349.775C250.824 349.995 250.389 350.105 249.889 350.105C249.409 350.105 248.969 350.01 248.569 349.82C248.179 349.62 247.869 349.35 247.639 349.01C247.409 348.67 247.294 348.285 247.294 347.855C247.284 347.315 247.419 346.895 247.699 346.595C247.979 346.285 248.434 346.065 249.064 345.935C249.694 345.795 250.569 345.725 251.689 345.725H252.034V345.29C252.034 344.73 251.919 344.325 251.689 344.075C251.459 343.825 251.089 343.7 250.579 343.7C250.229 343.7 249.899 343.745 249.589 343.835C249.279 343.925 248.939 344.055 248.569 344.225C248.299 344.375 248.109 344.45 247.999 344.45C247.849 344.45 247.724 344.395 247.624 344.285C247.534 344.175 247.489 344.035 247.489 343.865C247.489 343.715 247.529 343.585 247.609 343.475C247.699 343.355 247.839 343.24 248.029 343.13C248.379 342.94 248.789 342.79 249.259 342.68C249.729 342.56 250.184 342.5 250.624 342.5ZM250.159 348.98C250.709 348.98 251.159 348.795 251.509 348.425C251.859 348.045 252.034 347.56 252.034 346.97V346.58H251.764C250.984 346.58 250.384 346.615 249.964 346.685C249.544 346.755 249.244 346.875 249.064 347.045C248.884 347.205 248.794 347.44 248.794 347.75C248.794 348.11 248.924 348.405 249.184 348.635C249.444 348.865 249.769 348.98 250.159 348.98ZM258.651 342.5C259.621 342.5 260.341 342.745 260.811 343.235C261.291 343.725 261.531 344.47 261.531 345.47V349.355C261.531 349.585 261.466 349.765 261.336 349.895C261.206 350.015 261.026 350.075 260.796 350.075C260.576 350.075 260.401 350.01 260.271 349.88C260.141 349.75 260.076 349.575 260.076 349.355V348.8C259.886 349.22 259.601 349.545 259.221 349.775C258.851 349.995 258.416 350.105 257.916 350.105C257.436 350.105 256.996 350.01 256.596 349.82C256.206 349.62 255.896 349.35 255.666 349.01C255.436 348.67 255.321 348.285 255.321 347.855C255.311 347.315 255.446 346.895 255.726 346.595C256.006 346.285 256.461 346.065 257.091 345.935C257.721 345.795 258.596 345.725 259.716 345.725H260.061V345.29C260.061 344.73 259.946 344.325 259.716 344.075C259.486 343.825 259.116 343.7 258.606 343.7C258.256 343.7 257.926 343.745 257.616 343.835C257.306 343.925 256.966 344.055 256.596 344.225C256.326 344.375 256.136 344.45 256.026 344.45C255.876 344.45 255.751 344.395 255.651 344.285C255.561 344.175 255.516 344.035 255.516 343.865C255.516 343.715 255.556 343.585 255.636 343.475C255.726 343.355 255.866 343.24 256.056 343.13C256.406 342.94 256.816 342.79 257.286 342.68C257.756 342.56 258.211 342.5 258.651 342.5ZM258.186 348.98C258.736 348.98 259.186 348.795 259.536 348.425C259.886 348.045 260.061 347.56 260.061 346.97V346.58H259.791C259.011 346.58 258.411 346.615 257.991 346.685C257.571 346.755 257.271 346.875 257.091 347.045C256.911 347.205 256.821 347.44 256.821 347.75C256.821 348.11 256.951 348.405 257.211 348.635C257.471 348.865 257.796 348.98 258.186 348.98ZM267.549 342.5C269.299 342.5 270.174 343.485 270.174 345.455V349.355C270.174 349.585 270.104 349.765 269.964 349.895C269.834 350.015 269.649 350.075 269.409 350.075C269.179 350.075 268.994 350.01 268.854 349.88C268.724 349.75 268.659 349.575 268.659 349.355V345.53C268.659 344.91 268.534 344.455 268.284 344.165C268.044 343.875 267.664 343.73 267.144 343.73C266.534 343.73 266.044 343.92 265.674 344.3C265.304 344.68 265.119 345.19 265.119 345.83V349.355C265.119 349.575 265.049 349.75 264.909 349.88C264.779 350.01 264.599 350.075 264.369 350.075C264.139 350.075 263.954 350.01 263.814 349.88C263.674 349.75 263.604 349.575 263.604 349.355V343.25C263.604 343.04 263.674 342.87 263.814 342.74C263.964 342.6 264.149 342.53 264.369 342.53C264.589 342.53 264.764 342.595 264.894 342.725C265.024 342.855 265.089 343.025 265.089 343.235V343.85C265.329 343.41 265.664 343.075 266.094 342.845C266.524 342.615 267.009 342.5 267.549 342.5ZM279.276 342.5C280.246 342.5 280.966 342.745 281.436 343.235C281.916 343.725 282.156 344.47 282.156 345.47V349.355C282.156 349.585 282.091 349.765 281.961 349.895C281.831 350.015 281.651 350.075 281.421 350.075C281.201 350.075 281.026 350.01 280.896 349.88C280.766 349.75 280.701 349.575 280.701 349.355V348.8C280.511 349.22 280.226 349.545 279.846 349.775C279.476 349.995 279.041 350.105 278.541 350.105C278.061 350.105 277.621 350.01 277.221 349.82C276.831 349.62 276.521 349.35 276.291 349.01C276.061 348.67 275.946 348.285 275.946 347.855C275.936 347.315 276.071 346.895 276.351 346.595C276.631 346.285 277.086 346.065 277.716 345.935C278.346 345.795 279.221 345.725 280.341 345.725H280.686V345.29C280.686 344.73 280.571 344.325 280.341 344.075C280.111 343.825 279.741 343.7 279.231 343.7C278.881 343.7 278.551 343.745 278.241 343.835C277.931 343.925 277.591 344.055 277.221 344.225C276.951 344.375 276.761 344.45 276.651 344.45C276.501 344.45 276.376 344.395 276.276 344.285C276.186 344.175 276.141 344.035 276.141 343.865C276.141 343.715 276.181 343.585 276.261 343.475C276.351 343.355 276.491 343.24 276.681 343.13C277.031 342.94 277.441 342.79 277.911 342.68C278.381 342.56 278.836 342.5 279.276 342.5ZM278.811 348.98C279.361 348.98 279.811 348.795 280.161 348.425C280.511 348.045 280.686 347.56 280.686 346.97V346.58H280.416C279.636 346.58 279.036 346.615 278.616 346.685C278.196 346.755 277.896 346.875 277.716 347.045C277.536 347.205 277.446 347.44 277.446 347.75C277.446 348.11 277.576 348.405 277.836 348.635C278.096 348.865 278.421 348.98 278.811 348.98ZM290.379 348.815C290.559 348.965 290.649 349.15 290.649 349.37C290.649 349.56 290.584 349.725 290.454 349.865C290.324 350.005 290.169 350.075 289.989 350.075C289.799 350.075 289.629 350.005 289.479 349.865L285.744 346.565V349.34C285.744 349.58 285.674 349.765 285.534 349.895C285.394 350.015 285.214 350.075 284.994 350.075C284.774 350.075 284.589 350.015 284.439 349.895C284.299 349.765 284.229 349.58 284.229 349.34V340.085C284.229 339.845 284.299 339.665 284.439 339.545C284.589 339.415 284.774 339.35 284.994 339.35C285.214 339.35 285.394 339.415 285.534 339.545C285.674 339.665 285.744 339.845 285.744 340.085V345.965L289.164 342.77C289.334 342.62 289.499 342.545 289.659 342.545C289.849 342.545 290.014 342.615 290.154 342.755C290.294 342.895 290.364 343.06 290.364 343.25C290.364 343.44 290.279 343.615 290.109 343.775L287.439 346.22L290.379 348.815ZM292.743 350.075C292.523 350.075 292.338 350.015 292.188 349.895C292.048 349.775 291.978 349.595 291.978 349.355V343.265C291.978 343.025 292.048 342.845 292.188 342.725C292.338 342.595 292.523 342.53 292.743 342.53C292.963 342.53 293.143 342.595 293.283 342.725C293.423 342.845 293.493 343.025 293.493 343.265V349.355C293.493 349.595 293.423 349.775 293.283 349.895C293.143 350.015 292.963 350.075 292.743 350.075ZM292.743 341.06C292.453 341.06 292.223 340.98 292.053 340.82C291.883 340.66 291.798 340.45 291.798 340.19C291.798 339.93 291.883 339.725 292.053 339.575C292.223 339.415 292.453 339.335 292.743 339.335C293.023 339.335 293.248 339.415 293.418 339.575C293.598 339.725 293.688 339.93 293.688 340.19C293.688 340.45 293.603 340.66 293.433 340.82C293.263 340.98 293.033 341.06 292.743 341.06ZM299.541 342.5C300.181 342.5 300.746 342.655 301.236 342.965C301.726 343.275 302.106 343.715 302.376 344.285C302.656 344.855 302.796 345.52 302.796 346.28C302.796 347.03 302.656 347.695 302.376 348.275C302.106 348.855 301.721 349.305 301.221 349.625C300.731 349.945 300.171 350.105 299.541 350.105C298.991 350.105 298.506 349.99 298.086 349.76C297.666 349.52 297.346 349.18 297.126 348.74V349.34C297.126 349.56 297.056 349.74 296.916 349.88C296.786 350.01 296.606 350.075 296.376 350.075C296.146 350.075 295.961 350.01 295.821 349.88C295.681 349.74 295.611 349.56 295.611 349.34V340.07C295.611 339.85 295.681 339.675 295.821 339.545C295.971 339.415 296.161 339.35 296.391 339.35C296.611 339.35 296.786 339.415 296.916 339.545C297.056 339.665 297.126 339.83 297.126 340.04V343.88C297.346 343.44 297.666 343.1 298.086 342.86C298.506 342.62 298.991 342.5 299.541 342.5ZM299.181 348.905C299.831 348.905 300.336 348.675 300.696 348.215C301.066 347.755 301.251 347.11 301.251 346.28C301.251 345.46 301.071 344.83 300.711 344.39C300.351 343.94 299.841 343.715 299.181 343.715C298.521 343.715 298.011 343.94 297.651 344.39C297.301 344.84 297.126 345.48 297.126 346.31C297.126 347.14 297.301 347.78 297.651 348.23C298.011 348.68 298.521 348.905 299.181 348.905ZM307.548 342.5C308.518 342.5 309.238 342.745 309.708 343.235C310.188 343.725 310.428 344.47 310.428 345.47V349.355C310.428 349.585 310.363 349.765 310.233 349.895C310.103 350.015 309.923 350.075 309.693 350.075C309.473 350.075 309.298 350.01 309.168 349.88C309.038 349.75 308.973 349.575 308.973 349.355V348.8C308.783 349.22 308.498 349.545 308.118 349.775C307.748 349.995 307.313 350.105 306.813 350.105C306.333 350.105 305.893 350.01 305.493 349.82C305.103 349.62 304.793 349.35 304.563 349.01C304.333 348.67 304.218 348.285 304.218 347.855C304.208 347.315 304.343 346.895 304.623 346.595C304.903 346.285 305.358 346.065 305.988 345.935C306.618 345.795 307.493 345.725 308.613 345.725H308.958V345.29C308.958 344.73 308.843 344.325 308.613 344.075C308.383 343.825 308.013 343.7 307.503 343.7C307.153 343.7 306.823 343.745 306.513 343.835C306.203 343.925 305.863 344.055 305.493 344.225C305.223 344.375 305.033 344.45 304.923 344.45C304.773 344.45 304.648 344.395 304.548 344.285C304.458 344.175 304.413 344.035 304.413 343.865C304.413 343.715 304.453 343.585 304.533 343.475C304.623 343.355 304.763 343.24 304.953 343.13C305.303 342.94 305.713 342.79 306.183 342.68C306.653 342.56 307.108 342.5 307.548 342.5ZM307.083 348.98C307.633 348.98 308.083 348.795 308.433 348.425C308.783 348.045 308.958 347.56 308.958 346.97V346.58H308.688C307.908 346.58 307.308 346.615 306.888 346.685C306.468 346.755 306.168 346.875 305.988 347.045C305.808 347.205 305.718 347.44 305.718 347.75C305.718 348.11 305.848 348.405 306.108 348.635C306.368 348.865 306.693 348.98 307.083 348.98ZM316.085 348.92C316.305 348.94 316.46 349 316.55 349.1C316.65 349.19 316.7 349.32 316.7 349.49C316.7 349.69 316.62 349.845 316.46 349.955C316.31 350.055 316.085 350.095 315.785 350.075L315.38 350.045C314.57 349.985 313.965 349.74 313.565 349.31C313.165 348.87 312.965 348.225 312.965 347.375V343.85H312.065C311.625 343.85 311.405 343.655 311.405 343.265C311.405 343.085 311.46 342.945 311.57 342.845C311.69 342.735 311.855 342.68 312.065 342.68H312.965V341.135C312.965 340.905 313.03 340.725 313.16 340.595C313.3 340.465 313.485 340.4 313.715 340.4C313.945 340.4 314.13 340.465 314.27 340.595C314.41 340.725 314.48 340.905 314.48 341.135V342.68H315.965C316.175 342.68 316.335 342.735 316.445 342.845C316.565 342.945 316.625 343.085 316.625 343.265C316.625 343.455 316.565 343.6 316.445 343.7C316.335 343.8 316.175 343.85 315.965 343.85H314.48V347.48C314.48 347.95 314.575 348.295 314.765 348.515C314.965 348.735 315.265 348.86 315.665 348.89L316.085 348.92ZM203.029 362.5C203.659 362.5 204.219 362.66 204.709 362.98C205.209 363.3 205.594 363.75 205.864 364.33C206.144 364.91 206.284 365.58 206.284 366.34C206.284 367.09 206.149 367.75 205.879 368.32C205.609 368.89 205.224 369.33 204.724 369.64C204.234 369.95 203.669 370.105 203.029 370.105C202.479 370.105 201.994 369.99 201.574 369.76C201.154 369.52 200.834 369.18 200.614 368.74V372.085C200.614 372.295 200.544 372.46 200.404 372.58C200.274 372.71 200.099 372.775 199.879 372.775C199.649 372.775 199.459 372.71 199.309 372.58C199.169 372.45 199.099 372.275 199.099 372.055V363.265C199.099 363.045 199.169 362.87 199.309 362.74C199.449 362.6 199.634 362.53 199.864 362.53C200.084 362.53 200.264 362.6 200.404 362.74C200.544 362.87 200.614 363.045 200.614 363.265V363.88C200.834 363.44 201.154 363.1 201.574 362.86C201.994 362.62 202.479 362.5 203.029 362.5ZM202.669 368.905C203.329 368.905 203.839 368.685 204.199 368.245C204.559 367.795 204.739 367.16 204.739 366.34C204.739 365.51 204.554 364.865 204.184 364.405C203.824 363.945 203.319 363.715 202.669 363.715C202.009 363.715 201.499 363.94 201.139 364.39C200.789 364.84 200.614 365.48 200.614 366.31C200.614 367.14 200.789 367.78 201.139 368.23C201.499 368.68 202.009 368.905 202.669 368.905ZM211.037 362.5C212.007 362.5 212.727 362.745 213.197 363.235C213.677 363.725 213.917 364.47 213.917 365.47V369.355C213.917 369.585 213.852 369.765 213.722 369.895C213.592 370.015 213.412 370.075 213.182 370.075C212.962 370.075 212.787 370.01 212.657 369.88C212.527 369.75 212.462 369.575 212.462 369.355V368.8C212.272 369.22 211.987 369.545 211.607 369.775C211.237 369.995 210.802 370.105 210.302 370.105C209.822 370.105 209.382 370.01 208.982 369.82C208.592 369.62 208.282 369.35 208.052 369.01C207.822 368.67 207.707 368.285 207.707 367.855C207.697 367.315 207.832 366.895 208.112 366.595C208.392 366.285 208.847 366.065 209.477 365.935C210.107 365.795 210.982 365.725 212.102 365.725H212.447V365.29C212.447 364.73 212.332 364.325 212.102 364.075C211.872 363.825 211.502 363.7 210.992 363.7C210.642 363.7 210.312 363.745 210.002 363.835C209.692 363.925 209.352 364.055 208.982 364.225C208.712 364.375 208.522 364.45 208.412 364.45C208.262 364.45 208.137 364.395 208.037 364.285C207.947 364.175 207.902 364.035 207.902 363.865C207.902 363.715 207.942 363.585 208.022 363.475C208.112 363.355 208.252 363.24 208.442 363.13C208.792 362.94 209.202 362.79 209.672 362.68C210.142 362.56 210.597 362.5 211.037 362.5ZM210.572 368.98C211.122 368.98 211.572 368.795 211.922 368.425C212.272 368.045 212.447 367.56 212.447 366.97V366.58H212.177C211.397 366.58 210.797 366.615 210.377 366.685C209.957 366.755 209.657 366.875 209.477 367.045C209.297 367.205 209.207 367.44 209.207 367.75C209.207 368.11 209.337 368.405 209.597 368.635C209.857 368.865 210.182 368.98 210.572 368.98ZM219.934 362.5C221.684 362.5 222.559 363.485 222.559 365.455V369.355C222.559 369.585 222.489 369.765 222.349 369.895C222.219 370.015 222.034 370.075 221.794 370.075C221.564 370.075 221.379 370.01 221.239 369.88C221.109 369.75 221.044 369.575 221.044 369.355V365.53C221.044 364.91 220.919 364.455 220.669 364.165C220.429 363.875 220.049 363.73 219.529 363.73C218.919 363.73 218.429 363.92 218.059 364.3C217.689 364.68 217.504 365.19 217.504 365.83V369.355C217.504 369.575 217.434 369.75 217.294 369.88C217.164 370.01 216.984 370.075 216.754 370.075C216.524 370.075 216.339 370.01 216.199 369.88C216.059 369.75 215.989 369.575 215.989 369.355V363.25C215.989 363.04 216.059 362.87 216.199 362.74C216.349 362.6 216.534 362.53 216.754 362.53C216.974 362.53 217.149 362.595 217.279 362.725C217.409 362.855 217.474 363.025 217.474 363.235V363.85C217.714 363.41 218.049 363.075 218.479 362.845C218.909 362.615 219.394 362.5 219.934 362.5ZM230.617 359.35C230.847 359.35 231.032 359.415 231.172 359.545C231.312 359.675 231.382 359.85 231.382 360.07V369.34C231.382 369.57 231.312 369.75 231.172 369.88C231.042 370.01 230.862 370.075 230.632 370.075C230.402 370.075 230.217 370.01 230.077 369.88C229.947 369.75 229.882 369.57 229.882 369.34V368.74C229.662 369.18 229.342 369.52 228.922 369.76C228.502 369.99 228.017 370.105 227.467 370.105C226.837 370.105 226.272 369.945 225.772 369.625C225.282 369.305 224.897 368.855 224.617 368.275C224.347 367.695 224.212 367.03 224.212 366.28C224.212 365.52 224.347 364.855 224.617 364.285C224.897 363.715 225.282 363.275 225.772 362.965C226.262 362.655 226.827 362.5 227.467 362.5C228.017 362.5 228.497 362.62 228.907 362.86C229.327 363.09 229.647 363.42 229.867 363.85V360.04C229.867 359.83 229.932 359.665 230.062 359.545C230.202 359.415 230.387 359.35 230.617 359.35ZM227.827 368.905C228.477 368.905 228.982 368.68 229.342 368.23C229.702 367.78 229.882 367.14 229.882 366.31C229.882 365.48 229.702 364.84 229.342 364.39C228.992 363.94 228.487 363.715 227.827 363.715C227.167 363.715 226.652 363.94 226.282 364.39C225.922 364.83 225.742 365.46 225.742 366.28C225.742 367.1 225.927 367.745 226.297 368.215C226.667 368.675 227.177 368.905 227.827 368.905ZM239.224 368.155C239.364 368.155 239.479 368.21 239.569 368.32C239.659 368.43 239.704 368.57 239.704 368.74C239.704 369.03 239.524 369.275 239.164 369.475C238.814 369.675 238.429 369.83 238.009 369.94C237.599 370.05 237.204 370.105 236.824 370.105C235.664 370.105 234.749 369.77 234.079 369.1C233.409 368.42 233.074 367.495 233.074 366.325C233.074 365.575 233.219 364.91 233.509 364.33C233.809 363.75 234.224 363.3 234.754 362.98C235.294 362.66 235.904 362.5 236.584 362.5C237.564 362.5 238.339 362.815 238.909 363.445C239.479 364.075 239.764 364.925 239.764 365.995C239.764 366.395 239.584 366.595 239.224 366.595H234.589C234.689 368.145 235.434 368.92 236.824 368.92C237.194 368.92 237.514 368.87 237.784 368.77C238.054 368.67 238.339 368.54 238.639 368.38C238.669 368.36 238.749 368.32 238.879 368.26C239.019 368.19 239.134 368.155 239.224 368.155ZM236.614 363.61C236.034 363.61 235.569 363.795 235.219 364.165C234.869 364.535 234.659 365.055 234.589 365.725H238.459C238.429 365.045 238.254 364.525 237.934 364.165C237.624 363.795 237.184 363.61 236.614 363.61ZM249.833 362.5C251.473 362.5 252.293 363.485 252.293 365.455V369.355C252.293 369.585 252.223 369.765 252.083 369.895C251.943 370.015 251.758 370.075 251.528 370.075C251.308 370.075 251.128 370.015 250.988 369.895C250.848 369.765 250.778 369.585 250.778 369.355V365.47C250.778 364.86 250.668 364.42 250.448 364.15C250.228 363.87 249.883 363.73 249.413 363.73C248.863 363.73 248.428 363.92 248.108 364.3C247.788 364.67 247.628 365.18 247.628 365.83V369.355C247.628 369.585 247.558 369.765 247.418 369.895C247.278 370.015 247.093 370.075 246.863 370.075C246.643 370.075 246.463 370.015 246.323 369.895C246.183 369.765 246.113 369.585 246.113 369.355V365.47C246.113 364.86 246.003 364.42 245.783 364.15C245.563 363.87 245.218 363.73 244.748 363.73C244.198 363.73 243.758 363.92 243.428 364.3C243.108 364.67 242.948 365.18 242.948 365.83V369.355C242.948 369.585 242.878 369.765 242.738 369.895C242.598 370.015 242.418 370.075 242.198 370.075C241.978 370.075 241.793 370.015 241.643 369.895C241.503 369.765 241.433 369.585 241.433 369.355V363.25C241.433 363.03 241.508 362.855 241.658 362.725C241.808 362.595 241.988 362.53 242.198 362.53C242.408 362.53 242.578 362.595 242.708 362.725C242.848 362.845 242.918 363.015 242.918 363.235V363.79C243.138 363.37 243.443 363.05 243.833 362.83C244.223 362.61 244.673 362.5 245.183 362.5C245.743 362.5 246.203 362.615 246.563 362.845C246.933 363.075 247.208 363.43 247.388 363.91C247.608 363.48 247.933 363.14 248.363 362.89C248.793 362.63 249.283 362.5 249.833 362.5ZM255.133 370.075C254.913 370.075 254.728 370.015 254.578 369.895C254.438 369.775 254.368 369.595 254.368 369.355V363.265C254.368 363.025 254.438 362.845 254.578 362.725C254.728 362.595 254.913 362.53 255.133 362.53C255.353 362.53 255.533 362.595 255.673 362.725C255.813 362.845 255.883 363.025 255.883 363.265V369.355C255.883 369.595 255.813 369.775 255.673 369.895C255.533 370.015 255.353 370.075 255.133 370.075ZM255.133 361.06C254.843 361.06 254.613 360.98 254.443 360.82C254.273 360.66 254.188 360.45 254.188 360.19C254.188 359.93 254.273 359.725 254.443 359.575C254.613 359.415 254.843 359.335 255.133 359.335C255.413 359.335 255.638 359.415 255.808 359.575C255.988 359.725 256.078 359.93 256.078 360.19C256.078 360.45 255.993 360.66 255.823 360.82C255.653 360.98 255.423 361.06 255.133 361.06Z" fill="#272727"/>
<path d="M117.972 283.3V301H114.804V293.44H107.892V301H104.724V283.3H107.892V290.92H114.804V283.3H117.972ZM122.368 285.904C121.856 285.904 121.408 285.768 121.024 285.496C120.648 285.216 120.46 284.828 120.46 284.332C120.46 283.844 120.648 283.464 121.024 283.192C121.408 282.92 121.856 282.784 122.368 282.784C122.872 282.784 123.312 282.92 123.688 283.192C124.064 283.464 124.252 283.844 124.252 284.332C124.252 284.836 124.064 285.224 123.688 285.496C123.312 285.768 122.872 285.904 122.368 285.904ZM120.796 301V288.256H123.916V301H120.796ZM130.091 282.244V301H126.983V282.244H130.091ZM137.447 301.264C136.023 301.264 134.863 300.932 133.967 300.268C133.079 299.596 132.635 298.66 132.635 297.46C132.635 296.588 132.871 295.872 133.343 295.312C133.823 294.744 134.467 294.308 135.275 294.004C136.083 293.7 136.979 293.5 137.963 293.404C139.419 293.26 140.435 293.124 141.011 292.996C141.595 292.86 141.887 292.644 141.887 292.348V292.324C141.887 291.764 141.635 291.332 141.131 291.028C140.627 290.724 139.915 290.572 138.995 290.572C138.027 290.572 137.283 290.744 136.763 291.088C136.251 291.432 135.995 291.968 135.995 292.696H132.875C132.875 291.696 133.139 290.852 133.667 290.164C134.203 289.468 134.935 288.94 135.863 288.58C136.791 288.22 137.843 288.04 139.019 288.04C140.107 288.04 141.107 288.204 142.019 288.532C142.939 288.86 143.675 289.356 144.227 290.02C144.779 290.684 145.055 291.512 145.055 292.504V298.312C145.055 298.616 145.063 298.916 145.079 299.212C145.103 299.5 145.147 299.76 145.211 299.992C145.291 300.256 145.387 300.476 145.499 300.652C145.611 300.82 145.699 300.936 145.763 301H142.643C142.587 300.944 142.507 300.836 142.403 300.676C142.307 300.508 142.219 300.316 142.139 300.1C142.083 299.94 142.039 299.772 142.007 299.596C141.535 300.116 140.899 300.524 140.099 300.82C139.307 301.116 138.423 301.264 137.447 301.264ZM138.215 298.78C138.871 298.78 139.479 298.668 140.039 298.444C140.607 298.22 141.059 297.876 141.395 297.412C141.739 296.94 141.911 296.336 141.911 295.6V295C141.439 295.128 140.919 295.236 140.351 295.324C139.783 295.404 139.215 295.472 138.647 295.528C137.703 295.624 136.991 295.792 136.511 296.032C136.039 296.264 135.803 296.652 135.803 297.196C135.803 298.252 136.607 298.78 138.215 298.78ZM147.745 301V288.256H150.901V290.176C151.389 289.512 152.009 288.992 152.761 288.616C153.521 288.232 154.341 288.04 155.221 288.04C156.757 288.04 157.925 288.484 158.725 289.372C159.525 290.26 159.925 291.448 159.925 292.936V301H156.757V293.836C156.757 292.972 156.565 292.252 156.181 291.676C155.797 291.092 155.081 290.8 154.033 290.8C153.113 290.8 152.361 291.12 151.777 291.76C151.193 292.4 150.901 293.212 150.901 294.196V301H147.745ZM171.284 299.74C172.412 299.844 173.324 300.116 174.02 300.556C174.724 300.988 175.076 301.716 175.076 302.74C175.076 303.9 174.496 304.812 173.336 305.476C172.176 306.148 170.5 306.484 168.308 306.484C166.172 306.484 164.532 306.176 163.388 305.56C162.252 304.944 161.684 304.116 161.684 303.076C161.684 302.78 161.72 302.512 161.792 302.272C161.864 302.032 161.952 301.832 162.056 301.672L164.948 302.092C164.9 302.156 164.852 302.256 164.804 302.392C164.756 302.536 164.732 302.708 164.732 302.908C164.732 303.404 165.064 303.76 165.728 303.976C166.4 304.2 167.292 304.312 168.404 304.312C169.62 304.312 170.544 304.188 171.176 303.94C171.808 303.692 172.124 303.356 172.124 302.932C172.124 302.516 171.936 302.248 171.56 302.128C171.184 302.016 170.736 301.936 170.216 301.888L165.38 301.444C164.516 301.356 163.804 301.1 163.244 300.676C162.692 300.252 162.416 299.692 162.416 298.996C162.416 298.484 162.576 298.02 162.896 297.604C163.224 297.18 163.548 296.868 163.868 296.668C162.804 295.772 162.272 294.592 162.272 293.128C162.272 292.128 162.528 291.248 163.04 290.488C163.552 289.72 164.252 289.12 165.14 288.688C166.028 288.256 167.036 288.04 168.164 288.04C169.132 288.04 170 288.212 170.768 288.556C171.544 288.9 172.132 289.332 172.532 289.852L172.712 288.256H175.544L174.392 293.2C174.176 294.128 173.828 294.96 173.348 295.696C172.876 296.432 172.236 297.012 171.428 297.436C170.62 297.86 169.612 298.072 168.404 298.072C167.356 298.072 166.412 297.92 165.572 297.616C165.46 297.712 165.364 297.824 165.284 297.952C165.204 298.08 165.164 298.216 165.164 298.36C165.164 298.608 165.276 298.816 165.5 298.984C165.724 299.144 166.156 299.256 166.796 299.32L171.284 299.74ZM168.392 295.636C169.312 295.636 170.044 295.416 170.588 294.976C171.132 294.536 171.404 293.904 171.404 293.08C171.404 292.28 171.128 291.652 170.576 291.196C170.032 290.74 169.308 290.512 168.404 290.512C167.524 290.512 166.796 290.744 166.22 291.208C165.652 291.672 165.368 292.304 165.368 293.104C165.368 293.912 165.64 294.536 166.184 294.976C166.736 295.416 167.472 295.636 168.392 295.636ZM177.429 301V288.256H180.585V290.176C181.073 289.512 181.693 288.992 182.445 288.616C183.205 288.232 184.025 288.04 184.905 288.04C186.441 288.04 187.609 288.484 188.409 289.372C189.209 290.26 189.609 291.448 189.609 292.936V301H186.441V293.836C186.441 292.972 186.249 292.252 185.865 291.676C185.481 291.092 184.765 290.8 183.717 290.8C182.797 290.8 182.045 291.12 181.461 291.76C180.877 292.4 180.585 293.212 180.585 294.196V301H177.429ZM192.806 306.472C192.43 306.472 192.094 306.452 191.798 306.412C191.502 306.38 191.318 306.348 191.246 306.316V303.856C191.342 303.904 191.518 303.94 191.774 303.964C192.03 303.996 192.294 304.012 192.566 304.012C193.214 304.012 193.746 303.82 194.162 303.436C194.578 303.052 194.89 302.556 195.098 301.948L195.374 301.144L190.982 288.256H194.282L197.102 298.204L199.85 288.256H203.09L198.626 301.78C198.314 302.716 197.938 303.536 197.498 304.24C197.058 304.944 196.466 305.492 195.722 305.884C194.978 306.276 194.006 306.472 192.806 306.472ZM208.669 301.264C207.245 301.264 206.085 300.932 205.189 300.268C204.301 299.596 203.857 298.66 203.857 297.46C203.857 296.588 204.093 295.872 204.565 295.312C205.045 294.744 205.689 294.308 206.497 294.004C207.305 293.7 208.201 293.5 209.185 293.404C210.641 293.26 211.657 293.124 212.233 292.996C212.817 292.86 213.109 292.644 213.109 292.348V292.324C213.109 291.764 212.857 291.332 212.353 291.028C211.849 290.724 211.137 290.572 210.217 290.572C209.249 290.572 208.505 290.744 207.985 291.088C207.473 291.432 207.217 291.968 207.217 292.696H204.097C204.097 291.696 204.361 290.852 204.889 290.164C205.425 289.468 206.157 288.94 207.085 288.58C208.013 288.22 209.065 288.04 210.241 288.04C211.329 288.04 212.329 288.204 213.241 288.532C214.161 288.86 214.897 289.356 215.449 290.02C216.001 290.684 216.277 291.512 216.277 292.504V298.312C216.277 298.616 216.285 298.916 216.301 299.212C216.325 299.5 216.369 299.76 216.433 299.992C216.513 300.256 216.609 300.476 216.721 300.652C216.833 300.82 216.921 300.936 216.985 301H213.865C213.809 300.944 213.729 300.836 213.625 300.676C213.529 300.508 213.441 300.316 213.361 300.1C213.305 299.94 213.261 299.772 213.229 299.596C212.757 300.116 212.121 300.524 211.321 300.82C210.529 301.116 209.645 301.264 208.669 301.264ZM209.437 298.78C210.093 298.78 210.701 298.668 211.261 298.444C211.829 298.22 212.281 297.876 212.617 297.412C212.961 296.94 213.133 296.336 213.133 295.6V295C212.661 295.128 212.141 295.236 211.573 295.324C211.005 295.404 210.437 295.472 209.869 295.528C208.925 295.624 208.213 295.792 207.733 296.032C207.261 296.264 207.025 296.652 207.025 297.196C207.025 298.252 207.829 298.78 209.437 298.78ZM227.859 301H224.691V283.3H230.379C231.731 283.3 232.879 283.56 233.823 284.08C234.767 284.592 235.483 285.292 235.971 286.18C236.467 287.06 236.715 288.044 236.715 289.132C236.715 290.228 236.463 291.232 235.959 292.144C235.463 293.056 234.743 293.788 233.799 294.34C232.855 294.884 231.715 295.156 230.379 295.156H227.859V301ZM230.031 285.82H227.859V292.648H230.031C231.135 292.648 231.991 292.336 232.599 291.712C233.215 291.08 233.523 290.22 233.523 289.132C233.523 288.044 233.223 287.22 232.623 286.66C232.023 286.1 231.159 285.82 230.031 285.82ZM251.142 296.98C251.07 297.692 250.774 298.376 250.254 299.032C249.742 299.688 249.01 300.228 248.058 300.652C247.114 301.068 245.966 301.276 244.614 301.276C243.246 301.276 242.05 300.996 241.026 300.436C240.002 299.876 239.202 299.1 238.626 298.108C238.058 297.108 237.774 295.96 237.774 294.664C237.774 293.344 238.062 292.188 238.638 291.196C239.222 290.204 240.026 289.432 241.05 288.88C242.082 288.32 243.27 288.04 244.614 288.04C245.99 288.04 247.178 288.32 248.178 288.88C249.186 289.44 249.962 290.22 250.506 291.22C251.05 292.22 251.322 293.376 251.322 294.688C251.322 295.104 251.306 295.424 251.274 295.648H240.966C241.126 296.632 241.526 297.4 242.166 297.952C242.806 298.496 243.658 298.768 244.722 298.768C245.842 298.768 246.654 298.576 247.158 298.192C247.67 297.8 247.95 297.396 247.998 296.98H251.142ZM244.65 290.512C243.69 290.512 242.89 290.764 242.25 291.268C241.61 291.772 241.194 292.484 241.002 293.404H248.058C247.994 292.636 247.682 291.964 247.122 291.388C246.562 290.804 245.738 290.512 244.65 290.512ZM253.684 301V282.244H256.684V292.288L261.268 288.256H265.192L259.924 292.936L265.132 301H261.796L257.92 294.724L256.684 295.828V301H253.684ZM278.858 296.98C278.786 297.692 278.49 298.376 277.97 299.032C277.458 299.688 276.726 300.228 275.774 300.652C274.83 301.068 273.682 301.276 272.33 301.276C270.962 301.276 269.766 300.996 268.742 300.436C267.718 299.876 266.918 299.1 266.342 298.108C265.774 297.108 265.49 295.96 265.49 294.664C265.49 293.344 265.778 292.188 266.354 291.196C266.938 290.204 267.742 289.432 268.766 288.88C269.798 288.32 270.986 288.04 272.33 288.04C273.706 288.04 274.894 288.32 275.894 288.88C276.902 289.44 277.678 290.22 278.222 291.22C278.766 292.22 279.038 293.376 279.038 294.688C279.038 295.104 279.022 295.424 278.99 295.648H268.682C268.842 296.632 269.242 297.4 269.882 297.952C270.522 298.496 271.374 298.768 272.438 298.768C273.558 298.768 274.37 298.576 274.874 298.192C275.386 297.8 275.666 297.396 275.714 296.98H278.858ZM272.366 290.512C271.406 290.512 270.606 290.764 269.966 291.268C269.326 291.772 268.91 292.484 268.718 293.404H275.774C275.71 292.636 275.398 291.964 274.838 291.388C274.278 290.804 273.454 290.512 272.366 290.512ZM281.4 301V288.256H284.556V289.96C284.916 289.384 285.396 288.92 285.996 288.568C286.604 288.216 287.336 288.04 288.192 288.04C288.704 288.04 289.112 288.08 289.416 288.16C289.72 288.232 289.908 288.292 289.98 288.34L289.404 291.232C289.332 291.176 289.172 291.108 288.924 291.028C288.676 290.94 288.348 290.896 287.94 290.896C287.076 290.896 286.396 291.088 285.9 291.472C285.412 291.856 285.064 292.336 284.856 292.912C284.656 293.488 284.556 294.072 284.556 294.664V301H281.4ZM293.422 285.904C292.91 285.904 292.462 285.768 292.078 285.496C291.702 285.216 291.514 284.828 291.514 284.332C291.514 283.844 291.702 283.464 292.078 283.192C292.462 282.92 292.91 282.784 293.422 282.784C293.926 282.784 294.366 282.92 294.742 283.192C295.126 283.464 295.318 283.844 295.318 284.332C295.318 284.828 295.126 285.216 294.742 285.496C294.366 285.768 293.926 285.904 293.422 285.904ZM289.798 306.436C289.334 306.436 288.942 306.412 288.622 306.364V304.012C288.75 304.044 288.922 304.072 289.138 304.096C289.346 304.12 289.566 304.132 289.798 304.132C290.39 304.132 290.826 304.02 291.106 303.796C291.394 303.58 291.582 303.312 291.67 302.992C291.758 302.672 291.802 302.352 291.802 302.032V288.256H294.958V302.128C294.958 302.648 294.898 303.164 294.778 303.676C294.658 304.188 294.422 304.652 294.07 305.068C293.718 305.484 293.198 305.816 292.51 306.064C291.83 306.312 290.926 306.436 289.798 306.436ZM302.233 301.264C300.809 301.264 299.649 300.932 298.753 300.268C297.865 299.596 297.421 298.66 297.421 297.46C297.421 296.588 297.657 295.872 298.129 295.312C298.609 294.744 299.253 294.308 300.061 294.004C300.869 293.7 301.765 293.5 302.749 293.404C304.205 293.26 305.221 293.124 305.797 292.996C306.381 292.86 306.673 292.644 306.673 292.348V292.324C306.673 291.764 306.421 291.332 305.917 291.028C305.413 290.724 304.701 290.572 303.781 290.572C302.813 290.572 302.069 290.744 301.549 291.088C301.037 291.432 300.781 291.968 300.781 292.696H297.661C297.661 291.696 297.925 290.852 298.453 290.164C298.989 289.468 299.721 288.94 300.649 288.58C301.577 288.22 302.629 288.04 303.805 288.04C304.893 288.04 305.893 288.204 306.805 288.532C307.725 288.86 308.461 289.356 309.013 290.02C309.565 290.684 309.841 291.512 309.841 292.504V298.312C309.841 298.616 309.849 298.916 309.865 299.212C309.889 299.5 309.933 299.76 309.997 299.992C310.077 300.256 310.173 300.476 310.285 300.652C310.397 300.82 310.485 300.936 310.549 301H307.429C307.373 300.944 307.293 300.836 307.189 300.676C307.093 300.508 307.005 300.316 306.925 300.1C306.869 299.94 306.825 299.772 306.793 299.596C306.321 300.116 305.685 300.524 304.885 300.82C304.093 301.116 303.209 301.264 302.233 301.264ZM303.001 298.78C303.657 298.78 304.265 298.668 304.825 298.444C305.393 298.22 305.845 297.876 306.181 297.412C306.525 296.94 306.697 296.336 306.697 295.6V295C306.225 295.128 305.705 295.236 305.137 295.324C304.569 295.404 304.001 295.472 303.433 295.528C302.489 295.624 301.777 295.792 301.297 296.032C300.825 296.264 300.589 296.652 300.589 297.196C300.589 298.252 301.393 298.78 303.001 298.78ZM316.899 301.264C315.475 301.264 314.315 300.932 313.419 300.268C312.531 299.596 312.087 298.66 312.087 297.46C312.087 296.588 312.323 295.872 312.795 295.312C313.275 294.744 313.919 294.308 314.727 294.004C315.535 293.7 316.431 293.5 317.415 293.404C318.871 293.26 319.887 293.124 320.463 292.996C321.047 292.86 321.339 292.644 321.339 292.348V292.324C321.339 291.764 321.087 291.332 320.583 291.028C320.079 290.724 319.367 290.572 318.447 290.572C317.479 290.572 316.735 290.744 316.215 291.088C315.703 291.432 315.447 291.968 315.447 292.696H312.327C312.327 291.696 312.591 290.852 313.119 290.164C313.655 289.468 314.387 288.94 315.315 288.58C316.243 288.22 317.295 288.04 318.471 288.04C319.559 288.04 320.559 288.204 321.471 288.532C322.391 288.86 323.127 289.356 323.679 290.02C324.231 290.684 324.507 291.512 324.507 292.504V298.312C324.507 298.616 324.515 298.916 324.531 299.212C324.555 299.5 324.599 299.76 324.663 299.992C324.743 300.256 324.839 300.476 324.951 300.652C325.063 300.82 325.151 300.936 325.215 301H322.095C322.039 300.944 321.959 300.836 321.855 300.676C321.759 300.508 321.671 300.316 321.591 300.1C321.535 299.94 321.491 299.772 321.459 299.596C320.987 300.116 320.351 300.524 319.551 300.82C318.759 301.116 317.875 301.264 316.899 301.264ZM317.667 298.78C318.323 298.78 318.931 298.668 319.491 298.444C320.059 298.22 320.511 297.876 320.847 297.412C321.191 296.94 321.363 296.336 321.363 295.6V295C320.891 295.128 320.371 295.236 319.803 295.324C319.235 295.404 318.667 295.472 318.099 295.528C317.155 295.624 316.443 295.792 315.963 296.032C315.491 296.264 315.255 296.652 315.255 297.196C315.255 298.252 316.059 298.78 317.667 298.78ZM327.197 301V288.256H330.353V290.176C330.841 289.512 331.461 288.992 332.213 288.616C332.973 288.232 333.793 288.04 334.673 288.04C336.209 288.04 337.377 288.484 338.177 289.372C338.977 290.26 339.377 291.448 339.377 292.936V301H336.209V293.836C336.209 292.972 336.017 292.252 335.633 291.676C335.249 291.092 334.533 290.8 333.485 290.8C332.565 290.8 331.813 291.12 331.229 291.76C330.645 292.4 330.353 293.212 330.353 294.196V301H327.197Z" fill="#00B3BC"/>
<ellipse cx="226.5" cy="249" rx="120.5" ry="18" fill="#EEEEEE"/>
<path fill-rule="evenodd" clip-rule="evenodd" d="M290.646 233.49C295.377 232.536 299.248 235.893 300.061 239.678C301.094 244.487 297.773 248.554 294.113 249.419C283.059 252.034 279.855 235.667 290.646 233.49ZM290.326 180.564C294.785 179.449 298.252 182.134 299.516 185.016C300.765 187.861 300.272 194.622 300.272 198.218C300.272 206.752 302.353 218.182 294.498 220.434C290.016 221.717 286.098 219.235 284.689 216.08C283.472 213.362 283.932 206.028 283.932 202.6C283.932 192.29 281.767 182.703 290.331 180.568L290.326 180.564ZM262.725 181.1L253.386 196.352C250.205 201.275 247.166 206.155 244.131 211.176C241.096 216.202 237.864 221.379 234.725 226.301C231.686 231.074 228.092 235.86 226.438 242.019C224.808 252.353 229.788 261.921 239.536 265.189C246.203 267.422 266.921 266.548 275.382 266.548H331.406C339.097 266.548 342.46 266.637 347.614 263.933C357.165 258.922 362.389 246.025 353.553 232.559L342.611 215.036C341.295 213.029 340.365 211.411 339.101 209.347L315.738 171.847C314.907 170.535 314.554 170.187 313.901 168.73C312.76 167.738 310.129 163.045 309.067 161.447C303.735 153.426 293.117 150.064 283.82 154.098C273.55 158.551 268.744 174.231 262.725 181.095V181.1Z" fill="#FCCF00"/>
<path fill-rule="evenodd" clip-rule="evenodd" d="M191.485 115.526C185.72 115.065 178.457 115.423 172.524 115.427C165.557 115.437 162.038 114.92 159.853 109.466C159.256 110.674 159.256 164.052 159.538 169.76C160.168 182.431 172.275 181.232 178.65 181.232C188.878 181.232 199.105 181.232 209.328 181.232C209.342 178.961 209.046 176.21 209.929 174.325C210.559 172.99 212.372 171.344 213.951 170.949C216.079 170.413 225.818 170.615 228.595 170.667C237.667 170.963 238.432 172.111 238.493 181.232L262.721 181.105C268.739 174.236 273.545 158.56 283.815 154.108C293.113 150.074 303.726 153.436 309.063 161.457C310.129 163.055 312.755 167.752 313.897 168.74C313.897 153.017 313.897 137.29 313.897 121.568C313.897 113.472 316.316 99.1362 300.775 99.2162C296.613 99.2397 292.45 99.2256 288.288 99.2256C288.48 110.495 288.49 115.46 276.251 115.427C266.771 115.404 257.286 115.427 247.8 115.427C229.036 115.427 210.192 115.442 191.48 115.526H191.485Z" fill="#B7F4F1"/>
<path fill-rule="evenodd" clip-rule="evenodd" d="M134 171.568C135.297 173.998 135.066 175.066 137.021 177.224C142.156 182.908 149.494 181.215 159.407 181.215C160.224 190.595 158.402 229.088 160.257 234.128C162.108 239.154 165.256 239.826 169.837 242.017H226.434C228.092 235.853 231.686 231.072 234.721 226.3C237.855 221.377 241.087 216.2 244.127 211.174C247.161 206.153 250.206 201.273 253.382 196.35L262.721 181.098L238.494 181.225C238.451 190.308 237.277 191.564 228.181 191.841C225.273 191.841 215.473 192.081 213.481 191.39C209.446 189.989 209.356 186.133 209.324 181.225C199.096 181.225 188.868 181.225 178.645 181.225C172.27 181.225 160.163 182.424 159.534 169.753C159.252 164.05 159.252 110.672 159.849 109.459L159.708 99.214C151.157 99.214 143.429 98.0338 138.106 102.011C135.32 104.094 134.319 107.099 134 110.752V122.431V123.197V123.963V124.73V125.496V126.263V127.029V127.795V128.562V129.328V130.094V130.861V131.627V132.394V133.16V133.926V134.693V135.459V136.225V136.992V137.758V138.524V139.291V140.057V140.824V141.59V142.356V143.123V143.889V144.655V145.422V146.188V146.955V147.721V148.487V149.254V150.02V150.786V151.553V152.319V153.085V153.852V154.618V155.385V156.151V156.917V157.684V158.45V159.216V159.983V160.749V161.516V162.282V163.048V163.815V164.581V165.347V166.114V166.88V167.647V168.413V169.179V169.946V170.712V171.478L134 171.568Z" fill="#9DDBD8"/>
<path fill-rule="evenodd" clip-rule="evenodd" d="M191.486 115.526C210.198 115.442 229.042 115.427 247.806 115.427C257.287 115.427 266.772 115.404 276.257 115.427C288.491 115.456 288.482 110.495 288.294 99.2256L277.573 99.2867L263.568 99.2397L185.008 99.2256C185.186 108.671 183.828 111.107 190.57 114.953C190.824 115.098 191.12 115.437 191.181 115.329C191.233 115.239 191.392 115.456 191.491 115.526H191.486Z" fill="#9DDBD8"/>
<path fill-rule="evenodd" clip-rule="evenodd" d="M169.837 242.019C165.256 239.833 162.108 239.156 160.257 234.13C158.402 229.089 160.224 190.597 159.407 181.217C149.494 181.217 142.156 182.905 137.021 177.225C135.066 175.063 135.297 174 134 171.569V172.397V173.224V174.052V174.879V175.707V176.534V177.362V178.189V179.017V179.844V180.672V181.499V182.327V183.154V183.982V184.809V185.637V186.464V187.292V188.119V188.947V189.774V190.602V191.429V192.257V193.084V193.912V194.739V195.567V196.394V197.222V198.049V198.877V199.704V200.532V201.359V202.186V203.014V203.841V204.669V205.496V206.324V207.151V207.979V208.806V209.634V210.461V211.289V212.116V212.944V213.771V214.599V215.426V216.254V217.081V217.909V218.736V219.564V220.391V221.219V222.046V222.874V223.701V224.529V227.914C134.094 233.598 135.09 239.922 143.57 241.671C148.658 242.719 163.264 242.052 169.837 242.052V242.019Z" fill="#B7F4F1"/>
<path fill-rule="evenodd" clip-rule="evenodd" d="M186.383 72.9461C187.91 72.0998 188.596 71.1313 190.714 70.5671C192.678 70.0452 195.286 70.3132 197.465 70.3179H251.742C264.478 70.2897 263.557 75.9223 263.557 85.65C263.557 90.1824 263.557 94.7148 263.557 99.2425L277.562 99.2895C277.562 83.6706 280.193 72.7299 270.67 63.1996C269.378 61.9067 268.537 60.9663 266.884 59.979C257.586 54.4357 247.73 56.3023 234.669 56.3023C225.043 56.3023 215.417 56.3023 205.786 56.3023C200.341 58.5403 198.194 57.7692 193.477 61.9396C190.592 64.4879 187.698 67.8119 186.383 72.9461Z" fill="#272727"/>
<path fill-rule="evenodd" clip-rule="evenodd" d="M170.331 99.3058L183.899 99.3387C183.899 94.4819 183.899 89.6298 183.899 84.773C183.899 82.5491 183.711 80.0431 184.138 78.0026C184.754 75.0358 185.51 74.8525 186.384 72.9483C187.699 67.8141 190.593 64.49 193.478 61.9417C198.199 57.7714 200.342 58.5424 205.787 56.3045C199.477 56.3045 192.411 55.9001 187.38 57.1602C177.519 59.6285 170.27 69.0036 170.317 79.5071C170.35 86.1082 170.326 92.7094 170.326 99.3058H170.331Z" fill="#272727"/>
<path fill-rule="evenodd" clip-rule="evenodd" d="M290.331 180.57C281.766 182.705 283.932 192.291 283.932 202.602C283.932 206.03 283.476 213.364 284.688 216.082C286.098 219.237 290.02 221.724 294.498 220.436C302.353 218.183 300.272 206.754 300.272 198.22C300.272 194.623 300.765 187.863 299.515 185.018C298.251 182.141 294.789 179.456 290.326 180.566L290.331 180.57Z" fill="#272727"/>
<path fill-rule="evenodd" clip-rule="evenodd" d="M159.848 109.47C162.033 114.924 165.551 115.442 172.519 115.432C178.452 115.427 185.715 115.065 191.48 115.531C191.381 115.46 191.221 115.239 191.17 115.333C191.109 115.442 190.813 115.103 190.559 114.957C183.817 111.111 185.175 108.676 184.997 99.2303L183.897 99.3384L170.329 99.3055L159.707 99.2256L159.848 109.47Z" fill="#B7F4F1"/>
<path fill-rule="evenodd" clip-rule="evenodd" d="M209.331 181.232C209.359 186.141 209.448 190.001 213.489 191.397C215.485 192.089 225.285 191.849 228.189 191.849C228.104 191.759 227.968 191.52 227.921 191.604C227.874 191.684 227.714 191.416 227.653 191.364C223.557 187.923 223.895 188.238 223.89 181.138C223.885 174.025 223.81 173.578 228.598 170.668C225.821 170.616 216.082 170.414 213.954 170.95C212.371 171.35 210.562 172.995 209.932 174.326C209.044 176.206 209.345 178.962 209.331 181.232Z" fill="#00B3BC"/>
<path fill-rule="evenodd" clip-rule="evenodd" d="M228.182 191.846C237.278 191.569 238.452 190.313 238.494 181.23C238.433 172.113 237.663 170.961 228.596 170.665C223.808 173.575 223.883 174.022 223.888 181.136C223.893 188.235 223.55 187.92 227.651 191.362C227.712 191.413 227.872 191.681 227.919 191.601C227.966 191.522 228.102 191.761 228.187 191.846H228.182Z" fill="#00B3BC"/>
<path fill-rule="evenodd" clip-rule="evenodd" d="M290.645 233.489C279.854 235.666 283.063 252.033 294.113 249.418C297.772 248.553 301.094 244.482 300.06 239.677C299.248 235.896 295.376 232.535 290.645 233.489Z" fill="#272727"/>
</svg>
