<svg width="172" height="213" viewBox="0 0 172 213" fill="none" xmlns="http://www.w3.org/2000/svg">
<circle cx="86" cy="89" r="86" fill="#EBFFFE"/>
<path fill-rule="evenodd" clip-rule="evenodd" d="M75.3021 54.6987C76.5656 53.5061 79.3909 51.3232 80.9731 50.6059C81.6657 49.6551 84.9025 47.4385 85.9052 46.8365C86.8122 47.3457 90.2693 49.7704 90.8372 50.5975C92.318 51.2416 95.3781 53.5623 96.5024 54.6875L119.885 72.2432H96.4242H91.1647H80.6428H75.3833L51.9343 72.2291L72.5289 56.7072C73.4533 56.0433 74.4038 55.1573 75.2992 54.6959L75.3021 54.6987ZM28.0391 76.7129L28.042 130.986H54.3453V128.423V82.457H83.2769H88.5364H106.958H117.465V130.983C133.371 130.103 130.636 114.93 130.636 105.115C130.636 100.224 130.978 68.2572 130.386 66.2516C130.05 65.4245 126.141 62.6538 124.985 61.7565L91.3646 35.6635C89.5187 34.2373 87.7047 32.6677 85.9052 31.5312C81.0282 34.8168 62.1751 49.8998 56.8895 53.9702L34.9735 70.9942C33.8144 71.9056 28.5462 75.6721 28.0391 76.7129V76.7129Z" fill="#E1E5F6"/>
<path fill-rule="evenodd" clip-rule="evenodd" d="M28.0402 76.711C28.5473 75.6702 33.8184 71.9037 34.9747 70.9923L56.8907 53.9683C62.1763 49.8979 81.0294 34.8149 85.9063 31.5293C87.7059 32.6658 89.5199 34.2382 91.3658 35.6616L124.986 61.7545C126.142 62.6519 130.051 65.4254 130.388 66.2496C131.851 66.8263 135.569 70.0077 137.194 71.2764C138.325 72.1568 143.265 75.6983 143.77 76.711C144.764 76.9698 146.795 78.7982 147.757 79.5408C148.823 80.365 150.71 82.1231 151.988 82.4551C152.283 81.3805 158.67 73.5183 159.551 72.2412L147.818 63.206C146.45 62.1258 145.149 61.026 143.77 60.1061C142.173 59.3185 122.39 44.1145 121.688 43.1074C127.516 43.0793 130.903 43.5153 133.549 39.6897C135.606 36.7164 134.812 30.4717 134.812 26.286L133.905 26.1538L130.625 26.1875L127.33 26.2297L117.466 26.2916V40.0104L109.718 34.1285C108.321 33.0624 107.22 32.2494 105.855 31.1749C104.423 30.0469 103.206 29.2255 101.786 28.1031C100.404 27.0117 99.3724 26.2072 97.9235 25.1495C94.3708 22.556 89.2678 18.2606 85.9034 16.075C84.9733 16.6797 84.5212 17.0342 83.6461 17.7149C82.8115 18.3647 82.0726 18.8345 81.2235 19.5124C74.0602 25.2339 65.3668 31.3493 58.2092 37.0652L44.4012 47.5969C42.8161 48.8628 41.373 49.8501 39.7995 51.1075C38.2144 52.3733 36.7713 53.3607 35.1978 54.6181C33.6127 55.8839 32.1696 56.8712 30.5961 58.1286L12.2617 72.244C13.1426 73.5211 19.5323 81.403 19.825 82.4579C21.0681 82.1344 22.8097 80.5226 23.8732 79.6871C24.6382 79.0851 25.1048 78.7307 25.8843 78.1287C26.7043 77.493 27.0115 76.9839 28.0402 76.7138V76.711Z" fill="#00B3BC"/>
<path fill-rule="evenodd" clip-rule="evenodd" d="M7 146.286V153.946H164.811V138.626H156.92C156.92 147.372 153.208 146.286 145.086 146.286H7.0029H7Z" fill="#FFCF64"/>
<path fill-rule="evenodd" clip-rule="evenodd" d="M106.946 102.885L107.016 104.851C107.129 109.071 107.546 121.633 105.918 124.545C103.003 129.752 95.8508 128.424 88.6758 128.424V118.171H83.1266L83.1063 128.424H54.3398V130.986V138.626H117.46V130.986V82.4602H106.952L106.949 102.888L106.946 102.885Z" fill="#00B3BC"/>
<path fill-rule="evenodd" clip-rule="evenodd" d="M7 146.286H145.083C153.205 146.286 156.917 147.372 156.917 138.626H143.767H117.464H54.3442H28.0409H7V146.286H7Z" fill="#FFCF64"/>
<path fill-rule="evenodd" clip-rule="evenodd" d="M54.3398 128.427H83.1063L83.1266 118.174C72.4858 118.66 65.2819 112.702 64.8675 102.891C69.2374 102.849 72.6162 102.595 76.395 104.14C80.7735 105.929 82.1935 108.789 83.3294 109.507L83.2743 82.4602H54.3427V128.427H54.3398Z" fill="#9DDBD8"/>
<path fill-rule="evenodd" clip-rule="evenodd" d="M117.457 130.986V138.626H143.76L143.763 76.7133C143.259 75.7007 138.318 72.162 137.188 71.2787C135.562 70.0101 131.842 66.8286 130.381 66.252C130.975 68.2548 130.63 100.221 130.63 105.116C130.63 114.93 133.366 130.103 117.46 130.984L117.457 130.986Z" fill="#C8CDED"/>
<path fill-rule="evenodd" clip-rule="evenodd" d="M83.1349 118.17H88.6842C94.5059 118.435 97.3747 117.45 101.104 114.764C102.608 113.681 103.599 112.485 104.758 110.648C105.938 108.778 106.369 105.869 107.024 104.851L106.955 102.884C102.657 102.856 99.1163 102.603 95.41 104.133C93.9437 104.738 92.6455 105.655 91.5588 106.454C90.0664 107.551 89.6289 108.752 88.4813 109.515C88.1626 110.541 87.499 111.337 87.0064 112.567C86.5688 113.667 86.3225 114.963 85.9023 115.785C85.4502 114.924 85.175 113.472 84.7026 112.339C84.2245 111.191 83.6246 110.522 83.3291 109.503C82.1931 108.786 80.7732 105.925 76.3946 104.136C72.6159 102.589 69.2371 102.845 64.8672 102.887C65.2845 112.702 72.4855 118.657 83.1262 118.17H83.1349Z" fill="#B7F4F1"/>
<path fill-rule="evenodd" clip-rule="evenodd" d="M88.4844 109.518C89.629 108.756 90.0666 107.555 91.5618 106.457C92.6485 105.659 93.9467 104.742 95.413 104.137C99.1164 102.607 102.658 102.86 106.958 102.888L106.961 82.4602H88.5394L88.4873 109.518H88.4844Z" fill="#9DDBD8"/>
<path fill-rule="evenodd" clip-rule="evenodd" d="M127.324 26.2319L130.618 26.1897L130.63 17.9928C130.517 17.8297 127.312 0.760742 109.569 0.760742C109.569 4.42601 109.352 7.66933 110.09 10.7861C110.783 13.7115 112.099 16.08 113.695 18.1391C115.078 19.9197 117.355 22.0181 119.323 23.208C120.699 24.0378 121.612 24.3951 123.052 25.0139C124.252 25.5287 126.417 25.779 127.324 26.2347V26.2319Z" fill="#B7F4F1"/>
<path fill-rule="evenodd" clip-rule="evenodd" d="M130.637 17.9886L130.625 26.1855L133.905 26.1518C136.499 25.2235 137.319 25.8986 141.697 23.3163C146.091 20.7256 149.835 16.0505 151.078 11.0378C151.846 7.93512 151.66 4.69461 151.66 0.753662C143.546 0.753662 137.328 4.60178 133.305 11.0209C131.161 14.4415 131.129 17.1869 130.637 17.9858V17.9886Z" fill="#9DDBD8"/>
<path fill-rule="evenodd" clip-rule="evenodd" d="M143.773 60.1097V26.2896H134.816C134.816 30.4752 135.61 36.72 133.552 39.6933C130.906 43.5189 127.522 43.0801 121.691 43.111C122.393 44.1181 142.176 59.3221 143.773 60.1097V60.1097Z" fill="#00B3BC"/>
<path fill-rule="evenodd" clip-rule="evenodd" d="M80.9758 50.6036C80.1325 52.7414 80.6483 68.6739 80.6483 72.2407H91.1702C91.1702 68.6402 91.6947 52.7752 90.8428 50.5951C90.2719 49.7681 86.8177 47.3434 85.9107 46.8342C84.9081 47.4334 81.6713 49.6528 80.9787 50.6036H80.9758Z" fill="#00B3BC"/>
<path fill-rule="evenodd" clip-rule="evenodd" d="M88.6836 118.171V128.425C95.8585 128.425 103.01 129.752 105.925 124.546C107.554 121.637 107.14 109.071 107.024 104.852C106.369 105.87 105.937 108.779 104.758 110.65C103.599 112.486 102.608 113.682 101.104 114.765C97.3712 117.451 94.5053 118.436 88.6836 118.171Z" fill="#9DDBD8"/>
<path fill-rule="evenodd" clip-rule="evenodd" d="M75.3787 72.2439L75.2946 54.6968C74.4021 55.1581 73.4487 56.0442 72.5243 56.708L51.9297 72.2298L75.3787 72.2439V72.2439Z" fill="#00B3BC"/>
<path fill-rule="evenodd" clip-rule="evenodd" d="M96.418 72.2445L119.879 72.2417L96.4962 54.686L96.418 72.2445Z" fill="#00B3BC"/>
<path fill-rule="evenodd" clip-rule="evenodd" d="M28.0391 138.628H54.3424V130.985H28.0391V138.628Z" fill="#C8CDED"/>
<path fill-rule="evenodd" clip-rule="evenodd" d="M83.3363 109.507C83.6348 110.525 84.2317 111.195 84.7099 112.342C85.1822 113.476 85.4575 114.925 85.9096 115.788C86.3326 114.97 86.5761 113.67 87.0136 112.57C87.5034 111.341 88.1699 110.545 88.4886 109.518L88.5408 82.4602H83.2812L83.3363 109.507Z" fill="#00B3BC"/>
<path fill-rule="evenodd" clip-rule="evenodd" d="M75.3047 54.697L75.3887 72.2443H80.6482C80.6482 68.6774 80.1324 52.742 80.9756 50.6069C79.3935 51.3214 76.5681 53.5043 75.3047 54.6998V54.697Z" fill="#9DDBD8"/>
<path fill-rule="evenodd" clip-rule="evenodd" d="M91.1634 72.2454H96.4229L96.5012 54.6897C95.3768 53.5673 92.3167 51.2438 90.8359 50.5996C91.6879 52.7797 91.1634 68.6448 91.1634 72.2454V72.2454Z" fill="#9DDBD8"/>
<circle cx="88.5" cy="190.5" r="22.5" fill="#00B3BC"/>
<path d="M94.378 181.22H86.244L85.502 187.1C85.5393 186.96 85.698 186.769 85.978 186.526C86.2673 186.283 86.6827 186.064 87.224 185.868C87.7747 185.663 88.4653 185.56 89.296 185.56C91.1067 185.56 92.4833 186.167 93.426 187.38C94.3687 188.593 94.84 190.185 94.84 192.154C94.84 194.478 94.266 196.251 93.118 197.474C91.97 198.697 90.3087 199.308 88.134 199.308C86.5473 199.308 85.2687 199.005 84.298 198.398C83.3273 197.791 82.6227 197.003 82.184 196.032C81.7453 195.061 81.526 194.03 81.526 192.938V192.882H85.18V192.938C85.236 195.225 86.2393 196.368 88.19 196.368C89.1327 196.368 89.856 196.027 90.36 195.346C90.8733 194.665 91.13 193.624 91.13 192.224C91.13 190.983 90.906 190.026 90.458 189.354C90.0193 188.682 89.3333 188.346 88.4 188.346C87.5413 188.346 86.846 188.579 86.314 189.046C85.782 189.503 85.432 189.956 85.264 190.404L81.75 189.508L83.234 178.35H94.378V181.22Z" fill="white"/>
</svg>
