<svg width="175" height="175" viewBox="0 0 175 175" fill="none" xmlns="http://www.w3.org/2000/svg">
<path d="M87.5 0C39.2525 0 0 39.2525 0 87.5C0 135.747 39.2525 175 87.5 175C135.747 175 175 135.747 175 87.5C175 39.2525 135.747 0 87.5 0ZM52.5 61.25C71.7588 61.25 78.75 76.9475 78.75 87.5H61.25C61.145 83.5625 59.5525 78.75 52.5 78.75C45.4475 78.75 43.855 83.5625 43.75 87.605L26.25 87.5C26.25 76.9475 33.2412 61.25 52.5 61.25ZM87.5 140C52.5 140 43.75 105 43.75 105H131.25C131.25 105 122.5 140 87.5 140ZM131.25 87.5C131.145 83.5625 129.553 78.75 122.5 78.75C115.448 78.75 113.855 83.5625 113.75 87.605L96.25 87.5C96.25 76.9475 103.241 61.25 122.5 61.25C141.759 61.25 148.75 76.9475 148.75 87.5H131.25Z" fill="#00B3BC"/>
</svg>
