<svg width="175" height="175" viewBox="0 0 175 175" fill="none" xmlns="http://www.w3.org/2000/svg">
<path d="M87.5 0C76.0093 0 64.6312 2.26325 54.0152 6.66054C43.3992 11.0578 33.7533 17.503 25.6282 25.6282C9.21872 42.0376 0 64.2936 0 87.5C0 110.706 9.21872 132.962 25.6282 149.372C33.7533 157.497 43.3992 163.942 54.0152 168.339C64.6312 172.737 76.0093 175 87.5 175C110.706 175 132.962 165.781 149.372 149.372C165.781 132.962 175 110.706 175 87.5C175 76.0093 172.737 64.6312 168.339 54.0152C163.942 43.3992 157.497 33.7533 149.372 25.6282C141.247 17.503 131.601 11.0578 120.985 6.66054C110.369 2.26325 98.9907 0 87.5 0ZM43.75 65.625C43.75 58.625 49.875 52.5 56.875 52.5C63.875 52.5 70 58.625 70 65.625C70 72.625 63.875 78.75 56.875 78.75C49.875 78.75 43.75 72.625 43.75 65.625ZM87.5 133.262C72.1875 133.262 58.7125 126.875 50.8375 117.425L63.2625 105C67.2 111.3 76.5625 115.762 87.5 115.762C98.4375 115.762 107.8 111.3 111.738 105L124.163 117.425C116.288 126.875 102.812 133.262 87.5 133.262ZM131.25 70H96.25V61.25H131.25V70Z" fill="#00B3BC"/>
</svg>
