<svg width="175" height="175" viewBox="0 0 175 175" fill="none" xmlns="http://www.w3.org/2000/svg">
<path d="M87.5 0C39.2525 0 0 39.2525 0 87.5C0 135.747 39.2525 175 87.5 175C135.747 175 175 135.747 175 87.5C175 39.2525 135.747 0 87.5 0ZM38.8062 56.5863C41.1589 54.1667 44.3581 52.7537 47.7311 52.6444C51.1041 52.535 54.3881 53.7379 56.8925 56C59.3581 53.7043 62.6166 52.4522 65.985 52.506C69.3534 52.5599 72.5703 53.9155 74.9613 56.2887C80.185 61.4687 80.2463 69.5975 75.1188 74.8212L57.1812 93.0475L38.9637 75.11C37.7235 73.9119 36.7343 72.4788 36.0538 70.8942C35.3734 69.3097 35.0154 67.6055 35.0008 65.8811C34.9861 64.1568 35.3151 62.4467 35.9685 60.8509C36.6218 59.255 37.5865 57.8053 38.8062 56.5863ZM87.5 140C52.5 140 43.75 105 43.75 105H131.25C131.25 105 122.5 140 87.5 140ZM136.369 74.8212L118.431 93.0475L100.214 75.11C98.974 73.9119 97.985 72.479 97.3045 70.8949C96.624 69.3107 96.2656 67.607 96.2501 65.8829C96.2346 64.1589 96.5624 62.449 97.2144 60.8529C97.8663 59.2568 98.8294 57.8064 100.048 56.5863C102.401 54.1641 105.602 52.7495 108.977 52.6401C112.352 52.5308 115.638 53.7353 118.143 56C120.608 53.7043 123.867 52.4522 127.235 52.506C130.603 52.5599 133.82 53.9155 136.211 56.2887C141.435 61.46 141.505 69.5975 136.369 74.8212Z" fill="#00B3BC"/>
</svg>
