<svg width="172" height="210" viewBox="0 0 172 210" fill="none" xmlns="http://www.w3.org/2000/svg">
<circle cx="86" cy="86" r="86" fill="#EBFFFE"/>
<path fill-rule="evenodd" clip-rule="evenodd" d="M83.8084 41.1822L89.5538 41.1907L153.871 41.2009L153.838 117.539L148.496 117.515C127.161 117.301 105.673 117.842 84.3712 117.551C73.7678 117.406 63.0728 117.522 52.4584 117.522L24.4211 117.524C20.091 117.563 21.4164 117.624 20.8628 117.024L20.8316 41.1873L83.8103 41.1839L83.8084 41.1822ZM11 120.854V40.6379V36.6744C11.1063 35.2779 11.473 34.1262 12.5637 33.2332C14.5546 31.6053 17.3155 32.0578 20.8426 32.0578H154.283C158.732 34.446 158.351 33.9868 158.351 41.1907V117.575C158.351 124.222 159.007 123.653 154.397 126.708L100.777 126.748L70.9502 126.679C58.5814 127.126 45.2483 126.706 32.7732 126.706C29.1324 126.706 16.2999 127.237 14.0835 126.335C11.6728 125.355 11.0422 123.787 11 120.853V120.854Z" fill="#00B3BC"/>
<path fill-rule="evenodd" clip-rule="evenodd" d="M136.286 108.809C125.965 108.501 112.533 109.167 103.728 108.775C100.905 108.649 101.035 107.467 101.053 105.125C101.073 102.359 100.226 95.3574 102.184 93.9421C104.269 93.158 131.221 93.9115 136.427 93.607C144.759 93.7823 143.679 92.5881 143.679 100.966C143.679 109.609 144.842 108.712 136.286 108.809V108.809ZM103.818 80.7641C103.543 77.4862 108.639 78.4048 111.508 78.4048H132.387C135.179 78.4048 140.455 77.5032 140.825 80.2385C141.289 83.6542 135.831 82.6812 132.982 82.6812H112.104C109.521 82.6812 104.047 83.4926 103.818 80.7641V80.7641ZM103.851 71.9085C103.27 68.4893 108.492 69.3637 111.209 69.3654H132.088C134.649 69.3654 140.391 68.4026 140.825 71.1056C141.373 74.5162 135.892 73.6231 133.281 73.6231H112.403C109.745 73.6231 104.293 74.5111 103.851 71.9102V71.9085ZM136.266 60.3005C138.035 60.2903 139.897 60.0743 140.574 61.299C141.412 62.8146 140.453 64.0972 139.276 64.4391C137.883 64.844 113.24 64.5548 108.216 64.5837C106.393 64.5939 104.82 64.7589 104.102 63.5393C103.218 62.0407 104.194 61.0421 105.347 60.5267C106.404 60.0538 131.531 60.3243 136.264 60.2988L136.266 60.3005ZM100.182 49.1263C101.191 48.7759 107.349 48.8592 108.832 48.9579C112.148 49.1773 112.078 52.3549 109.988 53.054C109.105 53.35 102.782 53.2922 101.38 53.2428C97.9807 53.1221 97.8176 49.9496 100.182 49.1263V49.1263ZM148.49 117.512L153.832 117.536L153.865 41.1977L89.5479 41.1875L89.5039 117.02L144.614 117.019C145.137 117.013 145.934 116.966 146.411 116.983C146.578 116.99 147.17 117.032 147.316 117.065L148.198 117.376C148.29 117.412 148.402 117.452 148.49 117.514V117.512Z" fill="#E2F5FE"/>
<path fill-rule="evenodd" clip-rule="evenodd" d="M38.8286 103.458C38.0238 100.191 42.5739 100.764 44.9992 100.766H63.7898C66.3526 100.766 70.9687 99.9983 71.515 102.427C72.2391 105.658 67.7862 105.045 65.282 105.044H46.4915C44.0551 105.044 39.4152 105.84 38.8286 103.458ZM50.9462 56.7304L56.0334 56.71L59.5202 56.7509L69.7533 56.7151C76.9157 56.591 75.7314 55.6809 75.7314 70.8015C75.7314 91.8265 77.5903 90.4418 69.6689 90.5864C62.8163 90.2956 40.506 90.879 36.9275 90.5065C33.5324 90.1527 34.625 85.2741 34.625 82.4265C34.625 75.6002 34.6378 68.7722 34.625 61.9459C34.6122 55.1025 33.9815 57.0043 50.9462 56.7321V56.7304ZM20.8593 117.021H83.8068V41.1812L20.8281 41.1846L20.8593 117.021V117.021Z" fill="#B7F4F1"/>
<path fill-rule="evenodd" clip-rule="evenodd" d="M39.9634 82.7042C39.4996 79.6083 43.2559 80.156 45.9031 80.1577C48.6144 80.1594 52.5192 79.4671 52.9316 81.9728C53.4138 84.9139 49.5512 84.441 47.0965 84.4393C44.5501 84.4359 40.3264 85.1265 39.9634 82.7042V82.7042ZM64.8494 80.8348C64.1363 79.8618 62.6789 79.1167 62.2701 78.0195C61.7 76.4903 63.0052 75.1073 64.646 75.2587C66.1364 75.3965 70.4976 79.3668 70.5361 80.7854C70.5764 82.2619 66.063 86.1352 64.9301 86.336C62.7321 86.7238 60.0171 84.5056 64.8494 80.8365V80.8348ZM69.6782 90.5869C71.7002 88.2326 70.9889 86.2492 70.9889 82.427V64.1611C70.9889 60.6637 71.6342 59.1277 69.7606 56.7173L59.5276 56.753C59.6193 58.6633 59.8814 65.9319 59.3223 67.206C58.2517 67.8745 56.7301 67.6295 55.357 67.638C53.9381 67.5411 52.1837 67.7809 51.2249 67.2485C50.5063 66.1394 50.7538 58.5936 50.9536 56.7343C33.9889 57.0065 34.6196 55.1047 34.6324 61.948C34.6452 68.7743 34.6324 75.6023 34.6324 82.4286C34.6324 85.2762 33.5398 90.1548 36.9349 90.5086C40.5134 90.8812 62.8237 90.2994 69.6763 90.5886L69.6782 90.5869Z" fill="#FFD064"/>
<path fill-rule="evenodd" clip-rule="evenodd" d="M120.176 154.934C120.176 152.654 120.491 150.057 119.408 148.164C118.266 146.165 117.052 146.075 115.072 144.971L110.022 144.967L61.4064 144.969C57.179 144.979 52.9809 144.409 50.2971 146.01C48.3832 147.152 46.0202 151.435 47.6866 154.658C49.3456 155.397 112.288 154.936 120.174 154.936L120.176 154.934Z" fill="#B7F4F1"/>
<path fill-rule="evenodd" clip-rule="evenodd" d="M136.289 108.811C138.197 106.295 137.526 105.108 137.526 101.522C137.526 97.814 138.114 96.2592 136.43 93.609C131.223 93.9135 104.273 93.1599 102.187 93.9441C100.229 95.3594 101.076 102.361 101.056 105.127C101.039 107.469 100.907 108.651 103.731 108.777C112.535 109.169 125.966 108.502 136.289 108.811Z" fill="#B7F4F1"/>
<path fill-rule="evenodd" clip-rule="evenodd" d="M70.3464 131.387C69.1273 136.434 64.1648 141.151 61.3984 144.968L110.014 144.966C108.998 143.196 106.501 140.318 105.068 138.489C103.313 136.249 102.191 133.973 101.212 131.132C100.342 131.62 100.637 131.457 99.2893 131.491L70.3427 131.387H70.3464Z" fill="#9DDBD8" fill-opacity="0.74"/>
<path fill-rule="evenodd" clip-rule="evenodd" d="M154.391 126.708C161.24 126.708 163.214 126.208 163.704 121.867V107.336V36.724C163.456 31.8011 159.828 32.0597 154.277 32.0597C158.727 34.448 158.345 33.9887 158.345 41.1927V117.577C158.345 124.224 159.002 123.655 154.391 126.71V126.708Z" fill="#00B3BC"/>
<path fill-rule="evenodd" clip-rule="evenodd" d="M20.8534 117.02C21.4089 117.62 20.0816 117.559 24.4117 117.52L52.4491 117.518C63.0635 117.518 73.7585 117.402 84.3619 117.547C105.664 117.838 127.149 117.298 148.486 117.511C148.398 117.452 148.287 117.409 148.195 117.373L147.313 117.062C147.166 117.03 146.574 116.987 146.407 116.98C145.931 116.963 145.133 117.011 144.611 117.016L89.5004 117.018L89.5444 41.185L83.7991 41.1765V117.016H20.8516L20.8534 117.02Z" fill="#DCDAEC"/>
<path fill-rule="evenodd" clip-rule="evenodd" d="M69.6797 90.5862C77.601 90.4417 75.7421 91.8263 75.7421 70.8013C75.7421 55.6807 76.9264 56.5907 69.764 56.7149C71.6376 59.1253 70.9923 60.6614 70.9923 64.1587V82.4246C70.9923 86.2469 71.7017 88.2303 69.6815 90.5845L69.6797 90.5862Z" fill="#FFC250"/>
<path fill-rule="evenodd" clip-rule="evenodd" d="M105.353 60.5314C104.2 61.0468 103.223 62.0436 104.109 63.5439C104.827 64.7618 106.4 64.5985 108.222 64.5883C113.247 64.5594 137.89 64.8486 139.283 64.4437C140.46 64.1018 141.42 62.8193 140.581 61.3036C139.904 60.0789 138.04 60.2949 136.273 60.3051C131.539 60.3307 106.411 60.0602 105.355 60.5331L105.353 60.5314Z" fill="#00B3BC"/>
<path fill-rule="evenodd" clip-rule="evenodd" d="M103.823 80.7644C104.052 83.4929 109.526 82.6815 112.109 82.6815H132.988C135.837 82.6815 141.294 83.6545 140.83 80.2388C140.46 77.5034 135.182 78.405 132.392 78.405H111.514C108.646 78.405 103.548 77.4864 103.823 80.7644Z" fill="#00B3BC"/>
<path fill-rule="evenodd" clip-rule="evenodd" d="M103.857 71.9116C104.299 74.5125 109.751 73.6246 112.409 73.6246H133.288C135.898 73.6246 141.38 74.5159 140.832 71.107C140.397 68.404 134.655 69.3668 132.094 69.3668H111.216C108.499 69.3668 103.276 68.4925 103.857 71.9099V71.9116Z" fill="#00B3BC"/>
<path fill-rule="evenodd" clip-rule="evenodd" d="M70.3516 131.385L99.2983 131.489C100.644 131.455 100.349 131.618 101.221 131.13L100.776 126.743L70.9492 126.673L70.3534 131.384L70.3516 131.385Z" fill="#00B3BC"/>
<path fill-rule="evenodd" clip-rule="evenodd" d="M38.8285 103.455C39.4152 105.836 44.0532 105.04 46.4914 105.04H65.282C67.7861 105.042 72.239 105.652 71.5149 102.424C70.9704 99.9945 66.3544 100.762 63.7897 100.762H44.9992C42.5738 100.76 38.0238 100.187 38.8285 103.455V103.455Z" fill="#00B3BC"/>
<path fill-rule="evenodd" clip-rule="evenodd" d="M136.285 108.809C144.841 108.712 143.679 109.608 143.679 100.965C143.679 92.5861 144.758 93.7819 136.426 93.6067C138.109 96.2552 137.523 97.8099 137.523 101.52C137.523 105.106 138.194 106.293 136.285 108.809Z" fill="#9DDBD8" fill-opacity="0.74"/>
<path fill-rule="evenodd" clip-rule="evenodd" d="M120.176 154.934C122.227 154.934 125.513 155.331 127.025 154.657C128.492 151.823 126.669 147.712 125.155 146.427C122.744 144.383 119.426 144.97 115.074 144.97C117.054 146.074 118.266 146.164 119.41 148.163C120.493 150.056 120.178 152.653 120.178 154.933L120.176 154.934Z" fill="#DCDAEC"/>
<path fill-rule="evenodd" clip-rule="evenodd" d="M64.8403 80.8372C60.008 84.5064 62.723 86.7246 64.921 86.3367C66.0557 86.136 70.5673 82.2627 70.527 80.7862C70.4885 79.3675 66.1272 75.3972 64.6368 75.2594C62.9961 75.108 61.6909 76.491 62.261 78.0202C62.6698 79.1174 64.1272 79.8625 64.8403 80.8355V80.8372Z" fill="#B7F4F1"/>
<path fill-rule="evenodd" clip-rule="evenodd" d="M55.3544 67.6382C56.4727 64.6733 54.8264 59.4239 56.0382 56.7141L50.951 56.7345C50.7512 58.5938 50.5037 66.1396 51.2223 67.2487C52.1811 67.7811 53.9337 67.5413 55.3544 67.6382V67.6382Z" fill="#00B3BC"/>
<path fill-rule="evenodd" clip-rule="evenodd" d="M39.961 82.7006C40.324 85.1229 44.5459 84.4323 47.0941 84.4357C49.5488 84.4374 53.4114 84.912 52.9293 81.9692C52.5186 79.4652 48.612 80.1575 45.9007 80.1541C43.2535 80.1524 39.4972 79.6047 39.961 82.7006Z" fill="#00B3BC"/>
<path fill-rule="evenodd" clip-rule="evenodd" d="M100.195 49.1316C97.8298 49.9549 97.9929 53.1274 101.392 53.2482C102.794 53.2976 109.119 53.3554 110 53.0594C112.092 52.3603 112.16 49.1809 108.844 48.9632C107.359 48.8645 101.201 48.7812 100.195 49.1316V49.1316Z" fill="#00B3BC"/>
<path fill-rule="evenodd" clip-rule="evenodd" d="M55.3516 67.639C56.7247 67.6322 58.2463 67.8772 59.3169 67.207C59.876 65.9329 59.6139 58.6643 59.5222 56.754L56.0354 56.7131C54.8236 59.4246 56.4698 64.6741 55.3516 67.6373V67.639Z" fill="#00B3BC"/>
<circle cx="92.5" cy="187.5" r="22.5" fill="#00B3BC"/>
<path d="M95.312 184.122C96.5347 184.169 97.468 184.649 98.112 185.564C98.756 186.479 99.078 187.594 99.078 188.91C99.078 190.077 98.84 191.145 98.364 192.116C97.888 193.087 97.1553 193.861 96.166 194.44C95.186 195.019 93.926 195.308 92.386 195.308C90.65 195.308 89.2827 195.009 88.284 194.412C87.2853 193.815 86.576 193.003 86.156 191.976C85.736 190.94 85.526 189.778 85.526 188.49V188.434H89.222V188.49C89.222 190.011 89.5067 191.038 90.076 191.57C90.6453 192.102 91.4293 192.368 92.428 192.368C93.3147 192.368 94.024 192.088 94.556 191.528C95.0973 190.959 95.368 190.053 95.368 188.812C95.368 187.851 95.1393 187.071 94.682 186.474C94.234 185.877 93.3707 185.578 92.092 185.578H91.364V182.89H92.092C92.932 182.89 93.59 182.745 94.066 182.456C94.542 182.167 94.878 181.793 95.074 181.336C95.27 180.869 95.368 180.375 95.368 179.852C95.368 178.863 95.102 178.144 94.57 177.696C94.038 177.248 93.3427 177.024 92.484 177.024C91.5227 177.024 90.7387 177.285 90.132 177.808C89.5253 178.331 89.222 179.273 89.222 180.636H85.526C85.526 179.413 85.764 178.307 86.24 177.318C86.716 176.319 87.458 175.526 88.466 174.938C89.4833 174.35 90.7993 174.056 92.414 174.056C93.9633 174.056 95.228 174.317 96.208 174.84C97.188 175.363 97.9113 176.053 98.378 176.912C98.8447 177.761 99.078 178.676 99.078 179.656C99.078 180.44 98.9333 181.168 98.644 181.84C98.3547 182.503 97.93 183.039 97.37 183.45C96.8193 183.861 96.1333 184.085 95.312 184.122Z" fill="white"/>
</svg>
