<svg width="173" height="217" viewBox="0 0 173 217" fill="none" xmlns="http://www.w3.org/2000/svg">
<circle cx="86" cy="93" r="86" fill="#EBFFFE"/>
<path fill-rule="evenodd" clip-rule="evenodd" d="M74.0422 85.4684C79.1511 84.2055 83.1533 87.5112 84.1594 91.2533C85.5547 96.4364 82.0467 100.327 78.1669 101.319C67.4068 104.065 62.696 88.274 74.0422 85.4684ZM47.6712 71.4533H42.02V81.7305L42.0419 88.6766L42.0156 123.526C46.7308 123.526 51.4504 123.526 56.1656 123.526C59.573 123.526 67.7524 123.916 70.5999 123.339C72.3539 117.275 76.8897 112.765 84.4393 112.579C92.833 112.367 101.494 112.587 109.918 112.571L109.922 80.5905L109.914 71.4576H104.262H56.2268C56.2268 68.0629 55.8813 62.3713 56.3449 59.2394C56.6555 57.1162 57.9677 55.9592 58.1033 54.6496C58.3001 52.7553 57.0754 51.4923 55.1246 51.5813C49.2765 51.8441 50.44 66.4101 50.44 71.4576H47.6712V71.4533Z" fill="#E3E3E2"/>
<path fill-rule="evenodd" clip-rule="evenodd" d="M101.977 126.572C108.647 125.055 114.093 129.721 115.296 134.786C116.857 141.371 112.116 146.716 106.762 147.923C92.6383 151.119 86.6721 130.048 101.977 126.572ZM70.5976 123.339L70.3089 134.502C70.3045 138.613 70.2958 142.723 70.3045 146.834C70.3133 152.416 71.2318 152.81 73.1345 156.734C73.7644 156.984 75.7327 159.141 77.2155 160.019C79.2582 161.231 80.7322 161.116 82.5649 161.909C92.8614 161.909 103.158 161.909 113.454 161.909C127.127 161.909 129.612 163.613 136.75 154.713C137.105 153.157 137.739 152.153 138.032 150.369C138.312 148.648 138.22 146.792 138.207 145.012L138.216 140.634L138.207 130.976C138.242 125.174 138.5 123.419 135.985 118.779C134.681 117.126 133.544 115.96 131.808 114.731C125.833 111.553 117.491 112.553 109.924 112.57C101.496 112.591 92.8351 112.367 84.4457 112.578C76.8918 112.769 72.3603 117.274 70.6063 123.339H70.5976Z" fill="#F5CC2C"/>
<path fill-rule="evenodd" clip-rule="evenodd" d="M26.0741 105.025C28.0511 104.423 29.9976 104.606 30.5531 106.564C31.2879 109.153 29.3808 109.361 28.3311 110.276C28.8822 110.471 29.0222 109.768 28.5716 111.145C27.5962 114.158 23.5896 113.684 22.3955 118.934C20.9827 125.156 27.1982 127.487 25.453 130.301C26.6296 131.394 28.4798 131.216 29.6433 132.081C30.9642 133.064 30.9905 134.996 29.897 136.115C27.7668 138.294 22.9466 135.386 21.1708 134.573C22.1724 135.908 20.7203 134.017 16.5343 138.26C11.6442 143.218 13.3238 152.054 19.8936 155.237C24.9762 157.695 29.8664 156.186 32.9675 153.152C35.2114 150.957 34.8921 150.893 36.1999 147.719C37.1491 145.413 38.6013 144.24 42.0218 144.282L42.0261 151.287C41.9737 153.635 41.79 155.127 42.5904 156.89C43.2553 158.352 44.0776 159.496 45.381 160.352C48.7447 162.56 51.6315 161.912 56.8585 161.912C65.4228 161.912 73.9872 161.912 82.5515 161.912C80.7188 161.12 79.2404 161.234 77.2021 160.022C75.7193 159.145 73.7553 156.987 73.1211 156.737C68.7471 155.483 52.3707 157.437 49.3483 156.174C46.632 155.038 47.6424 149.206 47.6424 146.151C47.6424 142.269 47.6424 138.383 47.6424 134.501L42.0043 134.496V123.533L42.0305 88.6835C40.7008 87.98 40.3028 87.0434 38.4526 86.2128C28.0774 81.5721 18.1658 92.735 23.7908 101.787C25.6279 104.746 25.9735 102.97 26.0741 105.034V105.025Z" fill="#B7F4F1"/>
<path fill-rule="evenodd" clip-rule="evenodd" d="M47.6683 71.454H50.4371C50.4371 66.4107 49.278 51.8404 55.1217 51.5777C57.0725 51.4887 58.2972 52.7516 58.1004 54.646C57.9648 55.9556 56.657 57.1125 56.342 59.2358C55.8828 62.3677 56.2239 68.0593 56.2239 71.454H104.26C104.26 63.1432 105.685 54.9554 99.3256 48.8145C93.4906 43.1779 85.8492 44.034 75.9639 44.034C66.1267 44.034 58.3934 43.1864 52.6066 48.823C46.7891 54.4892 47.664 61.8803 47.664 71.454H47.6683Z" fill="#7FCED0"/>
<path fill-rule="evenodd" clip-rule="evenodd" d="M109.918 80.5872L109.914 112.567C117.481 112.55 125.822 111.55 131.797 114.729C133.822 114.123 135.108 113.822 136.246 112.389C137.107 111.309 137.116 109.037 137.96 107.91L138.603 106.354C138.096 105.858 138.196 106.456 138.148 104.35C138.039 99.4167 136.408 98.9378 135.003 96.4755C134.732 96.0009 134.426 95.3016 134.365 94.6701C134.251 93.5216 134.452 93.386 134.724 93.0216C133.573 92.0807 131.609 91.1992 132.502 88.9107C133.372 86.69 135.498 87.0502 137.23 87.9317C137.536 85.5372 138.367 84.4692 138.161 81.4094C137.444 70.6788 124.221 64.9617 115.6 71.4755C110.806 75.0948 111.253 77.396 109.914 80.583L109.918 80.5872Z" fill="#B7F4F1"/>
<path fill-rule="evenodd" clip-rule="evenodd" d="M135.98 118.775C138.496 123.415 138.237 125.17 138.202 130.972C139.624 132.129 140.162 134.027 139.86 135.765C139.747 136.422 138.452 140.139 138.211 140.63L138.202 145.008C139.795 147.839 139.598 151.157 144.934 154.361C152.619 158.981 163.222 155.531 165.921 146.597C167.194 142.385 166.083 136.447 163.305 134.218C162.316 135.002 160.628 138.075 158.043 135.846C155.747 133.866 158.231 131.544 159.15 130.027C158.393 129.467 158.201 129.294 157.907 128.107C157.282 125.585 158.603 124.102 157.597 120.525C155.646 113.604 149.304 111.841 142.345 113.138C137.826 113.977 137.205 114.681 135.985 118.771L135.98 118.775Z" fill="#B7F4F1"/>
<path fill-rule="evenodd" clip-rule="evenodd" d="M42.0175 71.4529H47.6687C47.6687 61.8793 46.7896 54.4882 52.6114 48.822C58.3982 43.1855 66.1315 44.0331 75.9687 44.0331C85.854 44.0331 93.4954 43.177 99.3304 48.8136C105.69 54.9544 104.264 63.1422 104.264 71.4529H109.916V68.711C109.916 64.5874 110.318 59.6162 109.544 56.0521C108.748 52.3989 107.304 49.6188 105.327 47.1141C101.675 42.4862 95.7524 38.5576 87.2843 38.5576H64.6531C55.7826 38.5576 49.7333 42.8422 46.0022 47.8982C41.029 54.6408 42.0175 60.5147 42.0175 71.4529V71.4529Z" fill="#57C3C1"/>
<path fill-rule="evenodd" clip-rule="evenodd" d="M73.1279 156.733C71.2252 152.809 70.3067 152.415 70.2979 146.833C70.2892 142.723 70.2979 138.612 70.3023 134.501L47.6448 134.497C47.6448 138.379 47.6448 142.265 47.6448 146.147C47.6448 149.202 46.6344 155.034 49.3507 156.17C52.3731 157.437 68.7495 155.479 73.1236 156.733H73.1279Z" fill="#7FCED0"/>
<path fill-rule="evenodd" clip-rule="evenodd" d="M42.0367 151.284L42.0323 144.278C38.6118 144.236 37.1596 145.41 36.2105 147.715C34.9026 150.894 35.2263 150.957 32.9781 153.149C29.8725 156.183 24.9824 157.696 19.9041 155.234C13.3299 152.051 11.6503 143.215 16.5449 138.256C20.7308 134.014 22.183 135.904 21.1813 134.569C19.9653 133.031 18.1939 132.768 19.9041 129.856C16.0112 130.462 12.5164 133.675 10.465 136.811C7.97177 140.625 7.32878 145.957 8.7241 150.296C11.5803 159.175 21.0895 163.879 29.7719 161.341C32.5276 160.535 34.9201 159.247 36.9891 157.37C40.274 154.382 39.8759 151.822 42.0367 151.275V151.284Z" fill="#B7F4F1"/>
<path fill-rule="evenodd" clip-rule="evenodd" d="M163.293 134.221C166.071 136.446 167.182 142.388 165.909 146.6C163.215 155.534 152.612 158.984 144.923 154.364C139.586 151.16 139.783 147.842 138.191 145.011C138.204 146.791 138.296 148.647 138.016 150.368C137.727 152.152 137.089 153.157 136.734 154.712C139.302 158.018 144.936 161.649 150.565 161.912C154.838 162.111 156.894 161.594 159.816 160.586C162.025 159.823 164.684 158.005 166.224 156.517C167.195 155.581 167.886 154.822 168.66 153.737C172.829 147.893 173.406 139.921 169.911 133.577C168.897 131.733 166.701 129.038 165.065 127.987C165.725 130.674 164.033 132.153 163.293 134.225V134.221Z" fill="#B7F4F1"/>
<path fill-rule="evenodd" clip-rule="evenodd" d="M47.6498 134.499L70.3073 134.503L70.5959 123.34C67.7485 123.921 59.569 123.527 56.1617 123.527C51.4465 123.527 46.7269 123.527 42.0117 123.527V134.491L47.6498 134.495V134.499Z" fill="#C9C9C8"/>
<path fill-rule="evenodd" clip-rule="evenodd" d="M103.073 131.912C110.207 130.327 112.705 141.007 105.505 142.554C98.2658 144.109 95.7595 133.536 103.073 131.912ZM101.971 126.577C86.6659 130.052 92.6321 151.123 106.756 147.928C112.11 146.716 116.851 141.376 115.29 134.79C114.091 129.73 108.645 125.064 101.971 126.577Z" fill="#F6E368"/>
<path fill-rule="evenodd" clip-rule="evenodd" d="M109.914 68.7101V71.4521L109.923 80.585C111.257 77.3938 110.815 75.0968 115.609 71.4775C124.23 64.9637 137.453 70.6807 138.17 81.4114C138.376 84.4712 137.545 85.5392 137.239 87.9337C139.084 89.3831 140.882 89.4382 140.646 92.693C140.978 92.3497 140.681 92.7311 141.162 92.1378C141.306 91.9598 141.486 91.7225 141.613 91.536C141.906 91.091 142.111 90.6587 142.312 90.1629C150.361 70.4392 127.235 56.0426 112.486 66.7479C111.559 67.4217 110.732 68.1803 109.914 68.7101V68.7101Z" fill="#B7F4F1"/>
<path fill-rule="evenodd" clip-rule="evenodd" d="M138.611 106.358C140.947 104.01 144.774 106.07 143.37 109.299C142.36 111.63 137.903 111.431 137.964 107.913C137.12 109.036 137.111 111.308 136.249 112.393C135.112 113.825 133.822 114.126 131.801 114.732C133.537 115.961 134.675 117.127 135.978 118.78C137.203 114.69 137.819 113.986 142.338 113.147C149.297 111.855 155.639 113.614 157.59 120.534C158.596 124.111 157.275 125.594 157.901 128.116C158.194 129.298 158.386 129.472 159.143 130.036C160.442 127.785 160.201 126.582 163.666 126.734C163.666 122.687 163.889 121.111 162.747 117.911C161.982 115.771 160.556 113.571 158.99 111.956C154.568 107.396 149.599 107.087 143.86 107.087C143.86 100.166 143.326 97.6617 139.971 93.8348C137.006 95.3647 136.875 94.2374 134.731 93.0295C134.46 93.394 134.259 93.5296 134.373 94.6781C134.434 95.3096 134.74 96.0089 135.011 96.4835C136.415 98.9458 138.047 99.4247 138.156 104.358C138.204 106.464 138.104 105.866 138.611 106.362V106.358Z" fill="#B7F4F1"/>
<path fill-rule="evenodd" clip-rule="evenodd" d="M70.3008 27.5947H81.6164V5.66724H70.3008V27.5947Z" fill="#C9C9C8"/>
<path fill-rule="evenodd" clip-rule="evenodd" d="M64.6484 38.5585H87.284V27.5947H81.624H70.3084H64.6484V38.5585Z" fill="#E3E3E2"/>
<path fill-rule="evenodd" clip-rule="evenodd" d="M23.017 108.798C22.8333 106.213 23.7431 105.505 26.0788 105.026C25.9739 102.963 25.6327 104.742 23.7956 101.78C18.1706 92.7278 28.0821 81.5649 38.4573 86.2055C40.3075 87.0319 40.7056 87.9727 42.0353 88.6762L42.0134 81.7301C25.4359 73.2329 10.1137 91.2402 18.9492 104.764C19.5178 105.632 19.9158 106.099 20.5851 106.95C21.3199 107.887 21.7442 108.514 23.017 108.802V108.798Z" fill="#B7F4F1"/>
<path fill-rule="evenodd" clip-rule="evenodd" d="M70.3079 5.66646H81.6236L90.1398 5.6368C91.8544 5.6707 91.5701 5.55203 92.528 6.40811C93.9714 7.70494 99.907 15.7445 102.19 10.1376C102.873 8.45507 101.731 7.45914 100.637 6.43354C92.0075 -1.68649 96.3946 0.186712 83.3907 0.186712C79.384 0.186712 75.3731 0.186712 71.3665 0.186712C67.4911 0.186712 62.4391 -0.732936 61.8617 2.32691C61.0481 6.63273 66.5856 5.66646 70.3079 5.66646V5.66646Z" fill="#E3E3E2"/>
<path fill-rule="evenodd" clip-rule="evenodd" d="M74.0395 85.4668C62.6977 88.2723 67.4041 104.063 78.1642 101.317C82.044 100.325 85.552 96.4347 84.1567 91.2517C83.1506 87.5095 79.1484 84.2039 74.0395 85.4668Z" fill="#C9C9C8"/>
<path fill-rule="evenodd" clip-rule="evenodd" d="M19.8964 129.867C22.1097 127.769 23.5706 129.795 25.4558 130.307C27.2011 127.493 20.9856 125.162 22.3984 118.941C23.5925 113.69 27.5991 114.161 28.5745 111.152C29.0207 109.77 28.8851 110.478 28.3339 110.283C24.9791 110.402 25.3771 111.614 22.9145 108.965L19.1616 112.703C18.09 114.076 17.1758 115.898 16.7428 117.894C15.5705 123.268 17.7051 127.01 19.9008 129.862L19.8964 129.867Z" fill="#B7F4F1"/>
<path fill-rule="evenodd" clip-rule="evenodd" d="M103.079 131.911C95.7655 133.539 98.2718 144.108 105.511 142.553C112.711 141.006 110.213 130.326 103.079 131.911Z" fill="#F5CC2C"/>
<path fill-rule="evenodd" clip-rule="evenodd" d="M23.6237 51.577C23.0638 51.7932 20.1682 52.4586 21.5198 55.298C21.9966 56.3024 26.9348 60.7693 28.1333 61.9432C29.1612 62.9476 30.3116 64.6004 32.2318 64.0537C33.872 63.5875 35.0005 61.8372 34.2176 60.1929C33.7364 59.1885 28.8025 54.7174 27.6041 53.5435C26.6724 52.6323 26.1738 51.6703 24.8266 51.4118C23.9824 51.2465 23.7374 51.5304 23.6237 51.577V51.577Z" fill="#A9DDE1"/>
<path fill-rule="evenodd" clip-rule="evenodd" d="M154.469 86.1858C154.469 88.1183 155.755 88.9278 157.653 88.9278C159.123 88.9278 163.571 85.3424 165.343 84.0456C169.157 81.2485 166.344 78.5997 164.315 78.5022C162.674 78.4259 158.646 81.8842 157.146 82.9522C156.022 83.7532 154.469 84.5287 154.469 86.1858V86.1858Z" fill="#ABDDE1"/>
<path fill-rule="evenodd" clip-rule="evenodd" d="M16.1953 66.6555C16.1953 69.7705 17.7393 69.7789 21.8509 71.7962C22.7782 72.2497 24.3966 73.216 25.6257 73.0422C26.903 72.8642 28.2195 71.6225 28.2195 70.4231C28.2195 68.088 25.98 67.448 24.331 66.6555C23.5262 66.2699 19.7033 64.2568 19.0253 64.2568C17.8443 64.2568 16.1953 65.524 16.1953 66.6555V66.6555Z" fill="#ABDDE1"/>
<path fill-rule="evenodd" clip-rule="evenodd" d="M119.462 52.6071C119.462 54.5015 120.932 55.3491 122.996 55.3491C124.759 55.3491 126.517 50.9118 127.239 49.526C127.738 48.5725 128.722 47.1231 128.455 45.9364C128.118 44.4192 126.797 43.6987 125.113 43.6987C122.721 43.6987 119.453 52.2256 119.453 52.6071H119.462Z" fill="#A9DDE1"/>
<path fill-rule="evenodd" clip-rule="evenodd" d="M158.004 97.4914C158.004 102.416 161.761 100.941 166.861 99.5639C169.096 98.9578 170.374 97.1693 168.978 95.0927C167.666 93.1347 165.501 94.0459 163.165 94.6096C161.28 95.0673 158.004 95.5462 158.004 97.4872V97.4914Z" fill="#ABDDE1"/>
<path fill-rule="evenodd" clip-rule="evenodd" d="M19.9094 129.865C18.2036 132.777 19.9707 133.039 21.1867 134.578C22.9625 135.387 27.7827 138.299 29.9128 136.12C31.0063 135.002 30.9801 133.069 29.6591 132.086C28.4957 131.221 26.6454 131.399 25.4688 130.306C23.5836 129.793 22.1227 127.763 19.9094 129.865V129.865Z" fill="#A9DDE1"/>
<path fill-rule="evenodd" clip-rule="evenodd" d="M159.146 130.031C158.227 131.548 155.747 133.871 158.039 135.85C160.624 138.079 162.313 135.007 163.301 134.222C164.045 132.15 165.737 130.671 165.073 127.984C164.438 127.052 164.618 127.306 163.664 126.73C160.2 126.577 160.44 127.781 159.141 130.031H159.146Z" fill="#A9DDE1"/>
<path fill-rule="evenodd" clip-rule="evenodd" d="M134.727 93.0297C136.874 94.2375 137.001 95.3648 139.967 93.8349C140.763 93.1272 140.443 93.6866 140.64 92.6949C140.881 89.4359 139.079 89.3808 137.233 87.9357C135.501 87.0584 133.375 86.6939 132.505 88.9146C131.608 91.2074 133.576 92.0889 134.727 93.0255V93.0297Z" fill="#A9DDE1"/>
<path fill-rule="evenodd" clip-rule="evenodd" d="M26.0843 105.028C23.7486 105.506 22.8344 106.214 23.0225 108.799L22.9219 108.965C25.3845 111.613 24.9864 110.401 28.3413 110.283C29.3867 109.367 31.2981 109.16 30.5633 106.57C30.0078 104.616 28.0614 104.43 26.0843 105.032V105.028Z" fill="#A9DDE1"/>
<path fill-rule="evenodd" clip-rule="evenodd" d="M138.601 106.358L137.958 107.913C137.892 111.431 142.349 111.63 143.364 109.299C144.764 106.074 140.941 104.01 138.605 106.358H138.601Z" fill="#A9DDE1"/>
<path fill-rule="evenodd" clip-rule="evenodd" d="M138.208 140.635C138.449 140.143 139.743 136.426 139.857 135.769C140.159 134.028 139.621 132.129 138.199 130.976L138.208 140.635V140.635Z" fill="#B7F4F1"/>
<circle cx="88.5" cy="194.5" r="22.5" fill="#00B3BC"/>
<path d="M81.428 202V198.934C81.5027 198.663 81.736 198.304 82.128 197.856C82.5293 197.399 83.0147 196.899 83.584 196.358C84.1627 195.817 84.7647 195.271 85.39 194.72C86.0153 194.169 86.5987 193.661 87.14 193.194C87.7933 192.625 88.4327 192.032 89.058 191.416C89.6833 190.8 90.2013 190.151 90.612 189.47C91.0227 188.789 91.228 188.065 91.228 187.3C91.228 186.283 90.9853 185.485 90.5 184.906C90.0147 184.318 89.2727 184.024 88.274 184.024C87.0513 184.024 86.202 184.411 85.726 185.186C85.25 185.951 85.012 186.955 85.012 188.196H81.302C81.302 186.031 81.8993 184.299 83.094 183.002C84.2887 181.705 86.0293 181.056 88.316 181.056C89.7813 181.056 91.004 181.331 91.984 181.882C92.964 182.423 93.6967 183.17 94.182 184.122C94.6767 185.065 94.924 186.133 94.924 187.328C94.924 188.411 94.6627 189.405 94.14 190.31C93.6267 191.215 93.0013 192.037 92.264 192.774C91.5267 193.502 90.822 194.146 90.15 194.706C88.918 195.723 87.896 196.61 87.084 197.366C86.272 198.113 85.8007 198.682 85.67 199.074H94.896V202H81.428Z" fill="white"/>
</svg>
