<svg width="302" height="200" viewBox="0 0 302 200" fill="none" xmlns="http://www.w3.org/2000/svg">
<path fill-rule="evenodd" clip-rule="evenodd" d="M256.219 129.748C256.043 130.006 252.83 133.36 252.196 134.062L231.968 157.905C227.385 163.092 221.043 158.806 224.021 153.849L248.101 125.351C253.416 119.287 258.949 125.724 256.214 129.748H256.219ZM223.097 136.634L214.864 146.349C212.283 151.282 204.465 149.944 197.263 149.944C190.258 149.944 183.047 150.099 176.064 149.897L158.296 149.742C150.696 152.48 129.882 148.238 130.63 131.161C130.956 123.712 135.235 119.664 139.703 116.569C147.016 111.501 148.817 113.208 150.144 103.326L83.4044 103.31C76.3607 104.167 76.2494 106.108 71.8375 107.691C69.4325 111.037 67.1003 112.799 65.9492 117.573C71.8204 117.041 94.7915 118.906 98.2364 121.573C108.412 120.649 120.493 131.566 123.929 136.924C126.625 141.126 128.534 145.642 129.193 151.607C130.203 160.743 127.224 160.56 123.946 165.576C139.086 165.576 148.586 164.378 155.54 172.601C159.837 177.68 161.604 176.498 170.77 176.498C177.527 176.498 184.28 176.498 191.037 176.498H200.079H218.086C227.073 172.255 225.203 174.359 231.172 166.985C238.378 158.08 258.957 135.427 260.618 127.681C262.65 118.184 253.625 101.977 250.108 93.6507C247.677 87.8924 238.614 64.6963 236.136 61.6128C236.136 76.0622 236.136 90.5116 236.136 104.961C236.136 112.549 237.373 120.145 233.723 124.566C230.612 128.332 226.521 133.336 223.11 136.634H223.097Z" fill="#9DDBD8"/>
<path fill-rule="evenodd" clip-rule="evenodd" d="M70.5899 139.368C69.4345 141.741 66.0839 149.182 64.7915 150.873C61.6505 154.98 54.8679 152.174 57.1359 146.531C58.1158 144.091 61.5564 137.062 62.8872 134.887C65.7244 130.248 73.6582 133.078 70.5942 139.368H70.5899ZM102.299 138.82C100.763 142.257 98.4737 146.956 96.5908 150.309C93.9377 155.032 86.3676 152.944 88.3361 147.059C88.9737 145.154 92.9834 137.241 94.0789 135.427C97.498 129.764 104.79 133.237 102.299 138.82ZM86.5859 138.82C85.3663 141.654 82.4778 147.777 80.8088 150.424C77.8348 155.151 70.6242 152.551 72.7082 146.797C80.9073 124.157 88.7598 133.749 86.5816 138.816L86.5859 138.82ZM65.9426 117.573C59.7848 117.831 51.6327 122.367 47.8627 125.331C42.7575 129.347 39.5523 133.971 36.912 140.297C33.4372 148.619 26.5005 161.441 36.8692 166.874C40.6179 168.838 43.5149 168.271 48.864 168.322C52.5913 168.291 56.3228 168.307 60.0544 168.307C62.0357 168.307 64.0084 168.279 65.9854 168.267C68.8739 168.251 69.3703 167.791 70.6456 169.342C71.005 168.203 69.3061 168.176 75.9348 168.283C81.9086 168.378 91.092 167.981 96.1372 168.461L112.548 168.314C119.344 155.667 115.167 139.932 106.502 129.609C105.068 127.903 104.148 126.573 102.505 125.121C101.401 124.149 98.0757 122.264 98.2298 121.569C94.785 118.902 71.8181 117.037 65.9426 117.569V117.573Z" fill="#B7F4F1"/>
<path fill-rule="evenodd" clip-rule="evenodd" d="M18.8221 99.0313L65.8556 99.063L66.5146 89.1377C63.9984 90.8641 60.2198 95.92 56.2486 94.8564C49.7912 93.1301 54.6739 87.6456 56.5995 85.8439C55.2644 83.8953 49.4275 78.6926 55.902 76.5139C60.1556 75.0812 63.3223 80.5062 66.3049 81.8992L65.8171 48.3929L75.9376 48.4048L54.5155 48.1628L54.6311 61.4692L40.7363 61.0803L40.8775 48.1628C14.2732 48.1628 18.8135 43.8133 18.8135 63.4535C18.8135 75.3114 18.8135 87.1654 18.8135 99.0233L18.8221 99.0313Z" fill="#FFCF64"/>
<path fill-rule="evenodd" clip-rule="evenodd" d="M202.036 136.217C200.795 133.713 199.066 134.062 199.558 130.705C199.888 128.451 201.861 126.987 204.749 127.463C207.137 127.856 212.948 133.011 213.03 135.578C213.111 138.19 207.021 143.472 205.151 143.956C200.401 145.186 196.794 139.674 202.036 136.217ZM176.061 149.897C183.04 150.099 190.251 149.945 197.26 149.945C204.462 149.945 212.285 151.282 214.861 146.349C213.522 144.956 214.138 139.853 214.138 136.634V105.505H206.05C206.422 109.188 207.133 116.156 205.584 118.839C202.875 119.303 195.219 119.768 193.285 118.446C191.625 116.121 192.682 108.835 192.823 105.505C173.001 105.505 176.061 101.838 176.061 119.704C176.061 129.768 176.061 139.833 176.061 149.893V149.897Z" fill="#FFCF64"/>
<path fill-rule="evenodd" clip-rule="evenodd" d="M236.112 61.6162C238.594 64.6998 247.654 87.8959 250.084 93.6542C253.602 101.98 262.627 118.188 260.594 127.684C258.934 135.435 238.355 158.083 231.149 166.989C225.179 174.366 227.049 172.259 218.062 176.501C224.986 176.501 230.721 177.005 234.936 174.128C239.84 171.545 242.159 165.858 246.635 161.969L250.35 157.425L268.447 134.729L270.839 130.633C275.46 122.081 266.119 104.842 261.775 94.8249C259.516 89.6142 248.839 63.6481 247.192 61.2789L236.117 60.4971V61.6162H236.112Z" fill="#B7F4F1"/>
<path fill-rule="evenodd" clip-rule="evenodd" d="M50.0547 176.298C52.6565 188.529 67.2574 199.685 83.0522 199.994C91.8804 200.169 99.6558 196.347 104.748 192.819C111.364 188.24 113.452 183.823 116.597 176.274C112.733 176.453 95.3423 177.148 93.2027 175.897C90.327 177.37 88.1873 179.802 83.0436 179.723C78.3664 179.652 76.0385 177.235 73.3254 175.945C71.3783 177.1 53.6407 176.481 50.059 176.298H50.0547Z" fill="#00B3BC"/>
<path fill-rule="evenodd" clip-rule="evenodd" d="M264.806 164.697C273.485 164.523 276.874 177.531 268.182 182.202C259.414 186.917 249.255 178.043 253.252 170.487C251.908 166.622 248.686 165.019 246.645 161.963C242.169 165.852 239.854 171.539 234.945 174.122C234.945 186.707 246.405 198.43 258.387 199.434C261.297 197.636 265.422 197.108 269.077 194.505C275.427 189.981 279.788 183.448 280.246 175.368C280.592 169.229 278.526 167.13 278.093 162.8C272.834 161.618 260.416 158.082 255.37 158.578C256.77 160.185 257.454 161.542 259.021 162.923C262.32 165.836 262.029 162.757 264.806 164.697Z" fill="#00B3BC"/>
<path fill-rule="evenodd" clip-rule="evenodd" d="M89.5007 99.135L89.8901 102.274C86.7234 102.409 85.6108 101.838 83.3984 103.31L150.138 103.326C148.704 91.9639 148.833 92.2219 138.747 88.0351C128.609 88.0351 118.471 88.055 108.338 88.0351C102.51 88.0232 98.7867 87.9756 95.3547 90.194C90.6989 93.1981 91.5119 94.5038 89.4964 99.139L89.5007 99.135Z" fill="#00B3BC"/>
<path fill-rule="evenodd" clip-rule="evenodd" d="M71.8363 107.692C76.2482 106.108 76.3552 104.168 83.4032 103.311C85.6155 101.838 86.7281 102.41 89.8948 102.275L89.5054 99.1357L76.552 99.0643H65.8795L18.8459 99.0325C9.83806 98.592 9.23896 101.449 9.42725 92.9487C9.57703 86.2894 9.31171 84.2139 2.35788 84.2139L0.132658 86.5196C0.111261 87.8411 0.0599099 89.0873 0 90.2659V98.1396C0.35518 100.707 1.33086 102.878 3.6545 104.854C8.25045 108.763 15.7092 107.696 24.1437 107.696C40.0412 107.696 55.943 107.728 71.8405 107.692H71.8363Z" fill="#00B3BC"/>
<path fill-rule="evenodd" clip-rule="evenodd" d="M250.363 157.419L255.379 158.578C260.424 158.082 272.842 161.614 278.102 162.8L289.716 166.078L290.456 166.122C291.23 149.173 281.161 139.696 268.46 134.723L250.363 157.419Z" fill="#9DDBD8"/>
<path fill-rule="evenodd" clip-rule="evenodd" d="M112.558 168.326L117.774 168.254L123.949 165.588C127.227 160.567 130.206 160.75 129.196 151.618C128.537 145.654 126.628 141.137 123.932 136.935C120.496 131.577 108.416 120.656 98.2396 121.584C98.0855 122.279 101.411 124.164 102.515 125.136C104.158 126.589 105.082 127.918 106.511 129.625C115.173 139.947 119.354 155.682 112.558 168.33V168.326Z" fill="#00B3BC"/>
<path fill-rule="evenodd" clip-rule="evenodd" d="M66.3199 81.9105C68.5365 87.5458 67.8476 83.744 66.5296 89.1451L65.8705 99.0704H76.5431C76.5431 91.4667 77.8697 52.2021 75.9525 48.4201L65.832 48.4082L66.3199 81.9145V81.9105Z" fill="#FFC250"/>
<path fill-rule="evenodd" clip-rule="evenodd" d="M158.283 149.747C152.069 148.287 148.513 146.663 145.295 142.227C142.291 138.091 140.344 132.512 142.822 126.031C145.633 118.673 152.043 116.006 158.843 111.399C162.267 109.081 161.33 108.224 161.33 103.184L150.131 103.331C148.804 113.213 147.007 111.506 139.689 116.574C135.222 119.669 130.942 123.717 130.617 131.166C129.873 148.247 150.687 152.489 158.283 149.747Z" fill="#B7F4F1"/>
<path fill-rule="evenodd" clip-rule="evenodd" d="M236.135 60.4927L247.209 61.2745H250.449L250.141 33.4233L247.916 33.4868C246.867 35.733 250.333 41.3525 248.142 46.7417C236.563 50.8293 242.006 38.6181 237.906 33.4591C222.634 34.2488 219.283 56.8456 236.139 60.4927H236.135Z" fill="#9DDBD8"/>
<path fill-rule="evenodd" clip-rule="evenodd" d="M268.453 134.731C281.154 139.704 291.227 149.181 290.449 166.13L300.188 169.718C300.792 168.543 301.211 167.285 301.485 165.979V157.745C300.424 151.522 297.364 145.589 294.831 142.807C289.156 136.585 281.993 131.473 270.845 130.628L268.453 134.723V134.731Z" fill="#00B3BC"/>
<path fill-rule="evenodd" clip-rule="evenodd" d="M224.931 17.5915C227.118 18.6591 233.652 20.6751 235.15 21.7704C237.08 23.1792 237.893 30.3543 237.893 33.4617C241.993 38.6208 236.549 50.828 248.129 46.7444C250.32 41.3591 246.854 35.7396 247.902 33.4895C245.549 28.636 247.055 18.0201 242.617 15.389C238.655 13.0396 229.737 10.4045 224.914 8.30518L224.927 17.5876L224.931 17.5915Z" fill="#00B3BC"/>
<path fill-rule="evenodd" clip-rule="evenodd" d="M200.072 176.507H191.03L190.756 183.059C184.504 183.059 178.222 183.079 171.94 183.059C166.381 183.039 157.044 183.674 161.345 190.131C163.309 193.08 173.459 191.798 178.419 191.798C184.898 191.798 191.372 191.798 197.851 191.798C199.845 189.04 200.265 190.147 200.239 185.273C200.222 182.364 200.35 179.392 200.072 176.507Z" fill="#00B3BC"/>
<path fill-rule="evenodd" clip-rule="evenodd" d="M256.222 129.749C258.952 125.725 253.423 119.288 248.108 125.352L224.029 153.85C221.05 158.807 227.392 163.097 231.975 157.906L252.203 134.063C252.833 133.361 256.051 130.007 256.226 129.749H256.222Z" fill="#F8F5F5"/>
<path fill-rule="evenodd" clip-rule="evenodd" d="M258.391 199.441C269.692 201.679 278.178 196.302 283.69 191.127C290.211 185.004 292.347 176.955 289.711 166.09L278.097 162.812C278.529 167.137 280.596 169.241 280.249 175.38C279.791 183.464 275.435 189.996 269.08 194.516C265.421 197.12 261.301 197.647 258.391 199.445V199.441Z" fill="#00B3BC"/>
<path fill-rule="evenodd" clip-rule="evenodd" d="M254.938 33.4258L254.664 61.277C255.469 64.932 255.982 69.8212 261.451 67.3409C265.178 65.6503 264.399 61.1381 264.399 56.1973C263.479 54.6416 263.432 39.6088 264.399 38.0016C264.399 33.0806 265.178 28.4731 261.455 26.8143C259.872 26.1079 257.647 26.3857 256.299 27.5365C254.758 28.8541 255.006 30.8384 254.942 33.4258H254.938Z" fill="#9DDBD8"/>
<path fill-rule="evenodd" clip-rule="evenodd" d="M214.869 146.35L223.102 136.635C223.431 130.278 223.175 123.392 223.175 116.975C223.175 104.903 226.183 105.506 214.145 105.506V136.635C214.145 139.854 213.529 144.953 214.869 146.35Z" fill="#FFC250"/>
<path fill-rule="evenodd" clip-rule="evenodd" d="M224.925 17.588L224.912 8.30561L224.668 2.28136C222.062 -0.587899 216.897 -0.274384 212.566 0.658224C211.569 4.6228 211.33 14.8537 211.997 19.7549C212.477 23.2908 215.121 22.771 219.662 22.5368C223.427 22.3463 224.857 21.1439 224.925 17.588Z" fill="#9DDBD8"/>
<path fill-rule="evenodd" clip-rule="evenodd" d="M70.641 169.349C71.1374 173.203 72.8833 173.913 73.307 175.945C76.02 177.235 78.348 179.648 83.0252 179.723C88.1732 179.803 90.3128 177.37 93.1842 175.898C94.2626 173.258 95.6448 172.866 96.1284 168.472C91.0831 167.992 81.8998 168.389 75.9259 168.294C69.2973 168.187 70.9962 168.214 70.6367 169.353L70.641 169.349Z" fill="#F8F5F5"/>
<path fill-rule="evenodd" clip-rule="evenodd" d="M253.252 170.495C249.255 178.051 259.414 186.925 268.182 182.21C276.873 177.539 273.484 164.53 264.806 164.705L260.68 165.034C263.017 166.983 270.857 174.043 265.152 177.261C259.29 180.567 256.718 170.602 253.247 170.495H253.252Z" fill="#F8F5F5"/>
<path fill-rule="evenodd" clip-rule="evenodd" d="M246.648 161.967C248.69 165.023 251.908 166.626 253.256 170.492C256.722 170.599 259.294 180.564 265.161 177.258C270.865 174.04 263.025 166.984 260.689 165.031L264.814 164.702C262.037 162.761 262.328 165.841 259.028 162.928C257.462 161.547 256.782 160.189 255.378 158.582L250.363 157.423L246.648 161.967Z" fill="#DDDAEC"/>
<path fill-rule="evenodd" clip-rule="evenodd" d="M66.5427 89.1448C67.8607 83.7437 68.5497 87.5455 66.333 81.9102C63.3546 80.5172 60.188 75.0922 55.9301 76.5249C49.4555 78.7036 55.2882 83.9064 56.6276 85.8549C54.7062 87.6566 49.8235 93.1372 56.2767 94.8675C60.2479 95.931 64.0265 90.8751 66.5427 89.1488V89.1448Z" fill="#F8F5F5"/>
<path fill-rule="evenodd" clip-rule="evenodd" d="M206.041 105.508H192.814C192.669 108.833 191.616 116.124 193.276 118.449C195.211 119.771 202.87 119.306 205.575 118.842C207.124 116.163 206.409 109.195 206.041 105.508Z" fill="#00B3BC"/>
<path fill-rule="evenodd" clip-rule="evenodd" d="M93.1953 175.888C95.3349 177.142 112.726 176.448 116.59 176.265C117.467 173.483 117.767 171.884 117.767 168.237L112.55 168.308L96.1394 168.455C95.6602 172.852 94.2737 173.241 93.1953 175.88V175.888Z" fill="#00B3BC"/>
<path fill-rule="evenodd" clip-rule="evenodd" d="M50.0522 176.3C53.6339 176.482 71.3716 177.097 73.3186 175.946C72.8907 173.911 71.1448 173.204 70.6526 169.351C69.3774 167.799 68.881 168.26 65.9925 168.276C64.0155 168.287 62.0427 168.315 60.0614 168.315C56.3299 168.315 52.6026 168.295 48.8711 168.331L50.0479 176.304L50.0522 176.3Z" fill="#00B3BC"/>
<path fill-rule="evenodd" clip-rule="evenodd" d="M86.5896 138.827C88.7678 133.76 80.911 124.164 72.7162 146.808C70.6322 152.562 77.8385 155.162 80.8169 150.435C82.4858 147.784 85.3743 141.661 86.5939 138.831L86.5896 138.827Z" fill="#9DDBD8"/>
<path fill-rule="evenodd" clip-rule="evenodd" d="M54.5332 48.1689H40.8951L40.7539 61.0864L54.6488 61.4754L54.5332 48.1689Z" fill="#00B3BC"/>
<path fill-rule="evenodd" clip-rule="evenodd" d="M102.302 138.822C104.792 133.242 97.5003 129.765 94.0812 135.429C92.9857 137.242 88.976 145.155 88.3384 147.06C86.3699 152.946 93.94 155.033 96.5931 150.311C98.476 146.957 100.765 142.258 102.302 138.822Z" fill="#9DDBD8"/>
<path fill-rule="evenodd" clip-rule="evenodd" d="M70.5997 139.361C73.6637 133.071 65.7299 130.242 62.8928 134.881C61.5619 137.056 58.1214 144.084 57.1414 146.525C54.8777 152.168 61.6561 154.97 64.7971 150.866C66.0894 149.18 69.4401 141.735 70.5955 139.361H70.5997Z" fill="#9DDBD8"/>
<path fill-rule="evenodd" clip-rule="evenodd" d="M150.145 103.326L161.344 103.179C161.344 96.8651 159.885 93.2299 155.824 90.4202C151.446 87.3882 145.947 88.0311 138.754 88.0311C148.84 92.2179 148.708 91.96 150.145 103.322V103.326Z" fill="#00B3BC"/>
<path fill-rule="evenodd" clip-rule="evenodd" d="M202.048 136.222C196.806 139.679 200.409 145.195 205.164 143.961C207.034 143.476 213.123 138.194 213.042 135.583C212.96 133.019 207.149 127.86 204.761 127.467C201.873 126.991 199.9 128.456 199.571 130.71C199.083 134.067 200.812 133.718 202.048 136.222Z" fill="#F8F5F5"/>
<path fill-rule="evenodd" clip-rule="evenodd" d="M264.391 56.1944C269.377 56.6428 273.844 51.7813 273.844 47.0745C273.844 42.3876 269.206 37.6571 264.391 37.9984C263.424 39.6057 263.471 54.6426 264.391 56.1944Z" fill="#FFCF64"/>
<path fill-rule="evenodd" clip-rule="evenodd" d="M250.437 61.2745H254.656L254.935 33.4233H250.129L250.437 61.2745Z" fill="#00B3BC"/>
</svg>
