<svg width="172" height="221" viewBox="0 0 172 221" fill="none" xmlns="http://www.w3.org/2000/svg">
<circle cx="86" cy="97" r="86" fill="#EBFFFE"/>
<g clip-path="url(#clip0_1122:1043)">
<path fill-rule="evenodd" clip-rule="evenodd" d="M55.6208 131.498C55.6172 134.462 55.6172 137.422 55.6208 140.386C55.6244 143.091 56.1812 146.549 53.1532 146.635C48.7531 146.76 51.3357 138.446 50.4988 131.394C49.6367 132.207 47.8659 134.405 46.2962 134.476C43.8035 134.587 43.0384 131.835 44.5506 130.192C45.6641 128.982 51.2782 122.89 52.8515 122.779C54.8881 122.636 60.2759 128.481 61.4972 129.809C62.7579 131.18 62.9806 133.932 60.5166 134.426C58.0561 134.92 57.7401 132.386 55.6244 131.498H55.6208ZM33.4444 131.387C33.4157 134.276 33.4336 137.171 33.4372 140.06C33.4408 142.615 34.1305 146.51 31.0342 146.642C26.803 146.821 28.8001 138.875 28.3583 131.355C27.3274 132.182 25.6248 134.523 23.8971 134.469C21.5193 134.394 20.6967 131.806 22.5322 129.966C23.8935 128.595 29.3389 122.711 31.0342 122.761C32.629 122.808 38.491 128.896 39.468 130.052C40.8653 131.713 40.6031 134.269 38.1354 134.48C36.009 134.662 35.05 132.243 33.4444 131.387V131.387ZM80.2074 126.859C84.2591 120.957 88.7418 122.189 93.1993 126.423C94.9522 128.087 96.4644 129.823 98.2172 131.47C105.699 138.51 103.734 138.911 93.343 148.654C91.7303 150.168 90.2504 152.541 86.6729 152.519C83.6126 152.501 80.9079 150.157 80.2433 148.485C82.1506 146.474 90.3366 139.416 91.2023 137.404L80.2074 126.859V126.859ZM109.18 165.995V77.4836C109.18 72.8878 110.157 69.2513 107.118 66.7959L114.043 66.8961C112.373 65.672 90.4946 66.6384 86.3496 66.5525L72.3124 66.4594C72.4417 69.5376 72.3519 72.7697 72.3519 75.8622C72.3519 78.5072 73.0631 82.3657 71.1379 83.962L64.6186 84.0479C59.3169 83.9012 54.7588 85.8125 54.7911 80.0928C54.8162 75.8085 54.5325 70.6221 54.8809 66.4594H17.0474C13.8649 66.4487 12.3922 66.1874 10.9411 68.156C9.40018 70.2499 10.2155 79.1121 10.2155 82.6699V158.214C10.2155 165.687 10.1545 165.999 17.7011 165.995H109.183H109.18Z" fill="#FED064"/>
<path fill-rule="evenodd" clip-rule="evenodd" d="M152.059 95.2299C155.012 92.4381 157.641 87.7994 160.206 90.1295C162.921 92.5956 157.925 96.114 155.45 99.0096C151.28 103.885 150.605 100.785 147.189 97.6065C145.842 96.3502 145.13 93.7338 147.404 92.8962C149.556 92.1016 151.071 94.3745 152.059 95.2335V95.2299ZM90.0773 0H92.2145C115.375 0.207597 138.636 0 161.804 0C163.952 1.74668 163.873 1.51403 163.851 5.18277L163.855 104.081C163.873 107.607 163.78 107.306 161.768 108.938H116.877L116.941 98.0217C121.603 98.0217 126.269 98.0217 130.932 98.0217C134.24 98.0217 142.494 99.4212 142.243 95.3588C142.013 91.6292 133.881 93.0108 130.605 93.0108C126.039 93.0108 121.471 93.0108 116.905 93.0108L116.941 71.7607C121.715 71.7607 126.485 71.7607 131.259 71.7607C134.355 71.7607 143.916 73.196 142.085 68.3532C141 65.4862 132.534 66.7497 129.308 66.7497C124.775 66.7497 119.218 66.4669 114.815 66.8141L114.057 66.9036C112.387 65.6795 90.5083 66.6459 86.3633 66.56V12.9713C86.3633 3.0209 85.1995 0.211177 90.0881 0.00357926L90.0773 0ZM152.077 68.976C154.997 66.0947 157.993 61.3343 160.36 64.0438C162.099 66.0338 159.843 68.1349 158.92 69.0726C151.104 77.0043 152.81 76.99 147.009 71.1952C145.817 70.0033 145.274 67.147 147.638 66.5421C149.929 65.9587 151.036 68.1635 152.077 68.976V68.976ZM99.6928 45.5175C95.1634 45.5175 94.8761 40.5065 99.6102 40.5065H138.737C143.511 40.5065 143.651 45.5175 138.654 45.5175H99.6928ZM152.092 42.7257C153.241 41.6054 157.767 34.8764 160.346 37.7935C162.099 39.7764 159.861 41.881 158.927 42.8223C150.407 51.3982 152.857 50.3388 147.031 44.9055C145.594 43.5668 145.314 40.8859 147.641 40.2918C149.911 39.7084 151.025 41.9275 152.092 42.7257ZM99.6928 19.2564C95.0916 19.2564 94.9515 14.2455 99.6102 14.2455H138.737C143.467 14.2455 143.643 19.2564 138.654 19.2564H99.6928V19.2564ZM152.113 16.4789C153.241 15.3264 157.763 8.67256 160.335 11.5431C162.045 13.4509 159.839 15.6629 158.938 16.5684C150.497 25.0549 152.849 24.1529 147.02 18.6515C145.809 17.5098 145.274 14.6535 147.652 14.0415C150.077 13.4151 150.906 15.6378 152.113 16.4789Z" fill="#F1EAEA"/>
<path fill-rule="evenodd" clip-rule="evenodd" d="M161.762 108.935C164.003 108.935 167.685 109.419 169.33 108.624C171.46 107.597 170.946 105.127 170.943 102.128V6.80825C170.946 1.48946 170.846 0.243878 168.08 0.000488281H161.801C163.949 1.74717 163.87 1.51452 163.849 5.18326L163.852 104.082C163.87 107.607 163.777 107.307 161.765 108.939L161.762 108.935Z" fill="#DDD9EC"/>
<path fill-rule="evenodd" clip-rule="evenodd" d="M109.179 166.002C117.34 166.002 116.93 165.705 116.93 157.573C116.93 152.169 116.93 146.767 116.93 141.363C116.93 131.305 117.609 118.681 116.866 108.942L116.93 98.025L116.894 93.014L116.93 71.7639C116.74 68.3171 116.747 68.6464 114.8 66.8174L114.042 66.9069L107.117 66.8066C110.16 69.262 109.179 72.8986 109.179 77.4943V166.006V166.002Z" fill="#FFC24F"/>
<path fill-rule="evenodd" clip-rule="evenodd" d="M91.1979 137.408C90.3287 139.419 82.1463 146.478 80.239 148.489C80.9035 150.161 83.6083 152.505 86.6686 152.523C90.2461 152.544 91.726 150.171 93.3387 148.657C103.73 138.915 105.695 138.514 98.2129 131.473C96.4601 129.827 94.9479 128.091 93.195 126.427C88.7375 122.192 84.2548 120.961 80.2031 126.863L91.1979 137.408V137.408Z" fill="#F8F5F5"/>
<path fill-rule="evenodd" clip-rule="evenodd" d="M99.6897 45.5181H138.651C143.644 45.5181 143.507 40.5071 138.734 40.5071H99.6071C94.873 40.5071 95.1567 45.5181 99.6897 45.5181V45.5181Z" fill="#00B3BC"/>
<path fill-rule="evenodd" clip-rule="evenodd" d="M99.6875 19.2563H138.649C143.638 19.2563 143.462 14.2454 138.731 14.2454H99.6049C94.9462 14.2454 95.0827 19.2563 99.6875 19.2563V19.2563Z" fill="#00B3BC"/>
<path fill-rule="evenodd" clip-rule="evenodd" d="M33.4387 131.388C35.0407 132.243 36.0034 134.663 38.1298 134.48C40.5974 134.269 40.8596 131.71 39.4624 130.053C38.489 128.896 32.6234 122.804 31.0286 122.762C29.3332 122.711 23.8879 128.596 22.5265 129.967C20.6947 131.806 21.5172 134.398 23.8914 134.469C25.6192 134.523 27.3217 132.182 28.3526 131.355C28.7944 138.879 26.7973 146.821 31.0286 146.642C34.1248 146.514 33.4316 142.619 33.4316 140.06C33.428 137.172 33.41 134.276 33.4387 131.388V131.388Z" fill="#00B3BC"/>
<path fill-rule="evenodd" clip-rule="evenodd" d="M55.6218 131.498C57.7375 132.386 58.0535 134.916 60.514 134.426C62.978 133.932 62.7589 131.183 61.4946 129.809C60.2733 128.481 54.8855 122.636 52.8489 122.779C51.272 122.89 45.6615 128.978 44.548 130.192C43.0358 131.835 43.8009 134.584 46.2936 134.476C47.8633 134.408 49.6305 132.207 50.4962 131.394C51.3331 138.446 48.7505 146.76 53.1506 146.635C56.1786 146.549 55.6218 143.092 55.6182 140.386C55.6146 137.422 55.6146 134.462 55.6182 131.498H55.6218Z" fill="#00B3BC"/>
<path fill-rule="evenodd" clip-rule="evenodd" d="M64.6083 84.0507C66.6485 81.4557 65.9301 79.7305 65.9301 75.8649C65.9301 73.3594 65.5853 68.6741 66.1708 66.4622H54.8742C54.5258 70.6248 54.8096 75.8076 54.7844 80.0956C54.7521 85.8152 59.3102 83.9039 64.6119 84.0507H64.6083Z" fill="#00B3BC"/>
<path fill-rule="evenodd" clip-rule="evenodd" d="M116.927 71.7585C121.701 71.7585 126.471 71.7585 131.245 71.7585C134.341 71.7585 143.902 73.1938 142.071 68.351C140.986 65.484 132.52 66.7475 129.294 66.7475C124.761 66.7475 119.204 66.4648 114.801 66.8119C116.751 68.641 116.74 68.3117 116.931 71.7585H116.927Z" fill="#00B3BC"/>
<path fill-rule="evenodd" clip-rule="evenodd" d="M116.93 98.0161C121.593 98.0161 126.259 98.0161 130.921 98.0161C134.229 98.0161 142.483 99.4156 142.232 95.3531C142.002 91.6235 133.87 93.0051 130.594 93.0051C126.029 93.0051 121.46 93.0051 116.895 93.0051L116.93 98.0161V98.0161Z" fill="#00B3BC"/>
<path fill-rule="evenodd" clip-rule="evenodd" d="M64.6087 84.0506L71.1281 83.9647C73.0569 82.3684 72.3421 78.5099 72.3421 75.8649C72.3421 72.7724 72.4355 69.5403 72.3026 66.4622H66.164C65.5822 68.6741 65.9234 73.3594 65.9234 75.8649C65.9234 79.7269 66.6418 81.4521 64.6016 84.0506H64.6087Z" fill="#00B3BC"/>
<path fill-rule="evenodd" clip-rule="evenodd" d="M152.057 95.2301C151.069 94.3747 149.549 92.0983 147.401 92.8929C145.128 93.7304 145.839 96.3504 147.186 97.6032C150.598 100.782 151.277 103.885 155.447 99.0062C157.922 96.1106 162.919 92.5958 160.203 90.1261C157.638 87.796 155.009 92.4347 152.057 95.2265V95.2301Z" fill="#9DDBD8" fill-opacity="0.74"/>
<path fill-rule="evenodd" clip-rule="evenodd" d="M152.087 42.7271C151.02 41.9289 149.91 39.7098 147.636 40.2932C145.305 40.8909 145.585 43.5682 147.026 44.9069C152.852 50.3366 150.402 51.3961 158.922 42.8237C159.856 41.8824 162.094 39.7778 160.341 37.7949C157.762 34.8778 153.236 41.6068 152.087 42.7271V42.7271Z" fill="#9DDBD8" fill-opacity="0.74"/>
<path fill-rule="evenodd" clip-rule="evenodd" d="M152.063 68.9756C151.018 68.1595 149.911 65.9547 147.623 66.5417C145.26 67.1466 145.806 70.0028 146.995 71.1947C152.796 76.9896 151.086 77.0039 158.905 69.0722C159.832 68.1345 162.084 66.0334 160.346 64.0434C157.982 61.3339 154.983 66.0943 152.063 68.9756V68.9756Z" fill="#9DDBD8" fill-opacity="0.74"/>
<path fill-rule="evenodd" clip-rule="evenodd" d="M152.113 16.4777C150.906 15.6401 150.076 13.4138 147.651 14.0402C145.277 14.6522 145.812 17.5121 147.019 18.6503C152.849 24.148 150.493 25.0536 158.937 16.5672C159.839 15.658 162.044 13.446 160.334 11.5419C157.759 8.6713 153.24 15.3251 152.113 16.4777Z" fill="#9DDBD8" fill-opacity="0.74"/>
</g>
<circle cx="86.5" cy="198.5" r="22.5" fill="#00B3BC"/>
<path d="M88.226 187.308V208H84.558V190.878C84.4553 190.971 84.208 191.097 83.816 191.256C83.424 191.405 82.948 191.55 82.388 191.69C81.8373 191.83 81.2633 191.923 80.666 191.97V188.974C81.2633 188.899 81.8373 188.769 82.388 188.582C82.948 188.395 83.4287 188.19 83.83 187.966C84.2313 187.733 84.502 187.513 84.642 187.308H88.226Z" fill="white"/>
<defs>
<clipPath id="clip0_1122:1043">
<rect width="161" height="166" fill="white" transform="translate(10)"/>
</clipPath>
</defs>
</svg>
