<svg width="175" height="210" viewBox="0 0 175 210" fill="none" xmlns="http://www.w3.org/2000/svg">
<circle cx="89" cy="86" r="86" fill="#EBFFFE"/>
<path fill-rule="evenodd" clip-rule="evenodd" d="M141.263 102.536C141.166 102.678 139.394 104.527 139.045 104.914L127.892 118.06C125.366 120.92 121.869 118.557 123.511 115.824L136.787 100.112C139.717 96.7683 142.768 100.317 141.26 102.536H141.263ZM123.001 106.332L118.462 111.688C117.039 114.408 112.729 113.671 108.758 113.671C104.896 113.671 100.92 113.756 97.07 113.644L87.274 113.559C83.0838 115.069 71.6079 112.73 72.0208 103.315C72.2001 99.208 74.5595 96.9762 77.0226 95.2696C81.0547 92.4755 82.048 93.4163 82.7794 87.9682L45.9831 87.9594C42.0997 88.432 42.0383 89.502 39.6058 90.375C38.2799 92.2195 36.994 93.1909 36.3594 95.8231C39.5964 95.5299 52.2613 96.5583 54.1606 98.0286C59.7711 97.5188 66.4315 103.538 68.3261 106.492C69.8125 108.809 70.8647 111.299 71.2281 114.588C71.7849 119.624 70.1428 119.524 68.3355 122.289C76.6829 122.289 81.9206 121.629 85.7545 126.162C88.1233 128.963 89.0977 128.311 94.1514 128.311C97.8768 128.311 101.6 128.311 105.325 128.311H110.311H120.239C125.193 125.972 124.162 127.131 127.454 123.066C131.427 118.156 142.773 105.667 143.688 101.396C144.809 96.1601 139.833 87.2242 137.894 82.6338C136.554 79.459 131.556 66.6701 130.19 64.97C130.19 72.9365 130.19 80.9031 130.19 88.8696C130.19 93.0531 130.872 97.241 128.86 99.6784C127.144 101.755 124.889 104.514 123.009 106.332H123.001Z" fill="#9DDBD8"/>
<path fill-rule="evenodd" clip-rule="evenodd" d="M38.9182 107.839C38.2812 109.148 36.4338 113.25 35.7213 114.182C33.9896 116.447 30.25 114.9 31.5005 111.789C32.0407 110.443 33.9377 106.568 34.6714 105.369C36.2357 102.811 40.6099 104.371 38.9206 107.839H38.9182ZM56.401 107.537C55.554 109.432 54.2917 112.023 53.2536 113.872C51.7908 116.475 47.6171 115.325 48.7024 112.08C49.054 111.029 51.2647 106.667 51.8687 105.667C53.7538 102.544 57.7741 104.459 56.401 107.537ZM47.7375 107.537C47.065 109.1 45.4725 112.476 44.5523 113.935C42.9126 116.541 38.9371 115.108 40.0861 111.935C44.6066 99.4527 48.936 104.741 47.7351 107.535L47.7375 107.537ZM36.356 95.8227C32.9609 95.965 28.4663 98.4659 26.3878 100.1C23.5731 102.315 21.8059 104.864 20.3502 108.351C18.4344 112.94 14.6099 120.009 20.3266 123.004C22.3934 124.088 23.9907 123.775 26.9399 123.803C28.9948 123.786 31.0522 123.794 33.1095 123.794C34.2019 123.794 35.2896 123.779 36.3796 123.772C37.9721 123.764 38.2458 123.51 38.9489 124.365C39.1471 123.737 38.2104 123.722 41.865 123.781C45.1587 123.834 50.2218 123.615 53.0035 123.88L62.0516 123.799C65.7982 116.826 63.4955 108.15 58.7178 102.459C57.9274 101.518 57.4202 100.785 56.5142 99.9844C55.9055 99.4483 54.0723 98.409 54.1572 98.0261C52.258 96.5557 39.5954 95.5274 36.356 95.8206V95.8227Z" fill="#B7F4F1"/>
<path fill-rule="evenodd" clip-rule="evenodd" d="M10.3778 85.6L36.3093 85.6175L36.6726 80.1453C35.2853 81.0971 33.202 83.8846 31.0125 83.2982C27.4523 82.3464 30.1443 79.3226 31.206 78.3292C30.4699 77.2549 27.2518 74.3864 30.8214 73.1852C33.1666 72.3953 34.9125 75.3864 36.557 76.1544L36.288 57.681L41.8679 57.6875L30.057 57.5541L30.1207 64.8905L22.4599 64.6761L22.5378 57.5541C7.86977 57.5541 10.373 55.156 10.373 65.9845C10.373 72.5223 10.373 79.0578 10.373 85.5956L10.3778 85.6Z" fill="#FFCF64"/>
<path fill-rule="evenodd" clip-rule="evenodd" d="M111.392 106.102C110.707 104.722 109.754 104.914 110.026 103.063C110.207 101.82 111.295 101.013 112.887 101.276C114.204 101.492 117.408 104.334 117.453 105.75C117.498 107.19 114.14 110.102 113.109 110.369C110.49 111.047 108.501 108.008 111.392 106.102ZM97.0704 113.644C100.919 113.756 104.894 113.671 108.759 113.671C112.729 113.671 117.042 114.408 118.463 111.688C117.724 110.92 118.064 108.107 118.064 106.332V89.1693H113.605C113.81 91.1998 114.202 95.0419 113.348 96.521C111.854 96.777 107.633 97.033 106.567 96.3044C105.651 95.0222 106.234 91.005 106.312 89.1693C95.3835 89.1693 97.0704 87.1476 97.0704 96.998C97.0704 102.547 97.0704 108.096 97.0704 113.642V113.644Z" fill="#FFCF64"/>
<path fill-rule="evenodd" clip-rule="evenodd" d="M130.178 64.9715C131.547 66.6716 136.541 79.4606 137.882 82.6354C139.821 87.2258 144.797 96.1617 143.676 101.398C142.761 105.671 131.415 118.158 127.441 123.068C124.15 127.135 125.181 125.973 120.227 128.312C124.044 128.312 127.205 128.59 129.529 127.004C132.233 125.58 133.512 122.444 135.98 120.3L138.028 117.795L148.005 105.281L149.324 103.023C151.872 98.3082 146.722 88.8034 144.327 83.2809C143.081 80.408 137.195 66.0918 136.287 64.7855L130.181 64.3545V64.9715H130.178Z" fill="#B7F4F1"/>
<path fill-rule="evenodd" clip-rule="evenodd" d="M27.5977 128.201C29.0321 134.944 37.0822 141.095 45.7905 141.265C50.6579 141.362 54.9448 139.255 57.7524 137.309C61.4 134.784 62.5513 132.349 64.2854 128.188C62.1549 128.286 52.5666 128.669 51.3869 127.98C49.8014 128.791 48.6218 130.133 45.7858 130.089C43.2071 130.05 41.9236 128.717 40.4278 128.006C39.3543 128.643 29.5748 128.301 27.6 128.201H27.5977Z" fill="#00B3BC"/>
<path fill-rule="evenodd" clip-rule="evenodd" d="M145.999 121.805C150.783 121.709 152.652 128.881 147.86 131.456C143.026 134.055 137.425 129.163 139.628 124.997C138.888 122.866 137.111 121.982 135.986 120.297C133.518 122.442 132.241 125.577 129.535 127.001C129.535 133.94 135.853 140.403 142.46 140.956C144.064 139.965 146.338 139.674 148.353 138.239C151.855 135.745 154.259 132.143 154.511 127.688C154.702 124.304 153.563 123.146 153.324 120.759C150.425 120.107 143.578 118.157 140.796 118.431C141.568 119.317 141.945 120.065 142.809 120.827C144.628 122.433 144.467 120.735 145.999 121.805V121.805Z" fill="#00B3BC"/>
<path fill-rule="evenodd" clip-rule="evenodd" d="M49.3449 85.6568L49.5596 87.3875C47.8137 87.4619 47.2002 87.1468 45.9805 87.9586L82.7768 87.9673C81.9864 81.7031 82.0572 81.8453 76.4962 79.537C70.9069 79.537 65.3176 79.5479 59.7307 79.537C56.5173 79.5304 54.4647 79.5042 52.5725 80.7272C50.0055 82.3836 50.4538 83.1034 49.3425 85.659L49.3449 85.6568Z" fill="#00B3BC"/>
<path fill-rule="evenodd" clip-rule="evenodd" d="M39.6063 90.3746C42.0388 89.5016 42.0978 88.4316 45.9836 87.959C47.2034 87.1472 47.8168 87.4623 49.5627 87.3879L49.348 85.6572L42.2063 85.6178H36.3221L10.3905 85.6003C5.42413 85.3574 5.09382 86.9328 5.19763 82.246C5.28021 78.5745 5.13393 77.4302 1.3 77.4302L0.0731396 78.7014C0.0613429 79.43 0.0330308 80.1171 0 80.7669V85.108C0.195825 86.5237 0.733756 87.7205 2.01488 88.8102C4.54881 90.9654 8.66115 90.3768 13.3114 90.3768C22.0764 90.3768 30.8437 90.3943 39.6086 90.3746H39.6063Z" fill="#00B3BC"/>
<path fill-rule="evenodd" clip-rule="evenodd" d="M138.035 117.791L140.8 118.43C143.582 118.156 150.429 120.104 153.328 120.758L159.732 122.565L160.14 122.589C160.567 113.244 155.015 108.019 148.013 105.278L138.035 117.791V117.791Z" fill="#9DDBD8"/>
<path fill-rule="evenodd" clip-rule="evenodd" d="M62.0574 123.805L64.9334 123.765L68.3379 122.295C70.1452 119.527 71.7873 119.628 71.2305 114.593C70.8672 111.304 69.8149 108.814 68.3285 106.497C66.434 103.544 59.7735 97.5221 54.163 98.0341C54.0781 98.417 55.9113 99.4563 56.52 99.9924C57.426 100.793 57.9356 101.526 58.7236 102.467C63.4989 108.158 65.804 116.834 62.0574 123.807V123.805Z" fill="#00B3BC"/>
<path fill-rule="evenodd" clip-rule="evenodd" d="M36.5658 76.1609C37.788 79.2679 37.4081 77.1718 36.6814 80.1497L36.3181 85.6219H42.2023C42.2023 81.4296 42.9337 59.7814 41.8767 57.6963L36.2969 57.6897L36.5658 76.1631V76.1609Z" fill="#FFC250"/>
<path fill-rule="evenodd" clip-rule="evenodd" d="M87.2678 113.562C83.842 112.757 81.8814 111.862 80.1072 109.416C78.4509 107.136 77.3774 104.06 78.7435 100.487C80.2936 96.43 83.8279 94.9596 87.5769 92.4193C89.4643 91.1415 88.9476 90.6689 88.9476 87.8901L82.7732 87.9711C82.0419 93.4193 81.0509 92.4784 77.0165 95.2725C74.5533 96.9792 72.194 99.2109 72.0146 103.318C71.6041 112.735 83.08 115.074 87.2678 113.562V113.562Z" fill="#B7F4F1"/>
<path fill-rule="evenodd" clip-rule="evenodd" d="M130.191 64.3524L136.297 64.7834H138.083L137.913 49.428L136.686 49.463C136.108 50.7014 138.019 53.7996 136.811 56.7709C130.427 59.0246 133.428 52.2921 131.168 49.4477C122.747 49.8831 120.9 62.3416 130.193 64.3524H130.191Z" fill="#9DDBD8"/>
<path fill-rule="evenodd" clip-rule="evenodd" d="M148.008 105.283C155.01 108.024 160.564 113.249 160.135 122.594L165.505 124.572C165.837 123.925 166.069 123.231 166.22 122.511V117.971C165.634 114.54 163.948 111.269 162.551 109.735C159.422 106.305 155.473 103.487 149.327 103.021L148.008 105.279V105.283Z" fill="#00B3BC"/>
<path fill-rule="evenodd" clip-rule="evenodd" d="M124.013 40.6991C125.219 41.2876 128.822 42.3991 129.647 43.003C130.712 43.7798 131.16 47.7357 131.16 49.4489C133.42 52.2934 130.419 59.0237 136.803 56.7722C138.011 53.8031 136.1 50.7049 136.678 49.4642C135.381 46.7883 136.211 40.9354 133.764 39.4847C131.58 38.1894 126.663 36.7366 124.004 35.5791L124.011 40.6969L124.013 40.6991Z" fill="#00B3BC"/>
<path fill-rule="evenodd" clip-rule="evenodd" d="M110.309 128.315H105.324L105.173 131.927C101.726 131.927 98.2624 131.938 94.7989 131.927C91.7341 131.916 86.5861 132.267 88.9572 135.826C90.0401 137.452 95.6365 136.745 98.371 136.745C101.943 136.745 105.513 136.745 109.085 136.745C110.184 135.225 110.415 135.835 110.401 133.148C110.392 131.544 110.463 129.906 110.309 128.315Z" fill="#00B3BC"/>
<path fill-rule="evenodd" clip-rule="evenodd" d="M141.266 102.536C142.771 100.317 139.723 96.7684 136.793 100.112L123.517 115.824C121.875 118.557 125.371 120.922 127.898 118.06L139.051 104.914C139.397 104.527 141.172 102.678 141.268 102.536H141.266Z" fill="#F8F5F5"/>
<path fill-rule="evenodd" clip-rule="evenodd" d="M142.461 140.96C148.692 142.194 153.371 139.229 156.409 136.376C160.005 133 161.182 128.563 159.729 122.572L153.326 120.765C153.564 123.15 154.704 124.309 154.512 127.694C154.26 132.151 151.858 135.753 148.355 138.245C146.337 139.68 144.065 139.971 142.461 140.962V140.96Z" fill="#00B3BC"/>
<path fill-rule="evenodd" clip-rule="evenodd" d="M140.557 49.4293L140.406 64.7848C140.85 66.8 141.133 69.4956 144.148 68.1281C146.203 67.196 145.774 64.7082 145.774 61.9842C145.266 61.1265 145.241 52.8383 145.774 51.9521C145.774 49.239 146.203 46.6987 144.151 45.7841C143.278 45.3946 142.051 45.5478 141.308 46.1823C140.458 46.9087 140.595 48.0028 140.56 49.4293H140.557Z" fill="#9DDBD8"/>
<path fill-rule="evenodd" clip-rule="evenodd" d="M118.465 111.689L123.004 106.332C123.186 102.827 123.045 99.0309 123.045 95.4928C123.045 88.8369 124.703 89.1695 118.066 89.1695V106.332C118.066 108.107 117.727 110.918 118.465 111.689V111.689Z" fill="#FFC250"/>
<path fill-rule="evenodd" clip-rule="evenodd" d="M124.011 40.697L124.004 35.5792L123.869 32.2578C122.432 30.6759 119.585 30.8487 117.197 31.3629C116.647 33.5487 116.515 39.1895 116.883 41.8917C117.147 43.8412 118.606 43.5546 121.109 43.4255C123.185 43.3204 123.973 42.6575 124.011 40.697V40.697Z" fill="#9DDBD8"/>
<path fill-rule="evenodd" clip-rule="evenodd" d="M38.9477 124.369C39.2214 126.494 40.184 126.885 40.4175 128.006C41.9134 128.717 43.1968 130.047 45.7756 130.089C48.6139 130.132 49.7936 128.791 51.3767 127.979C51.9712 126.524 52.7333 126.308 52.9999 123.886C50.2182 123.621 45.1551 123.84 41.8615 123.787C38.2068 123.728 39.1435 123.743 38.9453 124.371L38.9477 124.369Z" fill="#F8F5F5"/>
<path fill-rule="evenodd" clip-rule="evenodd" d="M139.627 125.001C137.423 129.167 143.024 134.059 147.859 131.46C152.65 128.884 150.782 121.712 145.997 121.808L143.723 121.99C145.011 123.064 149.333 126.957 146.188 128.731C142.956 130.554 141.538 125.06 139.625 125.001H139.627Z" fill="#F8F5F5"/>
<path fill-rule="evenodd" clip-rule="evenodd" d="M135.988 120.299C137.114 121.984 138.888 122.868 139.631 124.999C141.542 125.058 142.96 130.552 146.195 128.73C149.34 126.955 145.017 123.065 143.729 121.988L146.004 121.807C144.472 120.737 144.633 122.435 142.814 120.829C141.95 120.067 141.575 119.319 140.801 118.433L138.036 117.794L135.988 120.299V120.299Z" fill="#DDDAEC"/>
<path fill-rule="evenodd" clip-rule="evenodd" d="M36.6868 80.1491C37.4135 77.1712 37.7934 79.2673 36.5712 76.1603C34.9291 75.3923 33.1832 72.4013 30.8357 73.1912C27.266 74.3924 30.4818 77.2609 31.2203 78.3352C30.1609 79.3286 27.4689 82.3502 31.0268 83.3042C33.2163 83.8906 35.2996 81.1031 36.6868 80.1513V80.1491Z" fill="#F8F5F5"/>
<path fill-rule="evenodd" clip-rule="evenodd" d="M113.599 89.1711H106.306C106.226 91.0047 105.645 95.0241 106.561 96.3063C107.627 97.0349 111.85 96.7789 113.341 96.5229C114.195 95.046 113.801 91.2038 113.599 89.1711V89.1711Z" fill="#00B3BC"/>
<path fill-rule="evenodd" clip-rule="evenodd" d="M51.3828 127.975C52.5625 128.666 62.1508 128.283 64.2813 128.183C64.765 126.649 64.9301 125.767 64.9301 123.756L62.0541 123.796L53.006 123.877C52.7418 126.301 51.9774 126.515 51.3828 127.971V127.975Z" fill="#00B3BC"/>
<path fill-rule="evenodd" clip-rule="evenodd" d="M27.5965 128.202C29.5713 128.302 39.3507 128.641 40.4242 128.007C40.1883 126.885 39.2257 126.495 38.9544 124.371C38.2513 123.515 37.9776 123.769 36.3851 123.778C35.295 123.784 34.2074 123.8 33.115 123.8C31.0577 123.8 29.0027 123.789 26.9453 123.808L27.5941 128.204L27.5965 128.202Z" fill="#00B3BC"/>
<path fill-rule="evenodd" clip-rule="evenodd" d="M47.7411 107.541C48.942 104.747 44.6102 99.4567 40.0921 111.941C38.9431 115.114 42.9162 116.547 44.5583 113.941C45.4785 112.48 47.071 109.104 47.7434 107.544L47.7411 107.541Z" fill="#9DDBD8"/>
<path fill-rule="evenodd" clip-rule="evenodd" d="M30.0658 57.5574H22.5466L22.4688 64.6793L30.1296 64.8937L30.0658 57.5574Z" fill="#00B3BC"/>
<path fill-rule="evenodd" clip-rule="evenodd" d="M56.4038 107.538C57.777 104.461 53.7567 102.545 51.8715 105.667C51.2675 106.667 49.0568 111.03 48.7053 112.08C47.62 115.325 51.7937 116.476 53.2565 113.872C54.2946 112.023 55.5568 109.433 56.4038 107.538Z" fill="#9DDBD8"/>
<path fill-rule="evenodd" clip-rule="evenodd" d="M38.9243 107.836C40.6136 104.368 36.2394 102.808 34.6751 105.366C33.9414 106.565 32.0445 110.44 31.5042 111.786C30.2561 114.897 33.9933 116.442 35.725 114.179C36.4376 113.249 38.2849 109.145 38.9219 107.836H38.9243Z" fill="#9DDBD8"/>
<path fill-rule="evenodd" clip-rule="evenodd" d="M82.7806 87.9684L88.955 87.8875C88.955 84.4063 88.1504 82.4021 85.9114 80.853C83.4978 79.1814 80.4661 79.5358 76.5 79.5358C82.061 81.8442 81.9878 81.702 82.7806 87.9662V87.9684Z" fill="#00B3BC"/>
<path fill-rule="evenodd" clip-rule="evenodd" d="M111.397 106.105C108.507 108.01 110.493 111.052 113.115 110.371C114.146 110.104 117.503 107.192 117.458 105.752C117.413 104.339 114.209 101.494 112.893 101.278C111.3 101.015 110.213 101.823 110.031 103.065C109.762 104.917 110.715 104.724 111.397 106.105Z" fill="#F8F5F5"/>
<path fill-rule="evenodd" clip-rule="evenodd" d="M145.769 61.9822C148.518 62.2295 150.981 59.5491 150.981 56.9541C150.981 54.37 148.423 51.7619 145.769 51.95C145.236 52.8362 145.262 61.1267 145.769 61.9822Z" fill="#FFCF64"/>
<path fill-rule="evenodd" clip-rule="evenodd" d="M138.076 64.7834H140.402L140.556 49.428H137.906L138.076 64.7834Z" fill="#00B3BC"/>
<circle cx="94.5" cy="187.5" r="22.5" fill="#00B3BC"/>
<path d="M95.226 196V191.8H86.63V189.154L93.994 175.308H98.824V188.93H101.414V191.8H98.824V196H95.226ZM95.226 188.93V179.452L90.368 188.93H95.226Z" fill="white"/>
</svg>
