<svg width="13842" height="7292" viewBox="0 0 13842 7292" fill="none" xmlns="http://www.w3.org/2000/svg">
<g clip-path="url(#clip0_865:1319)">
<path fill-rule="evenodd" clip-rule="evenodd" d="M11071.6 5856.28L12278.2 1349.54L13484.7 5856.28H13841.9L12456.7 682.531L12278.2 15.5254L12099.6 682.531L10714.4 5856.28H11071.6Z" fill="#00B3BC"/>
<path fill-rule="evenodd" clip-rule="evenodd" d="M7471.48 548.086C7761.21 218.758 8207.33 7.76172 8707.71 7.76172C9580.97 7.76172 10288.9 650.342 10288.9 1442.99H9943.9C9943.9 823.276 9390.45 320.882 8707.71 320.882C8024.99 320.882 7471.52 823.276 7471.48 1442.99C7471.48 2437.78 7477.15 3445.52 7507.86 4439.66C7509.36 5058.22 8060.99 5558.67 8737.77 5558.67C9414.55 5558.67 9956.09 5072.32 9973.55 4466.39L9973.6 4465.13C9984.44 4062.54 9973.95 3644.64 9973.92 3240.34L8971.75 3819.47C8860.21 3883.94 8700.62 4027.77 8700.62 4199.86C8700.62 4384.49 8824.96 4540.06 8994.43 4587.3C8684.16 4604.78 8422.57 4358.43 8422.57 4046.87C8422.57 3869.08 8508.19 3711.34 8640.39 3612.68L8637.15 3614.1C9197.67 3290.08 9758.37 2966.29 10319 2642.34C10319 3149.4 10358.7 4062.01 10313.4 4557.77V4557.93C10240.8 5355.03 9500.68 5871.76 8737.76 5871.76C7864.51 5871.76 7156.62 5229.19 7156.62 4436.54L7126.57 1442.98C7126.57 1104.54 7255.63 793.468 7471.48 548.076V548.086Z" fill="#00B3BC"/>
<path fill-rule="evenodd" clip-rule="evenodd" d="M3960.92 5864.05L5167.51 1357.3L6374.11 5864.05H6731.27L5346.08 690.291L5167.51 23.2861L4988.95 690.291L3603.75 5864.05H3960.92Z" fill="#00B3BC"/>
<path fill-rule="evenodd" clip-rule="evenodd" d="M1418.37 3002.65C1712.6 3152.1 2024.07 3307.09 2346.61 3536.21C2642.57 3741.23 2833.52 4064.77 2833.52 4428.79C2833.52 5048.49 2280.07 5550.89 1597.33 5550.89C914.607 5550.89 361.141 5048.49 361.103 4428.79L361.179 3516.43C360.97 3516.4 1102.01 3944.53 1363.35 4095.56C1474.89 4160.03 1634.48 4303.86 1634.48 4475.95C1634.48 4660.58 1510.14 4816.15 1340.67 4863.39C1350.93 4863.97 1361.28 4864.27 1371.67 4864.27C1670.37 4864.27 1912.54 4621.91 1912.54 4322.96C1912.54 4145.18 1826.91 3987.44 1694.71 3888.77L1697.95 3890.19L1692.04 3886.77L1691.98 3886.72C1133.39 3563.95 574.732 3241.21 16.1421 2918.43C16.1421 3425.49 -23.6232 4052.96 21.6727 4548.72V4548.88C93.8639 5340.74 832.425 5864 1597.34 5864C2470.6 5864 3178.48 5221.43 3178.48 4428.78C3178.48 3974.06 2945.53 3568.72 2582.03 3305.77C2574.29 3300.16 2566.52 3294.65 2558.67 3289.18C2312.23 3115.59 2066.6 2984.18 1826.2 2859.21C1575.71 2729.02 1330.94 2605.76 1096.75 2449C926.606 2327.14 661.952 2175.65 537.447 1965.12C444.138 1807.3 391.209 1626.87 391.209 1435.2C391.209 815.495 1017.24 313.102 1627.4 313.102C2237.55 313.102 2863.59 873.737 2863.63 1493.45V2347.56L1861.38 1768.43C1725.97 1690.21 1590.25 1568.89 1590.25 1388.03C1590.25 1203.41 1714.59 1047.84 1884.06 1000.6C1873.8 1000.02 1863.45 999.717 1853.05 999.717C1554.37 999.717 1312.18 1242.08 1312.18 1541.03C1312.18 1809.08 1453 1925.84 1641.25 2039.23L3208.6 2945.56C3208.6 2563.77 3211.7 1250.32 3208.18 1405.15C3189.22 567.327 2431.96 0 1627.39 0C730.355 0 46.2478 642.571 46.2478 1435.22C46.2478 1730.46 144.444 2004.83 312.786 2232.99C473.865 2415.04 647.112 2555 830.455 2675.1C1016.67 2797.06 1213.3 2898.5 1418.33 3002.66L1418.37 3002.65Z" fill="#00B3BC"/>
<path d="M292.64 7291.99C240.015 7291.99 189.605 7283.54 141.373 7266.67C93.132 7249.79 55.8668 7227.51 29.5586 7199.83L58.8972 7142.1C84.533 7167.76 118.607 7188.52 161.099 7204.38C203.592 7220.25 247.439 7228.18 292.64 7228.18C356.043 7228.18 403.603 7216.53 435.309 7193.24C467.005 7169.95 482.859 7139.74 482.859 7102.6C482.859 7074.24 474.26 7051.63 457.052 7034.75C439.854 7017.88 418.774 7004.88 393.82 6995.77C368.856 6986.65 334.12 6976.69 289.6 6965.89C236.312 6952.4 193.81 6939.39 162.113 6926.91C130.407 6914.43 103.246 6895.35 80.6503 6869.69C58.0544 6844.03 46.747 6809.27 46.747 6765.39C46.747 6729.61 56.1888 6697.03 75.0818 6667.67C93.9748 6638.31 122.982 6614.84 162.113 6597.29C201.234 6579.74 249.797 6570.96 307.812 6570.96C348.287 6570.96 387.92 6576.53 426.7 6587.67C465.49 6598.81 499.053 6614.17 527.387 6633.74L502.092 6693.5C472.413 6673.91 440.707 6659.23 406.974 6649.44C373.251 6639.64 340.19 6634.75 307.812 6634.75C245.763 6634.75 199.037 6646.74 167.672 6670.71C136.307 6694.67 120.624 6725.56 120.624 6763.37C120.624 6791.74 129.223 6814.51 146.43 6831.73C163.628 6848.94 185.211 6862.11 211.187 6871.23C237.155 6880.34 272.071 6890.3 315.909 6901.09C367.853 6913.92 409.834 6926.58 441.891 6939.07C473.928 6951.55 501.089 6970.46 523.344 6995.78C545.599 7021.09 556.735 7055.35 556.735 7098.56C556.735 7134.34 547.123 7166.92 527.899 7196.28C508.674 7225.64 479.165 7248.95 439.362 7266.15C399.568 7283.37 350.664 7291.98 292.65 7291.98L292.64 7291.99ZM1163.86 7096.54H769.228L684.233 7285.91H606.312L930.107 6577.04H1003.97L1327.78 7285.91H1248.85L1163.85 7096.54H1163.86ZM1136.53 7035.77L966.539 6655.02L796.549 7035.77H1136.53ZM2180.78 6577.03V7285.9H2108.94V6718.81L1830.67 7195.78H1795.26L1516.98 6721.85V7285.9H1445.15V6577.03H1506.87L1814.48 7102.6L2119.05 6577.03H2180.77H2180.78ZM2676.59 6577.03C2766.99 6577.03 2837.82 6598.63 2889.08 6641.84C2940.35 6685.05 2965.99 6744.46 2965.99 6820.07C2965.99 6895.69 2940.35 6954.93 2889.08 6997.79C2837.82 7040.66 2766.99 7062.1 2676.59 7062.1H2486.35V7285.9H2411.48V6577.03H2676.58H2676.59ZM2674.56 6996.29C2744.72 6996.29 2798.36 6980.92 2835.45 6950.21C2872.55 6919.5 2891.1 6876.12 2891.1 6820.08C2891.1 6762.7 2872.55 6718.64 2835.45 6687.93C2798.36 6657.21 2744.72 6641.85 2674.56 6641.85H2486.35V6996.29H2674.56ZM3536.67 7096.54H3142.04L3057.04 7285.91H2979.13L3302.93 6577.04H3376.8L3700.59 7285.91H3621.67L3536.66 7096.54H3536.67ZM3509.35 7035.77L3339.36 6655.02L3169.36 7035.77H3509.35ZM4409.91 6577.03V7285.9H4336.04V6958.81H3892.84V7285.9H3817.96V6577.03H3892.84V6892.99H4336.04V6577.03H4409.91ZM4981.61 7291.98C4941.15 7291.98 4903.71 7283.2 4869.31 7265.65C4834.89 7248.09 4806.9 7223.11 4785.31 7190.71L4829.84 7140.07C4868.97 7198.13 4919.9 7227.16 4982.63 7227.16C5070.32 7227.16 5114.17 7175.17 5114.17 7071.2V6641.83H4855.14V6577.02H5188.04V7068.17C5188.04 7142.44 5170.67 7198.3 5135.92 7235.77C5101.18 7273.23 5049.75 7291.97 4981.61 7291.97V7291.98ZM5698.01 7291.98C5606.28 7291.98 5534.77 7265.65 5483.5 7212.99C5432.23 7160.33 5406.6 7083.71 5406.6 6983.11V6577.03H5481.48V6980.08C5481.48 7062.44 5500.03 7123.88 5537.13 7164.39C5574.22 7204.89 5627.86 7225.15 5698 7225.15C5768.83 7225.15 5822.8 7204.89 5859.9 7164.39C5897.01 7123.88 5915.56 7062.44 5915.56 6980.08V6577.03H5988.42V6983.11C5988.42 7083.71 5962.94 7160.33 5912.01 7212.99C5861.07 7265.66 5789.74 7291.98 5698 7291.98H5698.01ZM6712.92 6931.47H6784.76V7201.84C6751.7 7230.87 6712.57 7253.16 6667.37 7268.69C6622.18 7284.22 6574.62 7291.98 6524.71 7291.98C6453.88 7291.98 6390.12 7276.45 6333.46 7245.39C6276.8 7214.34 6232.28 7171.31 6199.9 7116.29C6167.52 7061.26 6151.32 6999.65 6151.32 6931.48C6151.32 6863.28 6167.52 6801.69 6199.9 6746.66C6232.28 6691.64 6276.8 6648.6 6333.46 6617.55C6390.12 6586.49 6454.22 6570.97 6525.72 6570.97C6579.68 6570.97 6629.27 6579.57 6674.47 6596.8C6719.66 6614.01 6757.78 6639.49 6788.81 6673.25L6742.26 6720.85C6686.28 6665.49 6615.11 6637.81 6528.76 6637.81C6471.43 6637.81 6419.64 6650.46 6373.43 6675.78C6327.22 6701.1 6290.96 6736.21 6264.65 6781.09C6238.35 6825.99 6225.19 6876.12 6225.19 6931.49C6225.19 6986.84 6238.35 7036.8 6264.65 7081.36C6290.96 7125.93 6327.05 7161.02 6372.93 7186.68C6418.8 7212.34 6470.41 7225.16 6527.75 7225.16C6600.6 7225.16 6662.32 7206.92 6712.92 7170.47V6931.49V6931.47ZM7440.44 7096.54H7045.82L6960.83 7285.9H6882.91L7206.7 6577.03H7280.57L7604.37 7285.9H7525.45L7440.43 7096.54H7440.44ZM7413.12 7035.76L7243.13 6655.01L7073.14 7035.76H7413.12ZM8433.08 6920.32C8479.63 6930.45 8515.56 6950.53 8540.86 6980.58C8566.16 7010.62 8578.8 7049.28 8578.8 7096.54C8578.8 7157.3 8556.37 7204.04 8511.5 7236.79C8466.64 7269.53 8400.37 7285.9 8312.67 7285.9H7986.85V6577.03H8292.43C8371.34 6577.03 8432.57 6592.9 8476.08 6624.63C8519.59 6656.35 8541.34 6701.26 8541.34 6759.31C8541.34 6798.47 8531.73 6831.71 8512.5 6859.06C8493.27 6886.4 8466.8 6906.83 8433.07 6920.32H8433.08ZM8061.74 6638.8V6896.02H8287.38C8344.71 6896.02 8388.9 6885.05 8419.94 6863.1C8450.96 6841.16 8466.47 6809.27 8466.47 6767.41C8466.47 6725.55 8450.96 6693.65 8419.94 6671.72C8388.9 6649.78 8344.71 6638.8 8287.38 6638.8H8061.74ZM8311.66 7224.13C8375.07 7224.13 8422.97 7213.32 8455.35 7191.72C8487.72 7170.12 8503.91 7136.36 8503.91 7090.45C8503.91 7002.01 8439.82 6957.79 8311.66 6957.79H8061.74V7224.12H8311.66V7224.13ZM9250.68 7221.08V7285.89H8749.81V6577.02H9235.5V6641.83H8824.67V6893.99H9190.97V6957.79H8824.67V7221.08H9250.68ZM9910.41 7285.89L9748.52 7058.05C9730.31 7060.07 9711.42 7061.09 9691.86 7061.09H9501.61V7285.89H9426.74V6577.02H9691.85C9782.24 6577.02 9853.07 6598.62 9904.33 6641.83C9955.6 6685.04 9981.24 6744.45 9981.24 6820.07C9981.24 6875.42 9967.24 6922.17 9939.25 6960.32C9911.25 6998.46 9871.28 7025.97 9819.35 7042.85L9992.38 7285.89H9910.41ZM9689.83 6997.28C9759.98 6997.28 9813.62 6981.75 9850.71 6950.7C9887.81 6919.65 9906.36 6876.1 9906.36 6820.07C9906.36 6762.68 9887.81 6718.62 9850.71 6687.91C9813.62 6657.19 9759.98 6641.83 9689.83 6641.83H9501.61V6997.28H9689.83ZM10750.3 6577.02V7285.89H10676.4V6958.8H10233.2V7285.89H10158.3V6577.02H10233.2V6892.98H10676.4V6577.02H10750.3ZM11425.2 7096.53H11030.5L10945.5 7285.89H10867.6L11191.4 6577.02H11265.3L11589.1 7285.89H11510.2L11425.2 7096.53H11425.2ZM11397.9 7035.75L11227.9 6655L11057.9 7035.75H11397.9ZM12190.1 7285.88L12028.2 7058.04C12010 7060.06 11991.2 7061.08 11971.6 7061.08H11781.4V7285.88H11706.5V6577.01H11971.6C12062 6577.01 12132.8 6598.61 12184.1 6641.82C12235.3 6685.03 12261 6744.44 12261 6820.06C12261 6875.41 12247 6922.16 12219 6960.31C12191 6998.45 12151 7025.96 12099.1 7042.84L12272.1 7285.88H12190.1ZM11969.6 6997.27C12039.7 6997.27 12093.3 6981.74 12130.4 6950.69C12167.5 6919.64 12186.1 6876.09 12186.1 6820.06C12186.1 6762.67 12167.5 6718.61 12130.4 6687.9C12093.3 6657.18 12039.7 6641.82 11969.6 6641.82H11781.4V6997.27H11969.6ZM12936.9 6931.45H13008.7V7201.82C12975.7 7230.86 12936.6 7253.14 12891.4 7268.67C12846.2 7284.2 12798.6 7291.96 12748.7 7291.96C12677.9 7291.96 12614.1 7276.43 12557.5 7245.38C12500.8 7214.33 12456.3 7171.29 12423.9 7116.27C12391.5 7061.24 12375.3 6999.63 12375.3 6931.46C12375.3 6863.27 12391.5 6801.67 12423.9 6746.64C12456.3 6691.62 12500.8 6648.58 12557.5 6617.53C12614.1 6586.47 12678.2 6570.95 12749.7 6570.95C12803.7 6570.95 12853.3 6579.56 12898.5 6596.78C12943.6 6613.99 12981.8 6639.47 13012.8 6673.23L12966.3 6720.83C12910.3 6665.47 12839.1 6637.79 12752.7 6637.79C12695.4 6637.79 12643.6 6650.44 12597.4 6675.76C12551.2 6701.08 12514.9 6736.19 12488.6 6781.07C12462.3 6825.97 12449.2 6876.1 12449.2 6931.47C12449.2 6986.82 12462.3 7036.78 12488.6 7081.34C12514.9 7125.91 12551 7161 12596.9 7186.66C12642.8 7212.32 12694.4 7225.14 12751.7 7225.14C12824.6 7225.14 12886.3 7206.9 12936.9 7170.45V6931.47V6931.45ZM13664.4 7096.52H13269.8L13184.8 7285.88H13106.9L13430.7 6577.01H13504.6L13828.4 7285.88H13749.4L13664.4 7096.52H13664.4ZM13637.1 7035.74L13467.1 6654.99L13297.1 7035.74H13637.1Z" fill="#00B3BC"/>
</g>
<defs>
<clipPath id="clip0_865:1319">
<rect width="13842" height="7292" fill="white"/>
</clipPath>
</defs>
</svg>
