<svg width="80" height="34" viewBox="0 0 80 34" fill="none" xmlns="http://www.w3.org/2000/svg">
<path fill-rule="evenodd" clip-rule="evenodd" d="M64.0556 34L71 7.76549L77.9444 34H80L72.0277 3.88275L71 0L69.9723 3.88275L62 34H64.0556Z" fill="#00B3BC"/>
<path fill-rule="evenodd" clip-rule="evenodd" d="M43.0425 3.13285C44.7582 1.22338 47.3999 0 50.3631 0C55.5342 0 59.7261 3.72574 59.7261 8.32156H57.6834C57.6834 4.72843 54.406 1.8155 50.3631 1.8155C46.3202 1.8155 43.0427 4.72843 43.0425 8.32156C43.0425 14.0895 43.076 19.9324 43.2579 25.6966C43.2667 29.283 46.5334 32.1847 50.5411 32.1847C54.5487 32.1847 57.7556 29.3648 57.859 25.8515L57.8593 25.8442C57.9235 23.51 57.8614 21.087 57.8612 18.7428L51.9266 22.1006C51.2661 22.4744 50.3211 23.3084 50.3211 24.3062C50.3211 25.3767 51.0574 26.2787 52.0609 26.5526C50.2236 26.6539 48.6745 25.2256 48.6745 23.4191C48.6745 22.3883 49.1816 21.4737 49.9644 20.9016L49.9452 20.9099C53.2645 19.0312 56.5848 17.1538 59.9044 15.2755C59.9044 18.2155 60.1399 23.5069 59.8717 26.3814V26.3823C59.4414 31.004 55.0588 34 50.541 34C45.3698 34 41.1779 30.2743 41.1779 25.6785L41 8.32151C41 6.35923 41.7643 4.5556 43.0425 3.13279V3.13285Z" fill="#00B3BC"/>
<path fill-rule="evenodd" clip-rule="evenodd" d="M23.0556 34L30 7.76548L36.9444 34H39L31.0277 3.88274L30 0L28.9723 3.88274L21 34H23.0556Z" fill="#00B3BC"/>
<path fill-rule="evenodd" clip-rule="evenodd" d="M8.39571 17.4096C10.1373 18.2762 11.981 19.1748 13.8902 20.5033C15.642 21.692 16.7723 23.5679 16.7723 25.6785C16.7723 29.2716 13.4963 32.1846 9.45501 32.1846C5.41379 32.1846 2.13769 29.2716 2.13746 25.6785L2.13791 20.3886C2.13668 20.3884 6.52309 22.8707 8.07003 23.7464C8.73026 24.1202 9.67492 24.9542 9.67492 25.952C9.67492 27.0225 8.9389 27.9245 7.93577 28.1984C7.99648 28.2017 8.05775 28.2035 8.11924 28.2035C9.88732 28.2035 11.3208 26.7983 11.3208 25.0649C11.3208 24.0341 10.8139 23.1195 10.0314 22.5475L10.0506 22.5557L10.0156 22.5359L10.0152 22.5356C6.70881 20.6641 3.40198 18.7929 0.0955491 16.9213C0.0955491 19.8613 -0.139832 23.4994 0.128286 26.3739V26.3748C0.555604 30.9661 4.92733 34 9.45507 34C14.6241 34 18.8143 30.2743 18.8143 25.6785C18.8143 23.042 17.4353 20.6918 15.2837 19.1672C15.2379 19.1346 15.1919 19.1027 15.1454 19.071C13.6867 18.0645 12.2327 17.3026 10.8097 16.578C9.32704 15.8231 7.87815 15.1084 6.49193 14.1995C5.48482 13.493 3.91826 12.6146 3.18129 11.394C2.62896 10.4789 2.31566 9.43273 2.31566 8.3214C2.31566 4.72832 6.02133 1.81539 9.63299 1.81539C13.2447 1.81539 16.9503 5.06601 16.9505 8.65915V13.6113L11.018 10.2535C10.2165 9.79998 9.41308 9.09658 9.41308 8.04795C9.41308 6.97746 10.1491 6.07545 11.1522 5.80156C11.0915 5.79821 11.0303 5.79645 10.9687 5.79645C9.20069 5.79645 7.76715 7.20167 7.76715 8.93501C7.76715 10.4892 8.60066 11.1662 9.715 11.8236L18.9925 17.0786C18.9925 14.865 19.0109 7.24948 18.99 8.1472C18.8778 3.28941 14.3954 0 9.63294 0C4.32316 0 0.273753 3.72569 0.273753 8.32151C0.273753 10.0334 0.855002 11.6242 1.85146 12.9471C2.80493 14.0026 3.83042 14.8141 4.91567 15.5105C6.01791 16.2176 7.18181 16.8058 8.39543 17.4097L8.39571 17.4096V17.4096Z" fill="#00B3BC"/>
</svg>
