<svg width="83" height="82" viewBox="0 0 83 82" fill="none" xmlns="http://www.w3.org/2000/svg">
<rect x="0.929688" width="81.4865" height="81.4865" rx="30" fill="#B7F4F1"/>
<path d="M41.987 20.001C42.6853 20.001 43.3731 20.0463 44.0128 20.1529C44.6429 20.2355 45.2645 20.3728 45.8707 20.5634C46.4784 20.7473 47.0729 20.9766 47.6673 21.2644C48.2457 21.539 48.8401 21.8749 49.4345 22.24C50.4395 22.8798 51.4284 23.3969 52.436 23.8101C54.4195 24.604 56.517 25.0764 58.6494 25.2095C59.7316 25.2868 60.8431 25.3321 62 25.3321V35.9943C62 38.0202 61.7414 39.9394 61.2243 41.7679C60.7276 43.5704 60.0217 45.3086 59.1212 46.9471C58.2244 48.5833 57.1634 50.124 55.9545 51.5452C54.7271 52.9988 53.3981 54.3634 51.9775 55.6289C50.5381 56.898 49.0221 58.0776 47.438 59.1607C45.8547 60.2589 44.2554 61.2799 42.656 62.2075L42.0163 62.5886L41.3766 62.2075C39.7324 61.2556 38.1265 60.2392 36.5626 59.1607C34.9696 58.0898 33.4528 56.9096 32.0231 55.6289C30.6034 54.3634 29.2753 52.9987 28.0487 51.5452C26.8431 50.1179 25.7773 48.5782 24.8661 46.9471C23.9809 45.3013 23.2758 43.5649 22.7629 41.7679C22.2425 39.888 21.986 37.9449 22.0006 35.9943V25.3321C23.1601 25.3321 24.2716 25.2868 25.3539 25.2095C26.4192 25.1355 27.4776 24.9831 28.5206 24.7537C29.5415 24.5244 30.5624 24.2206 31.5673 23.8101C32.6101 23.3892 33.6098 22.8688 34.5527 22.256C35.7256 21.4937 36.9144 20.9313 38.0873 20.5607C39.3504 20.1735 40.6659 19.9847 41.987 20.001ZM59.3184 27.9523C57.3007 27.8544 55.3017 27.5171 53.3636 26.9474C51.4357 26.3723 49.5994 25.526 47.9098 24.4338C47.0335 23.8586 46.0817 23.4074 45.0817 23.093C44.0827 22.7911 43.0439 22.6419 42.0003 22.6505C40.949 22.6437 39.9025 22.7929 38.8949 23.093C37.8934 23.3971 36.9429 23.849 36.0748 24.4338C34.3823 25.5319 32.5412 26.382 30.6077 26.9581C28.7178 27.5072 26.74 27.8431 24.6662 27.9657V36.0077C24.6662 37.7749 24.8954 39.4649 25.3539 41.0936C25.8209 42.7081 26.4646 44.2662 27.2731 45.7396C28.0913 47.2284 29.0556 48.6321 30.1519 49.9299C31.2634 51.2387 32.4496 52.4568 33.7291 53.6137C35.0085 54.7732 36.3493 55.8394 37.7514 56.8284C39.1668 57.82 40.5849 58.7182 42.0003 59.5392C43.4496 58.6955 44.8627 57.7911 46.2359 56.8284C47.6472 55.8426 48.9951 54.7689 50.2715 53.6137C51.551 52.4568 52.7398 51.2387 53.8514 49.9299C54.9478 48.6322 55.9121 47.2285 56.7302 45.7396C57.5351 44.268 58.1692 42.7092 58.6201 41.0936C59.0925 39.4399 59.3276 37.7275 59.3184 36.0077V27.9523Z" fill="#036451"/>
<path fill-rule="evenodd" clip-rule="evenodd" d="M51.9211 32.553L50.7483 31.5454L49.6661 31.6387L38.0442 45.361L34.0859 39.71L33.0196 39.5288L31.7855 40.4111L31.6016 41.4773L36.6901 48.7436L37.2685 49.0635L38.4867 49.1381L39.1104 48.8662L51.9984 33.6325L51.9211 32.553Z" fill="#036451"/>
</svg>
