<svg width="83" height="82" viewBox="0 0 83 82" fill="none" xmlns="http://www.w3.org/2000/svg">
<rect x="0.609375" width="81.4865" height="81.4865" rx="30" fill="#B7F4F1"/>
<path d="M36.8025 47.6913L42.7284 49.6666C42.7284 49.6666 57.5432 46.7036 59.5185 46.7036C61.4938 46.7036 61.4938 48.6789 59.5185 50.6542C57.5432 52.6295 50.6296 58.5555 44.7037 58.5555C38.7778 58.5555 34.8272 55.5925 30.8765 55.5925H21" stroke="#036451" stroke-width="4" stroke-linecap="round" stroke-linejoin="round"/>
<path d="M21 43.7408C22.9753 41.7655 26.9259 38.8025 30.8765 38.8025C34.8272 38.8025 44.2099 42.7531 45.6914 44.7284C47.1728 46.7037 42.7284 49.6667 42.7284 49.6667" stroke="#036451" stroke-width="4" stroke-linecap="round" stroke-linejoin="round"/>
<path d="M32.8516 32.8765V24.9753C32.8516 24.4514 33.0597 23.949 33.4301 23.5786C33.8006 23.2081 34.303 23 34.8269 23H58.5306C59.0545 23 59.5569 23.2081 59.9273 23.5786C60.2978 23.949 60.5059 24.4514 60.5059 24.9753V40.7778" stroke="#036451" stroke-width="4" stroke-linecap="round" stroke-linejoin="round"/>
<path d="M41.7422 23H51.6187V31.8889H41.7422V23Z" stroke="#036451" stroke-width="4" stroke-linecap="round" stroke-linejoin="round"/>
</svg>
