<svg width="629" height="479" viewBox="0 0 629 479" fill="none" xmlns="http://www.w3.org/2000/svg">
<circle cx="317" cy="240" r="207" fill="white"/>
<path fill-rule="evenodd" clip-rule="evenodd" d="M130.726 175.457C131.8 173.795 131.794 174.151 133.722 174.496C141.632 175.908 149.543 177.32 157.453 178.733C184.227 183.513 211.001 188.293 237.775 193.074C247.214 194.759 256.655 196.445 266.094 198.13C267.473 198.376 270.177 198.317 271.392 199.076C272.016 199.466 272.481 200.621 272.885 201.248C274.633 203.961 276.38 206.675 278.128 209.389C287.94 224.621 298.044 239.662 308.058 254.761C319.193 271.549 330.328 288.338 341.464 305.126L294.617 304.517C297.51 306.406 300.402 308.296 303.295 310.185C323.724 323.531 344.154 336.875 364.583 350.22L335.38 369.72L345.723 380.689C342.498 382.527 339.272 384.364 336.047 386.202C330.134 389.573 324.22 392.942 318.307 396.312C316.211 397.507 314.115 398.701 312.019 399.896C311.526 400.176 310.829 400.764 310.311 400.718C309.533 400.647 308.129 399.301 307.496 398.89C305.498 397.588 303.502 396.281 301.509 394.971C295.375 390.939 289.264 386.874 283.176 382.772C268.252 372.716 253.361 362.538 239.074 351.585C232.473 346.526 226.345 341.28 221.188 334.697C215.514 327.454 210.829 319.456 206.709 311.241C203.24 304.325 200.169 297.206 197.445 289.964C196.509 287.476 194.191 283.491 194.233 280.757C194.256 279.287 195.531 277.172 196.024 275.812C197.195 272.588 198.366 269.363 199.537 266.139C200.137 264.484 201.317 262.43 201.523 260.667C201.773 258.54 200.742 255.629 200.41 253.527C200.25 252.505 200.272 249.626 199.498 249.048C198.983 248.663 197.041 248.858 196.422 248.81C191.398 248.424 186.375 248.036 181.352 247.649C167.881 246.612 154.411 245.574 140.94 244.536C137.232 244.25 133.067 244.449 129.427 243.649C126.678 243.045 124.959 240.836 124.137 238.255C121.67 230.5 119.338 222.623 117.835 214.618C116.383 206.88 117.786 200.859 120.954 193.7C123.727 187.433 127.002 181.218 130.726 175.457ZM488.088 249.673C485.426 259.834 481.705 272.544 473.844 279.907C470.856 282.706 466.867 284.535 463.232 286.314C457.885 288.928 452.402 291.267 446.882 293.489C437.14 297.411 426.906 301.756 416.526 303.659C413.644 304.187 412.177 303.669 409.778 301.937C405.749 299.028 402.106 295.533 398.504 292.123C392.731 286.657 387.114 281.013 381.618 275.267C402.439 275.216 423.908 274.263 444.283 269.782C459.804 266.37 475.391 259.337 488.088 249.673Z" fill="#00B3BC"/>
<path fill-rule="evenodd" clip-rule="evenodd" d="M275.536 35.2462C280.552 37.4856 283.2 43.6818 285.834 48.1625C288.995 53.5396 291.859 59.1708 293.474 65.2256C295.128 71.4296 295.358 78.2321 294.624 84.5976C294.302 87.3983 293.545 89.9473 292.745 92.6268C291.891 95.4908 293.222 97.1288 295.249 99.1483C299.462 103.343 304.766 106.562 307.893 111.73C310.541 116.109 313.621 116.919 318.614 117.107C331.015 117.573 343.168 117.189 355.454 119.565C358.573 120.168 361.673 120.907 364.741 121.731C365.75 122.002 366.804 122.475 367.843 122.57C369.341 122.706 369.596 122.11 370.715 121.532C375.638 118.994 381.887 121.433 386.807 122.825C399.229 126.34 410.949 131.126 422.208 137.466C434.366 144.313 447.327 149.628 459.372 156.679C471.009 163.49 481.463 172.062 492.317 180.013C503.355 188.1 513.824 196.851 524.031 205.962C533.897 214.768 544.097 223.411 552.921 233.292C560.967 242.301 567.323 252.966 571.587 264.298C573.01 268.08 572.133 270.463 567.685 269.215C567.291 273.041 564.443 274.64 560.833 273.823C561.942 277.033 564.474 281.381 563.025 284.836C561.098 289.429 555.58 286.086 552.873 284.296C553.167 287.988 554.735 293.982 551.691 296.962C546.973 301.579 539.01 295.695 535.668 292.245C527.153 283.452 521.707 272.572 514.147 263.087C504.777 251.331 494.222 240.247 483.629 229.604C482.793 228.764 473.364 218.631 472.012 220.008C476.126 226.831 479.414 234.342 485.166 240.01C487.896 236.169 489.874 238.062 490.387 241.919C491.003 246.555 491.689 251.437 490.836 256.084C489.158 265.229 483.394 273.927 477.337 280.776C471.001 287.939 463.135 293.394 454.696 297.784C449.918 300.27 445.126 302.599 439.987 304.231C437.685 304.962 435.38 305.81 433.016 306.317C430.743 306.806 428.285 306.771 426.181 307.876C445.026 316.888 465.876 320.684 484.766 329.463C489.325 331.582 498.481 337.09 493.854 343.28C490.276 348.07 482.143 348.239 476.805 349.195C480.732 352.908 480.147 356.355 474.984 358.376C472.91 359.188 470.749 359.565 468.537 359.623C467.036 359.662 464.441 359.127 463.228 360.309C467.908 362.457 474.289 362.326 478.136 366.1C482.061 369.95 477.373 373.048 473.866 374.533C469.252 376.485 462.908 378.545 458.215 376.19C454.506 374.329 451.081 374.733 446.979 374.243C442.75 373.739 438.569 372.832 434.489 371.613C418.953 366.97 404.648 358.378 390.929 349.926C377.222 341.482 364.439 331.888 352.618 320.941C349.702 318.24 347.273 315.026 344.293 312.411C341.156 309.659 337.871 309.413 333.858 309.458C324.736 309.562 315.63 307.936 306.512 309.008C319.618 318.901 333.467 327.615 347.253 336.501C352.499 339.882 358.013 344.391 364.18 345.865C366.886 346.512 372.691 346.942 373.59 350.283C374.247 352.721 372.165 353.13 370.918 354.453C369.112 356.369 371.655 357.01 373.519 357.804C375.868 358.804 378.012 359.126 380.571 358.861C384.488 358.456 387.561 358.591 391.211 360.272C396.946 362.911 403.104 364.332 408.854 366.914C411.235 367.984 411.861 371.171 413.01 373.335C414.817 376.736 416.905 379.974 418.955 383.231C422.817 389.371 426.151 395.687 431.632 400.585C436.435 404.877 441.784 408.679 447.001 412.453C455.148 418.349 465.513 425.638 462.894 437.202C460.305 448.634 448.475 447.405 439.461 445.363C435.667 444.504 430.483 442.101 426.657 443.231C423.357 444.206 421.084 444.351 417.66 443.572C413.689 442.669 409.694 442.082 405.672 441.459C397.24 440.153 388.738 437.999 380.681 435.175C376.817 433.821 373.589 432.013 370.546 429.245C369.641 428.423 368.984 427.258 367.782 427.267C366.759 427.276 365.178 429.093 364.387 429.724C361.89 431.715 359.129 433.378 356.279 431.01C354.46 429.497 352.841 426.207 355.472 424.649C357.489 423.455 361.172 424.823 362.618 422.565C364.132 420.201 360.747 416.77 359.687 414.848C356.488 417.023 351.781 421.422 348.071 417.781C345.099 414.865 348.405 413.096 351.146 412.163C354.534 411.009 358.455 411.157 356.728 406.619C355.747 404.042 354.177 401.733 353.925 398.92C353.733 396.782 354.349 394.724 354.364 392.603C354.391 388.811 350.321 385.545 346.775 384.647C344.609 384.098 343.966 385.951 342.636 387.372C340.682 389.459 338.185 391.022 335.696 392.384C331.613 394.618 327.327 396.391 323.047 398.194C320.211 399.388 315.199 400.953 317.224 404.572C320.187 409.872 313.242 407.335 310.738 406.133C304.913 403.336 299.031 400.666 293.28 397.716C281.483 391.664 270.629 384.191 260.21 376.012C249.982 367.983 239.995 359.453 230.701 350.347C226.2 345.935 221.897 341.296 218.064 336.285C213.947 330.903 210.48 325.067 206.285 319.738C201.933 314.208 197.631 308.843 194.827 302.32C192.229 296.276 189.28 289.529 189.233 282.888C189.181 275.552 189.211 268.963 191.633 261.926C192.643 258.99 193.857 255.932 195.618 253.365C196.124 252.627 198.782 250.103 198.237 249.097C198.268 249.154 192.2 250.083 191.565 250.143C187.537 250.529 183.484 249.837 179.471 249.462C167.605 248.353 155.627 248.768 143.805 247.136C139.347 246.521 134.511 247.167 130.161 246.033C128.105 245.498 127.599 244.319 126.089 243.354C125.4 242.914 124.662 243.06 124.021 242.448C123.27 241.731 123.108 240.697 122.776 239.762C121.001 234.771 118.011 230.315 116.254 225.315C114.278 219.69 114.368 213.861 114.511 207.982C111.577 208.216 108.495 208.236 105.742 207.046C103.52 214.04 93.9505 213.914 88.0679 213.383C80.7215 212.721 72.1078 212.028 68.3844 204.643C64.0088 195.963 64.2978 185.427 63.7685 175.955C63.1467 164.83 62.9696 153.54 63.5154 142.409C63.9796 132.942 66.1333 123.114 72.2447 115.601C77.6369 108.971 86.9655 105.092 94.3034 111.278C99.8185 115.929 102.227 124.305 102.587 131.28C102.771 134.83 102.606 138.018 106.968 137.034C108.646 136.655 110.17 136.043 111.407 137.767C112.498 139.285 111.997 141.479 110.616 142.614C109.365 143.644 106.93 143.47 106.073 145.001C105.224 146.519 106.567 148.95 108.177 149.259C110.01 149.611 111.421 147.252 113.267 148.346C114.959 149.35 114.075 151.225 112.942 152.323C111.601 153.623 110.309 153.895 111.268 155.952C112.003 157.531 113.474 158.582 114.134 160.256C115.763 164.386 116.301 170.32 114.489 174.474C117.634 174.824 125.236 178.549 127.709 175.536C128.606 174.443 128.713 172.837 129.683 171.722C130.824 170.409 132.418 169.851 134.107 169.64C137.716 169.187 141.409 170.287 144.915 170.996C150.728 172.172 156.576 173.202 162.414 174.241C174.162 176.332 186.018 177.787 197.737 180.033C209.43 182.275 221.003 185.11 232.567 187.933C238.632 189.413 244.668 191.077 250.778 192.359C256.488 193.556 262.438 194.439 267.752 196.972C266.702 190.463 263.77 184.481 261.942 178.189C260.062 171.717 259.534 165.256 260.595 158.592C261.568 152.485 263.009 146.55 266.119 141.154C267.377 138.972 268.761 136.798 270.573 135.038C271.861 133.786 273.674 132.746 274.693 131.253C275.697 129.78 275.484 129.438 273.675 128.76C272.669 128.382 271.756 128.268 270.803 127.74C269.926 127.253 269.172 126.37 268.141 126.202C265.763 125.813 262.288 128.122 260.11 128.943C257.136 130.064 254.065 131.073 250.891 131.414C240.476 132.534 228.124 126.483 220.984 119.152C218.601 116.706 213.132 111.08 215.355 107.349C216.528 105.379 218.625 105.847 220.385 104.953C223.143 103.552 221.395 101.227 220.075 99.3829C216.477 94.358 214.064 88.6073 211.488 83.0163C208.865 77.326 205.271 72.2389 202.324 66.7308C200.209 62.7783 197.757 58.3573 196.784 53.9589C195.597 48.5872 199.227 47.8279 203.664 47.0583C217.7 44.6232 231.52 41.3515 245.43 38.3052C250.975 37.0914 256.546 35.8574 262.127 34.8221C266.477 34.0152 271.359 33.3827 275.536 35.2462ZM398.731 370.351C391.493 370.724 384.211 372.334 383.979 380.793C384.857 396.846 395.279 408.844 406.29 419.491C409.068 422.177 411.787 425.025 414.804 427.446C416.579 428.87 418.515 429.522 420.435 430.65C420.906 430.927 421.72 431.854 422.157 431.994C423.195 432.331 423.285 431.953 424.298 431.846C426.505 431.613 426.912 433.153 428.59 434.414C431.774 436.804 437.488 436.454 441.227 437.202C444.679 437.893 458.423 442.879 457.805 435.697C457.201 428.679 449.729 425.27 444.463 422.136C437.124 417.768 429.558 413.04 423.379 407.087C417.504 401.426 413.669 393.681 409.723 386.632C407.264 382.239 406.583 378.514 405.873 373.605C405.573 371.528 405.542 370.848 403.514 370.498C401.946 370.228 400.314 370.27 398.731 370.351ZM373.549 369.185C369.367 370.542 366.209 373.901 364.128 377.7C363.062 379.644 362.451 381.605 362.099 383.779C361.651 386.547 360.619 389.502 361.391 392.284C362.791 397.333 366.467 402.846 369.354 407.178C372.599 412.05 376.814 417.518 381.937 420.505C386.866 423.38 392.82 424.146 397.392 427.694C396.983 425.743 395.156 424.302 393.722 423.085C391.631 421.311 389.803 419.55 388.027 417.438C384.099 412.768 380.835 407.71 378.742 401.949C376.715 396.365 375.554 390.082 375.813 384.13C375.936 381.297 376.422 378.288 377.643 375.705C378.458 373.978 379.904 372.509 380.529 370.693C381.959 366.53 375.634 368.508 373.549 369.185ZM281.856 231.193C276.018 231.857 270.23 232.98 264.35 233.524C252.463 234.623 240.124 235.274 229.351 240.961C213.677 249.237 195.626 267.604 201.062 286.95C207.484 309.804 221.212 330.469 238.401 346.641C249.374 356.965 261.392 366.268 273.446 375.281C285.106 383.999 298.596 389.718 310.616 397.868C311.431 385.858 318.965 374.844 327.875 367.203C332.662 363.098 337.687 359.164 343.056 355.849C345.693 354.219 348.425 352.843 351.206 351.482C353.317 350.45 355.649 348.913 358.062 348.798C358.023 347.027 353.589 346.373 352.365 345.956C348.143 344.519 344.091 342.316 340.18 340.182C331.666 335.536 323.799 329.866 315.92 324.233C312.069 321.48 308.157 318.809 304.347 315.997C300.916 313.466 297.875 310.173 294.188 308.018C290.396 305.801 285.914 305.338 281.683 304.52C276.6 303.538 271.599 302.372 266.492 301.51C257.964 300.071 249.915 295.041 242.053 291.613C239.41 290.46 235.377 289.46 233.36 287.278C231.531 285.3 232.009 282.247 234.352 280.891C238.383 278.561 245.1 281.6 248.911 283.104C255.962 285.886 262.963 288.376 270.444 289.801C280.692 291.753 290.431 295.408 300.693 297.321C311.759 299.383 322.851 301.64 334.102 302.4C331.345 296.929 326.775 292.383 323.215 287.434C319.131 281.756 315.053 276.075 311.004 270.372C303.868 260.318 295.91 250.215 290.486 239.102C288.626 235.292 286.796 230.63 281.856 231.193ZM334.849 377.69C333.225 377.95 331.998 379.577 330.894 380.653C327.475 383.981 324.129 387.277 321.346 391.179C325.652 389.357 329.165 386.182 333.316 384.094C334.812 383.342 340.096 381.665 339.031 379.569C338.432 378.391 336.044 377.499 334.849 377.69ZM354.613 364.284C350.397 367.167 346.007 369.744 341.56 372.249C344.679 373.437 347.793 375.074 350.353 377.226C351.523 378.21 353.93 381.091 355.622 380.367C357.195 379.694 358.05 375.795 358.812 374.388C360.762 370.786 363.49 367.383 366.423 364.542C362.016 361.588 359.063 361.243 354.613 364.284ZM319.021 207.379C315.646 208.32 312.297 209.348 308.925 210.296C302.192 212.189 295.311 213.772 288.28 213.772C287.323 215.535 290.064 218.412 290.906 219.756C293.116 223.288 295.003 227.075 297.007 230.731C301.256 238.479 305.891 245.928 310.891 253.21C315.944 260.567 320.507 268.274 325.681 275.542C330.689 282.578 336.197 289.413 341.622 296.131C362.756 322.304 392.212 340.354 421.163 356.568C429.278 361.113 437.732 365.117 446.719 367.599C450.429 368.624 454.214 369.492 457.989 370.256C460.525 370.768 464.746 371.917 467.081 370.273C459.748 367.363 450.139 366.24 444.216 360.609C440.549 357.123 444.571 354.522 448.309 353.874C455.544 352.621 463.042 355.777 470.143 353.729C468.245 350.241 462.789 350.408 459.47 349.512C455.274 348.38 455.118 346.256 459.114 344.812C464.031 343.034 469.699 343.998 474.824 343.671C477.325 343.511 487.808 343.093 484.642 338.28C482.15 334.494 476.083 333.433 472.113 332.036C466.542 330.077 461.131 327.019 455.458 325.501C449.909 324.016 444.255 323.104 438.706 321.536C432.914 319.9 427.212 318.081 421.708 315.626C411.098 310.893 401.261 304.466 392.3 297.089C383.067 289.487 374.973 280.774 367.525 271.431C363.607 266.516 359.878 261.458 356.066 256.461C352.384 251.636 348.221 247.037 345.273 241.711C342.014 235.82 337.79 230.442 334.415 224.571C332.586 221.39 330.618 218.269 328.912 215.019C327.7 212.708 326.875 209.32 325.236 207.312C323.695 205.425 321.001 206.827 319.021 207.379ZM163.135 282.037C164.266 283.072 164.078 283.499 163.861 284.814C163.415 287.508 162.922 290.153 162.716 292.887C162.006 302.239 163.323 311.937 164.777 321.173C166.23 330.389 169.721 338.903 175.101 346.525C180.314 353.91 186.606 359.794 194.895 363.418C196.318 364.04 201.954 366.323 201.589 368.429C201.315 370.012 198.39 369.117 197.338 368.891C182.437 365.693 169.81 352.197 162.279 339.634C159.162 334.433 157.157 329.146 155.435 323.398C155.183 322.558 151.575 310.665 152.793 310.515C151.741 302.28 151.427 292.266 155.313 284.644C156.764 281.797 160.166 279.321 163.135 282.037ZM137.139 283.809C135.779 290.017 136.229 296.351 136.529 302.64C136.583 303.785 137.237 307.316 135.345 307.249C134.009 307.201 132.943 303.783 132.615 302.906C130.629 297.585 129.923 291.591 130.916 285.983C131.229 284.207 131.702 282.053 133.651 281.436C135.347 280.9 137.289 281.858 137.139 283.809ZM485.338 255.146C484.5 255.551 484.13 256.323 483.88 257.17C477.326 262.766 469.614 268.183 461.949 272.132C455.103 275.659 447.174 277.146 439.701 278.741C422.61 282.39 405.593 283.864 388.547 279.142C395.513 285.579 401.829 294.133 410.61 298.234C414.973 300.272 419.802 299.043 424.201 297.752C429.598 296.168 435.028 294.55 440.251 292.451C450.12 288.484 460.676 284.094 468.974 277.294C472.653 274.279 475.652 270.553 478.292 266.616C479.804 264.36 481.083 261.948 482.613 259.709C483.495 258.419 485.426 256.829 485.338 255.146ZM412.517 140.667C412.266 143.851 410.394 146.526 408.743 149.14C407.62 150.918 405.432 153.062 406.47 155.078C407.701 157.471 411.627 159 413.661 160.637C416.674 163.06 419.495 165.708 422.269 168.398C427.245 173.226 432.398 177.906 437.269 182.837C441.897 187.522 446.387 192.296 452.224 195.49C465.04 202.503 476.322 212.303 487.52 221.62C498.938 231.12 510.214 241.106 520.121 252.203C525.423 258.142 529.829 264.66 533.608 271.657C535.552 275.256 537.635 278.777 539.582 282.375C540.443 283.967 541.416 285.513 542.2 287.146C542.782 288.359 543.161 290.324 544.237 291.223C546.366 286.491 543.044 280.232 541.119 275.969C539.803 273.056 538.511 270.131 537.212 267.209C536.3 265.16 534.405 262.686 534.301 260.399C534.048 254.838 541.197 258.839 543.157 260.621C548.01 265.033 550.808 271.665 554.243 277.139C555.051 272.781 546.389 266.052 549.975 262.254C552.819 259.241 558.062 266.298 559.654 268.209C560.745 262.821 557.948 257.55 555.024 253.237C551.766 248.431 548 243.86 544.141 239.531C535.12 229.413 524.811 220.408 514.612 211.513C504.466 202.663 494.021 194.174 483.619 185.63C473.518 177.334 463.265 169.037 451.975 162.395C445.644 158.671 439.004 155.555 432.542 152.079C425.774 148.438 419.358 144.174 412.517 140.667ZM324.28 128.394C323.985 128.468 322.277 128.673 322.149 128.824C321.593 129.481 322.335 131.605 322.991 131.986C320.726 133.682 318.182 135.226 315.303 135.49C317.114 137.27 320.555 140.383 320.02 143.254C319.283 147.204 314.545 144.434 312.627 143.239C309.547 141.32 306.401 139.285 304.146 136.391C302.715 134.555 302.227 132.608 301.156 130.631C300.574 129.557 300.912 129.362 299.624 129.288C298.152 129.204 295.633 130.603 294.268 131.159C292.161 132.018 290.105 133.009 288.123 134.129C284.467 136.197 281.044 138.706 278.045 141.653C271.836 147.754 267.631 155.77 267.098 164.547C271.504 164.024 275.815 162.12 279.528 159.746C282.173 158.056 284.871 156.069 285.337 160.84C285.519 162.698 285 167.024 283.886 168.462C282.847 169.804 282.398 168.716 281.318 169.521C280.071 170.453 280.729 171.795 280.729 173.104C280.128 172.598 279.527 172.093 278.926 171.587C277.838 173.011 279.069 172.248 279.48 173.109C279.72 173.611 278.08 175.057 277.753 175.313C277.076 175.843 276.702 175.404 275.927 176.166C275.43 176.656 274.893 177.755 274.353 178.367C271.564 181.528 275.258 186.483 276.718 189.835C277.799 192.317 278.979 194.751 280.104 197.212C280.928 199.013 281.373 201.152 282.466 202.811C284.637 206.106 289.611 204.306 292.858 203.903C297.263 203.355 301.588 202.794 305.997 202.379C308.581 202.136 311.502 200.63 308.183 198.681C304.889 196.746 293.51 196.38 293.436 191.405C293.359 186.115 300.696 185.236 304.375 185.69C309.758 186.355 313.236 187.715 316.918 191.784C316.093 184.025 310.597 177.608 309.37 169.823C309.037 167.708 308.013 154.675 313.087 160.306C315.804 163.322 317.956 167.886 319.964 171.373C323.003 176.653 325.652 182.139 328.443 187.551C331.105 192.716 335.006 197.679 336.871 203.173C337.92 206.264 339.385 212.76 342.715 214.337C344.849 215.348 348.451 214.025 350.655 213.703C352.016 213.504 353.344 213.309 354.512 212.521C355.117 212.114 355.715 211.057 356.478 210.939C358.678 210.598 359.246 213.964 359.096 215.514C358.865 217.904 357.769 218.524 355.544 218.801C359.295 220.642 353.515 226.401 352.501 228.697C352.448 228.58 351.79 226.966 351.301 226.968C350.328 226.971 354.279 234.762 354.577 235.303C356.65 239.064 359.252 242.445 361.769 245.911C363.216 247.903 365.297 252.615 368.24 252.17C369.87 251.923 373.257 248.562 374.537 250.867C375.693 252.945 372.124 255.175 371.586 256.828C370.685 259.6 374.075 262.514 376.073 263.968C381.367 267.82 388.232 268.729 394.497 269.891C393.3 268.275 390.692 267.394 390.64 265.079C390.605 263.505 391.716 262.646 390.965 260.933C390.347 259.522 388.797 258.703 388.336 257.191C387.828 255.524 388.63 253.63 389.545 252.253C393.422 246.414 402.083 248.844 407.162 251.496C406.787 251.662 406.476 251.901 406.229 252.213L406.169 252.292L406.183 252.283C406.834 251.883 409.66 253.136 410.012 253.39C411.124 254.193 412.625 256.065 413.394 257.225C415.868 260.959 416.222 265.509 414.937 269.742C430.425 269.742 445.015 265.607 458.876 259.017C462.041 257.512 465.151 256.549 468.15 254.655C471.231 252.71 474.158 250.551 477.183 248.527C480.025 246.625 479.768 245.483 477.865 242.779C475.547 239.489 473.505 235.98 470.932 232.877C470.537 233.737 470.383 235.457 469.538 235.985C468.605 236.569 467.748 235.409 467.119 235.848C467.175 235.809 465.187 238.903 464.867 238.133C465.695 240.126 462.378 238.852 461.791 238.483C461.928 240.351 460.377 241.96 459.507 239.462C457.142 241.63 451.534 239.646 454.559 236.303C456.052 234.653 457.677 233.776 458.615 231.622C459.666 229.211 460.033 226.483 460.165 223.876C460.477 217.732 457.157 214.863 452.996 210.879C450.672 208.654 448.246 206.543 445.856 204.392C443.754 202.501 441.936 200.16 439.731 198.408C438.148 197.149 436.884 196.787 435.347 197.88C434.714 198.33 434.508 198.902 433.694 199.336C432.651 199.893 431.105 200.237 429.942 200.382C424.094 201.111 417.325 199.103 411.966 196.94C410.499 196.348 409.796 195.384 408.526 194.651C407.723 194.187 407.038 194.468 406.186 193.914C403.958 192.467 404.07 190.144 405.69 188.335C409.484 184.097 414.935 187.909 418.813 184.487C423.645 180.223 415.589 174.326 412.335 171.716C409.73 169.627 407.492 169.175 404.309 168.626C403.642 168.511 399.221 167.233 400.768 169.07C397.332 168.981 395.643 168.995 392.877 171.144C392.151 171.707 391.186 172.239 390.986 173.2C390.881 173.707 391.924 173.809 391.926 173.804C391.786 174.145 390.736 174.763 390.585 174.872C392.354 175.082 391.895 178.561 391.438 178.58L391.412 178.577L391.464 178.622C392.236 179.354 390.493 180.483 389.902 180.672C388.223 181.21 386.63 180.041 385.508 178.873C382.995 176.258 381.171 171.81 381.332 168.185C381.558 163.098 384.893 160.149 387.644 156.335C389.703 153.482 386.644 151.965 384.514 150.174C381.908 147.985 378.363 145.293 377.506 141.805C376.726 138.627 378.89 137.54 381.663 138.496C385.411 139.786 388.443 143.108 391.765 145.187C394.712 147.031 398.433 150.798 402.035 151.013C401.374 148.658 398.102 148.907 396.836 147.158C395.164 144.847 397.761 143.816 399.726 144.081C401.251 144.287 405.603 147.521 405.49 143.792C405.429 141.794 402.102 141.124 400.653 140.547C393.292 137.612 385.752 135.61 377.946 134.251C375.416 133.811 374.768 134.119 373.546 136.407C373.131 137.184 371.639 140.759 370.821 138.389C369.752 140.331 369.44 142.4 367.115 143.182C364.156 144.175 360.351 142.705 357.625 141.564C355.285 140.586 353.061 139.213 351.56 137.121C350.813 136.081 350.268 134.926 349.915 133.695C349.616 132.65 349.758 130.937 349.216 129.988C348.312 128.4 346.155 128.743 344.49 128.584C340.772 128.23 337.102 127.91 333.365 127.866C330.26 127.83 327.296 127.641 324.28 128.394ZM405.099 267.874C403.91 268.3 406.022 269.726 406.72 269.558C406.434 269.096 405.959 267.566 405.099 267.874ZM406.169 252.292L406.137 252.317C406.096 252.354 406.068 252.402 406.056 252.461C406.083 252.417 406.111 252.375 406.139 252.333L406.169 252.292ZM429.949 214.857C431.026 215.762 430.592 217.859 431.328 219.147C433.3 222.597 436.854 225.999 440.202 228.082C443.809 230.325 445.516 233.236 446.399 237.3C446.582 238.139 447.133 239.305 446.864 240.175C446.612 240.987 445.702 241.257 445.422 241.981C445.293 242.312 445.83 244.873 445.765 244.881C445.454 244.919 444.546 243.63 444.552 243.636C444.192 244.53 444.317 245.545 443.348 246.023L443.23 246.076L443.245 246.087C443.487 246.275 444.589 247.191 444.326 247.393C443.959 247.673 443.062 247.481 442.605 247.644C441.883 247.903 441.362 248.547 440.667 248.847C438.804 249.65 436.655 249.402 434.688 249.119C430.545 248.523 425.883 247.039 422.887 243.964C419.26 240.24 420.12 236.382 419.793 232.205C419.426 227.518 422.8 220.415 425.511 216.782C426.436 215.541 428.289 213.463 429.949 214.857ZM131.923 178.397C131.689 178.951 131.922 179.817 131.785 180.426C131.508 181.659 130.793 182.739 130.106 183.774C128.819 185.712 127.524 187.488 126.646 189.674C124.491 195.041 122.492 200.825 121.459 206.515C119.245 218.732 126.639 228.808 127.041 240.707C130.437 237.126 135.6 236.955 140.201 236.944C146.323 236.931 152.389 237.189 158.488 237.726C170.156 238.753 182.084 239.17 193.142 243.442C194.359 243.912 195.273 244.116 196.495 244.372C197.838 244.654 197.126 244.025 198.108 244.821C198.372 245.035 198.478 245.808 198.754 246.08C200.182 247.479 201.038 246.528 202.248 245.027C205.577 240.893 208.899 237.137 213.182 233.925C222.306 227.081 232.526 223.921 243.774 222.903C250.22 222.32 256.515 221.984 262.989 222.046C269.171 222.106 275.698 222.219 281.554 224.435C280.098 220.26 277.61 216.518 275.604 212.601C274.63 210.699 273.727 208.7 272.488 206.95C271.4 205.411 269.756 204.154 269.003 202.397C268.868 202.75 268.734 203.103 268.599 203.455C256.706 200.043 244.443 198.205 232.25 196.254C220.002 194.294 207.907 191.577 195.685 189.488C189.549 188.438 183.39 187.807 177.209 187.104C171.26 186.428 165.524 185.105 159.658 183.981C153.717 182.842 147.934 181.462 142.092 179.894C139.643 179.236 137.324 178.329 134.941 177.537C133.04 176.906 132.608 176.771 131.923 178.397ZM394.908 200.056C395.263 201.517 394.128 203.401 393.764 204.788C393.351 206.361 392.456 206.991 391.99 208.421C391.584 209.664 392.315 216.251 389.144 214.284C389.241 214.757 389.763 215.405 389.816 215.827C389.885 216.352 389.375 217.155 389.523 217.608C389.656 218.015 391.049 219.209 391.387 219.89C392.719 222.564 393.66 225.642 394.316 228.554C395 231.591 395.831 235.798 393.32 237.894C392.717 238.398 392.191 238.533 391.572 239.138C391.499 239.697 391.244 240.16 390.807 240.525C390.567 240.593 390.374 240.533 390.23 240.346C389.465 240.761 389.72 239.016 388.821 240.712C388.603 241.122 388.995 242.526 388.801 242.382C388.448 242.121 387.384 241.009 387.039 240.989C386.267 242.041 386.285 240.969 385.469 241.119C385.437 241.555 385.201 241.795 384.761 241.839C384.417 241.76 384.074 241.68 383.731 241.601C381.654 241.613 378.587 240.741 376.594 240.189C372.788 239.137 370.073 236.514 369.247 232.54C367.528 224.263 374.479 213.915 379.448 207.896C381.146 205.84 393.067 192.494 394.908 200.056ZM428.095 226.724C428.042 227.419 428.256 228.458 427.477 228.535C427.512 227.751 427.183 226.746 428.095 226.724ZM373.948 225.545C374.302 227.55 374.384 226.405 373.579 227.784C373.308 226.972 373.431 226.226 373.948 225.545ZM431.569 222.961C431.878 223.346 433.062 224.386 432.043 224.652C431.151 224.884 431.531 223.436 431.569 222.961ZM388.696 209.067C388.291 211.224 389.512 210.708 391.191 210.316C390.36 209.9 389.527 209.483 388.696 209.067ZM77.3473 122.067C69.3006 128.983 69.0579 141.076 69.3116 150.81C69.6565 164.036 70.4578 177.299 71.7342 190.467C72.311 196.417 74.0054 199.447 79.8691 201.441C86.2214 203.601 93.0635 203.183 99.6524 202.799C98.3924 192.988 95.9266 180.079 105.753 173.549C106.652 172.952 107.475 172.511 108.569 172.454C109.292 172.417 110.329 173.073 111.015 172.738C112.403 172.058 111.609 170.134 111.154 169.045C109.773 165.735 107.136 163.086 104.997 160.277C102.31 156.751 100.002 156.846 95.9899 157.281C94.3904 157.456 88.0983 158.174 89.337 154.753C90.2368 152.266 95.1801 152.889 97.1829 152.313C98.7009 151.876 99.0106 151.684 98.9455 150.13C98.8426 147.701 97.4524 147.042 95.2957 147.109C92.5214 147.193 87.7181 148.67 85.408 146.485C82.1092 143.364 87.0014 141.179 89.4818 140.755C92.0785 140.311 95.5512 140.715 96.1505 137.496C96.7212 134.425 95.104 130.709 93.8404 128.005C92.6175 125.39 90.9462 122.057 88.3946 120.486C84.7941 118.271 80.3522 119.484 77.3473 122.067ZM108.579 179.847C105.311 180.581 103.43 184.843 103.05 187.824C102.683 190.707 102.934 194.821 105.044 197.037C107.814 199.944 112.643 199.749 115.624 202.478C116.945 195.911 119.387 189.592 122.595 183.724C120.062 183.025 117.593 182.121 115.095 181.31C113.267 180.717 110.542 179.405 108.579 179.847ZM318.374 193.993C319.107 194.621 319.339 194.812 319.528 195.797C317.788 195.907 318.312 195.347 318.374 193.993ZM335.632 147.285C338.352 147.356 339.623 148.237 341.806 149.543C343.361 150.473 345.247 149.472 345.247 151.836C349.687 148.341 357.966 157.365 361.078 159.728C364.361 162.221 367.593 165.156 367.956 169.605C368.064 170.923 367.792 172.273 367.989 173.585C368.138 174.573 368.763 175.561 368.657 176.586C368.531 177.774 367.528 178.469 367.297 179.586C367.206 180.028 367.518 180.917 367.324 181.275C365.334 184.929 362.784 187.927 358.417 188.289C354.614 188.604 350.413 187.244 347.641 184.586C345.182 182.228 343.715 178.695 343.078 175.391C342.968 174.819 343.178 173.51 342.99 173.027C342.716 172.322 342.305 172.31 341.966 171.74C341.068 170.229 339.778 167.381 340.944 165.72C338.069 166.371 335.884 160.2 334.81 158.4C334.005 157.053 332.066 155.998 331.527 154.688C330.789 152.89 333.443 152.118 332.523 150.866C332.031 150.196 329.389 150.652 329.649 148.973C329.89 147.42 334.594 147.257 335.632 147.285ZM391.332 178.518C391.358 178.551 391.385 178.57 391.411 178.577L391.412 178.577L391.402 178.569L391.332 178.518ZM383.741 165.063C383.991 164.848 385.327 163.493 385.484 164.509C385.612 165.342 384.141 165.063 383.741 165.063ZM259.064 59.5383C256.164 59.7156 253.58 62.8509 251.42 64.4968C248.195 66.9538 244.384 68.7575 240.583 70.1213C236.159 71.7075 231.611 73.1194 227.069 74.323C222.461 75.5441 217.662 75.794 213.069 77.0627C215.342 81.2284 217.615 85.3947 219.888 89.561C220.884 88.1868 220.544 86.6354 222.184 85.6476C223.322 84.962 224.97 84.8682 226.256 84.6147C229.839 83.9084 233.77 83.2832 237.406 84.0138C239.752 84.4855 242.363 86.2947 240.141 88.8212C238.738 90.4153 235.72 90.0058 235.474 92.5378C235.238 94.9637 237.711 97.0478 237.138 99.5986C236.333 103.184 232.757 102.11 231.166 99.7924C229.748 97.7254 230.286 94.0496 228.096 92.5591C226.79 91.67 223.298 91.3495 221.892 92.1106C224.477 96.8893 229.501 102.781 226.554 108.494C225.648 110.249 223.67 110.918 224.996 112.643C226.525 114.632 230.939 116.27 233.288 115.662C235.488 115.092 238.009 112.609 240.483 113.838C242.82 114.998 241.164 116.966 241.37 118.788C241.992 124.274 253.226 121.145 256.275 120.417C259.335 119.687 262.527 117.92 265.686 117.848C268.664 117.779 271.43 119.217 273.79 120.901C275.557 122.163 278.498 125.853 280.74 125.976C282.99 126.1 286.179 122.764 288.164 121.754C291.726 119.942 295.619 119.418 299.393 118.21C299.993 118.019 302.611 117.48 302.658 116.604C302.702 115.762 299.608 113.921 299.082 113.519C294.28 109.846 290.763 104.783 285.768 101.344C283.54 99.8101 281.134 98.729 278.532 98.0386C277.088 97.6559 273.155 97.1398 273.051 95.0771C279.981 93.9144 280.153 85.2558 277.231 80.346C275.373 77.2236 272.489 75.7385 268.847 76.4101C263.57 77.3838 262.605 81.2528 261.397 85.8438C257.085 83.494 252.384 77.7397 252.127 72.6691C251.843 67.0318 257.887 64.6077 259.064 59.5383ZM387.798 97.4245C395.068 98.7755 402.18 100.576 409.181 102.969C413.493 104.443 419.768 105.711 423.497 108.476C424.586 109.284 425.957 111.061 424.964 112.481C424.108 113.705 422.012 113.375 420.773 113.185C415.144 112.318 409.629 109.958 404.061 108.686C389.26 105.305 374.076 103.716 358.955 102.634C354.785 102.336 350.612 102.078 346.442 101.785C342.97 101.541 339.153 101.651 335.753 100.864C333.071 100.243 332.403 98.2691 334.411 96.0467C336.369 93.881 339.653 94.2186 342.276 93.8231C357.537 92.8249 372.809 94.639 387.798 97.4245ZM362.505 79.735C367.452 81.4425 361.67 82.2566 359.506 82.0774C358.772 82.0171 349.095 81.0555 349.095 81.3535C347.163 81.3535 342.053 82.8331 340.666 80.877C339.176 78.7765 345.555 78.0391 346.844 77.9459C351.801 77.5882 357.74 78.0915 362.505 79.735Z" fill="black"/>
</svg>
