<svg width="530" height="503" viewBox="0 0 530 503" fill="none" xmlns="http://www.w3.org/2000/svg">
<circle r="223" transform="matrix(-1 0 0 1 287 280)" fill="#EBFFFE"/>
<path fill-rule="evenodd" clip-rule="evenodd" d="M449.665 271.278C449.357 271.818 443.717 278.829 442.605 280.297L407.105 330.148C399.061 340.993 387.931 332.031 393.158 321.668L435.418 262.085C444.745 249.407 454.456 262.865 449.657 271.278H449.665ZM391.536 285.674L377.087 305.986C372.558 316.3 358.837 313.503 346.198 313.503C333.904 313.503 321.249 313.827 308.993 313.404L277.811 313.08C264.473 318.805 227.943 309.936 229.258 274.232C229.828 258.658 237.339 250.195 245.179 243.723C258.014 233.127 261.176 236.695 263.504 216.035L146.376 216.001C134.014 217.794 133.819 221.851 126.076 225.162C121.855 232.156 117.762 235.84 115.742 245.822C126.046 244.71 166.36 248.61 172.406 254.186C190.265 252.252 211.466 275.078 217.497 286.28C222.228 295.067 225.578 304.509 226.734 316.98C228.507 336.081 223.28 335.699 217.527 346.187C244.098 346.187 260.77 343.681 272.974 360.873C280.514 371.494 283.616 369.021 299.703 369.021C311.561 369.021 323.412 369.021 335.27 369.021H351.139H382.742C398.513 360.151 395.231 364.549 405.708 349.132C418.355 330.513 454.471 283.152 457.385 266.955C460.952 247.1 445.113 213.214 438.94 195.806C434.674 183.766 418.768 135.268 414.42 128.821C414.42 159.032 414.42 189.243 414.42 219.453C414.42 235.318 416.59 251.199 410.184 260.442C404.724 268.316 397.544 278.779 391.559 285.674H391.536Z" fill="#9DDBD8"/>
<path fill-rule="evenodd" clip-rule="evenodd" d="M123.891 291.388C121.864 296.35 115.983 311.908 113.715 315.442C108.203 324.03 96.2991 318.164 100.279 306.365C101.999 301.262 108.037 286.567 110.373 282.021C115.352 272.321 129.276 278.237 123.899 291.388H123.891ZM179.541 290.243C176.845 297.429 172.827 307.253 169.523 314.264C164.867 324.138 151.581 319.773 155.036 307.469C156.155 303.486 163.192 286.941 165.114 283.149C171.115 271.309 183.912 278.569 179.541 290.243ZM151.964 290.243C149.824 296.168 144.754 308.97 141.825 314.505C136.606 324.387 123.951 318.952 127.609 306.921C141.998 259.585 155.779 279.639 151.957 290.235L151.964 290.243ZM115.735 245.819C104.928 246.359 90.6215 255.842 84.005 262.041C75.0455 270.437 69.4204 280.104 64.7866 293.33C58.6884 310.729 46.5145 337.538 64.7115 348.897C71.2904 353.004 76.3748 351.818 85.7624 351.926C92.3037 351.859 98.8525 351.892 105.401 351.892C108.879 351.892 112.341 351.834 115.81 351.81C120.88 351.776 121.751 350.814 123.989 354.058C124.62 351.677 121.638 351.619 133.271 351.843C143.756 352.042 159.872 351.212 168.727 352.216L197.528 351.909C209.454 325.465 202.124 292.566 186.916 270.985C184.4 267.417 182.786 264.638 179.902 261.601C177.964 259.568 172.129 255.627 172.399 254.175C166.354 248.599 126.047 244.699 115.735 245.811V245.819Z" fill="#B7F4F1"/>
<path fill-rule="evenodd" clip-rule="evenodd" d="M33.0427 207.054L115.586 207.121L116.743 186.369C112.327 189.978 105.696 200.549 98.7262 198.325C87.3934 194.716 95.9625 183.249 99.342 179.482C96.9989 175.408 86.7551 164.53 98.1179 159.975C105.583 156.98 111.14 168.322 116.375 171.235L115.519 101.18L133.28 101.205L95.6846 100.699L95.8874 128.52L71.502 127.707L71.7499 100.699C25.0595 100.699 33.0277 91.6053 33.0277 132.669C33.0277 157.461 33.0277 182.245 33.0277 207.038L33.0427 207.054Z" fill="#FFCF64"/>
<path fill-rule="evenodd" clip-rule="evenodd" d="M354.581 284.802C352.403 279.566 349.369 280.297 350.232 273.277C350.81 268.564 354.273 265.502 359.342 266.498C363.533 267.32 373.731 278.098 373.874 283.466C374.017 288.926 363.33 299.97 360.048 300.982C351.712 303.554 345.381 292.029 354.581 284.802ZM308.994 313.403C321.243 313.826 333.898 313.503 346.199 313.503C358.839 313.503 372.567 316.299 377.088 305.985C374.738 303.073 375.819 292.403 375.819 285.673V220.589H361.625C362.278 228.289 363.525 242.859 360.806 248.468C356.053 249.439 342.617 250.41 339.222 247.647C336.308 242.784 338.163 227.55 338.411 220.589C303.624 220.589 308.994 212.922 308.994 250.277C308.994 271.319 308.994 292.361 308.994 313.395V313.403Z" fill="#FFCF64"/>
<path fill-rule="evenodd" clip-rule="evenodd" d="M414.392 128.826C418.748 135.273 434.647 183.771 438.913 195.811C445.086 213.219 460.925 247.105 457.358 266.961C454.444 283.166 418.328 330.519 405.681 349.138C395.204 364.563 398.486 360.157 382.715 369.027C394.866 369.027 404.93 370.081 412.327 364.065C420.934 358.664 425.004 346.773 432.86 338.642L439.379 329.141L471.139 281.689L475.337 273.126C483.448 255.245 467.053 219.201 459.431 198.259C455.465 187.364 436.728 133.074 433.836 128.121L414.4 126.486V128.826H414.392Z" fill="#B7F4F1"/>
<path fill-rule="evenodd" clip-rule="evenodd" d="M87.8398 368.603C92.406 394.175 118.031 417.499 145.75 418.146C161.244 418.511 174.89 410.521 183.827 403.144C195.437 393.569 199.102 384.334 204.622 368.553C197.841 368.926 167.319 370.378 163.564 367.765C158.518 370.843 154.763 375.929 145.735 375.763C137.527 375.614 133.441 370.561 128.68 367.864C125.263 370.279 94.1333 368.984 87.8474 368.603H87.8398Z" fill="#00B3BC"/>
<path fill-rule="evenodd" clip-rule="evenodd" d="M464.734 344.349C479.964 343.984 485.912 371.182 470.659 380.948C455.271 390.806 437.442 372.253 444.456 356.454C442.098 348.373 436.443 345.021 432.861 338.632C425.005 346.763 420.942 358.653 412.328 364.055C412.328 390.366 432.44 414.876 453.469 416.975C458.576 413.217 465.815 412.113 472.229 406.67C483.374 397.211 491.027 383.554 491.83 366.66C492.439 353.824 488.811 349.435 488.053 340.383C478.823 337.91 457.028 330.517 448.174 331.554C450.63 334.915 451.831 337.752 454.58 340.64C460.37 346.73 459.86 340.291 464.734 344.349Z" fill="#00B3BC"/>
<path fill-rule="evenodd" clip-rule="evenodd" d="M157.077 207.269L157.76 213.832C152.203 214.114 150.25 212.92 146.367 215.998L263.495 216.031C260.979 192.276 261.204 192.815 243.503 184.062C225.712 184.062 207.92 184.103 190.136 184.062C179.907 184.037 173.374 183.937 167.35 188.575C159.179 194.856 160.606 197.586 157.069 207.277L157.077 207.269Z" fill="#00B3BC"/>
<path fill-rule="evenodd" clip-rule="evenodd" d="M126.072 225.159C133.815 221.849 134.003 217.791 146.372 215.999C150.255 212.921 152.208 214.116 157.765 213.833L157.082 207.27L134.349 207.121H115.618L33.0746 207.054C17.2658 206.133 16.2144 212.108 16.5448 194.334C16.8077 180.411 16.342 176.072 4.13808 176.072L0.232814 180.893C0.195263 183.656 0.105142 186.261 0 188.725V205.188C0.62334 210.556 2.33565 215.095 6.41364 219.227C14.4795 227.4 27.5697 225.168 42.3721 225.168C70.2722 225.168 98.1798 225.234 126.08 225.159H126.072Z" fill="#00B3BC"/>
<path fill-rule="evenodd" clip-rule="evenodd" d="M439.387 329.129L448.189 331.551C457.043 330.514 478.837 337.899 488.067 340.38L508.45 347.233L509.749 347.325C511.108 311.887 493.437 292.073 471.147 281.676L439.387 329.129Z" fill="#9DDBD8"/>
<path fill-rule="evenodd" clip-rule="evenodd" d="M197.536 351.931L206.691 351.782L217.528 346.206C223.281 335.71 228.508 336.092 226.736 316.999C225.579 304.529 222.23 295.086 217.498 286.299C211.468 275.098 190.267 252.264 172.408 254.205C172.137 255.657 177.973 259.599 179.91 261.631C182.794 264.668 184.416 267.448 186.925 271.016C202.125 292.597 209.462 325.496 197.536 351.939V351.931Z" fill="#00B3BC"/>
<path fill-rule="evenodd" clip-rule="evenodd" d="M116.387 171.259C120.278 183.041 119.069 175.092 116.755 186.385L115.599 207.136H134.329C134.329 191.239 136.657 109.145 133.293 101.238L115.531 101.213L116.387 171.267V171.259Z" fill="#FFC250"/>
<path fill-rule="evenodd" clip-rule="evenodd" d="M277.798 313.09C266.893 310.037 260.652 306.643 255.005 297.367C249.733 288.721 246.316 277.055 250.664 263.505C255.598 248.122 266.848 242.546 278.782 232.913C284.79 228.067 283.145 226.275 283.145 215.737L263.491 216.044C261.163 236.705 258.009 233.137 245.167 243.733C237.326 250.205 229.816 258.668 229.245 274.242C227.938 309.954 264.468 318.824 277.798 313.09Z" fill="#B7F4F1"/>
<path fill-rule="evenodd" clip-rule="evenodd" d="M414.403 126.477L433.839 128.112H439.525L438.984 69.8809L435.079 70.0136C433.239 74.7099 439.322 86.4589 435.477 97.7267C415.154 106.273 424.707 80.7421 417.512 69.9555C390.709 71.6067 384.828 118.852 414.411 126.477H414.403Z" fill="#9DDBD8"/>
<path fill-rule="evenodd" clip-rule="evenodd" d="M471.137 281.695C493.427 292.091 511.105 311.905 509.739 347.343L526.832 354.844C527.891 352.388 528.627 349.757 529.107 347.027V329.811C527.245 316.8 521.875 304.396 517.429 298.58C507.471 285.569 494.899 274.883 475.335 273.115L471.137 281.678V281.695Z" fill="#00B3BC"/>
<path fill-rule="evenodd" clip-rule="evenodd" d="M394.757 36.7791C398.594 39.0111 410.062 43.2262 412.691 45.5163C416.078 48.4618 417.505 63.4635 417.505 69.9603C424.699 80.7469 415.147 106.27 435.469 97.7316C439.314 86.4721 433.231 74.723 435.071 70.0184C430.94 59.8707 433.584 37.6752 425.796 32.1741C418.842 27.262 403.19 21.7526 394.727 17.3633L394.749 36.7708L394.757 36.7791Z" fill="#00B3BC"/>
<path fill-rule="evenodd" clip-rule="evenodd" d="M351.113 369.038H335.244L334.764 382.737C323.791 382.737 312.766 382.778 301.742 382.737C291.986 382.695 275.599 384.023 283.147 397.523C286.594 403.688 304.408 401.007 313.112 401.007C324.482 401.007 335.845 401.007 347.215 401.007C350.715 395.241 351.451 397.556 351.406 387.367C351.376 381.285 351.601 375.07 351.113 369.038Z" fill="#00B3BC"/>
<path fill-rule="evenodd" clip-rule="evenodd" d="M449.665 271.278C454.457 262.865 444.753 249.407 435.426 262.085L393.166 321.668C387.939 332.032 399.069 341.001 407.113 330.148L442.613 280.298C443.717 278.829 449.365 271.818 449.673 271.278H449.665Z" fill="#F8F5F5"/>
<path fill-rule="evenodd" clip-rule="evenodd" d="M453.477 416.989C473.311 421.669 488.203 410.426 497.876 399.606C509.322 386.803 513.069 369.976 508.443 347.258L488.061 340.404C488.819 349.448 492.447 353.846 491.838 366.682C491.035 383.584 483.389 397.241 472.237 406.692C465.816 412.135 458.583 413.239 453.477 416.998V416.989Z" fill="#00B3BC"/>
<path fill-rule="evenodd" clip-rule="evenodd" d="M447.418 69.8873L446.938 128.118C448.349 135.76 449.251 145.982 458.849 140.797C465.39 137.262 464.023 127.828 464.023 117.498C462.408 114.245 462.326 82.8146 464.023 79.4542C464.023 69.1655 465.39 59.5322 458.856 56.0639C456.077 54.587 452.172 55.1678 449.806 57.5741C447.103 60.3288 447.538 64.4775 447.426 69.8873H447.418Z" fill="#9DDBD8"/>
<path fill-rule="evenodd" clip-rule="evenodd" d="M377.103 305.987L391.553 285.675C392.131 272.383 391.681 257.987 391.681 244.57C391.681 219.329 396.96 220.59 375.834 220.59V285.675C375.834 292.404 374.753 303.066 377.103 305.987Z" fill="#FFC250"/>
<path fill-rule="evenodd" clip-rule="evenodd" d="M394.751 36.7728L394.728 17.3653L394.3 4.76983C389.726 -1.22917 380.662 -0.573678 373.062 1.37621C371.312 9.66529 370.891 31.0559 372.063 41.3032C372.904 48.6962 377.545 47.6092 385.513 47.1197C392.122 46.7214 394.631 44.2073 394.751 36.7728Z" fill="#9DDBD8"/>
<path fill-rule="evenodd" clip-rule="evenodd" d="M123.992 354.073C124.863 362.13 127.927 363.615 128.671 367.863C133.432 370.56 137.518 375.605 145.726 375.763C154.761 375.929 158.516 370.842 163.555 367.764C165.448 362.246 167.874 361.425 168.722 352.239C159.868 351.235 143.751 352.065 133.267 351.866C121.634 351.642 124.615 351.7 123.984 354.081L123.992 354.073Z" fill="#F8F5F5"/>
<path fill-rule="evenodd" clip-rule="evenodd" d="M444.456 356.468C437.441 372.266 455.27 390.818 470.658 380.961C485.911 371.195 479.963 343.997 464.733 344.362L457.493 345.051C461.594 349.125 475.352 363.886 465.341 370.615C455.052 377.526 450.539 356.692 444.448 356.468H444.456Z" fill="#F8F5F5"/>
<path fill-rule="evenodd" clip-rule="evenodd" d="M432.867 338.639C436.45 345.028 442.097 348.38 444.463 356.462C450.546 356.686 455.06 377.52 465.356 370.609C475.367 363.88 461.608 349.127 457.508 345.045L464.748 344.356C459.874 340.299 460.384 346.737 454.594 340.647C451.845 337.76 450.651 334.922 448.188 331.561L439.386 329.139L432.867 338.639Z" fill="#DDDAEC"/>
<path fill-rule="evenodd" clip-rule="evenodd" d="M116.782 186.383C119.095 175.09 120.305 183.039 116.414 171.257C111.187 168.344 105.63 157.002 98.1573 159.997C86.7944 164.552 97.0307 175.43 99.3814 179.504C96.0094 183.271 87.4403 194.73 98.7656 198.348C105.735 200.571 112.366 190 116.782 186.391V186.383Z" fill="#F8F5F5"/>
<path fill-rule="evenodd" clip-rule="evenodd" d="M361.608 220.595H338.394C338.139 227.548 336.291 242.79 339.205 247.652C342.6 250.415 356.043 249.445 360.789 248.474C363.508 242.873 362.254 228.303 361.608 220.595Z" fill="#00B3BC"/>
<path fill-rule="evenodd" clip-rule="evenodd" d="M163.559 367.746C167.314 370.368 197.835 368.916 204.616 368.534C206.156 362.718 206.682 359.374 206.682 351.748L197.527 351.897L168.726 352.204C167.884 361.398 165.451 362.211 163.559 367.729V367.746Z" fill="#00B3BC"/>
<path fill-rule="evenodd" clip-rule="evenodd" d="M87.8423 368.606C94.1283 368.988 125.258 370.274 128.675 367.868C127.924 363.611 124.86 362.134 123.996 354.078C121.758 350.834 120.887 351.796 115.818 351.829C112.348 351.854 108.886 351.912 105.409 351.912C98.8597 351.912 92.3184 351.871 85.7695 351.946L87.8348 368.614L87.8423 368.606Z" fill="#00B3BC"/>
<path fill-rule="evenodd" clip-rule="evenodd" d="M151.955 290.259C155.777 279.664 141.989 259.601 127.607 306.945C123.949 318.976 136.596 324.411 141.823 314.529C144.752 308.986 149.822 296.184 151.962 290.268L151.955 290.259Z" fill="#9DDBD8"/>
<path fill-rule="evenodd" clip-rule="evenodd" d="M95.7139 100.71H71.7791L71.5312 127.718L95.9167 128.531L95.7139 100.71Z" fill="#00B3BC"/>
<path fill-rule="evenodd" clip-rule="evenodd" d="M179.549 290.245C183.919 278.579 171.122 271.31 165.122 283.15C163.199 286.942 156.162 303.487 155.043 307.47C151.588 319.775 164.874 324.139 169.53 314.266C172.835 307.254 176.852 297.43 179.549 290.245Z" fill="#9DDBD8"/>
<path fill-rule="evenodd" clip-rule="evenodd" d="M123.893 291.376C129.27 278.225 115.346 272.309 110.367 282.008C108.031 286.555 101.993 301.25 100.273 306.353C96.3003 318.152 108.196 324.01 113.709 315.43C115.977 311.904 121.857 296.338 123.885 291.376H123.893Z" fill="#9DDBD8"/>
<path fill-rule="evenodd" clip-rule="evenodd" d="M263.488 216.035L283.142 215.728C283.142 202.527 280.581 194.926 273.454 189.052C265.771 182.713 256.121 184.057 243.496 184.057C261.197 192.81 260.965 192.271 263.488 216.026V216.035Z" fill="#00B3BC"/>
<path fill-rule="evenodd" clip-rule="evenodd" d="M354.589 284.811C345.389 292.038 351.712 303.571 360.056 300.991C363.338 299.978 374.025 288.934 373.882 283.475C373.739 278.115 363.541 267.328 359.35 266.507C354.281 265.511 350.819 268.573 350.24 273.286C349.384 280.305 352.418 279.575 354.589 284.811Z" fill="#F8F5F5"/>
<path fill-rule="evenodd" clip-rule="evenodd" d="M464.004 117.489C472.753 118.427 480.594 108.263 480.594 98.4218C480.594 88.6226 472.453 78.732 464.004 79.4456C462.307 82.8061 462.389 114.245 464.004 117.489Z" fill="#FFCF64"/>
<path fill-rule="evenodd" clip-rule="evenodd" d="M439.521 128.112H446.926L447.414 69.8809H438.98L439.521 128.112Z" fill="#00B3BC"/>
</svg>
