<svg width="83" height="82" viewBox="0 0 83 82" fill="none" xmlns="http://www.w3.org/2000/svg">
<rect x="0.609375" width="81.4865" height="81.4865" rx="30" fill="#B7F4F1"/>
<path d="M60.2588 30.0341L45.9729 22.1769C45.762 22.0609 45.5251 22 45.2843 22C45.0436 22 44.8067 22.0609 44.5957 22.1769L30.3099 30.0341C30.0859 30.1575 29.8991 30.3386 29.769 30.5588C29.6389 30.7789 29.5703 31.0299 29.5703 31.2856C29.5703 31.5413 29.6389 31.7923 29.769 32.0124C29.8991 32.2325 30.0859 32.4137 30.3099 32.537L43.8557 39.9871V55.3001L39.5185 52.9144L38.1414 55.4158L44.5957 58.9659C44.8066 59.0822 45.0435 59.1432 45.2843 59.1432C45.5251 59.1432 45.762 59.0822 45.9729 58.9659L60.2588 51.1086C60.4828 50.9854 60.6697 50.8042 60.7999 50.5841C60.9301 50.364 60.9987 50.1129 60.9988 49.8572V31.2856C60.9987 31.0298 60.9301 30.7788 60.7999 30.5587C60.6697 30.3385 60.4828 30.1574 60.2588 30.0341ZM45.2843 25.0598L56.6059 31.2856L45.2843 37.5114L33.9628 31.2856L45.2843 25.0598ZM58.1416 49.0129L46.7129 55.2987V39.9857L58.1416 33.6999V49.0129Z" fill="#036451"/>
<path d="M32.4287 40.5713H21V37.7141H32.4287V40.5713Z" fill="#036451"/>
<path d="M35.2842 52H23.8555V49.1428H35.2842V52Z" fill="#036451"/>
<path d="M38.1435 46.2856H26.7148V43.4285H38.1435V46.2856Z" fill="#036451"/>
</svg>
