<svg width="698" height="523" viewBox="0 0 698 523" fill="none" xmlns="http://www.w3.org/2000/svg">
<path fill-rule="evenodd" clip-rule="evenodd" d="M177.215 226.22C199.65 232.197 221.843 239.224 244.09 245.858C246.593 246.604 246.586 246.73 248.825 245.383C254.913 241.719 261.117 238.239 267.393 234.905C286.322 224.849 305.78 216.803 326.622 211.684C341.395 208.056 356.415 205.179 371.482 203.066C369.95 207.776 366.977 212.687 363.303 216.005C360.454 218.576 356.571 219.982 353.05 221.361C342.586 225.461 331.63 228.329 321.346 232.886C310.856 237.536 304.229 247.2 302.237 258.413C301.864 260.511 301.887 260.83 303.61 261.888C305.541 263.075 307.889 263.77 310.018 264.495C327.116 270.312 345.145 273.895 362.825 277.426C372.21 279.301 381.629 281.043 391.097 282.447C396.972 283.318 403.181 284.488 409.149 284.14C434.724 282.649 449.882 252.237 457.369 231.667C480.477 244.173 506.988 252.166 532.87 256.022C564.256 260.699 603.791 260.955 628.599 237.85C640.414 226.845 647.67 211.945 653 196.937C635.613 195.448 618.302 192.842 601.058 190.207C598.047 189.746 595.038 189.278 592.029 188.801C590.819 188.609 588.96 187.93 587.722 188.111C585.843 188.383 583.416 190.419 581.752 191.322C568.993 198.24 555.801 204.584 542.113 209.452C534.779 212.06 527.164 214.368 519.387 215.14C511.045 215.969 502.503 214.265 494.446 212.23C474.236 207.125 453.094 198.488 436.238 186.041C432.138 191.882 424.737 195.839 417.679 193.02C409.95 189.933 405.653 181.837 401.511 175.179C400.004 172.755 397.16 172.738 394.354 172.023C386.517 170.026 378.584 168.397 370.613 167.046C344.434 162.61 317.516 161.105 291.094 164.165C265.311 167.152 239.929 175.461 217.195 187.949C207.306 193.382 197.677 199.677 189.46 207.455C184.27 212.367 178.205 218.795 177.215 226.22Z" fill="#00B3BC"/>
<path fill-rule="evenodd" clip-rule="evenodd" d="M255.1 57.288C263.192 59.9943 270.492 63.9706 277.623 68.6006C281.098 70.8567 284.574 73.4969 288.415 75.0945C291.824 76.5117 295.546 77.1566 299.048 78.3211C314.736 83.5388 331.758 84.5882 347.711 79.572C363.973 74.4585 377.776 63.4769 394.594 60.0324C410.996 56.6731 427.675 57.416 443.425 63.4993C451.075 66.4541 457.526 71.4192 464.054 76.2543C470.31 80.8877 476.873 85.4578 481.716 91.6433C486.472 97.7177 489.218 105.277 491.313 112.627C492.522 116.866 493.079 121.244 492.992 125.653C492.932 128.738 491.299 131.718 492.259 134.7C493.607 138.882 495.569 141.956 495.063 146.612C494.655 150.362 492.949 153.593 490.282 156.225C487.546 158.925 484.272 160.779 480.624 161.951C477.866 162.837 476.994 162.613 475.39 160.21C470.902 164.27 467.695 169.401 462.071 172.082C459.279 173.414 456.419 174.056 453.343 174.251C451.013 174.399 448.875 174.467 446.906 175.882C444.84 177.369 437.288 184 440.177 186.608C441.863 188.129 445.795 188.431 447.938 189.305C450.938 190.528 453.823 192.029 456.546 193.785C466.504 200.21 476.417 204.218 487.934 207.094C499.89 210.08 511.944 211.695 524.279 211.739C535.484 211.78 547.223 210.929 557.614 206.398C562.601 204.222 567.415 201.338 571.495 197.726C575.566 194.122 578.065 189.111 582.248 185.757C584.956 183.586 582.451 180.243 581.615 177.263C579.914 171.201 578.612 164.3 578.095 158.032C577.593 151.942 576.755 145.87 575.672 139.845C574.525 133.457 572.133 127.512 570.444 121.273C569.199 116.673 567.946 111.274 569.39 106.577C570.106 104.246 571.694 101.784 573.952 100.672C575.971 99.6769 577.216 100.628 579.025 100.521C584.333 100.209 588.431 102.371 592.436 105.909C594.6 107.82 597.107 109.494 599.169 111.496C600.772 113.053 601.152 115.565 602.862 116.945C605.668 109.79 608.608 100.694 618.126 104.786C625.656 108.024 626.625 120.191 630.278 126.534C632.332 124.845 632.562 121.517 633.361 119.163C634.188 116.726 635.58 114.153 637.544 112.429C641.832 108.665 647.064 110.176 650.016 114.686C651.594 117.097 650.655 119.864 652.221 122.245C653.776 124.606 653.29 127.365 653.925 130.114C654.729 133.6 655.701 137.034 656.349 140.559C656.649 142.188 657.085 144.026 657.009 145.698C656.977 146.391 656.415 147.584 656.589 148.268C656.814 149.164 657.879 149.969 658.269 150.855C658.794 152.046 658.599 152.911 658.659 154.139C658.767 156.35 659.359 158.163 659.994 160.346C661.595 165.845 661.189 172.806 658.819 178.013C657.59 180.713 656.728 182.676 656.363 185.565C656.127 187.43 654.72 189.129 654.805 191.134C654.923 193.924 662.393 198.226 656.496 200.077C654.032 200.85 653.505 200.446 652.832 203.257C652.164 206.048 651.407 208.763 650.312 211.422C647.989 217.064 644.553 222.115 641.311 227.253C637.802 232.815 634.118 238.189 628.933 242.337C624.125 246.182 618.614 249.311 613.127 252.079C601.565 257.911 588.7 261.167 575.719 260.851C561.875 260.514 547.834 261.821 534.116 259.472C520.07 257.067 506.367 253.086 492.379 250.416C486.095 249.216 480.237 247.908 474.52 244.946C468.719 241.941 462.932 238.873 457.625 235.041C453.968 243.795 452 252.921 446.758 260.974C442.183 268.003 436.664 274.611 429.91 279.651C423.312 284.575 414.691 288.258 406.384 288.575C403.849 288.671 399.951 287.559 398.132 289.467C397.222 290.422 397.129 292.319 396.768 293.545C396.154 295.632 395.263 297.667 394.768 299.787C394.019 303.001 397.04 303.051 399.687 304.356C403.237 306.106 406.704 308.018 410.136 309.986C413.642 311.999 416.986 314.313 420.498 316.294C423.513 317.995 426.627 319.307 429.53 321.233C436.391 325.788 443.908 328.825 451.275 332.43C459.162 336.289 466.833 340.595 474.584 344.718C489.936 352.885 505.335 361.361 519.829 370.987C526.595 375.48 533.099 380.158 540.038 384.407C546.509 388.371 553.897 393.012 558.017 399.515C561.229 404.587 565.845 406.99 571.157 409.754C574.288 411.383 576.225 411.691 578.767 409.025C581.263 406.409 583.674 403.807 586.307 401.31C597.103 391.076 606.338 379.873 615.341 368.088C622.024 359.339 631.188 348.834 643.463 350.751C647.143 351.326 649.587 353.037 652.309 355.444C654.155 357.078 657.492 358.147 658.723 360.262C659.434 361.483 659.732 363.049 660.447 364.331C661.197 365.671 662.128 366.978 662.629 368.443C663.476 370.923 661.65 374.863 663.471 376.883C664.805 378.362 663.565 381.846 663.201 383.517C662.528 386.608 661.957 389.746 660.894 392.731C660.056 395.081 659.233 398.301 657.469 400.135C655.895 401.771 654.049 401.611 654.461 404.444C652.757 403.878 651.293 407.952 650.812 408.98C649.521 411.74 648.112 414.008 646.033 416.296C640.777 422.08 634.759 425.993 627.942 429.67C625.455 431.011 620.299 432.877 619.721 435.977C619.167 438.954 620.867 441.372 619.672 444.552C617.186 451.168 611.597 458.143 607.035 463.481C602.933 468.282 598.953 471.49 592.374 470.363C586.545 469.365 580.779 466.393 575.928 463.098C570.086 459.128 563.897 456.144 557.588 452.993C554.483 451.443 551.376 450.011 548.685 447.784C546.184 445.714 544.014 443.382 541.115 441.844C539.049 440.748 536.352 439.973 535.491 437.534C534.552 434.875 536.267 433.215 537.725 431.309C538.705 430.03 539.246 429.832 538.401 428.804C537.726 427.984 535.872 427.289 534.941 426.79C532.688 425.581 530.437 424.525 528.028 425.852C525.342 427.333 523.506 430.394 521.493 432.619C519.081 435.283 516.372 437.711 513.727 440.141C508.48 444.962 502.731 449.281 497.607 454.215C496.434 455.343 494.126 458.203 492.193 457.662C490.765 457.262 491.516 456.415 490.78 455.763C489.987 455.061 489.315 455.053 488.3 454.293C485.778 452.406 485.007 448.787 482.361 446.833C479.642 444.825 476.284 443.381 473.339 441.728C459.898 434.183 446.806 426.045 434.52 416.718C428.36 412.042 422.542 406.967 416.575 402.055C413.766 399.743 410.918 397.209 407.795 395.33C404.945 393.617 401.78 392.419 398.877 390.775C392.659 387.254 386.007 384.559 379.852 380.924C376.958 379.214 374.813 376.918 372.121 375.014C369.764 373.348 367.801 372.36 366.048 369.933C365.214 371.766 362.927 369.375 362.102 368.814C361.451 368.37 360.618 368.058 360.016 367.552C359.409 367.042 359.042 365.908 358.582 365.554C357.562 364.77 356.377 364.949 355.008 364.458C353.177 363.802 350.764 362.055 349.357 360.72C348.383 359.797 349.972 360.523 348.326 359.391C347.561 358.864 346.247 358.723 345.387 358.164C343.345 356.84 341.47 355.14 339.519 353.678C335.987 351.033 331.417 348.624 329.412 344.499C318.64 353.335 308.238 362.926 295.868 369.539C283.92 375.926 270.1 378.827 257.344 383.234C244.217 387.768 230.96 392.326 217.613 396.17C211.125 398.037 204.434 399.379 197.802 400.642C190.999 401.937 184.291 401.551 177.465 402.283C174.109 402.642 170.749 402.526 167.395 402.851C164.306 403.15 161.31 403.933 158.243 404.341C155.539 404.701 152.489 404.397 149.888 405.132C147.98 405.671 145.46 407.582 144.063 405.095C143.039 406.627 142.714 405.904 141.381 405.806C139.959 405.701 139.531 405.763 138.139 406.029C135.875 406.461 133.377 406.628 131.455 404.851C130.576 408.034 122.056 405.139 121.04 403.035C119.896 406.405 109.546 403.498 109.396 400.334C109.27 397.657 111.05 393.806 111.785 391.291C112.984 387.185 114.47 383.169 116.022 379.186C117.665 374.974 119.35 370.776 121.039 366.582C121.782 364.739 122.483 362.867 123.33 361.069C123.746 360.187 124.828 358.872 124.81 357.853C124.758 354.877 119.418 354.665 117.161 353.923C115.453 353.361 113.72 352.769 112.098 351.99C110.921 351.425 109.509 350.127 108.206 349.947C105.221 349.535 105.897 352.91 105.573 354.983C105.156 357.651 103.685 359.024 100.856 359.043C97.5513 359.066 88.1277 353.388 86.3499 357.716C85.5163 359.743 85.7426 363.632 85.4372 365.81C84.9355 369.381 85.1346 372.933 85.624 376.494C86.4277 382.357 89.0799 389.774 86.0943 395.394C80.1334 406.619 59.4633 399.854 52.8657 392.789C43.1496 382.384 43.4332 366.791 48.0888 354.193C50.3525 348.066 53.6319 341.501 57.9187 336.518C59.8232 334.304 63.4461 332.168 64.0746 329.126C64.5967 326.603 62.6336 324.278 63.0467 321.692C63.5375 318.623 66.1366 316.762 68.3642 314.9C70.6831 312.963 72.9393 310.851 75.5821 309.35C81.6971 305.879 88.6321 307.975 94.7116 310.524C101.36 313.311 107.728 317.049 113.667 321.118C116.607 323.131 119.099 324.943 122.585 325.918C125.258 326.666 127.958 327.4 130.643 328.101C133.177 328.763 135.312 329.256 137.091 327.068C139.048 324.66 139.696 323.686 143.083 323.583C146.69 323.473 150.3 323.674 153.904 323.812C154.665 323.841 156.394 323.604 156.994 324.238C157.53 324.803 156.755 325.981 157.253 326.339C158.039 326.903 162.508 320.596 162.891 325.701C163.135 323.223 165.738 324.423 167.189 324.749C167.717 324.868 168.244 325.008 168.767 325.124C169.334 324.935 169.806 325.08 170.179 325.558C170.775 325.685 171.179 325.458 171.389 324.877C177.696 324.785 184.058 325.182 190.38 325.149C197.691 325.11 205.044 325.039 212.286 323.981C214.969 323.589 217.654 323.048 220.341 322.719C221.573 322.57 222.606 322.7 223.808 322.78C224.247 322.863 224.644 323.044 225.001 323.325C225.184 322.964 225.458 322.691 225.82 322.505C230.42 321.159 235.152 320.247 239.826 319.072C243.098 318.25 245.841 317.615 249.098 317.383L249.715 317.344L251.024 317.73C251.216 317.263 251.527 316.9 251.959 316.639C253.021 316.204 253.922 316.036 255.067 315.92C259.622 315.455 264.092 315.503 268.398 314.838C270.666 314.487 278.952 313.203 280.48 315.45C281.652 312.714 290.089 316.439 292.56 314.823C288.726 309.598 287.055 304.008 285.97 297.69C284.787 290.808 284.044 283.569 285.793 276.714C287.405 270.398 290.916 263.915 295.714 259.471C300.355 255.173 301.444 250.033 304.54 244.729C310.991 233.678 321.62 226.927 333.461 222.85C339.909 220.629 346.465 218.782 352.969 216.742C358.252 215.085 362.675 212.714 365.347 207.645C342.853 207.645 321.328 214.615 300.732 223.069C290.486 227.275 280.286 231.651 270.167 236.151C265.015 238.441 259.922 240.891 255.116 243.849L253.788 244.666C252.239 245.623 250.7 246.603 249.256 247.706C248.912 247.97 247.032 249.065 246.922 249.431C246.063 252.274 250.794 256.848 252.023 259.287C253.695 262.609 255.333 266.493 255.539 270.238C255.783 274.717 252.924 276.958 248.519 276.039C243.131 274.915 239.052 270.429 234.774 267.31C233.82 270.172 235.053 273.465 235.721 276.254C236.637 280.08 237.547 283.964 238.199 287.845C239.12 293.332 238.466 299.524 233.002 302.399C219.078 309.724 211.979 290.396 209.152 280.741C207.24 282.118 207.463 287.164 207.111 289.273C206.436 293.333 205.661 297.691 203.857 301.419C202.474 304.273 200.125 307.607 196.668 307.915C192.918 308.248 189.896 305.027 188.216 302.055C185.314 296.92 184.63 291.195 184.401 285.439C184.349 284.171 184.717 272.43 183.435 272.096C179.662 278.848 177.558 286.356 173.127 292.795C169.244 298.439 163.4 302.266 158.149 295.741C150.018 285.637 152.62 271.034 155.951 259.666C157.888 253.055 160.525 246.744 164.079 240.832C165.553 238.38 167.337 236.54 169.167 234.379C170.676 232.596 171.257 231.759 170.606 229.704C170.227 228.507 169.869 228.463 170.207 227.138C170.45 226.188 171.179 225.019 171.596 224.137C172.787 221.615 174.038 219.127 175.498 216.747C178.618 211.665 182.866 207.436 187.33 203.516L187.778 203.123L187.757 203.143C187.469 203.407 189.558 201.817 189.515 201.814L189.504 201.818L189.558 201.785C190.329 201.282 190.622 199.628 191.499 201.104L191.563 201.215C191.7 199.043 193.53 197.808 195.101 196.591C195.686 196.138 196.271 195.508 196.981 195.237C197.475 195.048 198.624 195.233 198.982 194.97C199.678 194.458 200.018 193.445 200.679 192.842C201.342 192.24 202.257 191.958 203.011 191.498C204.859 190.371 206.557 188.991 208.36 187.79C212.189 185.238 216.187 182.938 220.284 180.843C228.903 176.433 238.05 172.885 247.205 169.756C255.273 166.998 263.635 164.443 271.922 162.434C280.427 160.371 289.366 160.885 298.053 160.037C315.758 158.308 334.447 158.657 352.143 160.382C360.817 161.228 369.441 162.551 377.995 164.204C386.291 165.807 394.92 167.631 402.289 171.965C403.859 172.889 406.696 175.85 408.538 175.741C410.088 175.65 411.433 172.793 412.161 171.668C413.891 168.994 416.066 166.537 417.537 163.72C419.346 160.25 420.273 156.35 421.635 152.699C415.321 153.569 408.69 154.133 402.629 151.716C397.141 149.527 393.443 145.153 389.343 141.114C385.025 136.86 380.4 133.978 374.223 133.587C367.216 133.143 360.896 135.655 354.451 137.996C340.833 142.943 327.218 148.378 313.203 152.109C306.354 153.933 299.312 155.372 292.215 155.696C288.602 155.861 284.945 155.699 281.371 156.365C279.889 156.641 279.444 156.872 278.273 156.218C278.431 156.307 276.781 153.566 276.454 154.633C276.138 155.661 276.654 156.465 275.753 157.24C274.693 158.149 272.395 157.707 271.168 157.602C269.33 157.445 267.865 156.822 266.096 156.407C263.36 155.767 260.295 156.189 257.508 155.839C256.213 155.676 255.273 155.35 254.108 154.992C252.887 154.616 253.674 154.664 252.416 154.504C251.302 154.362 250.672 154.509 249.323 154.071C248.118 153.679 247.003 153.41 245.77 153.122C244.641 152.86 243.729 152.388 242.679 152.081C243.999 152.467 240.984 151.273 241.114 151.591L241.126 151.611L241.115 151.6C240.788 151.232 240.409 150.492 239.761 150.377L239.628 150.362C241.76 153.632 232.387 150.177 231.766 149.988C226.586 148.414 221.28 144.84 215.867 144.511C210.583 144.19 205.458 147.787 201.204 150.456C196.066 153.678 190.952 156.927 185.834 160.182C174.522 167.377 162.272 173.812 149.576 178.185C143.401 180.312 137.074 182.017 130.81 183.859C127.986 184.69 124.902 185.031 122.204 186.222C120.379 187.027 117.75 189.435 115.907 187.302C115.165 189.168 111.56 189.073 110.032 189.131C109.797 189.14 110.175 189.587 109.637 189.55C108.845 189.494 108.633 188.726 108.009 188.565C106.742 188.24 106.61 188.727 105.355 189.211C103.724 189.84 104.034 189.296 102.592 189.147C101.767 189.062 100.892 189.515 100.065 189.541C99.7292 189.552 99.2882 188.993 98.8021 189.001C98.3345 189.01 97.2385 189.568 96.6195 189.66C95.0695 189.893 93.2454 189.738 91.6824 189.669C89.446 189.569 67.0459 187.574 68.6532 182.895C65.958 185.379 59.706 181.319 56.8963 180.029C55.8499 179.549 55.7825 179.082 55.1928 178.541C55.3557 177.891 55.077 177.601 54.3565 177.67C54.2024 177.652 54.0477 177.635 53.8943 177.618C52.6599 176.989 52.2202 177.003 51.2373 175.901C49.9265 174.429 47.5135 173.098 46.8339 171.181C46.6519 170.666 46.8455 169.777 46.6601 169.373C46.4228 168.854 45.7985 168.914 45.654 168.493C45.6035 168.346 45.8448 167.381 45.8271 167.365C44.6935 166.417 43.0958 166.867 41.7822 165.729C38.1525 162.582 35.9624 156.27 34.9181 151.788C32.1868 140.064 31.2543 128.276 36.5554 117.188C39.132 111.796 42.2866 106.669 45.7698 101.818C46.7337 100.476 47.7432 98.7051 48.9729 97.5726C49.525 97.0639 50.2475 96.9597 50.5168 96.6553C51.9537 95.0312 52.6987 92.9426 54.6243 91.362C56.7681 89.6017 58.8819 87.7923 61.2499 86.3363C63.423 84.9995 66.1291 84.1367 68.1215 82.8864C68.6682 82.5432 68.4801 82.0018 69.0738 81.5939C69.7029 81.1615 70.5168 81.1281 71.2298 80.9177C72.0757 80.6691 73.1247 80.2108 74.0027 80.1352C75.642 79.9929 76.1921 80.4621 77.4286 81.6252C77.4286 77.1491 85.6792 76.526 89.0165 76.5178C90.5564 76.5137 98.2943 75.8239 98.1457 78.1801C99.9085 75.8525 105.268 77.5842 107.599 78.2822C110.396 79.1192 112.166 81.1669 113.96 83.3543C114.293 82.661 114.626 81.9671 114.96 81.2738C115.469 81.6293 117.191 82.2204 116.636 83.1581C118.652 81.3814 117.515 82.8449 119.242 83.1609C120 83.2998 120.654 83.0199 121.452 82.9252C121.519 83.978 121.061 84.3192 120.409 85.0533C121.972 85.0826 127.982 84.4588 123.534 86.4221C124.129 87.4845 126.949 87.1113 127.941 87.2543C128.466 87.3299 129.776 87.3571 130.089 87.7412C130.296 87.9938 129.933 88.6925 129.979 88.7545C130.403 89.3286 129.522 89.6234 130.392 89.7896C130.606 89.8305 131.283 89.1515 131.436 89.1542C132.564 89.1719 131.773 88.9479 132.969 89.1202C133.391 89.1808 134.201 89.6616 134.743 89.7726C142.913 91.4431 152.9 85.1589 158.835 80.2939C165.928 74.481 172.102 68.2676 180.63 64.4942C188.879 60.8448 198.069 57.967 206.836 55.8797C223.049 52.0199 239.149 51.9525 255.1 57.288ZM461.479 429.246C461.742 429.385 462.004 429.525 462.267 429.664C462.64 429.475 463.014 429.286 463.388 429.097C462.316 428.589 462.243 428.366 461.479 429.246ZM548.546 406.094C546.581 407.333 544.894 410.131 543.173 411.801C540.758 414.145 538.233 416.373 535.712 418.602C538.618 419.609 542.834 423.686 545.979 421.839C547.536 420.924 548.52 418.234 549.506 416.808C551.031 414.598 552.814 412.525 554.607 410.53C556.455 408.474 550.606 404.794 548.546 406.094ZM364.303 363.78C365.082 364.107 366.787 365.985 365.996 366.643C365.194 365.716 364.118 365.047 364.303 363.78ZM114.171 334.058C112.749 335.286 111.145 337.85 110.154 339.464C109.038 341.283 108.999 342.2 110.703 343.413C113.996 345.759 118.78 346.448 122.599 347.542C124.638 348.126 127.158 349.596 128.89 347.738C130.605 345.9 130.61 342.474 131.381 340.194C132.006 338.347 132.675 336.516 133.324 334.678C129.724 335.04 126.104 335.065 122.565 334.26C119.996 333.676 116.443 332.096 114.171 334.058ZM176.348 235.746C173.442 239.69 170.849 243.867 168.563 248.199C164.779 255.369 161.839 262.982 159.976 270.874C158.656 276.466 156.727 284.327 159.741 289.691C166.309 301.377 179.639 267.644 181.674 264.115C182.885 262.015 184.765 259.761 186.848 262.462C188.556 264.679 188 268.231 188.079 270.842C188.314 278.599 187.231 287.89 190.336 295.19C191.355 297.585 194.054 301.046 197.101 299.957C199.832 298.981 201.197 294.281 202.041 291.86C204.713 284.201 206.608 274.84 206.694 266.735C206.711 265.107 205.249 254.343 209.019 256.725C211.486 258.281 211.385 265.838 211.624 268.311C212.561 277.972 214.471 294.377 226.469 296.003C229.11 296.361 232.1 295.737 233.646 293.364C235.569 290.416 233.635 286.452 232.962 283.353C231.801 278.012 230.486 272.505 230.37 267.006C230.299 263.635 230.631 258.031 235.371 259.332C241.082 260.899 243.498 268.363 249.912 268.613C249.918 267.111 249.086 265.887 248.381 264.632C246.099 260.575 241.942 257.101 240.535 252.614C240.074 251.141 240.553 248.927 239.641 247.7C238.778 246.542 236.832 246.245 235.531 245.983C226.868 244.235 218.352 241.868 209.729 239.853C200.511 237.7 191.965 235.372 183.332 231.58C179.443 229.872 178.555 232.753 176.348 235.746ZM383.032 296.253C384.304 296.857 385.565 297.485 386.852 298.056C387.971 298.554 388.41 298.157 388.856 297.113C388.048 296.946 383.502 295.332 383.032 296.253ZM328.448 165.388C311.964 165.871 295.849 166.082 279.603 169.208C271.833 170.703 264.216 172.436 256.596 174.559C253.377 175.456 250.539 176.391 247.732 178.18C246.689 178.845 243.926 180.932 243.502 178.546C242.114 179.875 239.408 183.931 237.189 181.678C236.8 183.306 235.588 183.256 234.404 183.81C233.988 184.005 233.761 184.667 233.225 184.908C233.09 184.967 233.045 184.037 232.849 184.021C232.142 183.965 231.584 185.452 231.178 185.832C230.2 186.741 229.284 187.157 227.987 187.487C227.424 187.675 226.847 187.796 226.256 187.849C225.56 188.134 225.143 187.929 225.005 187.234C224.045 187.249 223.342 187.598 222.336 188.053C224.507 188.55 220.855 189.097 220.369 189.152C220.309 190.773 221.696 189.746 222.591 190.082C222.177 192.116 218.403 193.668 216.851 194.666C216.586 194.102 216.32 193.538 216.055 192.975C215.625 193.39 215.292 193.867 215.055 194.407C214.894 195.061 214.43 195.287 213.661 195.086C212.941 195.656 212.833 195.392 212.391 196.196C211.933 197.028 213.286 198.649 211.321 197.951C211.321 200.717 208.749 199.041 209.2 198.323C207.255 198.135 206.424 201.693 206.642 203.08C205.712 202.159 205.142 202.276 204.207 202.995L204.125 203.06L204.174 203.025C204.893 202.539 204.153 204.526 204.218 204.503L204.226 204.495C202.251 207.096 202.437 204.184 203.048 202.649C201.709 203.185 201.456 204.636 200.382 205.454C199.425 206.183 199.156 205.845 198.333 205.953C197.066 206.121 197.449 205.08 196.893 206.474C196.658 207.066 197.014 208.124 197.014 208.769C197.564 208.019 197.356 206.832 198.348 206.402C198.052 208.577 193.819 216.047 192.039 211.645C190.308 212.846 192.216 214.163 191.079 215.773C190.234 214.959 190.032 213.663 190.126 212.553C189.595 213.258 189.612 214.15 189.197 214.864C188.763 215.608 188.309 215.668 188.1 216.477C187.783 217.705 188.866 217.103 188.294 218.407C188.007 219.061 186.663 219.634 186.134 220.002C184.281 221.292 182.408 222.786 184.206 224.93C187.022 228.285 194.442 228.669 198.427 229.233C206.924 230.436 215.205 232.433 223.577 234.283C228.619 235.398 233.556 236.639 238.501 238.126C242.052 239.192 246.956 239.855 248.83 243.528C258.727 234.074 271.925 229.142 284.14 223.472C297.371 217.331 311.034 211.63 325.05 207.526C337.477 203.887 350.222 202.506 363.06 201.251C366.443 200.92 371.659 200.074 374.674 202.15C376.536 203.432 376.622 205.373 375.197 207.087C374.425 208.016 373.592 207.775 373.12 209.431C372.755 210.712 372.955 211.681 373.29 212.949C372.434 212.279 370.901 212.678 370.463 211.496L370.42 211.363L370.379 211.504C369.794 213.811 373.878 214.13 372.626 216.896L372.544 217.065C372.111 217.91 372.11 215.199 371.729 215.18C370.693 215.126 369.844 217.543 369.418 218.213C371.345 218.213 370.612 219.613 369.578 220.32C368.84 220.825 367.595 220.971 366.737 221.388C365.027 222.222 363.523 223.443 361.769 224.238C359.848 225.109 358.159 225.163 356.251 225.68C355.956 225.759 354.784 226.198 354.665 226.208C354.504 226.222 354.467 226.717 354.329 226.736C353.11 226.908 352.188 225.777 351.008 226.238C350.556 226.415 350.79 227.518 350.398 227.768C349.966 228.043 348.739 227.691 348.216 227.662C346.956 227.59 346.763 227.424 345.763 228.007C344.046 229.01 343.171 230.365 340.855 230.611C339.045 230.803 337.878 230.462 336.155 231.14C334.411 231.826 332.76 231.978 331.06 232.437C330.845 232.496 330.788 233.232 330.612 233.283C330.05 233.449 329.378 233.322 328.841 233.487C327.607 233.867 326.606 234.204 325.46 234.885C320.424 237.875 314.883 242.363 310.934 246.673C309.131 248.64 304.103 253.596 305.743 256.443C306.795 258.271 310.426 259.159 312.237 259.93C314.939 261.082 317.732 261.92 320.463 262.986C323.858 264.313 326.938 266.374 330.402 267.529C333.745 268.643 337.321 268.863 340.774 269.458C355.715 272.033 370.351 276.172 385.3 278.74C393.499 280.148 401.868 281.829 410.195 280.501C417.534 279.331 424.561 276.089 430.422 271.558C441.089 263.314 448.521 251.608 452.259 238.732C453.031 236.072 453.193 229.418 455.684 227.79C457.759 226.435 458.847 229.422 460.194 230.602C462.381 232.519 465.587 233.26 468.219 234.354C474.734 237.061 480.653 239.919 487.538 241.75C494.52 243.605 501.598 245.061 508.656 246.591C522.962 249.693 536.618 252.626 551.322 252.674C565.873 252.72 580.479 253.267 594.869 250.59C607.456 248.248 620.116 241.85 629.525 233.163C634.277 228.777 637.942 223.237 641.678 218.001C643.682 215.192 645.545 212.281 647.11 209.204C648.26 206.942 650.238 203.667 650.441 201.103C650.621 198.811 649.28 199.137 646.988 198.903C643.464 198.543 639.924 198.315 636.397 197.953C629.283 197.224 622.194 196.294 615.084 195.539C607.828 194.768 600.62 193.723 593.571 191.803C591.463 191.228 589.906 190.505 588.418 192.55C587.459 193.867 587.476 196.872 585.474 194.666C581.626 199.521 575.998 202.428 570.739 205.475C565.05 208.771 559.52 212.399 553.488 215.061C540.495 220.798 526.176 220.343 512.386 218.505C498.376 216.637 484.177 214.228 471.011 208.901C464.972 206.458 459.783 202.741 454.368 199.195C451.817 197.524 449.172 196.15 446.463 194.758C443.41 193.189 441.544 190.863 438.783 189.049C436.922 195.103 429.765 197.184 424.112 197.454C417.053 197.792 411.347 194.425 407.067 188.957C403.513 184.417 402.822 177.627 397.321 175.142C391.045 172.308 383.689 171.181 376.972 169.863C361.198 166.768 344.522 164.916 328.448 165.388ZM362.898 220.508C363.805 221.181 363.505 220.811 363.505 222.602C362.451 222.648 362.611 221.205 362.898 220.508ZM366.482 218.959C366.177 219.67 367.55 220.523 367.992 220.634C368.019 220.405 367.349 216.943 366.482 218.959ZM194.346 208.56C193.502 209.782 193.979 210.53 195.32 210.05L195.431 210.008L194.346 208.56ZM211.299 196.817L210.496 197.156C210.117 197.518 209.739 197.879 209.361 198.24C210.464 198.025 211.231 198.191 211.299 196.817ZM215.746 195.101C215.194 193.975 213.294 196.209 213.252 196.732C213.695 196.47 216.39 196.413 215.746 195.101ZM217.53 191.121C217.068 191.77 217.162 192.29 217.812 192.682C218.351 191.962 218.761 191.175 219.039 190.321C218.32 189.798 217.786 190.505 217.53 191.121ZM581.266 110.714C579.875 111.337 580.602 113.485 580.738 114.649C581.383 120.192 582.41 125.68 583.046 131.222C583.94 139.017 584.066 146.906 585.53 154.631C586.866 161.676 589.118 168.517 590.308 175.594C591.103 180.329 589.585 185.8 595.238 187.236C600.322 188.528 606.118 188.598 611.33 189.166C618.044 189.898 624.768 190.257 631.512 190.584C634.704 190.737 637.994 190.778 641.155 191.261C643.017 191.546 645.335 192.779 646.767 191.058C648.16 189.384 648.164 185.123 648.598 182.986C649.172 180.165 649.688 177.329 649.969 174.461C650.606 167.969 649.669 161.539 648.808 155.111C647.881 148.181 647.17 141.222 646.211 134.299C645.592 129.837 645.663 122.63 642.589 119.029C639.786 127.39 639.027 136.269 638.886 145.036C638.856 146.918 637.623 157.736 634.346 152.462C633.435 150.996 633.42 150.158 632.005 148.918C630.545 147.64 630.035 146.618 629.541 144.682C628.647 141.176 628.503 138.094 626.569 134.941C622.633 128.525 621.037 120.581 615.176 115.402C615.117 121.422 614.246 127.934 615.366 133.881C616.071 137.618 618.958 142.997 616.578 146.694C615.391 148.539 614.705 147.988 613.308 147.062C612.413 146.468 612.55 146.192 611.426 145.597C610.354 145.031 609.51 145.057 608.495 144.266C604.903 141.466 604.619 136.6 603.444 132.571C600.852 123.678 591.892 118.185 585.03 112.684C584.283 112.085 582.414 110.2 581.266 110.714ZM445.86 128.732C440.599 130.831 435.175 131.63 429.585 130.445C429.589 131.672 431.362 133.666 429.993 134.371C429.666 134.539 427.803 133.734 427.441 133.64C425.425 133.118 422.708 132.219 420.6 132.648C418.37 133.101 418.447 134.544 419.905 136.179C421.95 138.473 427.085 138.566 427.143 142.373C427.168 144.019 426.152 146.081 425.934 147.779C425.61 150.317 425.255 152.836 424.658 155.329C423.632 159.615 421.971 163.692 419.991 167.623C418.286 171.01 416.212 174.539 413.036 176.752C410.966 178.194 411.764 177.543 412.17 179.669C412.442 181.093 412.396 182.154 410.556 181.802C410.204 181.694 409.852 181.586 409.5 181.478C413.816 188.544 424.731 192.998 432.204 188.282C429.053 185.745 433.33 181.321 435.135 179.447C437.839 176.64 440.674 173.409 443.573 170.846C448.013 166.922 453.824 168.831 459.076 167.181C464.393 165.51 468.26 161.741 471.696 157.528C474.758 153.777 478.815 149.186 479.229 144.107C479.31 143.113 478.827 141.947 479.003 141.007C479.181 140.048 479.763 139.923 480.066 139.296C480.687 138.004 480.838 136.674 480.937 135.195C481.258 130.368 479.723 129.61 475.186 128.363C472.542 127.636 469.861 127.065 467.213 126.355C464.685 125.677 462.431 124.373 459.939 123.646C454.692 122.114 450.48 126.889 445.86 128.732ZM459.381 159.064C463.554 161.594 456.976 163.213 454.547 162.095C451.267 160.584 457.051 157.652 459.381 159.064ZM467.241 138.035C471.029 142.556 475.239 151.745 466.944 153.605C464.384 154.179 460.423 155.107 457.848 154.403C454.171 153.397 455.131 148.603 458.799 148.393C460.972 148.268 465.959 149.986 467.25 147.464C467.951 146.097 466.358 143.924 466.116 142.559C465.805 140.803 466.089 139.399 467.241 138.035ZM241.126 151.611L241.129 151.616C241.143 151.635 241.164 151.657 241.193 151.683L241.208 151.695L241.18 151.669L241.126 151.611ZM474.743 139.651C477.374 139.645 476.07 145.227 474.765 146.181C472.422 147.891 471.422 139.658 474.743 139.651ZM457.403 143.86C454.35 144.23 455.038 136.932 457.819 136.708C461.469 136.413 460.932 143.433 457.403 143.86ZM483.807 131.748C483.442 132.492 483.721 139.732 484.596 139.869C484.831 138.1 484.701 136.322 484.676 134.546L484.672 134.097C484.693 134.125 484.837 129.65 483.807 131.748Z" fill="black"/>
</svg>
