<svg width="484" height="364" viewBox="0 0 484 364" fill="none" xmlns="http://www.w3.org/2000/svg">
<circle r="166.5" transform="matrix(-1 0 0 1 242.5 176.5)" fill="white"/>
<g clip-path="url(#clip0_1201:1185)">
<path fill-rule="evenodd" clip-rule="evenodd" d="M87.7263 140.128C88.6138 138.754 88.6087 139.049 90.2012 139.333C96.735 140.501 103.269 141.669 109.803 142.837C131.917 146.79 154.032 150.743 176.146 154.696C183.943 156.09 191.741 157.483 199.537 158.877C200.676 159.081 202.91 159.031 203.913 159.659C204.428 159.982 204.813 160.937 205.146 161.455C206.59 163.699 208.034 165.943 209.477 168.187C217.582 180.783 225.927 193.221 234.198 205.707C243.396 219.589 252.593 233.472 261.791 247.355L223.097 246.851C225.486 248.413 227.875 249.976 230.265 251.538C247.138 262.574 264.013 273.609 280.887 284.644L256.766 300.769L265.309 309.839C262.645 311.359 259.98 312.879 257.317 314.398C252.432 317.185 247.548 319.972 242.664 322.759C240.933 323.746 239.202 324.734 237.47 325.722C237.063 325.954 236.487 326.44 236.059 326.401C235.417 326.343 234.257 325.23 233.735 324.89C232.084 323.813 230.436 322.733 228.789 321.649C223.723 318.315 218.675 314.954 213.647 311.562C201.32 303.246 189.02 294.83 177.219 285.773C171.767 281.589 166.706 277.251 162.446 271.808C157.76 265.818 153.889 259.204 150.487 252.411C147.621 246.692 145.085 240.805 142.835 234.817C142.062 232.759 140.147 229.464 140.182 227.203C140.201 225.987 141.254 224.239 141.661 223.114C142.628 220.448 143.596 217.781 144.563 215.115C145.059 213.747 146.033 212.048 146.203 210.591C146.409 208.831 145.558 206.424 145.284 204.686C145.152 203.841 145.17 201.46 144.53 200.982C144.105 200.664 142.501 200.825 141.99 200.786C137.84 200.466 133.691 200.146 129.542 199.826C118.415 198.968 107.289 198.109 96.1631 197.251C93.1008 197.015 89.66 197.179 86.6539 196.518C84.383 196.018 82.9634 194.192 82.2845 192.057C80.2468 185.645 78.3201 179.131 77.0794 172.511C75.8793 166.112 77.0382 161.134 79.6548 155.213C81.9453 150.031 84.6504 144.892 87.7263 140.128ZM382.899 201.499C380.7 209.901 377.627 220.412 371.134 226.5C368.665 228.815 365.371 230.327 362.368 231.798C357.952 233.96 353.423 235.894 348.864 237.732C340.817 240.975 332.364 244.568 323.79 246.142C321.41 246.578 320.198 246.15 318.217 244.718C314.889 242.312 311.88 239.422 308.905 236.602C304.136 232.082 299.497 227.415 294.957 222.663C312.155 222.621 329.888 221.833 346.717 218.128C359.537 215.306 372.411 209.49 382.899 201.499Z" fill="#00B3BC"/>
<path fill-rule="evenodd" clip-rule="evenodd" d="M207.338 24.1843C211.482 26.0362 213.669 31.1599 215.844 34.8651C218.455 39.3116 220.821 43.9682 222.154 48.975C223.521 54.1053 223.711 59.7304 223.104 64.9942C222.838 67.3102 222.213 69.418 221.553 71.6337C220.847 74.002 221.946 75.3565 223.621 77.0265C227.101 80.4954 231.482 83.157 234.064 87.4306C236.251 91.0517 238.795 91.7219 242.919 91.8771C253.162 92.2626 263.2 91.9446 273.348 93.9093C275.925 94.4082 278.485 95.0189 281.02 95.7007C281.852 95.9245 282.723 96.3155 283.581 96.3941C284.819 96.507 285.03 96.0137 285.954 95.5365C290.02 93.4377 295.181 95.4538 299.246 96.6052C309.506 99.5123 319.186 103.469 328.486 108.713C338.528 114.374 349.233 118.77 359.182 124.6C368.794 130.232 377.429 137.32 386.394 143.895C395.511 150.583 404.158 157.819 412.589 165.353C420.738 172.635 429.163 179.783 436.452 187.953C443.097 195.403 448.347 204.221 451.869 213.593C453.044 216.72 452.32 218.691 448.646 217.659C448.321 220.823 445.968 222.145 442.986 221.469C443.902 224.123 445.994 227.719 444.797 230.576C443.206 234.374 438.647 231.609 436.412 230.129C436.655 233.182 437.95 238.139 435.435 240.603C431.538 244.421 424.961 239.555 422.201 236.702C415.167 229.431 410.669 220.435 404.425 212.591C396.686 202.87 387.967 193.704 379.217 184.903C378.527 184.208 370.739 175.829 369.623 176.968C373.021 182.61 375.736 188.821 380.487 193.508C382.743 190.332 384.376 191.897 384.8 195.087C385.309 198.92 385.875 202.958 385.17 206.8C383.784 214.363 379.023 221.555 374.021 227.219C368.788 233.142 362.29 237.653 355.32 241.283C351.373 243.339 347.415 245.265 343.171 246.614C341.27 247.219 339.365 247.92 337.413 248.339C335.535 248.743 333.505 248.715 331.767 249.628C347.333 257.08 364.554 260.22 380.157 267.479C383.923 269.231 391.485 273.786 387.664 278.905C384.708 282.866 377.99 283.006 373.581 283.796C376.825 286.866 376.341 289.717 372.078 291.388C370.365 292.059 368.579 292.371 366.752 292.419C365.512 292.451 363.369 292.009 362.367 292.986C366.233 294.762 371.503 294.655 374.681 297.775C377.922 300.959 374.051 303.52 371.153 304.748C367.343 306.363 362.103 308.066 358.227 306.119C355.163 304.58 352.334 304.914 348.946 304.509C345.452 304.092 341.999 303.342 338.629 302.334C325.797 298.494 313.982 291.389 302.65 284.4C291.328 277.417 280.77 269.484 271.006 260.432C268.597 258.198 266.591 255.541 264.129 253.379C261.538 251.103 258.826 250.899 255.511 250.937C247.976 251.022 240.455 249.678 232.924 250.564C243.749 258.745 255.187 265.951 266.575 273.299C270.907 276.095 275.462 279.824 280.556 281.043C282.791 281.578 287.586 281.932 288.328 284.695C288.871 286.711 287.151 287.05 286.121 288.144C284.629 289.728 286.73 290.258 288.27 290.915C290.21 291.741 291.981 292.008 294.095 291.789C297.33 291.454 299.868 291.566 302.883 292.955C307.62 295.138 312.706 296.313 317.455 298.448C319.422 299.333 319.939 301.968 320.889 303.758C322.381 306.57 324.106 309.248 325.798 311.941C328.989 317.018 331.742 322.241 336.269 326.291C340.237 329.841 344.654 332.985 348.964 336.105C355.693 340.981 364.254 347.008 362.091 356.571C359.953 366.024 350.182 365.008 342.736 363.32C339.603 362.609 335.32 360.622 332.161 361.556C329.435 362.362 327.557 362.482 324.729 361.839C321.45 361.092 318.149 360.606 314.827 360.091C307.863 359.011 300.841 357.23 294.186 354.895C290.994 353.775 288.328 352.28 285.814 349.991C285.067 349.312 284.524 348.348 283.531 348.356C282.686 348.363 281.38 349.866 280.727 350.387C278.665 352.034 276.384 353.409 274.03 351.45C272.528 350.2 271.19 347.479 273.363 346.191C275.029 345.203 278.071 346.335 279.266 344.467C280.517 342.512 277.721 339.676 276.845 338.086C274.203 339.885 270.314 343.522 267.25 340.512C264.795 338.1 267.526 336.637 269.79 335.866C272.589 334.911 275.827 335.034 274.401 331.281C273.59 329.15 272.294 327.241 272.085 324.915C271.927 323.146 272.436 321.445 272.448 319.691C272.47 316.555 269.108 313.855 266.18 313.112C264.391 312.658 263.86 314.19 262.762 315.365C261.147 317.091 259.085 318.383 257.029 319.51C253.656 321.357 250.116 322.823 246.581 324.314C244.239 325.302 240.099 326.596 241.771 329.589C244.218 333.971 238.482 331.874 236.414 330.879C231.603 328.566 226.745 326.358 221.994 323.919C212.251 318.915 203.286 312.735 194.679 305.972C186.231 299.332 177.982 292.279 170.306 284.749C166.588 281.1 163.034 277.264 159.868 273.12C156.467 268.67 153.604 263.844 150.139 259.438C146.544 254.865 142.99 250.428 140.674 245.034C138.529 240.036 136.093 234.456 136.054 228.965C136.011 222.899 136.036 217.45 138.036 211.631C138.871 209.203 139.873 206.674 141.328 204.552C141.746 203.941 143.941 201.855 143.491 201.023C143.517 201.07 138.504 201.838 137.98 201.887C134.653 202.206 131.306 201.634 127.991 201.324C118.19 200.407 108.296 200.751 98.5313 199.401C94.8498 198.892 90.8553 199.427 87.2618 198.489C85.5642 198.047 85.1461 197.072 83.8989 196.274C83.3295 195.91 82.7205 196.03 82.1908 195.524C81.5707 194.931 81.4365 194.076 81.1622 193.303C79.6963 189.176 77.2264 185.491 75.7751 181.356C74.1434 176.705 74.2173 171.885 74.3359 167.024C71.9122 167.217 69.3665 167.233 67.0925 166.25C65.2573 172.033 57.3532 171.929 52.4943 171.49C46.4263 170.942 39.3116 170.369 36.2362 164.262C32.6221 157.085 32.8608 148.372 32.4236 140.539C31.91 131.341 31.7638 122.004 32.2145 112.8C32.5979 104.971 34.3769 96.8446 39.4247 90.6314C43.8786 85.1494 51.5837 81.9411 57.6446 87.0567C62.2 90.9025 64.189 97.8287 64.487 103.597C64.6387 106.532 64.502 109.169 68.1056 108.355C69.4911 108.042 70.7504 107.536 71.772 108.961C72.6731 110.216 72.2595 112.031 71.1188 112.97C70.0851 113.821 68.074 113.677 67.3659 114.943C66.6644 116.198 67.774 118.209 69.1036 118.464C70.6177 118.755 71.7836 116.804 73.3082 117.709C74.7052 118.539 73.9756 120.09 73.0394 120.998C71.9318 122.073 70.865 122.297 71.657 123.999C72.264 125.305 73.4791 126.174 74.0243 127.558C75.3701 130.973 75.8143 135.88 74.3178 139.315C76.9148 139.605 83.1938 142.685 85.2366 140.193C85.9778 139.289 86.0663 137.961 86.8673 137.039C87.8095 135.954 89.1266 135.492 90.5211 135.317C93.5026 134.943 96.5529 135.853 99.4489 136.439C104.25 137.412 109.08 138.263 113.902 139.122C123.606 140.851 133.399 142.055 143.078 143.912C152.736 145.766 162.295 148.11 171.847 150.445C176.856 151.669 181.842 153.044 186.889 154.104C191.605 155.095 196.52 155.825 200.909 157.92C200.041 152.537 197.62 147.59 196.11 142.387C194.557 137.035 194.121 131.693 194.997 126.182C195.801 121.132 196.991 116.224 199.56 111.762C200.599 109.957 201.742 108.16 203.239 106.705C204.303 105.67 205.801 104.809 206.642 103.575C207.472 102.357 207.295 102.074 205.801 101.513C204.97 101.201 204.216 101.107 203.429 100.669C202.705 100.267 202.081 99.537 201.23 99.3979C199.266 99.0764 196.395 100.985 194.596 101.664C192.141 102.591 189.603 103.426 186.982 103.708C178.38 104.634 168.177 99.6302 162.28 93.5682C160.311 91.545 155.794 86.893 157.63 83.8075C158.599 82.1789 160.331 82.5659 161.785 81.8262C164.063 80.6677 162.619 78.7458 161.528 77.2205C158.557 73.0653 156.564 68.3099 154.436 63.6866C152.27 58.9811 149.301 54.7745 146.867 50.2197C145.12 46.9513 143.094 43.2955 142.291 39.6583C141.311 35.2164 144.309 34.5885 147.974 33.9521C159.567 31.9384 170.982 29.233 182.471 26.7139C187.051 25.7102 191.653 24.6898 196.263 23.8336C199.855 23.1664 203.888 22.6434 207.338 24.1843ZM309.095 301.29C303.116 301.599 297.101 302.93 296.909 309.925C297.635 323.199 306.243 333.121 315.338 341.926C317.632 344.147 319.878 346.501 322.37 348.503C323.836 349.681 325.435 350.22 327.022 351.153C327.41 351.382 328.082 352.148 328.444 352.265C329.301 352.543 329.375 352.23 330.211 352.142C332.035 351.949 332.371 353.223 333.757 354.265C336.387 356.242 341.107 355.953 344.195 356.571C347.047 357.142 358.398 361.265 357.888 355.326C357.389 349.523 351.217 346.704 346.868 344.112C340.806 340.5 334.557 336.591 329.453 331.668C324.6 326.987 321.432 320.583 318.174 314.753C316.142 311.121 315.58 308.04 314.994 303.981C314.745 302.264 314.72 301.702 313.045 301.412C311.749 301.188 310.402 301.223 309.095 301.29ZM288.294 300.326C284.84 301.448 282.232 304.226 280.513 307.367C279.633 308.975 279.128 310.597 278.837 312.395C278.467 314.683 277.615 317.127 278.252 319.427C279.409 323.602 282.445 328.161 284.829 331.743C287.51 335.772 290.992 340.294 295.222 342.763C299.294 345.141 304.212 345.774 307.988 348.709C307.65 347.095 306.141 345.904 304.957 344.898C303.23 343.431 301.72 341.974 300.253 340.228C297.009 336.366 294.312 332.183 292.584 327.419C290.91 322.802 289.951 317.606 290.165 312.684C290.266 310.342 290.668 307.854 291.676 305.717C292.349 304.289 293.544 303.075 294.06 301.573C295.241 298.13 290.017 299.766 288.294 300.326ZM212.558 186.217C207.736 186.766 202.956 187.695 198.099 188.145C188.28 189.054 178.089 189.592 169.191 194.295C156.244 201.139 141.335 216.326 145.825 232.324C151.129 251.222 162.468 268.311 176.665 281.684C185.729 290.221 195.655 297.914 205.612 305.367C215.243 312.576 226.385 317.305 236.314 324.045C236.987 314.113 243.21 305.006 250.569 298.687C254.523 295.292 258.673 292.04 263.108 289.298C265.286 287.951 267.542 286.812 269.84 285.687C271.583 284.833 273.51 283.563 275.503 283.467C275.471 282.003 271.808 281.462 270.797 281.118C267.31 279.929 263.963 278.107 260.733 276.343C253.7 272.501 247.202 267.812 240.694 263.154C237.513 260.878 234.282 258.669 231.135 256.344C228.302 254.251 225.789 251.528 222.745 249.745C219.612 247.912 215.91 247.529 212.415 246.853C208.217 246.041 204.087 245.077 199.868 244.364C192.825 243.174 186.176 239.015 179.682 236.18C177.499 235.227 174.168 234.4 172.502 232.595C170.991 230.96 171.386 228.435 173.322 227.314C176.651 225.387 182.199 227.9 185.347 229.144C191.17 231.444 196.953 233.503 203.133 234.682C211.597 236.296 219.641 239.318 228.117 240.9C237.258 242.605 246.419 244.472 255.712 245.1C253.435 240.576 249.66 236.817 246.72 232.724C243.347 228.029 239.978 223.331 236.634 218.615C230.74 210.301 224.167 201.947 219.687 192.757C218.151 189.607 216.639 185.752 212.558 186.217ZM256.329 307.359C254.988 307.574 253.974 308.92 253.062 309.809C250.239 312.561 247.475 315.286 245.176 318.514C248.733 317.007 251.634 314.381 255.063 312.655C256.299 312.033 260.663 310.646 259.784 308.913C259.289 307.939 257.317 307.201 256.329 307.359ZM272.654 296.274C269.171 298.657 265.545 300.788 261.873 302.86C264.448 303.842 267.021 305.196 269.135 306.976C270.102 307.789 272.089 310.171 273.487 309.573C274.787 309.016 275.493 305.792 276.122 304.629C277.733 301.65 279.986 298.836 282.409 296.487C278.769 294.044 276.33 293.759 272.654 296.274ZM243.256 166.525C240.468 167.303 237.702 168.153 234.917 168.937C229.355 170.503 223.672 171.811 217.864 171.811C217.074 173.27 219.338 175.648 220.033 176.76C221.859 179.68 223.418 182.812 225.073 185.835C228.582 192.243 232.411 198.402 236.541 204.424C240.714 210.508 244.483 216.88 248.757 222.891C252.893 228.709 257.443 234.361 261.923 239.916C279.38 261.559 303.71 276.485 327.622 289.893C334.325 293.651 341.308 296.962 348.731 299.015C351.796 299.862 354.922 300.58 358.04 301.211C360.135 301.635 363.621 302.585 365.55 301.226C359.493 298.819 351.556 297.891 346.664 293.235C343.635 290.352 346.957 288.201 350.045 287.665C356.02 286.629 362.213 289.239 368.079 287.545C366.511 284.661 362.005 284.799 359.263 284.058C355.797 283.122 355.669 281.366 358.969 280.171C363.03 278.701 367.712 279.499 371.945 279.228C374.011 279.096 382.669 278.75 380.054 274.77C377.996 271.64 372.985 270.762 369.706 269.607C365.105 267.987 360.635 265.458 355.949 264.203C351.366 262.975 346.696 262.221 342.112 260.924C337.329 259.571 332.619 258.067 328.073 256.037C319.309 252.123 311.184 246.809 303.782 240.708C296.156 234.422 289.471 227.217 283.319 219.491C280.082 215.427 277.002 211.244 273.854 207.112C270.813 203.122 267.374 199.319 264.939 194.915C262.247 190.043 258.758 185.596 255.97 180.741C254.46 178.111 252.834 175.53 251.426 172.843C250.425 170.932 249.743 168.13 248.389 166.47C247.116 164.909 244.891 166.069 243.256 166.525ZM114.498 228.261C115.432 229.117 115.277 229.47 115.097 230.558C114.729 232.786 114.322 234.973 114.151 237.234C113.565 244.967 114.653 252.986 115.854 260.624C117.054 268.245 119.937 275.285 124.381 281.588C128.687 287.695 133.884 292.56 140.731 295.557C141.906 296.071 146.561 297.959 146.26 299.701C146.034 301.01 143.617 300.27 142.748 300.083C130.441 297.438 120.011 286.278 113.791 275.889C111.216 271.589 109.56 267.217 108.138 262.463C107.93 261.769 104.949 251.934 105.956 251.811C105.087 245.001 104.827 236.72 108.037 230.417C109.236 228.063 112.045 226.015 114.498 228.261ZM93.0256 229.726C91.9025 234.86 92.2739 240.098 92.5216 245.299C92.5668 246.245 93.1065 249.165 91.5442 249.11C90.4402 249.07 89.5602 246.243 89.2894 245.518C87.6487 241.118 87.0657 236.162 87.8853 231.524C88.1441 230.056 88.5351 228.275 90.1452 227.765C91.5457 227.321 93.1498 228.113 93.0256 229.726ZM380.629 206.024C379.937 206.36 379.632 206.998 379.425 207.698C374.011 212.326 367.642 216.805 361.311 220.071C355.656 222.987 349.107 224.217 342.934 225.536C328.818 228.554 314.762 229.773 300.683 225.867C306.436 231.191 311.653 238.264 318.906 241.655C322.51 243.34 326.498 242.324 330.132 241.257C334.589 239.947 339.074 238.609 343.389 236.873C351.54 233.592 360.259 229.962 367.113 224.339C370.152 221.846 372.629 218.765 374.809 215.509C376.058 213.644 377.115 211.65 378.379 209.798C379.107 208.731 380.702 207.416 380.629 206.024ZM320.481 111.36C320.274 113.993 318.727 116.204 317.364 118.366C316.436 119.836 314.629 121.609 315.486 123.276C316.503 125.255 319.746 126.519 321.426 127.873C323.914 129.877 326.245 132.066 328.536 134.291C332.646 138.283 336.903 142.153 340.925 146.231C344.748 150.105 348.457 154.052 353.278 156.694C363.863 162.493 373.183 170.596 382.432 178.302C391.862 186.157 401.177 194.414 409.36 203.591C413.739 208.502 417.378 213.892 420.5 219.678C422.105 222.654 423.825 225.565 425.433 228.541C426.145 229.857 426.948 231.136 427.596 232.486C428.077 233.489 428.39 235.114 429.278 235.857C431.037 231.944 428.293 226.769 426.703 223.244C425.616 220.835 424.549 218.416 423.476 216C422.723 214.305 421.158 212.259 421.072 210.368C420.863 205.77 426.768 209.078 428.387 210.552C432.395 214.2 434.706 219.685 437.543 224.211C438.21 220.608 431.056 215.043 434.018 211.902C436.367 209.411 440.698 215.246 442.013 216.827C442.914 212.371 440.603 208.012 438.188 204.446C435.497 200.471 432.387 196.692 429.199 193.112C421.748 184.746 413.233 177.299 404.809 169.943C396.429 162.626 387.801 155.606 379.209 148.54C370.866 141.68 362.398 134.819 353.072 129.327C347.843 126.247 342.359 123.671 337.021 120.796C331.431 117.785 326.132 114.26 320.481 111.36ZM247.599 101.21C247.356 101.271 245.945 101.441 245.84 101.566C245.38 102.109 245.993 103.866 246.535 104.181C244.664 105.583 242.563 106.86 240.185 107.078C241.681 108.55 244.523 111.125 244.081 113.499C243.472 116.765 239.559 114.474 237.974 113.486C235.431 111.899 232.832 110.216 230.969 107.824C229.787 106.305 229.385 104.695 228.5 103.06C228.019 102.172 228.299 102.011 227.234 101.95C226.018 101.881 223.938 103.037 222.811 103.497C221.07 104.207 219.372 105.027 217.735 105.953C214.715 107.663 211.888 109.738 209.411 112.175C204.282 117.22 200.809 123.848 200.368 131.106C204.008 130.673 207.569 129.1 210.636 127.136C212.82 125.739 215.049 124.096 215.434 128.04C215.584 129.577 215.155 133.155 214.235 134.343C213.377 135.453 213.006 134.553 212.114 135.219C211.084 135.99 211.628 137.1 211.628 138.182C211.131 137.764 210.634 137.346 210.138 136.928C209.24 138.105 210.257 137.475 210.596 138.187C210.794 138.602 209.44 139.797 209.17 140.009C208.61 140.447 208.301 140.084 207.661 140.714C207.25 141.119 206.807 142.028 206.361 142.534C204.057 145.149 207.108 149.245 208.315 152.017C209.208 154.07 210.182 156.082 211.111 158.118C211.792 159.607 212.159 161.375 213.063 162.748C214.856 165.473 218.964 163.984 221.646 163.65C225.284 163.197 228.856 162.734 232.498 162.391C234.633 162.19 237.045 160.944 234.304 159.332C231.583 157.733 222.184 157.43 222.124 153.315C222.059 148.941 228.12 148.214 231.159 148.59C235.605 149.139 238.478 150.265 241.519 153.629C240.837 147.213 236.298 141.906 235.285 135.469C235.009 133.72 234.163 122.943 238.354 127.599C240.598 130.093 242.376 133.867 244.035 136.751C246.545 141.117 248.733 145.653 251.038 150.129C253.237 154.4 256.459 158.504 257.999 163.047C258.866 165.603 260.076 170.975 262.826 172.279C264.589 173.115 267.564 172.021 269.384 171.754C270.509 171.59 271.606 171.428 272.571 170.777C273.07 170.44 273.564 169.566 274.194 169.469C276.012 169.187 276.48 171.97 276.357 173.252C276.166 175.228 275.261 175.741 273.423 175.97C276.521 177.493 271.747 182.255 270.909 184.153C270.866 184.056 270.322 182.722 269.918 182.723C269.115 182.726 272.378 189.168 272.624 189.616C274.336 192.726 276.485 195.522 278.564 198.388C279.759 200.035 281.479 203.932 283.91 203.563C285.256 203.36 288.053 200.58 289.111 202.486C290.065 204.205 287.117 206.049 286.674 207.415C285.929 209.708 288.729 212.118 290.379 213.32C294.752 216.505 300.422 217.257 305.597 218.218C304.608 216.881 302.454 216.153 302.411 214.239C302.382 212.937 303.3 212.227 302.68 210.81C302.169 209.644 300.889 208.966 300.508 207.716C300.088 206.337 300.751 204.771 301.506 203.632C304.709 198.804 311.863 200.813 316.058 203.007C315.748 203.143 315.491 203.341 315.287 203.599L315.238 203.665L315.249 203.657C315.787 203.327 318.121 204.362 318.412 204.573C319.331 205.237 320.571 206.785 321.205 207.744C323.249 210.831 323.541 214.594 322.48 218.094C335.272 218.094 347.324 214.675 358.772 209.225C361.387 207.981 363.955 207.184 366.432 205.618C368.977 204.01 371.395 202.225 373.894 200.551C376.241 198.978 376.029 198.034 374.457 195.798C372.542 193.077 370.855 190.176 368.73 187.61C368.404 188.321 368.277 189.743 367.579 190.18C366.808 190.663 366.101 189.704 365.581 190.067C365.627 190.035 363.985 192.593 363.721 191.956C364.405 193.604 361.665 192.551 361.18 192.246C361.293 193.791 360.013 195.12 359.293 193.055C357.34 194.848 352.708 193.207 355.206 190.443C356.44 189.079 357.782 188.353 358.557 186.572C359.425 184.579 359.728 182.322 359.837 180.167C360.094 175.086 357.353 172.714 353.915 169.419C351.996 167.579 349.992 165.833 348.018 164.055C346.282 162.491 344.781 160.555 342.959 159.106C341.651 158.066 340.608 157.766 339.338 158.67C338.815 159.042 338.645 159.515 337.973 159.874C337.112 160.334 335.834 160.619 334.873 160.739C330.043 161.342 324.453 159.682 320.026 157.893C318.814 157.403 318.234 156.606 317.185 156C316.521 155.616 315.956 155.848 315.252 155.39C313.412 154.194 313.504 152.273 314.842 150.777C317.976 147.273 322.478 150.425 325.681 147.595C329.672 144.069 323.018 139.193 320.33 137.035C318.179 135.307 316.331 134.933 313.702 134.479C313.151 134.384 309.499 133.327 310.776 134.847C307.939 134.773 306.543 134.785 304.259 136.561C303.659 137.027 302.862 137.467 302.697 138.262C302.611 138.681 303.472 138.765 303.474 138.761C303.358 139.043 302.491 139.554 302.366 139.644C303.827 139.818 303.448 142.694 303.071 142.71L303.049 142.708L303.091 142.745C303.73 143.351 302.29 144.284 301.801 144.441C300.415 144.886 299.099 143.919 298.172 142.953C296.097 140.79 294.59 137.112 294.723 134.115C294.909 129.908 297.664 127.469 299.937 124.316C301.638 121.956 299.11 120.702 297.352 119.221C295.199 117.411 292.271 115.184 291.563 112.3C290.918 109.673 292.706 108.774 294.996 109.564C298.092 110.631 300.597 113.378 303.34 115.097C305.775 116.622 308.848 119.737 311.823 119.914C311.277 117.967 308.574 118.173 307.529 116.727C306.148 114.815 308.293 113.963 309.916 114.183C311.176 114.352 314.771 117.027 314.677 113.943C314.627 112.291 311.879 111.738 310.682 111.26C304.602 108.833 298.374 107.178 291.926 106.053C289.836 105.69 289.302 105.945 288.292 107.837C287.949 108.479 286.717 111.435 286.041 109.476C285.158 111.081 284.901 112.793 282.98 113.439C280.536 114.26 277.393 113.044 275.142 112.101C273.209 111.292 271.372 110.157 270.132 108.427C269.515 107.567 269.065 106.612 268.774 105.594C268.526 104.73 268.644 103.313 268.196 102.528C267.449 101.215 265.668 101.499 264.292 101.368C261.222 101.075 258.19 100.81 255.104 100.774C252.539 100.744 250.091 100.588 247.599 101.21ZM314.354 216.55C313.372 216.902 315.116 218.081 315.693 217.942C315.456 217.56 315.064 216.295 314.354 216.55ZM315.238 203.665L315.211 203.685C315.177 203.716 315.154 203.756 315.144 203.804C315.167 203.768 315.19 203.733 315.213 203.699L315.238 203.665ZM334.88 172.709C335.769 173.457 335.41 175.191 336.019 176.257C337.647 179.109 340.583 181.922 343.349 183.645C346.327 185.5 347.737 187.907 348.467 191.267C348.618 191.961 349.073 192.925 348.851 193.644C348.643 194.316 347.891 194.539 347.66 195.138C347.554 195.412 347.997 197.529 347.943 197.536C347.686 197.567 346.937 196.501 346.941 196.507C346.644 197.246 346.747 198.085 345.947 198.481L345.849 198.524L345.862 198.534C346.061 198.689 346.972 199.447 346.755 199.613C346.452 199.845 345.711 199.686 345.333 199.821C344.737 200.035 344.306 200.568 343.732 200.815C342.193 201.48 340.418 201.275 338.794 201.041C335.372 200.548 331.521 199.32 329.047 196.778C326.05 193.699 326.761 190.508 326.491 187.054C326.187 183.179 328.975 177.305 331.214 174.3C331.978 173.274 333.509 171.556 334.88 172.709ZM88.7176 142.559C88.5241 143.018 88.7171 143.733 88.6035 144.236C88.3743 145.256 87.7844 146.149 87.2165 147.005C86.1537 148.608 85.0843 150.076 84.3592 151.884C82.5788 156.322 80.9275 161.105 80.0747 165.811C78.2455 175.913 84.3527 184.245 84.6853 194.084C87.4899 191.123 91.7548 190.982 95.5549 190.973C100.612 190.962 105.622 191.175 110.66 191.619C120.297 192.469 130.149 192.814 139.283 196.346C140.288 196.735 141.043 196.903 142.052 197.115C143.161 197.349 142.574 196.828 143.385 197.486C143.603 197.664 143.69 198.303 143.918 198.527C145.098 199.685 145.805 198.898 146.804 197.657C149.554 194.239 152.298 191.133 155.835 188.476C163.372 182.817 171.813 180.204 181.103 179.362C186.428 178.88 191.627 178.602 196.975 178.654C202.081 178.703 207.472 178.797 212.309 180.629C211.106 177.176 209.051 174.082 207.395 170.843C206.59 169.271 205.844 167.617 204.821 166.17C203.922 164.898 202.564 163.858 201.942 162.405C201.831 162.697 201.72 162.989 201.608 163.28C191.785 160.459 181.656 158.939 171.585 157.325C161.469 155.704 151.478 153.458 141.383 151.73C136.315 150.862 131.228 150.341 126.123 149.759C121.209 149.2 116.471 148.106 111.626 147.176C106.718 146.234 101.942 145.094 97.1172 143.797C95.0941 143.253 93.179 142.503 91.2101 141.848C89.6397 141.326 89.2829 141.215 88.7176 142.559ZM305.936 160.47C306.23 161.678 305.292 163.236 304.991 164.383C304.651 165.683 303.911 166.204 303.526 167.387C303.191 168.414 303.795 173.861 301.175 172.235C301.256 172.626 301.687 173.162 301.731 173.511C301.787 173.945 301.366 174.609 301.488 174.983C301.598 175.32 302.749 176.307 303.028 176.87C304.128 179.081 304.905 181.627 305.448 184.035C306.013 186.546 306.699 190.025 304.625 191.759C304.127 192.175 303.692 192.287 303.181 192.787C303.121 193.25 302.91 193.632 302.549 193.934C302.351 193.99 302.192 193.941 302.073 193.786C301.441 194.13 301.651 192.686 300.908 194.089C300.729 194.427 301.053 195.589 300.892 195.469C300.601 195.254 299.722 194.335 299.437 194.318C298.799 195.188 298.814 194.301 298.141 194.425C298.114 194.786 297.919 194.985 297.555 195.021C297.271 194.956 296.988 194.889 296.704 194.824C294.989 194.834 292.456 194.112 290.809 193.656C287.666 192.786 285.423 190.617 284.741 187.331C283.321 180.486 289.062 171.93 293.167 166.952C294.569 165.252 304.416 154.216 305.936 160.47ZM333.348 182.522C333.304 183.097 333.482 183.956 332.837 184.019C332.866 183.371 332.595 182.54 333.348 182.522ZM288.624 181.547C288.917 183.204 288.984 182.258 288.319 183.398C288.096 182.727 288.197 182.11 288.624 181.547ZM336.218 179.41C336.473 179.728 337.45 180.588 336.609 180.808C335.872 181 336.187 179.803 336.218 179.41ZM300.805 167.921C300.471 169.704 301.479 169.277 302.867 168.953C302.18 168.609 301.492 168.265 300.805 167.921ZM43.6393 95.9784C36.993 101.697 36.7925 111.697 37.002 119.747C37.287 130.684 37.9488 141.651 39.0031 152.54C39.4795 157.461 40.879 159.966 45.7223 161.615C50.9691 163.401 56.6205 163.055 62.0628 162.738C61.0221 154.625 58.9854 143.95 67.1016 138.55C67.8443 138.057 68.5237 137.692 69.4278 137.645C70.0248 137.614 70.8811 138.157 71.4479 137.879C72.5942 137.317 71.9384 135.726 71.563 134.826C70.4218 132.088 68.2438 129.898 66.477 127.575C64.2578 124.66 62.3513 124.738 59.0376 125.098C57.7165 125.242 52.5194 125.836 53.5426 123.007C54.2858 120.951 58.3688 121.466 60.0231 120.99C61.2769 120.628 61.5326 120.469 61.4789 119.184C61.394 117.176 60.2457 116.631 58.4642 116.686C56.1727 116.756 52.2053 117.977 50.2973 116.17C47.5726 113.589 51.6134 111.782 53.6621 111.432C55.8069 111.065 58.6753 111.399 59.1703 108.737C59.6417 106.198 58.306 103.125 57.2622 100.889C56.2521 98.7262 54.8717 95.9698 52.7641 94.6712C49.7902 92.8395 46.1213 93.8423 43.6393 95.9784ZM69.4358 143.758C66.7363 144.365 65.183 147.89 64.8694 150.354C64.5664 152.738 64.7729 156.141 66.5162 157.973C68.8041 160.377 72.7927 160.215 75.255 162.472C76.346 157.042 78.3631 151.816 81.0129 146.964C78.9204 146.386 76.8812 145.639 74.8178 144.968C73.3082 144.478 71.0569 143.393 69.4358 143.758ZM242.721 155.456C243.327 155.975 243.518 156.133 243.675 156.948C242.238 157.039 242.67 156.576 242.721 155.456ZM256.976 116.832C259.223 116.89 260.273 117.619 262.075 118.699C263.36 119.468 264.918 118.64 264.918 120.595C268.585 117.705 275.423 125.167 277.994 127.122C280.705 129.183 283.375 131.61 283.675 135.289C283.764 136.378 283.539 137.495 283.702 138.58C283.825 139.397 284.342 140.214 284.254 141.062C284.15 142.044 283.321 142.619 283.13 143.542C283.055 143.908 283.313 144.643 283.153 144.939C281.509 147.961 279.403 150.44 275.796 150.739C272.655 150.999 269.184 149.875 266.895 147.677C264.864 145.727 263.653 142.806 263.127 140.073C263.035 139.601 263.209 138.518 263.053 138.118C262.828 137.536 262.488 137.526 262.208 137.055C261.466 135.805 260.4 133.45 261.364 132.076C258.989 132.614 257.184 127.512 256.297 126.023C255.632 124.909 254.03 124.037 253.586 122.953C252.976 121.467 255.168 120.829 254.408 119.793C254.002 119.239 251.82 119.616 252.034 118.228C252.233 116.943 256.118 116.809 256.976 116.832ZM302.983 142.659C303.004 142.686 303.026 142.702 303.048 142.708L303.049 142.708L303.041 142.701L302.983 142.659ZM296.713 131.533C296.919 131.355 298.022 130.235 298.152 131.075C298.258 131.763 297.043 131.533 296.713 131.533ZM193.733 44.2721C191.338 44.4187 189.203 47.0113 187.419 48.3723C184.755 50.4041 181.607 51.8957 178.468 53.0234C174.814 54.3351 171.057 55.5026 167.305 56.4978C163.5 57.5077 159.536 57.7143 155.742 58.7634C157.619 62.2081 159.497 65.6533 161.374 69.0985C162.197 67.9622 161.916 66.6793 163.271 65.8624C164.211 65.2955 165.572 65.2179 166.635 65.0083C169.593 64.4243 172.84 63.9073 175.844 64.5115C177.782 64.9015 179.938 66.3976 178.103 68.4868C176.944 69.805 174.451 69.4664 174.248 71.5601C174.053 73.5661 176.096 75.2895 175.623 77.3989C174.958 80.3638 172.004 79.476 170.69 77.5591C169.519 75.8498 169.963 72.8103 168.154 71.5777C167.075 70.8425 164.191 70.5775 163.03 71.2069C165.165 75.1585 169.315 80.0308 166.88 84.7549C166.132 86.2061 164.498 86.7594 165.593 88.1855C166.857 89.8302 170.502 91.1852 172.443 90.6818C174.26 90.2107 176.342 88.1578 178.386 89.1736C180.315 90.1326 178.948 91.7607 179.118 93.2669C179.632 97.8035 188.91 95.216 191.43 94.6138C193.957 94.0101 196.593 92.5493 199.202 92.4893C201.662 92.4324 203.947 93.6216 205.896 95.0144C207.356 96.0575 209.785 99.1092 211.637 99.2109C213.495 99.3132 216.129 96.5549 217.769 95.7199C220.71 94.2213 223.926 93.7879 227.044 92.7892C227.539 92.6309 229.701 92.185 229.741 91.4609C229.777 90.765 227.221 89.2427 226.787 88.9101C222.821 85.873 219.915 81.6861 215.789 78.842C213.95 77.5737 211.962 76.6798 209.813 76.1089C208.62 75.7924 205.371 75.3656 205.286 73.6599C211.009 72.6984 211.152 65.5384 208.738 61.4784C207.203 58.8964 204.822 57.6684 201.814 58.2237C197.455 59.029 196.658 62.2283 195.66 66.0247C192.098 64.0816 188.215 59.3232 188.003 55.1302C187.769 50.4686 192.76 48.4641 193.733 44.2721ZM300.064 75.601C306.069 76.7182 311.943 78.2072 317.726 80.1861C321.288 81.405 326.47 82.4531 329.551 84.7399C330.45 85.4081 331.582 86.8774 330.762 88.0515C330.055 89.0639 328.323 88.7913 327.3 88.6335C322.651 87.9165 318.096 85.9654 313.496 84.9132C301.272 82.1175 288.73 80.8039 276.241 79.9089C272.796 79.6625 269.349 79.4494 265.905 79.2065C263.037 79.0049 259.884 79.0961 257.076 78.4451C254.861 77.9316 254.309 76.2994 255.968 74.4617C257.585 72.6708 260.297 72.95 262.464 72.6229C275.069 71.7975 287.683 73.2977 300.064 75.601ZM279.172 60.9732C283.259 62.3851 278.483 63.0583 276.695 62.9102C276.089 62.8603 268.096 62.0651 268.096 62.3116C266.501 62.3116 262.28 63.535 261.134 61.9175C259.904 60.1805 265.172 59.5708 266.237 59.4937C270.331 59.1979 275.237 59.6141 279.172 60.9732Z" fill="black"/>
</g>
<defs>
<clipPath id="clip0_1201:1185">
<rect width="484" height="364" fill="white"/>
</clipPath>
</defs>
</svg>
