<svg width="458" height="348" viewBox="0 0 458 348" fill="none" xmlns="http://www.w3.org/2000/svg">
<circle r="166.5" transform="matrix(-1 0 0 1 214.5 166.5)" fill="white"/>
<path fill-rule="evenodd" clip-rule="evenodd" d="M355.011 57.3223C355.172 58.7505 356.904 57.6598 357.066 58.4339C357.168 58.9204 355.386 60.1275 355.001 60.46C356.243 61.2264 357.828 59.4607 358.759 58.7208C359.238 59.2538 359.4 59.5337 358.96 60.1435C358.183 61.22 358.218 59.7936 357.294 60.5426C357.679 61.2049 358.017 60.8254 358.506 60.6472C358.293 61.9215 358.77 61.1149 359.143 61.922C359.446 62.5783 359.409 63.0633 359.5 63.7964C359.061 64.8286 358.623 65.8612 358.184 66.8934C357.656 68.1353 357.813 68.5345 356.522 68.1193C356.668 67.8617 357.633 66.602 357.555 66.2924C357.466 65.9384 356.145 65.4488 355.796 65.1515C355.183 64.6285 355.189 64.18 354.798 63.6182C354.953 63.0958 354.833 62.8514 354.434 62.8866L353.995 64.0974C354.031 64.9565 354.74 64.8761 355.158 65.6968C355.798 66.9528 355.44 66.2115 354.916 67.2223C354.403 68.2152 354.345 69.4826 353.5 69.9818C353.954 70.186 354.408 70.3901 354.862 70.5938C353.802 71.785 356.006 71.2049 356.371 71.0894C355.998 71.9001 355.625 72.7108 355.253 73.5215C354.135 72.8811 353.584 71.6672 352.84 70.6646L351.141 73.8992C351.705 73.8457 352.269 73.7928 352.831 73.7393C352.753 73.8914 352.031 74.9346 352.093 75.1666C352.345 76.1125 354.263 75.579 354.051 76.8163C354.023 76.9748 352.304 78.7501 352.009 78.9213C352.873 79.3187 353.264 79.1538 352.954 80.1974L351.751 79.4525C351.41 80.0805 351.014 80.6939 350.796 81.3817C350.838 81.8316 350.76 82.2577 350.561 82.6606C350.324 83.0209 350.058 83.3571 349.762 83.6686C349.527 84.3011 349.452 87.754 349.735 88.3171C350.366 87.4827 351.775 88.9556 349.396 88.9556C348.354 88.9556 348.424 88.7337 348.026 89.6709C347.713 90.4085 347.543 91.052 348.431 91.1228C347.764 92.4697 347.906 93.5074 347.846 94.9429C347.797 96.1057 347.479 97.2617 347.243 98.4026C347.454 98.0915 347.665 97.781 347.877 97.4699C348.446 98.7141 348.012 99.7618 347.742 101.093C347.15 100.293 347.078 101.72 346.572 101.573C345.541 101.271 346.313 101.049 345.894 100.356C345.531 99.7563 345.568 99.5841 344.897 99.2174C344.006 98.731 342.444 98.7127 341.436 98.541C339.741 98.2514 338.044 98.1788 336.33 98.1025C329.912 97.8175 323.517 97.7444 317.1 98.1057C311.196 98.4382 305.149 99.2859 299.36 100.434C293.197 101.656 287.169 102.784 281.2 104.851C280.047 105.251 278.892 106.084 277.739 106.377C276.645 106.655 275.549 106.652 274.409 107.057C271.678 108.028 268.853 108.764 266.101 109.691C263.135 110.69 259.926 111.523 257.104 112.905C255.878 113.506 254.765 114.32 253.54 114.929C252.386 115.502 250.445 116.025 249.835 117.349C249.597 117.865 249.638 118.239 249.786 118.774C250.082 119.847 250.315 119.731 251.12 119.658C252.239 119.557 253.688 118.665 254.775 118.314C257.751 117.354 260.762 116.585 263.788 115.816C269.222 114.435 274.678 111.988 280.041 111.032C283.221 110.464 286.234 108.921 289.432 108.339C290.133 108.211 292.164 107.186 292.74 107.54C292.893 107.634 293.266 108.759 293.398 109.028C293.87 109.995 294.412 110.928 295.046 111.793C296.957 114.403 299.521 116.505 301.81 118.754C304.424 121.323 306.695 124.157 309.108 126.915C309.317 126.666 309.526 126.417 309.735 126.168C309.515 127.91 310.788 129.166 311.83 130.348C313.066 131.753 314.06 133.074 315.034 134.675C315.834 135.989 316.857 137.139 317.761 138.336C318.649 139.513 319.24 140.934 320.058 142.203C321.935 145.117 323.781 148.088 325.674 150.963C326.565 152.316 327.269 153.839 327.974 155.379C328.534 156.602 330.218 159.102 330.218 160.288C330.097 160.869 331.327 164.364 330.012 162.717C329.803 163.05 329.593 163.382 329.382 163.715C329.742 163.56 330.101 163.406 330.461 163.251C329.369 164.264 331.408 164.394 331.453 164.96C331.271 165.14 331.09 165.319 330.908 165.499C330.598 166.153 330.194 166.238 329.697 165.753C329.15 165.788 329.041 165.474 328.431 165.683C329.013 166.614 329.764 166.026 330.059 167.313C330.319 168.447 329.496 168.69 328.627 169.361L328.573 169.403L328.554 169.47C328.364 170.05 327.827 169.803 327.228 169.676C325.796 169.374 324.214 168.796 322.82 168.35C319.807 167.388 316.77 166.577 313.654 165.919C306.545 164.417 299.493 164.487 292.32 164.012C292.508 163.208 292.51 163.278 292.286 162.78C292.573 163.419 290.84 162.584 292.146 163.997C288.813 164.555 285.212 164.135 281.832 164.321C281.989 163.962 282.351 163.549 282.013 163.289C280.412 165.659 275.064 164.643 272.42 164.982C270.868 165.182 269.334 165.564 267.787 165.816L267.136 165.921C266.593 166.009 266.049 166.106 265.519 166.253C264.835 166.442 263.696 167.217 263.048 167.037C263.997 165.078 262.903 166.774 262.754 166.796C262.303 166.864 261.528 167.019 260.88 167.019C261.618 163.986 262.883 161.192 263.393 158.068C263.711 156.12 264.584 152.983 262.704 151.603C261.674 150.847 259.985 150.683 258.792 150.426C257.485 150.144 255.2 150.155 254.062 149.398C253.174 148.807 252.986 148.263 251.822 147.811C250.48 147.29 249.861 146.772 248.505 147.193C249.056 146.486 249.829 145.97 248.746 145.247C248.303 144.951 247.433 145.349 247.277 144.702C246.474 145.284 246.664 145.753 246.449 146.55C246.469 146.887 246.555 147.209 246.71 147.514C246.284 147.689 245.859 147.865 245.434 148.04C245.704 147.296 244.91 147.74 244.752 147.374C244.516 146.827 244.656 145.993 244.656 145.399C243.779 145.683 242.863 146.034 242.479 146.968C241.405 146.313 241.832 146.268 242.382 145.285C241.481 145.066 241.29 145.541 241.153 146.306C240.678 146.155 240.201 146.005 239.726 145.855C240.798 145.847 241.055 144.989 241.081 144.057C240.664 144.196 240.247 144.336 239.829 144.474C239.744 144.925 239.658 145.376 239.572 145.827C238.915 146.397 237.206 145.367 236.652 145.073C234.719 144.047 234.012 143.75 234.284 141.418C234.512 139.463 235.017 137.498 235.129 135.534C235.253 133.351 235.004 131.017 234.817 128.841C234.455 124.63 233.872 120.481 233.668 116.253C233.558 113.964 233.435 111.674 233.347 109.384C233.277 107.563 232.664 105.56 234.882 105.398C234.61 104.517 235.423 103.497 236.261 103.015C236.554 102.331 236.874 102.27 237.222 102.832C237.524 102.929 237.805 102.884 238.065 102.694C239.287 102.41 240.751 100.636 241.847 99.9961C242.922 99.369 245.266 98.4574 246.033 97.4014C246.776 96.3797 245.653 96.4948 245.88 95.5585C246.19 94.2788 247.317 96.1167 247.491 96.3724C247.867 95.9847 249.307 95.2576 249.29 94.694C248.937 94.6296 248.585 94.5652 248.232 94.5008C248.618 94.2729 249.472 93.5923 249.921 93.5024C250.682 93.3493 250.397 93.1516 251.007 94.0116C251.219 93.6745 251.736 92.567 252.059 92.3427C252.214 92.2354 253.13 92.1641 253.323 92.0947C254.321 91.7334 254.22 90.9383 254.954 90.5601C255.31 90.377 255.748 90.6583 256.046 90.5249C256.524 90.3112 256.525 89.5818 256.958 89.3174C257.333 89.0881 258.283 89.2785 258.73 89.1118C259.471 88.8346 259.439 88.5766 259.992 88.0705C260.767 87.3612 261.481 87.464 262.345 86.9264C263.241 86.3692 263.103 85.1146 263.916 84.8752C265.001 84.556 265.279 85.6083 265.869 84.5688C266.002 84.3354 265.4 83.9864 265.777 83.6119C266.243 83.1506 266.436 83.701 266.649 84.0595L267.386 82.6359C268.567 83.2982 268.071 82.4441 268.972 81.9892C269.373 81.7873 269.702 82.186 270.141 81.9421C270.463 81.7631 270.519 81.3731 270.75 81.1314C271.195 80.667 271.441 80.0294 272.131 79.8083C271.882 79.8878 273.924 79.8275 273.742 79.738C273.543 79.4393 273.345 79.1406 273.146 78.8419C274.215 78.8419 275.148 78.9506 276.182 78.6217C276.549 78.5057 277.121 78.3267 277.425 78.0883C278.262 77.4329 278.074 77.5927 278.074 76.3888C279.228 77.1415 280.698 76.8784 281.838 76.0056C282.433 75.5498 282.814 75.0044 283.467 74.5925C283.747 74.444 284.032 74.3052 284.321 74.1764C284.683 73.7928 285.045 73.7891 285.409 74.1659C285.923 74.0248 285.917 73.9275 286.315 73.6722C286.429 73.4411 286.551 73.2141 286.681 72.9917C287.108 72.946 287.529 72.867 287.945 72.7546C289.558 72.3102 290.532 71.2077 292.029 72.1846C292.221 71.785 292.412 71.3849 292.603 70.9848C293.241 72.0042 293.676 71.0305 294.522 70.6176C294.876 70.4445 295.337 70.4016 295.657 70.2435L296.198 70.3746C296.351 69.8905 296.504 69.4064 296.656 68.9222C296.965 69.0451 298.186 69.7169 298.553 69.6813C299.079 69.6306 299.708 68.7185 300.218 68.5463C300.996 68.2837 300.717 68.6308 301.481 68.6363C302.068 68.6404 302.345 68.7258 302.853 68.2207C301.138 67.7644 303.302 67.5493 304.025 67.3949C305.151 67.1547 305.731 67.4114 306.513 66.5002H305.701C306.502 65.7534 306.233 66.017 307.076 66.0901C307.342 66.1124 308.498 66.7624 308.501 65.8955C309.591 66.5536 309.603 66.555 310.727 66.2581C311.225 66.1266 311.649 65.6986 312.196 65.6886C312.73 65.679 313.112 65.9261 313.589 65.8731C313.874 65.8421 314.871 65.4589 315.209 65.3333C315.743 65.1337 316.096 64.7075 316.607 64.5427C317.17 64.3604 317.886 64.5769 318.478 64.444C320.236 64.0476 321.268 62.9697 323.172 63.5534C323.376 61.8082 325.499 62.1965 326.642 62.3764C327.438 62.502 327.844 62.8318 328.667 62.4326C329.338 62.1079 329.72 61.5927 330.467 61.3332C331.039 61.1341 331.811 60.9893 332.409 60.8624C332.779 60.7427 333.157 60.7043 333.542 60.7477C333.93 60.8034 334.255 60.9761 334.517 61.2652L334.565 61.3223C334.625 61.1782 335.526 60.4947 335.422 60.5792C336.095 60.0279 336.41 60.2385 336.823 59.1652L335.382 58.8537C336.124 58.8025 336.682 58.7148 337.342 59.0103C337.798 59.2145 338.565 60.2965 339.022 60.2974C339.848 60.2983 340.137 59.1058 340.055 58.4851C340.749 60.1389 341.34 60.4143 342.898 59.5689C343.081 59.4693 343.264 59.3702 343.447 59.2707C343.817 58.8729 344.186 58.8802 344.552 59.293L345.205 59.6571C345.467 59.2108 345.729 58.7651 345.991 58.3188C346.546 59.1026 347.075 59.141 347.981 58.9578C348.606 58.8313 349.888 57.6717 350.349 57.6721C350.616 57.6721 350.957 58.3389 351.403 58.4691C352.14 58.6856 353.286 58.1412 353.549 57.4186C353.688 57.7201 353.828 58.022 353.967 58.3239C354.315 57.9905 354.665 57.658 355.011 57.3223ZM328.549 169.397L328.548 169.423L328.573 169.403L328.573 169.402L328.549 169.397ZM327.644 167.824V169.228L328.108 169.315L328.549 169.397L328.553 169.32C328.573 168.645 328.235 168.144 327.644 167.824ZM286.604 162.236C286.459 162.691 286.315 163.146 286.17 163.601C286.658 163.642 287.146 163.683 287.634 163.724C287.29 163.228 286.947 162.732 286.604 162.236ZM229.327 126.249C230.393 126.568 230.379 126.529 230.593 127.539C231.811 133.289 228.042 139.884 230.809 145.351C222.721 145.283 214.616 145.449 206.574 146.419C206.574 143.288 206.675 140.163 206.444 137.037C206.339 135.618 206.182 134.204 206.041 132.789C205.862 130.992 205.919 131.097 207.354 130.788C208.109 130.626 208.378 130.136 209.099 129.838C209.64 129.614 209.883 129.889 210.416 129.966C211.37 130.104 211.382 129.94 212.256 129.749C214.132 129.339 215.726 129.486 217.208 128.051C217.977 127.983 217.728 128.712 218.263 128.641C218.653 128.589 218.901 127.844 219.298 127.666C220.534 127.112 222.591 127.248 223.943 127.075C225.325 126.898 226.547 126.26 227.87 126.071C228.414 125.994 228.811 126.094 229.327 126.249ZM244.93 142.844C244.669 143.839 243.524 142.544 243.506 143.324L243.507 143.393L243.509 143.376C243.57 143.244 244.728 144.814 244.659 144.762C245.282 145.242 245.644 145.197 246.349 144.646C245.087 144.597 245.226 143.799 244.93 142.844ZM248.447 144.249C248.907 144.509 249.048 143.845 249.287 143.44C248.772 143.177 248.696 143.788 248.447 144.249ZM247.021 139.924C247.2 140.569 247.187 141.065 247.187 141.731C248.253 141.577 248.588 141.498 248.607 140.337L248.038 140.704C247.739 140.098 247.673 140.051 247.021 139.924ZM238.775 141.005C239.017 140.846 239.258 140.686 239.499 140.527C239.143 140.003 238.511 140.626 238.775 141.005ZM241.47 131.356L242.394 130.86C241.595 129.816 241.537 130.167 241.47 131.356ZM240.356 123.078H239.145C239.382 123.876 240.356 124.047 240.356 123.078ZM359.035 76.6829C359.312 76.8482 359.589 77.0136 359.865 77.1784C359.146 77.8494 358.262 78.5258 358.963 79.3123C359.519 79.9366 362.115 80.2344 362.893 80.4618C362.623 80.7797 362.067 81.6484 361.699 81.8672C361.408 82.0403 361.141 81.3547 360.553 82.0375C361.528 82.5555 361.267 82.1631 361.014 83.2616C360.864 83.9097 360.33 84.6057 360.029 85.1871C359.295 86.6016 358.544 88.007 357.775 89.4014C356.197 92.2609 354.535 95.073 352.789 97.8289C352.494 96.2724 353.336 94.5281 353.773 93.0264C354.323 91.1365 354.873 89.2474 355.426 87.3589C356.493 83.7197 357.451 80.1184 359.035 76.6829ZM316.672 81.4315C315.883 81.6375 315.367 81.7718 314.551 81.9846C315.736 82.371 315.736 82.371 316.672 81.4315ZM351.604 74.4166C350.598 74.8989 350.491 75.2493 351.305 75.8394C351.402 75.3803 351.472 75.0437 351.604 74.4166ZM351.482 63.0035C351.346 63.616 350.5 63.0268 350.312 63.4744C349.883 64.4984 351.247 64.3595 351.739 64.2979C351.654 63.8663 351.567 63.4351 351.482 63.0035ZM357.184 62.2261C356.914 63.5356 356.914 63.5356 358.161 63.7324C357.834 63.2282 357.56 62.8053 357.184 62.2261ZM334.565 61.3223L334.563 61.3362C334.564 61.3415 334.567 61.345 334.574 61.3464L334.587 61.3469L334.565 61.3223Z" fill="#00B3BC"/>
<path fill-rule="evenodd" clip-rule="evenodd" d="M176.882 198.474C176.693 199.471 176.22 199.94 176.715 200.856C177.136 201.634 178.342 202.143 179.151 201.946L176.882 198.474ZM154.951 163.011L150.958 164.413C152.049 165.509 153.089 166.662 154.292 167.636L154.951 163.011ZM220.814 166.601C218.909 165.618 216.776 165.507 214.689 165.381C215.006 167.136 215.324 168.892 215.642 170.647C217.365 169.298 219.09 167.949 220.814 166.601ZM175.085 302.475C174.705 301.785 172.113 296.461 171.574 296.734C171.289 296.879 171.266 299.843 171.224 300.265C171.076 301.765 170.927 303.264 170.778 304.764C172.312 304.21 173.949 303.75 175.085 302.475ZM156.974 259.426C157.367 260.603 157.759 261.78 158.151 262.957C158.337 263.516 158.447 264.342 158.777 264.835C159.205 265.476 158.882 265.852 159.454 265.151C160.069 264.398 160.253 262.39 160.519 261.467C160.925 260.065 161.33 258.665 161.735 257.263C159.825 257.247 158.668 258.857 156.974 259.426ZM116.852 190.123C114.505 191.766 112.128 193.396 110.085 195.438C111.882 195.324 114.384 196.59 116.077 195.995C116.858 196.166 117.116 195.862 116.852 195.083V193.464V190.123ZM151.663 201.747V211.342C153.855 209.429 156.162 207.652 158.271 205.641C156.068 204.343 153.866 203.045 151.663 201.747ZM230.023 226.607C229.332 230.879 229.293 235.274 229.104 239.597C229.07 240.364 228.782 241.519 229.281 242.191C229.782 242.865 231.208 243.238 231.934 243.598C233.974 244.611 236.001 245.652 238.035 246.678C235.365 239.988 232.694 233.297 230.023 226.607ZM281.826 200.34C286.859 197.806 291.893 195.272 296.927 192.737C291.991 190.598 287.056 188.458 282.121 186.319C282.022 190.992 281.924 195.666 281.826 200.34ZM230.013 212.27C230.933 212.337 231.078 208.749 231.23 207.8C231.52 205.998 231.817 204.198 232.122 202.399C232.732 198.803 233.372 195.212 234.046 191.628C235.395 184.461 236.882 177.321 238.531 170.221C236.759 169.894 235.132 169.658 233.402 169.131C232.005 168.704 230.341 168.936 229.093 168.049C228.931 171.376 229.743 174.914 230.043 178.241C230.391 182.091 230.577 185.92 230.547 189.787C230.486 197.282 230.208 204.778 230.013 212.27ZM114.153 313.809C115.025 313.571 113.838 301.325 113.784 299.558C113.633 294.445 113.603 289.329 113.693 284.214C108.993 287.232 104.184 290.012 99.2189 292.519C100.495 294.214 101.691 296.042 103.103 297.619C104.557 299.244 106.226 300.575 107.575 302.325C110.289 305.849 112.148 309.849 114.153 313.809ZM227.25 241.364C227.468 237.68 227.671 234.004 228.034 230.332C228.189 228.769 229.664 220.464 227.302 220.659C225.959 220.77 223.603 222.784 222.371 223.489C220.744 224.421 219.115 225.35 217.48 226.268C214.253 228.078 211.006 229.848 207.768 231.637C214.262 234.88 220.756 238.122 227.25 241.364ZM213.229 164.771C210.539 164.566 207.939 164.361 205.286 163.848C203.855 163.571 202.424 163.61 200.986 163.423C199.956 163.289 197.942 162.423 196.982 162.706C195.776 163.062 195.338 169.252 195.173 170.805C194.905 173.307 194.725 176.342 195.817 178.693C197.92 183.223 203.587 179.687 206.344 177.786C208.707 176.157 211.385 174.507 213.481 172.529C215.338 170.776 213.671 167.036 213.229 164.771ZM227.178 214.04C229.205 213.201 229.173 212.147 229.261 209.976C229.368 207.338 229.43 204.696 229.504 202.057C229.635 197.354 229.759 192.648 229.718 187.942C229.678 183.345 229.458 178.755 228.945 174.186C228.763 172.571 228.944 169.812 228.112 168.434C227.354 167.177 224.999 167.164 223.714 167.241C222.266 167.329 221.092 168.738 220.023 169.628C218.839 170.615 216.406 172.005 216.212 173.476C215.994 175.12 216.876 177.464 217.218 179.058C218.467 184.876 219.987 190.636 221.588 196.361C223.249 202.3 224.932 208.299 227.178 214.04ZM175.69 200.116C175.82 198.809 176.295 197.717 175.653 196.472C175.101 195.401 174.203 194.326 173.528 193.312C171.597 190.409 169.431 187.629 167.328 184.856C165.401 182.316 163.427 179.803 161.408 177.34C160.283 175.968 159.123 174.626 157.971 173.279C157.127 172.293 156.326 170.907 155.133 170.391C154.253 176.053 153.526 181.74 152.958 187.444C152.685 190.201 152.448 192.963 152.25 195.727C152.193 196.507 151.603 199.142 151.98 199.868C152.378 200.631 154.806 201.653 155.55 202.12C157.628 203.428 159.243 205.399 161.219 203.249C162.58 201.768 163.676 199.681 165.197 198.389C165.989 197.716 166.735 197.747 167.624 197.348C168.658 196.884 168.69 196.436 169.925 197.068C172.006 198.132 173.27 199.704 175.69 200.116ZM71.5292 229.248C71.5292 233.168 71.2674 236.391 73.8622 239.564C76.1296 242.337 78.4858 242.979 81.675 244.073C83.5531 244.717 83.6842 244.124 85.2059 243.036C86.6523 242.003 88.2271 241.174 89.6533 240.108C92.7275 237.81 95.7995 235.441 98.7872 233.024C99.7915 232.212 99.6435 232.489 99.491 231.514C99.3514 230.626 98.7288 229.495 98.3885 228.65C97.773 227.121 97.0478 225.642 96.3222 224.165C95.4985 222.49 94.7809 220.67 93.7578 219.108C93.3332 218.46 92.8292 217.874 92.3337 217.283C91.2906 216.038 91.3276 216.084 90.0801 217.101C87.4466 219.249 84.9963 221.575 82.0323 223.254C78.5255 225.242 75.0271 227.243 71.5292 229.248ZM150.937 198.883C151.318 193.255 151.747 187.658 152.405 182.056C152.744 179.179 153.138 176.311 153.521 173.44C153.677 172.271 154.279 170.31 153.944 169.174C153.614 168.057 152.159 166.993 151.361 166.185C151.146 165.967 150.487 165.055 150.203 165.014C149.899 164.971 148.756 165.828 148.427 166.021C147.261 166.706 146.116 167.426 144.989 168.175C142.864 169.586 140.805 171.101 138.791 172.673C134.566 175.968 130.538 179.514 126.403 182.925C130.191 186.325 134.854 188.965 139.089 191.719C141.594 193.347 144.111 194.958 146.661 196.51C147.953 197.296 149.453 198.499 150.937 198.883ZM99.1516 299.519C96.0925 301.59 93.1713 303.776 89.7117 305.105C86.2678 306.429 82.864 306.938 79.3046 307.725C77.5095 308.122 75.8223 308.556 73.9902 308.833C72.9635 308.989 71.3745 308.929 70.4383 309.373C69.6048 309.191 69.3077 309.482 69.5481 310.246C69.5571 310.483 69.566 310.721 69.5749 310.958C69.8108 314.262 71.8842 318.237 73.6927 320.923C74.7484 322.491 76.0935 323.95 77.4301 325.269C78.9393 326.757 79.8095 327.807 81.9132 327.183C85.4592 326.132 88.5888 324.016 92.183 323.083C95.0262 322.345 97.3877 320.798 100.16 319.997C103.58 319.01 106.964 317.884 110.43 317.059C108.882 313.998 107.497 310.811 105.514 308.007C103.481 305.13 101.239 302.365 99.1516 299.519ZM117.913 196.519C124.31 197.823 131.244 199.03 136.97 202.412C139.204 203.732 142.037 205.772 142.691 208.502C143.473 211.765 140.398 213.786 137.829 214.804C134.744 216.027 131.387 216.495 128.119 216.881C126.389 217.085 124.651 217.196 122.913 217.297C121.506 217.38 119.12 217.063 117.834 217.634C117.029 217.47 116.75 217.804 116.997 218.637C116.982 218.937 116.967 219.236 116.952 219.535L116.819 222.225C116.73 224.017 116.641 225.809 116.552 227.6C116.359 231.502 116.166 235.405 115.972 239.307C119.323 237.181 122.024 234.137 125.299 231.869C126.855 230.79 128.401 229.71 129.952 228.635C130.602 228.185 131 227.553 131.64 227.133C132.488 226.577 133.241 226.242 134.037 225.513C137.288 222.535 140.904 219.961 144.352 217.227C145.918 215.985 147.633 214.843 149.124 213.511C150.685 212.115 150.469 210.966 150.43 208.959C150.39 206.835 151.152 204.198 150.798 202.149C151.095 201.454 150.867 201.021 150.116 200.852C149.613 200.523 149.112 200.194 148.61 199.865C147.608 199.209 146.607 198.553 145.606 197.898C141.623 195.29 137.64 192.681 133.657 190.072C131.667 188.769 129.678 187.466 127.688 186.163C127.132 185.8 125.32 184.155 124.696 184.204C124.06 184.253 122.957 185.525 122.48 185.929C121.748 186.55 121.038 187.202 120.248 187.745C119.854 188.025 119.443 188.274 119.015 188.494C118.33 188.561 118.093 188.947 118.301 189.649C117.7 191.623 118.03 194.444 117.913 196.519ZM206.626 289.621C205.177 282.685 203.309 274.473 197.659 269.755C191.928 264.971 183.55 266.819 179.067 272.438C176.822 275.252 175.43 278.58 174.397 282.027C173.335 285.566 171.771 290.177 172.057 293.919C172.183 295.56 173.555 297.323 174.34 298.755C175.149 300.233 175.687 302.353 177.595 301.841C180.553 301.047 183.562 299.223 186.33 297.918C189.13 296.598 192.078 295.512 194.981 294.237C196.909 293.39 198.91 292.746 200.833 291.888C202.656 291.074 205.061 290.878 206.626 289.621ZM292.225 248.313C296.265 249.794 298.366 247.423 301.209 244.754C303.902 242.226 306.82 239.794 309.3 237.046C311.858 234.212 313.881 230.864 315.847 227.591C317.836 224.283 320.523 220.711 321.747 217.027C322.37 215.153 322.636 213.076 323.028 211.139C323.123 210.673 323.757 208.938 323.555 208.546C323.278 208.006 321.514 207.949 321.029 207.871C317.174 207.246 313.088 207.215 309.221 207.773C301.739 208.853 295.481 213.15 293.116 220.664C290.344 229.473 291.676 239.263 292.225 248.313ZM266.026 171.911C265.964 173.436 269.533 173.859 270.459 174.215C272.597 175.036 274.723 175.904 276.799 176.876C281.075 178.877 285.634 180.181 289.728 182.601C298.554 187.817 308.135 191.494 317.051 196.483C318.44 197.261 321.155 199.134 322.742 198.976C323.585 198.892 322.957 199.587 323.504 198.214C323.701 197.72 323.766 197.077 323.877 196.548C324.207 194.962 324.463 193.361 324.834 191.783C325.444 189.187 326.068 186.778 326.325 184.109C326.434 182.978 326.554 181.849 326.567 180.712C326.58 179.559 326.839 176.671 326.331 175.673C325.994 175.011 325.927 175.238 325.085 175.051C324.602 174.944 324.096 174.722 323.631 174.573C322.539 174.225 321.445 173.891 320.3 173.789C319.169 173.687 318.447 173.335 317.386 173.13C316.272 172.915 315.129 173.176 313.995 172.876C312.771 172.552 312.186 172.257 310.907 172.381C309.667 172.5 309.31 172.219 308.096 171.873C307.082 171.584 305.874 171.786 304.818 171.698C303.539 171.591 302.264 171.428 300.985 171.324C295.232 170.858 289.41 171.549 283.643 171.495C280.508 171.465 277.439 171.939 274.308 171.792C271.571 171.664 268.742 171.695 266.026 171.911ZM280.993 202.963C278.194 204.055 275.599 205.828 273.004 207.354C270.012 209.115 267.149 210.986 264.379 213.097C259.724 216.648 254.291 220.905 253.065 227.101C251.808 233.459 257.2 238.669 262.255 241.271C268.02 244.237 274.728 245.771 281.043 246.904C280.368 232.267 280.526 217.605 280.993 202.963ZM197.266 237.424C195.569 237.904 194.131 238.933 192.556 239.695C191.145 240.377 189.78 240.891 188.462 241.769C186.315 243.2 183.825 244.425 181.58 245.531C176.025 248.268 170.632 251.668 165.132 254.702C163.674 255.506 163.196 256.014 162.703 257.669C162.167 259.467 161.661 261.277 161.145 263.081C160.663 264.763 159.894 266.562 160.097 268.338C160.273 269.884 161.054 271.341 161.642 272.75C163.124 276.297 164.73 279.788 166.389 283.25C167.878 286.359 169.237 289.657 171.149 292.514C172.635 284.579 173.968 275.688 179.727 269.641C185.481 263.599 194.662 263.514 200.207 269.751C202.842 272.713 204.445 276.445 205.705 280.194C206.367 282.164 206.812 284.171 207.238 286.206C207.693 288.379 207.581 289.532 209.922 288.873C211.782 288.35 213.753 287.933 215.576 287.336C216.521 287.027 217.443 286.68 217.486 285.915C217.541 284.949 216.271 282.971 215.895 282.062C213.959 277.371 212.021 272.679 210.084 267.988C207.98 262.894 205.876 257.8 203.771 252.707C202.721 250.165 201.671 247.624 200.621 245.083C199.663 242.766 198.865 239.326 197.266 237.424ZM281.15 197.811C281.182 195.495 281.219 193.179 281.248 190.862C281.266 189.482 281.867 186.813 280.693 185.827C279.965 185.216 277.806 184.747 276.886 184.329C275.069 183.504 273.102 183.136 271.275 182.316C264.119 179.106 256.671 176.432 249.303 173.845C247.715 173.287 246.091 172.83 244.491 172.281C243.628 171.984 240.43 170.242 239.631 170.698C238.931 171.097 238.404 175.847 238.18 176.833C237.649 179.168 237.142 181.508 236.655 183.853C234.764 192.957 233.178 202.124 231.702 211.307C235.622 209.783 239.378 207.142 243.081 205.1C246.928 202.98 250.761 200.864 254.634 198.793C255.727 198.208 259.573 195.519 260.473 196.574C261.917 198.267 258.477 200.253 257.574 200.979C254.081 203.784 250.39 206.23 246.655 208.677C242.784 211.214 238.756 213.454 234.865 215.945C233.461 216.843 231.219 217.938 230.667 219.456C229.957 221.409 230.469 223.782 231.116 225.648C232.703 230.233 234.442 234.762 236.281 239.247C237.117 241.286 237.975 243.316 238.849 245.339C239.889 247.747 241.254 248.257 243.521 249.365C253.179 254.088 263.21 258.57 272.486 264.034C270.934 265.867 267.15 262.858 265.618 262.096C262.781 260.685 259.94 259.278 257.105 257.863C251.823 255.226 246.568 252.537 241.257 249.963C244.661 257.893 248.678 265.532 253.133 272.892C252.008 273.283 252.282 273.303 251.576 272.61C250.982 272.027 250.583 270.884 250.18 270.152C249.347 268.639 248.526 267.119 247.687 265.61C245.947 262.477 244.143 259.392 242.554 256.174C241.359 253.754 240.433 249.524 237.976 248.304C234.916 246.783 231.814 245.303 228.753 243.761C228.753 255.816 229.599 267.604 230.841 279.584C230.904 280.189 231.469 281.972 230.329 281.797C229.815 281.718 229.641 278.412 229.551 277.722C229.136 274.558 228.785 271.385 228.497 268.206C227.924 261.863 227.612 255.494 227.572 249.123C226.837 255.317 226.103 261.511 225.368 267.705L224.324 276.509C224.141 278.05 223.958 279.592 223.776 281.133C223.692 281.842 223.745 282.767 223.502 283.443C223.12 284.506 223.248 284.424 222.05 284.909C223.195 276.844 224.254 268.765 225.19 260.671C225.647 256.722 226.075 252.769 226.47 248.813C226.576 247.749 226.68 246.685 226.782 245.62C226.833 245.078 227.29 243.333 227.036 242.882C226.785 242.436 225.12 241.97 224.641 241.742C223.591 241.243 222.542 240.745 221.493 240.243C218.09 238.614 214.689 236.972 211.322 235.263C209.85 234.516 208.305 233.36 206.704 232.962C205.109 232.565 203.95 233.701 202.586 234.424C201.525 234.986 199.025 235.735 198.317 236.69C197.657 237.578 199.706 241.135 200.244 242.447C201.762 246.146 203.28 249.846 204.798 253.546C207.876 261.047 210.954 268.548 214.032 276.05C214.785 277.883 215.537 279.717 216.289 281.551C216.771 282.726 217.576 286.075 218.746 286.206C219.264 286.264 220.114 285.687 220.614 285.521C221.361 285.274 222.051 285.278 222.8 285.147C224.173 284.909 225.598 284.184 226.946 283.675C230.411 282.367 234.003 281.522 237.496 280.301C241.005 279.073 244.457 277.695 247.952 276.467C251.127 275.352 254.33 274.082 257.38 272.631C260.6 271.098 263.903 269.746 267.041 268.046C272.757 264.95 278.411 262.058 283.461 258.261C284.648 257.368 285.913 256.471 287.088 255.515C288.118 254.676 290.083 253.641 290.784 252.538C291.051 252.117 291.281 251.292 290.968 250.793C290.633 250.257 289.15 250.306 288.457 250.21C286.271 249.91 284.086 249.609 281.901 249.308C282.068 250.78 282.238 252.251 282.359 253.728C282.445 254.771 283.047 257.527 282.235 258.344C281.119 257.258 281.478 254.01 281.378 252.563C281.324 251.79 281.517 250.276 281.178 249.59C280.808 248.839 279.784 248.849 278.856 248.643C274.92 247.771 271.021 247.039 267.212 245.658C260.779 243.324 253.089 239.384 251.652 231.784C250.154 223.861 256.736 216.997 262.279 212.578C265.597 209.933 269.128 207.642 272.779 205.516C274.486 204.522 276.191 203.528 277.909 202.556C278.534 202.203 280.585 201.474 280.914 200.856C281.252 200.223 281.079 198.531 281.15 197.811ZM143.51 319.485C143.197 319.641 142.885 319.797 142.573 319.954C146.045 309.821 149.485 299.734 152.388 289.411C153.789 284.429 155.209 279.452 156.658 274.483C157.284 272.34 158.82 269.389 158.393 267.169C157.931 264.766 156.823 262.21 155.966 259.925C150.479 263.457 144.877 266.808 139.299 270.18C134.298 273.204 129.212 275.894 124.176 278.886C121.596 280.418 118.933 281.454 116.24 282.706C114.052 283.724 114.901 286.836 114.933 288.914C115.043 296.253 115.038 303.618 115.473 310.946C115.631 313.616 115.427 316.681 117.087 318.903C119.209 321.744 121.178 324.64 123.113 327.63C123.838 328.751 126.885 334.816 128.021 334.684C128.763 334.597 129.445 332.141 129.816 331.559C130.616 330.303 131.785 329.223 132.849 328.212C137.445 323.846 142.544 320.77 147.844 317.579C153.228 314.337 158.738 311.32 164.224 308.245C165.464 307.551 166.799 307.05 168.03 306.34C168.517 306.06 169.481 305.614 169.788 305.113C170.246 304.363 170.091 302.286 170.186 301.389C170.381 299.558 170.732 297.655 170.751 295.81C170.769 293.987 169.699 292.421 168.924 290.832C165.519 283.854 162.211 276.86 159.249 269.67C156.913 278.018 154.461 286.327 152.17 294.688C150.974 299.053 149.532 303.347 148.128 307.645C147.412 309.841 146.69 312.034 145.975 314.23C145.417 315.94 145.128 318.444 143.51 319.485ZM192.408 162.158C190.603 162.178 188.968 161.906 187.202 161.521C186.555 161.379 185.986 161.32 185.329 161.26C184.585 161.193 183.909 160.78 183.256 160.699C182.763 160.639 181.902 160.851 181.431 161.012C180.339 161.387 180.374 161.198 180.328 162.496C180.257 164.501 180.203 166.507 180.096 168.511C179.673 176.398 178.855 184.208 177.734 192.019C177.507 193.598 176.872 195.669 177.221 197.237C177.536 198.651 178.729 200.161 179.516 201.346C181.136 203.785 184.952 204.99 187.637 205.681C190.467 206.41 193.406 206.679 196.096 207.329C196.841 207.51 197.696 207.192 198.491 207.373C199.225 207.54 199.796 207.953 200.474 208.251C202.138 208.983 203.996 209.117 205.713 209.682C209.119 210.801 212.765 210.734 216.174 211.809C217.045 212.084 217.798 212.776 218.636 213.013C219.403 213.23 220.193 212.975 220.995 213.096C222.695 213.352 224.28 213.947 224.672 215.816C225.712 214.974 225.856 215.195 225.676 213.892C225.561 213.056 225.107 212.038 224.858 211.233C224.224 209.178 223.586 207.125 222.952 205.071C221.699 201.005 220.453 196.937 219.297 192.841C218.263 189.178 217.323 185.487 216.501 181.767C216.083 179.876 215.734 177.976 215.376 176.075C215.272 175.523 215.375 174.646 214.834 174.279C214.343 173.946 213.196 175.141 212.678 175.526C209.055 178.213 200.746 186.162 196.216 181.473C193.777 178.948 193.92 174.509 194.185 171.247C194.347 169.242 194.691 167.263 195.075 165.292C195.171 164.8 195.759 163.22 195.544 162.87C195.311 162.493 192.893 162.268 192.408 162.158ZM319.702 206.029C320.667 206.139 321.631 206.25 322.595 206.361C322.506 205.563 322.586 204.363 322.291 203.62C321.883 202.593 320.884 202.478 319.786 202.053C318.048 201.38 316.276 200.795 314.558 200.071C310.829 198.499 307.117 196.905 303.385 195.333C301.75 194.644 299.828 193.517 298.052 194.079C296.137 194.687 294.247 195.923 292.457 196.829C290.43 197.855 288.403 198.883 286.378 199.911C285.428 200.393 284.477 200.875 283.527 201.358C282.035 202.115 281.836 202.192 281.719 203.921C281.119 212.769 281.163 221.96 281.425 230.82C281.558 235.341 281.409 239.887 281.725 244.4C281.75 244.747 281.724 246.706 281.937 246.973C282.235 247.35 284.339 247.477 284.842 247.571C286.801 247.938 288.775 248.06 290.755 248.241C290.289 237.95 288.575 225.784 293.736 216.371C298.919 206.914 310 204.866 319.702 206.029ZM229.587 104.786C230.168 103.43 231.169 102.286 232.025 101.096C232.487 100.453 233.287 99.6847 233.583 98.9325C234.005 97.8619 234.003 98.0912 233.373 97.1535C232.777 96.2675 232.79 96.2008 231.869 96.0423C231.094 95.9089 230.268 96.1355 229.477 95.9902C228.676 95.8432 226.476 95.1526 226.981 93.8482C226.959 93.9053 228.232 93.2627 228.331 93.1512C228.65 92.7945 228.752 92.0341 228.909 91.6029C229.418 90.2209 229.596 89.3261 229.03 87.8546C228.183 85.6572 224.838 85.0069 222.755 85.7463C221.713 86.1153 221.12 86.8982 220.652 87.882C220.354 88.5068 220.285 89.4097 219.901 89.9537C219.321 90.7726 219.285 90.6817 218.083 90.5369C216.553 90.3529 215.298 89.7509 213.848 89.3312C212.269 88.8735 211.242 89.8043 209.862 90.5547C207.371 91.9103 204.965 92.3807 202.174 92.5958C199.066 92.8356 196.186 92.0683 193.109 91.8706C193.908 95.6363 195.972 98.6936 197.622 102.104C197.912 102.703 198.381 103.316 198.392 104.01C198.404 104.663 197.48 105.553 197.584 106.093C197.806 107.247 200.285 108.171 201.225 108.495C203.881 109.413 206.907 111.209 209.83 110.488C211.434 110.092 212.296 107.5 213.805 107.309C215.829 107.053 214.315 109.722 213.939 110.64C216.812 111.087 220.453 110.708 223.202 109.71C224.58 109.211 225.748 108.465 227.005 107.725C228.572 106.805 228.897 106.552 229.587 104.786ZM179.318 160.831C174.196 160.918 169 160.163 163.867 160.857C162.678 161.017 161.505 161.276 160.336 161.551C159.497 161.748 156.829 161.916 156.269 162.555C155.759 163.138 155.755 165.823 155.65 166.58C155.416 168.265 155.478 168.847 156.528 170.15C159.98 174.438 163.576 178.598 166.979 182.933C170.247 187.098 172.93 191.751 176.233 195.856C177.998 190.597 178.103 184.286 178.588 178.771C178.846 175.831 179.081 172.888 179.302 169.945C179.512 167.141 180.226 163.504 179.318 160.831ZM113.031 216.258C113.623 216.258 114.568 216.448 115.143 216.258C115.935 216.516 116.2 216.212 115.938 215.346C115.95 215.043 115.963 214.74 115.976 214.436C116.058 212.483 116.149 210.53 116.237 208.577C116.319 206.791 116.398 205.005 116.466 203.218C116.513 201.999 117.115 198.976 116.634 197.875C116.311 197.134 115.545 197.302 114.613 197.194C113.727 197.091 112.838 196.996 111.957 196.856C110.838 196.677 109.598 196.267 108.46 196.524C107.317 196.782 106.485 197.863 105.588 198.551C104.168 199.638 102.717 200.685 101.285 201.756C98.6824 203.702 96.1059 205.685 93.525 207.661C92.459 208.477 92.2543 208.193 92.7739 209.366C93.0955 210.091 93.8264 210.911 94.2715 211.565C95.1577 212.869 96.0403 214.844 97.1772 215.902C98.8313 217.441 103.421 216.464 105.618 216.453C108.124 216.44 110.539 216.48 113.031 216.258ZM119.516 216.13C121.689 215.913 123.884 216.007 126.044 215.708C128.391 215.382 130.722 214.9 133.065 214.539C135.402 214.179 142.508 212.725 141.807 209.154C141.066 205.38 135.625 203.119 132.615 201.85C127.913 199.868 123.004 198.807 118.059 197.687C117.438 201.07 117.528 204.703 117.414 208.131C117.353 209.993 117.299 211.858 117.3 213.722C117.3 214.17 117.149 215.101 117.328 215.518C117.748 216.499 118.237 216.13 119.516 216.13ZM112.371 217.752H98.5022C100.555 222.103 102.495 226.535 104.707 230.803C106.911 235.055 109.748 239.062 112.248 243.143C112.882 242.437 113.892 241.672 114.322 240.832C114.799 239.903 114.786 238.536 114.864 237.461C115.066 234.669 115.159 231.853 115.227 229.055C115.287 226.605 115.393 224.171 115.576 221.726C115.617 221.19 116.194 218.405 115.864 217.948C115.569 217.54 112.977 217.756 112.371 217.752ZM169.486 132.327C171.826 132.326 174.168 132.296 176.507 132.336C178.63 132.373 181.396 131.994 183.341 133.114C187.303 135.394 179.383 141.25 177.777 142.723C180.374 143.687 184.426 141.774 186.969 140.898C190.112 139.815 193.317 139.087 196.523 138.238C197.324 138.026 200.763 137.611 201.197 136.983C201.628 136.359 200.663 132.598 200.566 131.805C200.476 131.059 200.552 129.896 200.249 129.195C200.435 128.352 200.146 128.057 199.382 128.31C199.118 128.309 198.855 128.307 198.591 128.306C196.64 128.322 194.687 128.415 192.738 128.481C186.037 128.71 179.5 129.014 172.856 130.085C169.768 130.583 166.652 131.196 163.58 131.807C160.993 132.321 161.429 132.753 163.844 132.759C165.733 132.764 167.606 132.477 169.486 132.327ZM361.698 81.8673C362.096 81.3992 362.495 80.9306 362.893 80.462C361.923 80.1784 360.953 79.8943 359.982 79.6106C358.951 79.3092 358.396 79.3782 358.855 78.198C359.429 76.7196 362.053 76.5501 363.314 76.4944C367.657 76.3021 372.219 77.717 376.344 78.9635C378.357 79.5718 379.935 80.5131 381.638 81.765C382.381 82.3117 383.24 82.8251 383.891 83.4819C384.567 84.1642 384.848 85.0384 385.509 85.7226C386.593 86.8443 387.981 87.4029 388.512 89.0219C389.123 90.8804 388.394 93.0078 387.491 94.6283C386.575 96.2729 385.214 97.5166 384.109 99.011C383.232 100.197 381.4 103.436 384.263 103.061C385.776 102.862 387.74 100.219 388.829 99.1654C390.39 97.655 391.926 96.1099 393.58 94.7032C395.047 93.4559 396.736 92.177 398.697 91.9578C400.764 91.7267 401.796 93.0813 402.804 94.7288C403.754 96.2825 403.906 97.7993 404.574 99.3897C404.897 100.157 405.307 100.584 405.497 101.42C405.788 102.705 405.818 104.108 405.967 105.419C406.2 107.477 406.42 109.096 406.031 111.113C405.666 113.001 405.567 115.006 405.259 116.926C404.911 119.101 404.622 121.286 404.279 123.462C403.989 125.305 402.884 127.931 403.968 129.645C406.571 133.764 409.695 127.7 410.518 125.435C411.963 121.454 412.699 117.102 413.975 113.039C414.659 110.867 415.255 108.674 415.646 106.424C415.971 104.564 415.811 102.298 416.806 100.641C417.58 99.3536 418.957 98.3762 420.467 98.769C422.357 99.2609 423.083 102.059 423.639 103.76C425.107 108.246 424.567 112.286 423.969 116.861C423.693 118.979 423.429 121.101 422.954 123.184C422.633 124.589 421.306 127.434 423.279 128.198C426.078 129.282 429.044 121.06 429.842 119.203C431.93 114.341 432.73 109.518 433.59 104.308C433.788 103.11 433.939 101.886 434.235 100.709C434.492 99.6838 435.261 98.6479 435.33 97.623C435.399 96.5972 434.736 95.8815 435.416 94.8745C435.981 94.0364 437.003 93.9857 437.926 93.9784C440.095 93.961 442.169 94.9361 444.186 95.6436C446.064 96.3017 448.841 97.7459 450.864 97.281C444.514 90.678 438.18 84.15 430.605 79.0078C427.088 76.6195 423.569 74.3245 419.767 72.377C415.916 70.4044 411.504 69.0721 407.38 67.8787C405.137 67.2292 402.906 66.4934 400.691 65.7485C398.72 65.0854 396.735 64.9597 394.804 64.2075C390.61 62.5738 385.923 61.9408 381.58 60.7825C379.662 60.2714 377.723 59.833 375.801 59.3594C373.781 58.8615 370.943 57.9969 368.884 58.081C367.126 58.1527 366.533 60.2157 365.688 61.6508C364.46 63.7339 363.413 65.8983 362.447 68.1203C360.47 72.673 358.382 77.3763 356.968 82.1327C356.191 84.7442 355.424 87.3586 354.661 89.9742C354.001 92.2387 352.349 95.5052 352.788 97.829C356.041 92.6959 359.07 87.3649 361.698 81.8673ZM210.27 128.218C208.545 128.298 206.819 128.378 205.093 128.459C206.814 134.25 206.574 140.417 206.574 146.419C214.615 145.449 222.72 145.283 230.808 145.351C229.322 142.415 229.899 138.606 230.322 135.462C230.57 133.622 230.708 131.85 230.672 129.993C230.638 128.252 231.128 126.787 229.326 126.249C227.897 125.822 226.993 126.533 225.632 126.858C224.001 127.247 222.224 127.294 220.564 127.505C217.108 127.945 213.776 128.203 210.27 128.218ZM163.937 139.496C169.119 138.024 174.625 138.567 179.833 137.448C178.649 136.341 176.417 136.997 174.844 137.089C173.056 137.193 171.268 137.269 169.48 137.358C167.736 137.446 162.898 137.31 162.268 139.583C162.824 139.554 163.381 139.525 163.937 139.496ZM353.545 57.4315C346.764 58.0408 339.662 57.9462 332.931 59.1579C325.221 60.5455 317.184 61.416 309.709 63.8613C302.376 66.2605 294.898 67.9399 287.669 70.757C280.642 73.4955 273.874 76.409 267.256 80.0719C264.018 81.8646 260.866 83.765 257.778 85.8239C254.764 87.834 251.461 89.4819 248.54 91.6125C245.94 93.5093 243.697 95.249 241.43 97.5728C239.006 100.057 236.648 102.609 234.222 105.09C232.198 107.159 233.479 112.219 233.608 114.973C233.786 118.791 234.093 122.555 234.55 126.348C234.985 129.963 235.433 133.848 234.858 137.455C234.617 138.971 233.784 141.59 234.181 143.104C234.499 144.316 236.611 145.205 237.688 145.6C239.005 146.083 240.351 145.879 241.703 146.494C243.212 147.182 244.485 148.038 246.088 148.4C248.065 148.845 250.287 149.219 252.318 149.233C254.196 149.246 256.08 149.869 257.953 150.252C260.999 150.877 263.972 151.072 263.783 154.834C263.564 159.174 261.882 162.899 260.88 167.02C262.235 167.02 263.179 167.108 264.419 166.616C265.866 166.043 267.411 165.89 268.932 165.642C272.293 165.095 275.57 164.919 278.953 164.57C285.15 163.93 291.455 164.006 297.658 164.074C300.798 164.108 304.204 164.356 307.301 164.857C310.479 165.371 313.769 165.692 316.848 166.677C319.446 167.508 322.128 168.075 324.777 168.809C325.972 169.14 327.402 169.408 328.53 169.778C330.165 170.315 331.039 171.459 332.927 171.433C332.396 167.852 331.148 164.53 330.395 160.979C329.609 157.271 328.041 153.99 326.311 150.491C325.539 148.93 324.967 147.274 324.223 145.7C323.395 143.95 322.232 142.5 321.232 140.863C319.187 137.514 317.005 134.294 314.996 130.922C313.242 127.978 311.239 125.155 309.319 122.314C307.209 119.189 304.276 116.831 301.88 113.965C300.869 112.754 299.907 111.629 298.774 110.518C297.731 109.495 296.251 107.23 294.654 107.124C293.736 107.063 292.146 107.592 291.27 107.876C289.649 108.401 287.93 108.744 286.256 109.207C284.424 109.713 282.624 110.372 280.79 110.854C280.055 111.046 279.184 110.954 278.487 111.172C277.759 111.401 277.178 111.904 276.382 112.134C272.455 113.275 268.551 114.57 264.595 115.609C260.522 116.679 256.386 117.589 252.438 119.104C251.686 119.393 250.848 120.077 250.27 119.628C249.838 119.292 249.56 118.346 249.674 117.793C250.052 115.953 252.926 115.289 254.309 114.55C258.017 112.571 261.7 111.175 265.685 109.831C267.648 109.17 269.603 108.463 271.593 107.892C273.257 107.415 274.988 106.607 276.689 106.363C278.202 106.146 279.276 105.535 280.778 104.995C282.99 104.199 285.265 103.545 287.513 102.865C291.355 101.703 295.428 101.214 299.36 100.434C308.468 98.6278 317.924 97.7235 327.218 97.8354C331.903 97.8921 336.805 97.7518 341.436 98.5411C342.552 98.7311 344.9 98.6945 345.669 99.7208C346.083 100.272 345.859 101.091 345.965 101.688C346.144 102.696 346.681 103.165 347.146 104.083C348.135 99.1161 349.271 94.2542 350.547 89.3595C351.701 84.9297 352.77 80.4195 354.312 76.0518C355.944 71.4307 357.922 66.5309 360.361 62.3016C360.863 61.4311 362.115 60.0481 362.223 59.0744C362.334 58.0696 360.959 57.2913 360.015 57.1794C357.895 56.9287 355.626 57.358 353.545 57.4315ZM399.097 128.409C399.787 121.519 401.803 114.311 400.677 107.393C400.2 104.464 399.828 101.669 398.397 99.0252C397.674 97.6883 397.384 96.7064 396.003 97.4947C394.606 98.2926 393.319 100.263 392.16 101.406C390.031 103.505 387.8 105.667 385.25 107.227C383.241 108.454 379.251 109.618 377.741 106.962C376.303 104.431 378.222 100.899 379.599 98.8105C381.176 96.4214 384.162 94.2085 382.486 91.2608C381.765 89.992 380.727 89.6595 379.636 88.8269C378.692 88.1062 377.901 87.1727 376.956 86.4392C374.22 84.3131 371.218 83.4024 368.058 82.1875C366.6 81.6262 366.408 81.0982 365.565 82.3811C364.65 83.7746 364.148 85.7276 363.487 87.2686C362.161 90.3556 360.747 93.2805 359.038 96.1588C357.314 99.0636 355.785 102.098 354.155 105.06C353.54 106.178 352.962 107.314 352.235 108.363C351.839 108.934 351.349 109.443 351.027 110.067C350.551 110.991 350.763 111.834 350.467 112.753C349.189 116.722 347.324 111.182 346.968 109.887C346.563 108.413 345.586 107.265 344.953 105.89C344.43 104.755 344.073 103.069 342.81 102.534C341.775 102.097 340.441 102.697 339.386 102.756C337.446 102.864 335.491 102.703 333.543 102.827C331.721 102.943 329.903 103.122 328.082 103.236C326.259 103.351 324.438 103.035 322.638 103.232C319.41 103.584 316.109 103.528 312.888 104.016C309.108 104.589 305.366 105.2 301.575 105.677C302.456 107.383 304.282 108.123 305.726 109.34C307.016 110.428 308.038 111.683 309.337 112.718C310.656 113.769 311.44 115.323 312.531 116.585C313.601 117.821 314.591 118.858 315.528 120.242C320.05 126.922 324.714 133.355 328.443 140.575C330.331 144.229 332.134 148.139 333.424 152.059C334.807 156.265 335.486 160.774 336.308 165.122C336.717 167.289 336.932 169.119 336.483 171.298C336.366 171.817 336.243 172.335 336.116 172.851C335.722 173.47 335.868 173.871 336.553 174.055C336.953 174.653 337.5 174.877 337.535 175.695C337.562 176.316 337.224 177.036 336.702 177.386C335.693 178.062 335.693 177.149 334.654 177.351C334.264 177.567 333.874 177.783 333.485 177.998C333.279 177.678 333.068 177.361 332.85 177.048C332.188 176.403 331.66 176.462 330.794 176.305C331.234 181.496 330.533 186.132 329.417 191.196C328.88 193.631 327.96 196.015 327.496 198.454C326.978 201.18 328.11 202.421 329.861 204.239C329.417 204.476 328.638 204.734 328.271 205.089C327.688 205.655 327.837 205.724 327.837 206.61C327.838 208.231 327.535 209.829 327.286 211.424C326.825 214.377 326.405 217.432 325.412 220.259C323.609 225.394 320.694 230.727 317.725 235.25C316.063 237.781 314.397 240.657 312.315 242.841C310.224 245.032 308.152 247.244 306.067 249.442C301.962 253.769 297.477 256.758 292.56 259.998C290.613 261.281 288.562 262.687 286.887 264.285C285.185 265.908 282.922 267.044 280.888 268.223C279.98 268.75 279.334 269.505 278.354 269.937C277.434 270.342 276.791 270.475 276.019 271.006C274.103 272.325 272.034 273.453 269.925 274.448C267.353 275.661 264.821 277.072 262.179 278.107C260.976 278.579 259.843 279.093 258.677 279.645C257.416 280.242 256.055 280.634 254.76 281.27C253.667 281.808 252.559 282.12 251.446 282.56C250.537 282.919 249.824 283.5 248.896 283.875C246.971 284.654 245.219 285.073 243.348 285.991C240.863 287.211 237.917 287.78 235.3 288.658C232.377 289.638 229.344 290.614 226.345 291.309C225.068 291.605 223.981 291.992 222.748 292.44C221.945 292.732 221.024 292.892 220.134 293.169C217.675 293.937 215.218 294.677 212.746 295.329C207.917 296.605 202.984 298.136 198.3 299.868C195.845 300.776 193.354 301.868 190.998 303.024C188.335 304.33 185.466 305.084 182.793 306.378C177.63 308.876 172.484 311.447 167.38 314.07C164.7 315.447 162.058 316.866 159.441 318.364C158.492 318.908 157.453 319.132 156.51 319.665C155.277 320.362 154.264 321.386 153.001 322.077C148.131 324.741 143.16 327.25 138.687 330.62C136.346 332.384 133.83 334.19 131.807 336.338C131.14 337.046 129.983 338.143 129.862 339.171C129.684 340.692 129.851 339.293 130.365 340.231C131.077 340.32 131.238 340.6 130.85 341.071C130.67 341.292 130.441 341.405 130.161 341.41C129.262 341.596 127.579 340.62 126.856 340.212C125.603 339.505 124.938 338.611 124.134 337.424C122.386 334.849 120.681 332.251 118.882 329.712C117.263 327.428 115.679 324.915 113.838 322.818C112.589 321.396 112.495 322.017 111.106 322.819C110.073 323.415 108.873 323.669 107.802 324.23C103.722 326.371 99.2363 327.952 95.0511 329.444C94.0981 329.783 93.5901 330.322 92.7525 330.791C91.6857 331.389 90.3344 331.681 89.1935 332.106C86.0506 333.276 82.9233 334.491 79.8028 335.723C77.3935 336.674 75.0784 337.423 73.1923 339.179C72.4417 339.877 71.5332 340.378 70.7581 341.085C69.8554 341.906 68.6348 343.243 67.4984 343.708L66.8062 344.262C66.3379 343.929 65.8692 343.596 65.3995 343.264C64.9339 342.933 64.4679 342.605 64.0032 342.273C62.836 341.443 61.6773 340.6 60.5173 339.759C57.8864 337.849 55.2386 335.958 52.7914 333.803C48.4444 329.975 43.9336 326.352 39.3881 322.767C34.6174 319.004 29.9662 315.066 25.0317 311.529C20.5593 308.323 15.6798 305.616 11.3434 302.232C9.16076 300.529 6.98344 298.815 4.75483 297.165C4.63352 297.076 2.82013 295.936 2.80194 295.81C2.77107 295.577 3.36781 294.969 3.54397 294.773C4.37797 293.845 5.30206 293.018 6.13294 292.08C10.0055 287.706 15.0616 287.859 20.4059 287.653C22.8294 287.559 25.4576 288.703 27.7594 289.483C30.574 290.435 33.2892 291.834 36.008 293.041C41.6109 295.53 47.3936 297.657 53.0532 299.962C55.2787 300.868 57.4957 301.31 59.7582 301.933C62.0537 302.566 64.4184 301.963 66.8735 302.008C68.1477 302.031 69.3523 302.107 70.6355 302.033C71.3972 301.99 72.2749 301.842 73.0273 301.855C73.637 301.866 74.2698 302.123 74.8309 302.058C77.2869 301.773 79.8813 301.374 82.4145 301.047C84.9294 300.722 87.5246 300.561 90.0065 300.052C91.2562 299.796 92.4894 299.435 93.6918 299.001C94.7354 298.624 96.6326 298.196 97.4889 297.433C98.2551 296.75 97.9202 296.741 97.4929 295.627C97.3239 295.187 97.1491 294.519 96.8984 294.095C96.221 292.948 95.5662 292.588 95.9605 291.153C96.6549 288.625 99.0218 287.011 101.048 285.765C105.612 282.961 109.787 279.364 114.593 276.985C124.495 272.083 133.52 265.716 143.178 260.333C153.793 254.416 163.835 247.473 174.598 241.806C184.617 236.531 194.59 231.225 204.691 226.116C209.624 223.623 215.203 221.34 219.678 218.071C217.199 217.755 214.712 217.349 212.224 217.123C211.069 217.018 209.901 217.115 208.754 216.927C207.47 216.717 206.257 216.186 204.976 215.965C202.773 215.584 200.792 214.811 198.588 214.526C196.224 214.22 193.909 213.508 191.534 213.309C186.566 212.892 182.083 211.016 177.728 208.651C176.65 208.066 175.764 208.4 174.731 208.002C174.162 207.783 173.558 206.908 172.919 206.438C171.158 205.144 169.647 203.616 167.974 202.202C164.457 210.285 157.551 215.782 150.961 221.205C147.623 223.951 143.999 226.278 140.627 228.973C138.012 231.062 135.638 232.932 132.847 234.593C130.167 236.187 127.649 238.34 125.094 240.255C123.363 241.553 121.333 242.532 119.491 243.66C117.987 244.58 115.049 245.954 114.639 247.624C114.303 248.989 114.958 250.613 112.924 249.985C111.103 249.424 109.783 247.354 108.722 245.895C105.98 242.122 103.421 238.221 100.874 234.308C99.5066 237.042 97.1473 239.011 94.9664 241.038C93.6414 242.27 92.2659 243.413 90.8348 244.512C90.1408 245.045 89.4388 245.568 88.7435 246.1C88.4697 246.311 87.8489 246.633 87.6713 246.929C87.2566 247.622 87.5086 247.308 87.5732 248.145C87.674 249.456 88.1013 250.488 87.3766 251.745C86.696 252.924 85.2122 253.428 84.1721 254.234C81.6978 256.152 79.0959 258.19 76.3508 259.688C75.7278 260.027 75.1386 260.322 74.5584 260.738C73.5897 261.432 73.7667 261.683 72.7905 261.018C71.2639 259.978 69.9451 258.25 68.5674 256.995C65.681 254.365 62.7624 251.768 59.8064 249.221C54.1731 244.366 48.3735 239.753 42.8102 234.811C37.5234 230.115 31.8558 226.072 26.3978 221.608C24.9006 220.383 23.4217 219.134 21.9441 217.884C20.6285 216.772 18.4935 215.546 17.5204 214.123C16.107 212.056 21.6355 209.231 23.3035 208.81C26.1797 208.086 29.8988 208.5 32.7794 209.095C35.8033 209.718 38.8824 211.803 41.7059 213.102C44.8885 214.566 48.13 215.832 51.3362 217.214C52.766 217.83 54.2819 218.322 55.6092 219.152C57.0176 220.033 58.2749 221.038 59.7725 221.777C61.4985 222.627 63.2918 223.421 65.107 224.05C65.9294 224.335 66.8147 224.621 67.679 224.737C68.9028 224.9 68.7369 224.322 69.7533 224C70.6172 223.726 70.8223 224.45 71.5992 224.651C72.3307 224.841 72.8774 224.649 73.5107 224.246C74.9227 223.349 76.1795 222.111 77.592 221.176C78.9023 220.309 80.3469 219.499 81.5751 218.517C82.1228 218.079 82.5278 217.48 83.0674 217.035C83.9322 216.323 84.2751 216.605 85.2849 216.115C86.1104 215.713 86.8592 214.966 87.6446 214.471C88.1321 214.164 89.3144 213.776 89.6288 213.278C90.4548 211.972 89.045 211.065 87.7824 211.45C87.5933 210.323 86.6224 207.645 87.0416 206.588C87.4127 205.653 88.3867 205.828 89.206 205.333C92.2851 203.471 94.5574 200.088 97.4381 197.901C100.154 195.839 102.55 193.377 105.24 191.277C107.544 189.478 110.063 187.722 112.161 185.781C114.642 183.488 117.818 181.703 120.516 179.656C123.302 177.541 125.892 175.188 128.648 173.049C131.301 170.992 133.906 168.842 136.631 166.883C139.081 165.123 141.648 163.515 144.047 161.73C145.36 160.753 146.797 159.894 148.297 159.252C149.788 158.614 151.093 157.865 152.549 157.178C155.443 155.812 159.212 154.868 162.358 154.476C165.818 154.046 169.293 153.66 172.786 153.657C174.646 153.656 176.454 154.018 178.303 154.133C180.002 154.238 181.84 154.679 183.527 154.621C184.291 154.595 184.955 154.264 185.695 154.37C186.313 154.46 186.85 154.841 187.513 154.908C188.988 155.057 190.472 154.908 191.965 155.104C195.393 155.552 198.826 156.192 202.261 156.548C205.921 156.928 209.55 156.999 213.191 157.639C216.749 158.263 220.329 158.91 223.867 159.632C231.385 161.167 238.982 162.666 246.381 164.944C248.11 165.477 249.85 165.983 251.513 166.714C252.319 167.067 253.094 167.497 253.936 167.762C255.141 168.141 255.378 168.285 255.999 167.249C257.068 165.467 257.657 163.11 258.432 161.171C259.199 159.252 260.13 157.319 260.575 155.315C259.282 155.105 257.651 155.513 256.317 155.559C254.686 155.617 253.073 155.581 251.443 155.571C248.16 155.551 245.592 154.557 242.485 153.515C239.866 152.635 236.379 152.131 234.382 150.118C233.31 149.039 232.954 148.849 231.344 149.042C229.72 149.237 228.116 149.573 226.476 149.629C220.295 149.839 214.143 150.944 207.934 151.162C206.255 151.221 202.054 152.036 202.329 149.119C202.386 148.513 202.839 147.988 202.927 147.365C203.022 146.697 202.859 146.018 202.757 145.365C202.514 143.82 202.26 142.276 202.018 140.73C196.356 142.591 190.623 144.099 184.854 145.573C182.462 146.184 178.618 147.589 176.146 146.818C173.756 146.074 175.141 142.625 175.885 140.975C171.136 142.084 166.072 143.9 161.23 144.316C159.757 144.443 158.323 144.777 157.98 142.953C157.707 141.5 158.732 139.723 159.254 138.446C155.538 138.106 151.69 138.139 152.39 133.261C153.031 128.786 156.661 127.894 160.526 127.077C165.297 126.067 170.17 125.73 174.971 124.913C179.15 124.202 183.708 123.409 187.975 123.768C190.234 123.958 192.506 124.001 194.764 124.216C195.83 124.316 196.854 124.485 197.885 124.783C198.836 125.057 200.167 125.907 201.142 125.922C202.613 125.946 204.388 123.908 205.97 123.437C207.931 122.854 210.044 122.748 212.069 122.605C214.365 122.443 216.665 122.353 218.959 122.163C219.482 122.12 221.459 122.252 221.872 121.938C222.473 121.481 222.073 119.136 222.031 118.173C221.992 117.282 222.16 115.613 221.557 115.264C220.99 114.936 219.339 115.386 218.782 115.477C216.471 115.856 214.276 115.813 211.973 115.716C210.91 115.672 209.889 115.962 208.836 115.819C207.706 115.666 206.569 115.277 205.444 115.06C203.006 114.591 200.786 114.008 198.686 112.609C196.842 111.382 194.66 110.551 193.63 108.402C192.875 106.828 192.568 103.791 194.787 103.343C193.276 101.111 192.234 98.6036 191.432 96.0245C191.287 95.5568 191.191 94.8525 190.974 94.4447C190.206 93.0023 190.918 94.2816 189.824 93.7048C188.742 93.1352 187.963 92.6844 187.118 91.6938C185.77 90.114 185.203 88.1697 185.033 86.1112C184.802 83.3156 184.37 80.1633 184.769 77.3818C185.458 72.5638 188.897 68.9438 192.391 66.0299C194.288 64.4478 196.785 63.8586 199.009 62.8985C201.157 61.9714 203.556 60.9995 205.818 60.7821C207.861 60.5857 209.851 59.9029 211.896 59.6275C214.706 59.2484 217.518 59.39 220.342 59.2749C221.642 59.2219 222.938 59.0342 224.232 58.8912C224.962 58.8104 226.198 58.8967 226.867 58.6003C227.962 58.1143 227.37 59.1347 227.761 57.6485C228.505 54.8213 229.113 52.17 230.24 49.4228C231.29 46.8633 232.565 44.4162 234.25 42.228C235.831 40.1755 237.88 38.6742 239.742 36.9208C241.122 35.6219 242.687 34.4486 244.261 33.3981C245.161 32.7975 246.164 32.4728 247.043 31.9425C248.135 31.2848 249.098 30.7861 250.326 30.3832C252.962 29.5191 255.578 28.6015 258.377 28.6468C261.395 28.6952 264.421 27.9758 267.359 28.8879C272.815 30.5819 275.488 36.6372 275.397 42.1978C277.263 41.721 278.894 40.803 280.87 40.7244C282.691 40.6523 284.854 40.814 286.642 41.1602C290.113 41.832 293.683 43.8078 295.752 46.8021C297.726 49.658 298.021 53.4498 296.808 56.6898C296.227 58.2408 295.306 59.6206 294.325 60.931C293.606 61.8919 292.002 62.9556 291.926 64.2431C305.36 60.0846 318.848 57.1534 332.745 55.2561C339.789 54.2947 346.845 54.7761 353.897 54.2267C356.909 53.9919 360.182 54.3203 363.296 54.3326C364.611 54.3381 365.634 54.1508 366.587 53.2794C367.552 52.3979 368.323 51.3182 369.448 52.5907C369.735 52.9154 369.796 53.701 370.182 53.9453C370.65 54.2413 372.012 54.038 372.572 54.0732C374.53 54.1956 376.441 54.5359 378.364 54.9277C381.892 55.6471 385.397 56.3742 388.883 57.2872C395.52 59.026 402.069 60.7076 408.61 62.7716C415.285 64.8775 422.03 67.4759 428.185 70.8849C431.165 72.5359 434.143 74.5971 436.884 76.6396C438.158 77.5896 439.3 78.6173 440.408 79.7627C441.593 80.9872 443.042 81.8134 444.215 83.0471C446.768 85.7303 449.309 88.5766 451.625 91.4837C452.834 93.0014 453.943 94.6022 455.019 96.22C455.775 97.3549 457.766 99.433 457.307 100.899C457.063 101.682 456.209 102.23 455.427 102.038C455.166 101.974 454.949 101.627 454.726 101.594C453.971 101.484 454.658 101.212 453.777 101.578C452.026 102.305 451.467 103.765 449.243 103.433C445.461 102.868 441.904 101.039 438.465 99.4445C437.483 103.29 437.344 107.277 436.484 111.169C435.646 114.965 434.248 118.586 432.56 122.069C431.079 125.124 429.178 128.381 426.557 130.564C424.557 132.231 419.621 134.3 418.152 130.753C417.528 129.246 418.456 126.905 418.719 125.355C419.072 123.274 419.461 121.187 419.673 119.085C419.845 117.377 419.932 115.66 420.092 113.95C420.231 112.479 420.615 109.322 419.807 108.023C419.32 107.24 419.278 108.009 418.995 108.79C418.651 109.738 418.366 110.678 418.115 111.654C417.581 113.728 417.099 115.816 416.594 117.897C415.691 121.616 414.697 125.253 412.816 128.597C411.145 131.566 408.794 134.823 405.22 135.31C403.548 135.537 401.367 134.754 400.09 133.6C398.657 132.305 399.085 130.169 399.097 128.409Z" fill="black"/>
<path fill-rule="evenodd" clip-rule="evenodd" d="M317.499 280.262C319.462 279.865 321.115 278.26 322.719 277.054C324.764 275.516 326.705 273.841 328.691 272.225C332.433 269.181 335.829 265.843 339.058 262.212C345.429 255.048 350.225 245.827 352.405 236.406C353.508 231.64 354.873 226.054 354.246 221.128C354.029 219.417 353.697 219.103 352.058 218.908C351.318 218.821 349.44 218.603 348.774 218.901C347.047 219.673 346.115 222.961 345.603 224.614C344.09 229.493 343.2 234.545 341.833 239.464C340.493 244.285 338.334 249.177 336.199 253.686C331.447 263.717 324.843 272.11 317.499 280.262ZM356.453 224.878C355.278 238.538 351.575 251.553 343.271 262.554C339.324 267.783 334.682 272.332 329.651 276.465C324.456 280.732 319.151 284.751 313.256 287.933C311.687 288.78 310.117 289.624 308.528 290.432C307.648 290.88 305.426 292.53 304.41 292.269C303.597 292.06 303.384 291.415 303.257 290.577C302.973 288.694 304.167 287.755 305.374 286.546C310.224 281.69 315.089 276.817 319.624 271.652C328.58 261.45 335.308 249.234 339.048 236.053C340.2 231.995 341.228 227.891 342.471 223.861C343.228 221.406 344.302 217.036 346.819 215.812C348.169 215.156 349.742 215.794 351.161 215.401C352.492 215.032 353.374 214.279 354.509 215.542C356.5 217.757 356.589 222.102 356.453 224.878Z" fill="black"/>
<path fill-rule="evenodd" clip-rule="evenodd" d="M1.65468 303.697C0.660574 304.058 0.619097 304.415 0.163743 303.368C-0.0654958 302.84 -0.00350336 302.117 0.0504613 301.569C0.179798 300.255 0.855026 299.042 1.40984 297.877C6.63148 302.288 12.0534 306.263 17.6523 310.161C23.6402 314.328 29.3573 318.962 35.0205 323.579C40.0918 327.714 45.2243 331.726 50.2425 335.912C52.6629 337.931 55.4222 339.496 57.7231 341.577C59.5824 343.259 62.666 344.012 64.251 345.99C61.7392 347.528 58.3858 348.765 55.6024 347.435C52.5318 345.968 50.1765 344.056 47.4439 342.068C46.036 341.044 44.5718 340.114 43.1415 339.123C41.8842 338.251 40.9963 336.978 39.7234 336.161C37.0484 334.442 34.3042 332.548 31.7661 330.586C29.1588 328.57 26.2769 326.967 23.7615 324.825C21.1828 322.628 18.2963 321.173 15.6039 319.174C9.8979 314.937 4.87339 310.171 1.65468 303.697Z" fill="black"/>
<path fill-rule="evenodd" clip-rule="evenodd" d="M155.6 78.7017C155.529 79.0917 155.458 79.4817 155.387 79.8723C155.43 79.8823 158.845 73.1273 159.41 72.3116C161.329 69.5461 163.826 67.2451 166.233 64.9354C171.331 60.043 177.298 56.0941 182.295 51.1144C183.939 49.4762 186.884 46.9938 186.234 44.2238C185.588 41.4706 180.132 42.0301 178.264 42.8267C175.335 44.0758 172.956 46.6883 170.774 48.9646C168.393 51.4478 165.993 53.9032 163.975 56.7134C161.8 59.7438 159.735 63.0259 158.401 66.5427C156.908 70.4824 156.324 74.5596 155.6 78.7017ZM156.721 90.7885C154.404 91.5202 157.309 92.0143 156.401 93.2822C155.406 94.6725 153.732 90.3888 153.482 89.58C152.007 84.8012 152.667 78.9958 153.472 74.144C153.879 71.6964 154.142 69.2086 154.69 66.7875C155.226 64.4267 156.391 62.1832 157.468 60.0357C159.623 55.7388 162.477 51.7356 165.717 48.232C168.966 44.7171 172.587 41.2003 176.874 39.0363C180.417 37.2491 186.032 38.4891 187.69 42.3928C189.384 46.3818 187.093 50.7271 184.383 53.5319C180.848 57.1898 176.997 60.8231 173.026 63.9772C170.986 65.5986 169.275 67.5593 167.293 69.2511C165.183 71.0519 163.357 72.8633 161.797 75.1922C160.286 77.4488 158.731 79.7037 157.749 82.2655C156.674 85.0707 156.721 87.8207 156.721 90.7885Z" fill="black"/>
<path fill-rule="evenodd" clip-rule="evenodd" d="M64.049 262.811C58.7248 259.301 53.3827 256.218 48.7462 251.741C44.1686 247.32 40.1689 242.335 35.074 238.499C32.5318 236.586 29.9081 234.789 27.411 232.813C25.041 230.937 22.3169 229.331 20.1748 227.191C17.3196 224.339 11.974 219.038 15.6217 214.785C20.1494 220.3 26.3616 224.646 32.0252 228.833C37.997 233.247 43.4782 238.397 49.1427 243.206C54.5994 247.838 60.0378 252.514 65.3624 257.269C66.7606 258.519 68.1093 259.831 69.524 261.06C69.697 261.21 71.1634 262.161 71.1634 262.414C71.1634 263.022 70.027 263.401 69.6221 263.57C68.983 263.837 67.2543 264.5 66.5296 264.276C66.1496 264.158 66.1429 263.841 65.8691 263.653C65.7116 263.348 65.5279 263.062 65.3192 262.793C64.8955 262.799 64.4722 262.806 64.049 262.811Z" fill="black"/>
<path fill-rule="evenodd" clip-rule="evenodd" d="M377.484 201.597C373.688 201.497 367.911 201.485 368.124 206.793C368.229 209.421 369.62 211.351 370.763 213.599C371.964 215.961 372.853 218.401 373.206 221.05C374.631 231.768 370.808 242.238 367.35 252.147C374.776 246.009 380.139 237.468 382.955 228.106C384.32 223.567 384.851 217.731 384.41 213.004C384.189 210.639 383.338 208.518 382.312 206.411C381.797 205.352 381.282 204.143 380.46 203.287C379.637 202.428 378.496 202.142 377.484 201.597ZM364.244 258.286C361.792 254.156 365.652 248.076 366.914 244.05C368.424 239.236 369.816 234.224 370.461 229.203C371.137 223.944 370.264 219.855 367.884 215.209C365.755 211.056 364.492 205.525 366.858 201.131C367.811 199.363 369.218 199.145 370.891 198.44C372.945 197.574 373.51 196.11 376.03 196.342C380.526 196.755 382.606 201.122 384.279 204.843C388.178 213.516 387.118 224.709 383.792 233.418C381.878 238.429 379.695 243.633 376.445 247.9C374.852 249.992 372.979 251.806 371.035 253.552C368.932 255.439 367.048 257.715 364.244 258.286Z" fill="black"/>
<path fill-rule="evenodd" clip-rule="evenodd" d="M107.494 107.703C101.567 108.923 96.1576 111.659 95.2081 118.48C94.3451 124.68 98.4688 130.416 103.533 133.318C109.009 136.457 115.872 136.979 121.329 133.499C127.074 129.836 128.377 122.496 124.88 116.737C120.979 110.31 114.443 108.414 107.494 107.703ZM111.303 104.729C118.361 105.788 124.913 110.932 127.291 117.86C129.742 125.002 127.49 132.854 121.001 136.767C107.886 144.676 90.3585 131.496 93.5236 116.346C94.3273 112.5 96.6094 109.521 99.7099 107.269C103.133 104.782 107.272 104.714 111.303 104.729Z" fill="black"/>
<path fill-rule="evenodd" clip-rule="evenodd" d="M362.253 32.2026C353.749 28.2647 345.244 24.3268 336.739 20.3889C336.39 24.3369 336.042 28.2844 335.692 32.2323C335.598 33.3006 335.212 34.7539 335.376 35.808C335.552 36.9329 335.176 36.8128 336.609 36.653C338.44 36.4479 340.277 35.9848 342.09 35.6537C345.348 35.0581 348.813 34.8882 352.003 34.0122C353.63 33.565 355.189 33.5089 356.841 33.2385C358.655 32.9416 360.421 32.3917 362.253 32.2026ZM333.484 39.8345C333.484 35.3874 333.967 31.0001 334.364 26.5735C334.722 22.5908 334.86 18.7945 336.129 15C337.315 17.2055 340.599 18.087 342.631 19.222C345.431 20.7858 348.413 21.9372 351.278 23.3618C354.094 24.7607 356.805 26.367 359.623 27.7628C361.052 28.4707 362.503 29.1311 363.929 29.8445C364.822 30.2912 366.94 31.0101 367.495 31.8395C369.181 34.357 363.41 34.6004 362.296 34.8224C358.955 35.4897 355.575 35.8656 352.24 36.5516C349.131 37.1919 346.017 37.7861 342.897 38.3666C339.809 38.9412 336.627 39.8345 333.484 39.8345Z" fill="black"/>
<path fill-rule="evenodd" clip-rule="evenodd" d="M71.2537 149.929C74.6021 149.572 77.9368 149.059 81.2817 148.72C84.4491 148.399 87.2508 148.057 90.1444 146.571C86.1925 145.35 82.2317 144.195 78.2463 143.092C76.2697 142.546 74.2971 141.967 72.3116 141.456C70.7756 141.061 69.4367 140.833 68.8462 139.117C68.1589 137.118 70.07 137.421 71.2612 137.929C72.9043 138.629 74.694 139.064 76.3968 139.646C80.1975 140.946 84.0214 142.141 87.8578 143.323C89.0504 143.69 95.9606 145.048 93.4706 147.409C92.4051 148.42 90.0276 148.975 88.7248 149.7C87.0537 150.631 85.2345 151.002 83.3756 151.372C79.5013 152.144 75.4807 152.441 71.5587 153.11C69.5558 153.452 67.5533 153.794 65.5508 154.136C64.3774 154.337 63.9256 154.317 63.6192 152.977C63.3962 152.003 63.687 151.029 63.9011 150.086C64.4443 147.689 65.0486 145.305 65.6467 142.923C65.8741 142.014 66.2769 138.019 67.0685 137.582C68.8645 136.59 67.4788 142.121 67.3455 142.799C66.8415 145.354 66.243 147.891 65.9736 150.484C67.7375 150.32 69.4965 150.151 71.2537 149.929Z" fill="black"/>
<path fill-rule="evenodd" clip-rule="evenodd" d="M118.735 170.27C119.4 171.978 118.297 172.36 116.958 172.952C115.221 173.72 113.513 174.53 111.745 175.222C108.025 176.676 104.278 178.026 100.647 179.708C93.7208 182.915 86.7014 185.996 79.8831 189.43C78.1888 190.284 76.4932 191.134 74.7837 191.956C73.0158 192.807 70.9883 194.238 69.0969 194.724C67.4472 195.147 67.275 193.944 68.2526 192.836C69.513 191.407 71.4615 190.34 73.0443 189.347C79.5584 185.258 86.668 181.929 93.7828 179.116C102.006 175.864 110.252 172.745 118.735 170.27Z" fill="black"/>
<path fill-rule="evenodd" clip-rule="evenodd" d="M136.815 73.339C136.577 68.1442 137.256 62.9352 136.851 57.7541C129.895 64.0688 133.322 73.8277 137.324 80.6795L136.815 73.339ZM139.826 73.0421C139.87 75.5797 140.011 78.1159 139.77 80.6407C139.517 83.2911 140.731 84.6563 142.314 86.6083C140.97 88.005 137.886 84.7485 137.035 83.7885C135.282 81.8118 133.977 79.1856 132.816 76.812C130.344 71.7555 128.641 66.342 130.62 60.7904C131.353 58.7329 132.251 55.9354 134.193 54.7374C136.326 53.4221 137.957 55.2773 138.842 57.1855C141.002 61.8414 139.355 68.0446 139.826 73.0421Z" fill="black"/>
<path fill-rule="evenodd" clip-rule="evenodd" d="M213.514 331.266C216.721 331.526 219.881 331.782 223.088 331.991C222.535 327.488 221.981 322.985 221.427 318.483C219.572 318.923 217.716 319.363 215.86 319.802C214.983 320.01 213.637 320.065 212.861 320.513C212.57 320.582 212.28 320.651 211.99 320.72C211.982 321.304 211.976 321.888 211.97 322.473C211.948 324.202 211.9 325.929 211.83 327.657C211.8 328.381 211.554 329.441 211.723 330.158C211.422 330.884 211.613 331.192 212.297 331.083C212.703 331.144 213.108 331.205 213.514 331.266ZM211.306 334.521C208.792 333.239 209.479 329.322 209.483 326.829C209.486 325.243 209.596 323.667 209.636 322.083C209.664 320.994 209.421 319.647 209.787 318.595C210.438 316.724 213.622 316.774 215.259 316.905C216.473 317.002 217.489 316.94 218.733 316.858C219.346 316.818 220.031 316.937 220.633 316.752C220.763 316.712 221.989 315.836 221.935 315.834C224.134 315.92 224.164 321.32 224.306 322.69C224.659 326.068 224.978 329.451 225.266 332.836C225.342 333.731 225.667 334.744 224.836 335.255C224.087 335.716 222.101 335.26 221.272 335.234C217.932 335.131 214.61 334.598 211.306 334.521Z" fill="black"/>
<path fill-rule="evenodd" clip-rule="evenodd" d="M368.237 133.874C369.691 135.214 368.992 136.596 368.516 138.269C368.23 139.273 366.658 142.571 367.091 143.511C367.593 144.597 369.949 144.864 370.956 145.207C372.711 145.804 374.474 146.404 376.134 147.247C376.871 147.621 379.528 148.48 380.027 149.178C380.312 149.578 380.416 149.891 380.201 150.407C379.824 151.312 379.287 150.833 378.369 150.639C374.172 149.751 370.012 148.616 366.12 146.743C365.035 149.322 364.116 151.956 363.198 154.603C362.93 155.378 362.673 157.14 361.651 157.266C360.405 157.418 360.388 155.709 360.471 154.787C360.591 153.441 361.273 152.005 361.684 150.73C362.023 149.678 363.214 147.487 363.067 146.403C362.967 145.657 362.522 145.709 361.731 145.416C360.983 145.139 360.234 144.863 359.487 144.583C358.289 144.134 357.095 143.684 355.929 143.152C355.289 142.859 353.95 142.518 353.486 141.911C353.217 141.559 352.918 140.292 353.257 139.941C354.05 139.12 359.327 141.331 360.412 141.633C361.132 141.833 361.856 141.986 362.554 142.249C362.818 142.349 363.132 142.755 363.417 142.77C364.631 142.833 364.728 141.877 365.104 140.851C365.979 138.469 366.928 136.038 368.237 133.874Z" fill="black"/>
<path fill-rule="evenodd" clip-rule="evenodd" d="M65.6874 181.281C65.0403 179.656 71.909 177.694 73.1841 177.146C76.2962 175.812 79.6304 175.005 82.8527 173.986C86.0214 172.984 89.1763 171.905 92.2929 170.746C93.2567 170.387 100.197 166.926 100.56 167.432C101.763 169.107 87.1988 174.366 85.7797 174.89C79.1897 177.319 72.3853 179.185 65.6874 181.281Z" fill="black"/>
<path fill-rule="evenodd" clip-rule="evenodd" d="M361.111 54.2339C359.331 54.2522 356.763 54.7692 355.129 54.0293C357.123 54.0973 359.117 54.1659 361.111 54.2339Z" fill="black"/>
<path fill-rule="evenodd" clip-rule="evenodd" d="M111.307 104.729L107.348 104.714C108.669 104.4 109.989 104.211 111.307 104.729Z" fill="black"/>
<path fill-rule="evenodd" clip-rule="evenodd" d="M317.473 103.646C318.406 103.641 319.34 103.636 320.267 103.631C319.332 103.636 318.402 103.641 317.473 103.646Z" fill="black"/>
<path fill-rule="evenodd" clip-rule="evenodd" d="M399.097 128.409C399.089 129.432 399.083 130.454 399.074 131.473C399.081 130.449 399.088 129.429 399.097 128.409Z" fill="black"/>
<path fill-rule="evenodd" clip-rule="evenodd" d="M215.259 316.906C214.267 316.98 213.276 317.053 212.285 317.126C213.277 317.053 214.268 316.979 215.259 316.906Z" fill="black"/>
<path fill-rule="evenodd" clip-rule="evenodd" d="M220.844 122.006C219.837 122.089 218.83 122.173 217.824 122.257C218.831 122.173 219.837 122.089 220.844 122.006Z" fill="black"/>
<path fill-rule="evenodd" clip-rule="evenodd" d="M325.039 103.31C325.752 103.308 326.464 103.307 327.171 103.306C326.456 103.307 325.748 103.309 325.039 103.31Z" fill="black"/>
<path fill-rule="evenodd" clip-rule="evenodd" d="M181.672 124.002C180.787 124.084 179.9 124.165 179.016 124.247C179.901 124.165 180.787 124.084 181.672 124.002Z" fill="black"/>
<path fill-rule="evenodd" clip-rule="evenodd" d="M220.786 59.2719C219.9 59.2773 219.014 59.2828 218.129 59.2883C219.012 58.8087 219.898 58.9325 220.786 59.2719Z" fill="black"/>
<path fill-rule="evenodd" clip-rule="evenodd" d="M59.1277 216.135C58.391 216.095 57.7907 216.461 57.375 215.741C58.0551 215.198 58.4476 215.824 59.1277 216.135Z" fill="black"/>
<path fill-rule="evenodd" clip-rule="evenodd" d="M195.772 155.566L193.473 155.301L195.772 155.566Z" fill="black"/>
<path fill-rule="evenodd" clip-rule="evenodd" d="M211.305 334.521C211.813 334.533 212.32 334.545 212.822 334.557C212.313 334.544 211.809 334.533 211.305 334.521Z" fill="black"/>
<path fill-rule="evenodd" clip-rule="evenodd" d="M329.304 55.7148C328.513 55.7875 327.721 55.8601 326.93 55.9327C327.721 55.8596 328.513 55.7875 329.304 55.7148Z" fill="black"/>
<path fill-rule="evenodd" clip-rule="evenodd" d="M78.4327 301.635C77.6723 301.638 76.9123 301.642 76.1523 301.644C76.9128 301.641 77.6727 301.638 78.4327 301.635Z" fill="black"/>
<path fill-rule="evenodd" clip-rule="evenodd" d="M17.3135 287.832C16.5459 287.833 15.7788 287.835 15.0117 287.836C15.7793 287.835 16.5459 287.833 17.3135 287.832Z" fill="black"/>
<path fill-rule="evenodd" clip-rule="evenodd" d="M211.244 122.655C210.465 122.734 209.685 122.812 208.906 122.89C209.686 122.812 210.465 122.734 211.244 122.655Z" fill="black"/>
<path fill-rule="evenodd" clip-rule="evenodd" d="M189.51 123.949C188.743 123.858 187.977 123.768 187.211 123.677C187.97 123.829 188.814 123.229 189.51 123.949Z" fill="black"/>
<path fill-rule="evenodd" clip-rule="evenodd" d="M258.934 155.462C259.411 155.407 260.081 155.236 260.573 155.316C260.508 155.604 259.117 155.462 258.934 155.462Z" fill="black"/>
<path fill-rule="evenodd" clip-rule="evenodd" d="M210.309 217.047C210.823 217.057 211.337 217.067 211.846 217.076C211.33 217.066 210.82 217.056 210.309 217.047Z" fill="black"/>
<path fill-rule="evenodd" clip-rule="evenodd" d="M163.858 154.328C163.107 154.403 162.357 154.477 161.605 154.551C162.357 154.477 163.107 154.403 163.858 154.328Z" fill="black"/>
<path fill-rule="evenodd" clip-rule="evenodd" d="M79.7773 151.708C80.1868 151.719 80.5962 151.731 81.0002 151.742C80.589 151.731 80.1832 151.719 79.7773 151.708Z" fill="black"/>
<path fill-rule="evenodd" clip-rule="evenodd" d="M190.458 154.906C189.816 154.893 189.173 154.88 188.531 154.867C189.173 154.88 189.816 154.893 190.458 154.906Z" fill="black"/>
<path fill-rule="evenodd" clip-rule="evenodd" d="M71.2519 149.928C70.6025 150.01 69.9532 150.092 69.3047 150.173C69.9545 150.091 70.603 150.009 71.2519 149.928Z" fill="black"/>
<path fill-rule="evenodd" clip-rule="evenodd" d="M160.332 144.279C160.733 144.296 161.134 144.312 161.53 144.33C161.127 144.314 160.729 144.297 160.332 144.279Z" fill="black"/>
<path fill-rule="evenodd" clip-rule="evenodd" d="M190.926 213.35C191.333 213.322 191.74 213.295 192.142 213.268C191.733 213.295 191.329 213.322 190.926 213.35Z" fill="black"/>
<path fill-rule="evenodd" clip-rule="evenodd" d="M222.073 159.264C221.418 159.181 220.763 159.097 220.109 159.014C220.764 159.097 221.418 159.181 222.073 159.264Z" fill="black"/>
<path fill-rule="evenodd" clip-rule="evenodd" d="M64.0469 262.812C64.4719 262.806 64.8969 262.8 65.317 262.793C64.8907 262.799 64.4683 262.805 64.0469 262.812Z" fill="black"/>
<path fill-rule="evenodd" clip-rule="evenodd" d="M29.1565 208.727C28.4795 208.657 27.8025 208.586 27.125 208.517C27.802 208.586 28.479 208.657 29.1565 208.727Z" fill="black"/>
<path fill-rule="evenodd" clip-rule="evenodd" d="M14.7076 287.928C14.0422 288.006 13.3768 288.085 12.7109 288.164C13.3772 288.085 14.0422 288.006 14.7076 287.928Z" fill="black"/>
<path fill-rule="evenodd" clip-rule="evenodd" d="M377.447 103.535C377.395 104.124 377.343 104.714 377.289 105.3C377.341 104.71 377.394 104.123 377.447 103.535Z" fill="black"/>
<path fill-rule="evenodd" clip-rule="evenodd" d="M82.4102 301.047C81.7408 301.125 81.0713 301.204 80.4023 301.283C81.0718 301.204 81.7412 301.125 82.4102 301.047Z" fill="black"/>
<path fill-rule="evenodd" clip-rule="evenodd" d="M75.8449 301.727C75.1674 302.211 74.4904 302.239 73.8125 301.728C74.49 301.727 75.1674 301.727 75.8449 301.727Z" fill="black"/>
<path fill-rule="evenodd" clip-rule="evenodd" d="M63.0012 302.307C62.3442 302.307 61.6877 302.308 61.0312 302.308C61.6882 302.308 62.3447 302.307 63.0012 302.307Z" fill="black"/>
<path fill-rule="evenodd" clip-rule="evenodd" d="M139.829 73.042C139.773 72.4451 139.716 71.8486 139.66 71.2539C139.716 71.8518 139.773 72.4469 139.829 73.042Z" fill="black"/>
<path fill-rule="evenodd" clip-rule="evenodd" d="M211.57 59.7129C210.91 59.7965 210.249 59.8796 209.59 59.9627C210.25 59.8796 210.91 59.7965 211.57 59.7129Z" fill="black"/>
<path fill-rule="evenodd" clip-rule="evenodd" d="M213.911 59.3965C213.24 59.4732 212.569 59.5504 211.898 59.6276C212.569 59.5504 213.24 59.4732 213.911 59.3965Z" fill="black"/>
<path fill-rule="evenodd" clip-rule="evenodd" d="M109.727 138.938C110.14 138.932 110.553 138.925 110.96 138.919C110.545 138.925 110.136 138.932 109.727 138.938Z" fill="black"/>
<path fill-rule="evenodd" clip-rule="evenodd" d="M169.484 132.327C171.675 131.957 173.865 131.833 176.055 132.325L169.484 132.327Z" fill="black"/>
<path fill-rule="evenodd" clip-rule="evenodd" d="M227.902 107.094C228.358 105.875 228.471 105.417 229.585 104.786C229.121 105.971 229.049 106.605 227.902 107.094Z" fill="black"/>
<path fill-rule="evenodd" clip-rule="evenodd" d="M281.316 227.779C281.361 229.047 281.405 230.315 281.449 231.582C281.405 230.313 281.36 229.046 281.316 227.779Z" fill="black"/>
<path fill-rule="evenodd" clip-rule="evenodd" d="M360.753 57.1621C359.762 57.1849 358.772 57.2082 357.785 57.2311C358.777 57.2082 359.765 57.1849 360.753 57.1621Z" fill="black"/>
<path fill-rule="evenodd" clip-rule="evenodd" d="M228.75 250.312C228.785 251.369 228.82 252.427 228.854 253.483C228.819 252.425 228.785 251.369 228.75 250.312Z" fill="black"/>
<path fill-rule="evenodd" clip-rule="evenodd" d="M107.328 216.451C108.329 216.458 109.33 216.466 110.331 216.473C109.33 216.466 108.329 216.458 107.328 216.451Z" fill="black"/>
<path fill-rule="evenodd" clip-rule="evenodd" d="M192.409 162.158C191.805 162.164 191.203 162.17 190.605 162.177C191.21 162.172 191.809 162.165 192.409 162.158Z" fill="black"/>
<path fill-rule="evenodd" clip-rule="evenodd" d="M190.444 128.56C189.948 128.543 189.452 128.525 188.961 128.51C189.459 128.528 189.951 128.544 190.444 128.56Z" fill="black"/>
<path fill-rule="evenodd" clip-rule="evenodd" d="M119.516 216.132C120.298 216.054 121.081 215.975 121.863 215.896C121.081 215.975 120.298 216.054 119.516 216.132Z" fill="black"/>
<path fill-rule="evenodd" clip-rule="evenodd" d="M102.465 216.491C103.231 216.479 103.998 216.466 104.764 216.454C103.998 216.466 103.231 216.479 102.465 216.491Z" fill="black"/>
<path fill-rule="evenodd" clip-rule="evenodd" d="M110.652 216.47C111.446 216.399 112.24 216.329 113.034 216.258C112.241 216.328 111.446 216.399 110.652 216.47Z" fill="black"/>
<path fill-rule="evenodd" clip-rule="evenodd" d="M113.542 217.759C113.147 217.757 112.753 217.754 112.363 217.752C112.76 217.755 113.151 217.757 113.542 217.759Z" fill="black"/>
<path fill-rule="evenodd" clip-rule="evenodd" d="M280.973 199.595C281.032 198.999 281.091 198.403 281.149 197.81C281.091 198.406 281.032 199 280.973 199.595Z" fill="black"/>
<path fill-rule="evenodd" clip-rule="evenodd" d="M162.443 139.365C162.941 139.409 163.439 139.452 163.938 139.496C163.382 139.525 162.825 139.554 162.27 139.583C162.273 139.466 162.331 139.394 162.443 139.365Z" fill="black"/>
<path fill-rule="evenodd" clip-rule="evenodd" d="M290.365 239.579C290.333 239.037 290.301 238.493 290.27 237.954C290.301 238.498 290.333 239.039 290.365 239.579Z" fill="black"/>
<path fill-rule="evenodd" clip-rule="evenodd" d="M171.378 137.295C170.978 137.303 170.578 137.311 170.184 137.319C170.585 137.31 170.981 137.303 171.378 137.295Z" fill="black"/>
<path fill-rule="evenodd" clip-rule="evenodd" d="M317.703 205.789C318.369 205.869 319.036 205.949 319.702 206.028C319.035 205.949 318.369 205.869 317.703 205.789Z" fill="black"/>
<path fill-rule="evenodd" clip-rule="evenodd" d="M179.315 160.832C178.905 160.838 178.495 160.844 178.09 160.852C178.501 160.846 178.908 160.839 179.315 160.832Z" fill="black"/>
<path fill-rule="evenodd" clip-rule="evenodd" d="M155.599 78.7021C156.03 78.9374 155.806 79.9714 155.387 79.8727C155.458 79.4822 155.529 79.0922 155.599 78.7021Z" fill="black"/>
<path fill-rule="evenodd" clip-rule="evenodd" d="M377.481 201.596C377.086 201.585 376.691 201.575 376.301 201.564C376.697 201.575 377.089 201.586 377.481 201.596Z" fill="black"/>
<path fill-rule="evenodd" clip-rule="evenodd" d="M136.817 73.3387C136.775 72.4275 136.733 71.5168 136.691 70.6084C136.733 71.5205 136.776 72.4294 136.817 73.3387Z" fill="black"/>
<path fill-rule="evenodd" clip-rule="evenodd" d="M211.688 330.993C212.297 331.085 212.906 331.176 213.514 331.267C212.905 331.176 212.296 331.085 211.688 330.993Z" fill="black"/>
<path fill-rule="evenodd" clip-rule="evenodd" d="M207.663 96.4247C205.516 96.8774 203.31 97.1139 201.213 97.7803C200.69 97.9466 198.973 98.9678 198.346 98.6988C197.394 98.2891 197.876 97.2382 198.277 96.6773C199.35 95.1774 201.269 94.337 203.03 94.3558C204.786 94.375 207.198 94.3092 207.663 96.4247Z" fill="black"/>
<path fill-rule="evenodd" clip-rule="evenodd" d="M201.691 100.448C204.056 102.143 205.862 102.978 206.063 99.168C208.625 99.5256 207.477 103.752 205.538 104.071C203.427 104.418 202.019 102.259 201.691 100.448Z" fill="black"/>
</svg>
