<svg width="429" height="362" viewBox="0 0 429 362" fill="none" xmlns="http://www.w3.org/2000/svg">
<ellipse rx="166.5" ry="169.038" transform="matrix(-1 0 0 1 231.5 169.038)" fill="white"/>
<path opacity="0.9" fill-rule="evenodd" clip-rule="evenodd" d="M113.48 202.987C115.789 219.3 118.096 235.613 120.404 251.925L122.268 265.098C122.503 266.761 122.281 270.04 123.177 271.528C123.494 272.053 124.326 272.302 124.938 272.611C127.044 273.677 129.15 274.742 131.256 275.808C149.07 284.821 166.884 293.835 184.697 302.848C201.794 311.498 218.89 320.149 235.986 328.798C237.755 329.694 240.617 332.03 242.527 331.414C244.342 330.829 246.198 329.386 247.846 328.477C251.01 326.729 254.173 324.982 257.337 323.234C276.482 312.661 295.626 302.087 314.771 291.513C322.67 287.151 330.569 282.789 338.468 278.426C340.628 277.233 342.79 276.039 344.951 274.845C346.082 274.221 346.228 274.243 346.673 273.183C348.337 269.222 349.107 264.684 350.284 260.574C351.581 256.044 352.878 251.515 354.175 246.985C354.753 244.964 354.482 244.703 353.538 242.752C351.672 238.89 349.805 235.029 347.939 231.167C343.796 222.597 339.653 214.026 335.51 205.456C333.834 201.99 329.799 199.551 326.893 197.002L281.783 157.421C280.637 156.416 279.492 155.411 278.346 154.405C278.157 160.448 276.89 166.944 278.748 172.781C281.798 182.36 284.847 191.94 287.897 201.519C289.371 206.149 290.844 210.779 292.318 215.409C292.592 216.27 294.259 219.681 293.814 220.438C293.567 220.857 291.461 221.281 291.005 221.445C289.045 222.147 287.086 222.85 285.126 223.552C279.667 225.51 274.207 227.467 268.748 229.424C263.837 231.185 258.927 232.946 254.016 234.706C252.351 235.303 250.395 236.409 248.637 236.317C247.064 236.234 245.275 235.5 243.753 235.131C241.076 234.482 238.4 233.832 235.723 233.182C230.466 231.906 225.209 230.63 219.951 229.353C214.037 227.917 209.042 223.7 203.983 220.579C195.289 215.214 186.594 209.849 177.9 204.484C175.909 203.256 175.902 202.555 175.109 200.313C173.327 195.273 171.544 190.233 169.761 185.194C168.81 182.503 167.639 179.8 166.92 177.046C165.734 172.499 165.031 167.792 164.092 163.195C163.809 161.809 163.526 160.421 163.243 159.034C159.601 160.427 155.96 161.82 152.319 163.212C151.791 163.414 149.219 164.016 148.991 164.51C148.846 164.823 149.611 166.241 149.72 166.546C152.739 174.973 155.758 183.4 158.778 191.827C159.728 194.478 160.677 197.128 161.627 199.779C159.358 196.418 157.088 193.057 154.818 189.696C153.035 195.349 151.252 201.002 149.469 206.654C145.254 202.071 141.039 197.488 136.824 192.904C135.365 197.488 133.906 202.071 132.447 206.654C127.908 201.002 123.369 195.349 118.83 189.696C118.291 192.646 117.751 195.596 117.211 198.545C117.048 199.436 117.081 201.99 116.452 202.695C115.934 203.275 114.443 202.987 113.48 202.987Z" fill="#00B3BC"/>
<path opacity="0.9" fill-rule="evenodd" clip-rule="evenodd" d="M400.87 238.249C400.615 245.928 400.792 255.896 396.333 262.648C395.613 263.737 393.175 267.132 392.903 264.146C392.636 261.214 393.401 258.311 392.643 255.346C392.238 253.759 390.873 250.293 388.542 251.726C387.353 252.457 387.04 254.26 386.575 255.399C385.888 257.083 385.117 258.741 384.393 260.413C381.864 266.247 379.244 273.211 373.622 277.072C374.358 272.041 376.363 266.668 375.015 261.582C374.556 259.849 373.164 256.684 370.768 257.699C368.433 258.689 366.919 263.104 365.817 265.07C362.476 271.032 359.058 276.881 355.297 282.62C353.404 285.506 351.361 288.144 348.885 290.613C347.337 292.158 345.407 294.768 342.967 294.998C342.967 290.597 344.504 286.344 345.907 282.2C347.416 277.743 348.792 273.248 350.273 268.783C351.558 264.91 352.613 261.067 353.468 257.095C353.823 255.452 354.103 253.751 355.588 252.69C356.924 251.737 359.034 251.283 360.523 250.582C364.433 248.741 368.454 246.755 372.087 244.467C373.578 243.527 374.862 242.313 376.424 241.471C378.203 240.51 379.864 239.702 381.511 238.532C388.614 233.483 395.017 227.272 399.332 219.878C400.033 222.848 400.96 225.751 401.063 228.813C401.168 231.953 400.975 235.112 400.87 238.249ZM342.409 273.544C341.273 271.736 339.543 272.477 338.017 273.349C335.651 274.701 333.278 276.044 330.899 277.38C326.059 280.098 321.308 282.957 316.579 285.843C306.952 291.716 296.99 296.522 286.841 301.493C277.031 306.297 267.61 312.013 258.419 317.792C256.21 319.181 254.017 320.602 251.896 322.108C250.013 323.445 248.508 325.322 246.526 326.512C244.462 327.752 243.043 326.746 241.069 325.832C238.601 324.689 236.028 323.731 233.505 322.7C223.321 318.54 213.109 314.221 203.203 309.498C193.357 304.805 184.027 299.397 174.593 294.026C170.1 291.468 165.684 288.748 161.252 286.096C156.535 283.274 151.652 281.16 146.705 278.761C144.516 277.699 142.577 276.258 140.328 275.292C137.965 274.278 135.468 273.55 133.352 272.087C132.403 271.431 131.602 270.646 130.518 270.182C129.627 269.801 128.617 269.737 127.737 269.332C125.949 268.509 125.437 266.839 125.09 265.101C122.862 253.947 121.678 242.484 120.387 231.205C119.661 224.863 118.852 218.546 117.849 212.237C117.397 209.393 118.306 207.189 118.784 204.422C119.341 201.19 119.561 197.891 119.935 194.637C121.697 197.714 123.221 200.944 125.464 203.752C127.117 205.821 129.94 208.756 132.984 208.687C137.715 208.579 137.499 200.932 137.69 197.896C139.845 199.709 140.498 202.662 142.287 204.768C143.92 206.69 146.142 209.075 148.65 209.936C153.931 211.748 153.423 202.511 153.132 199.891C152.987 198.577 152.199 196.498 154.067 197.097C155.787 197.649 157.461 199.936 158.907 200.985C161.406 202.8 164.148 204.307 166.712 206.039C169.893 208.187 173.325 209.74 176.569 211.741C178.597 212.993 180.81 213.274 183.021 214.194C186.261 215.543 189.123 217.553 192.207 219.17C198.314 222.37 205.088 225.24 211.768 227.17C213.929 227.794 216.809 229.554 218.449 227.746C219.458 226.633 220.122 224.933 220.979 223.685C222.063 222.106 223.214 220.568 224.409 219.062C228.659 213.708 233.375 208.653 238.612 204.137C244.705 198.885 251.368 194.157 258.494 190.22C261.556 188.529 274.342 180.947 277.152 186.283C274.843 186.147 272.841 186.943 270.866 187.94C270.384 188.184 267.899 189.857 268.48 188.382C267.758 188.509 267.125 189.397 266.578 189.791C265.633 190.473 264.2 191.261 263.106 191.825C262.024 192.383 260.688 192.52 259.702 193.196C259.342 193.443 259.124 193.844 258.78 194.111L257.796 194.118C257.649 194.632 257.501 195.146 257.354 195.659C256.798 193.979 256.004 196.164 255.075 196.874C254.516 197.301 253.631 197.741 252.973 198.016C252.482 198.222 252.406 197.743 251.928 198.107C251.504 198.43 251.234 199.142 250.777 199.547C250.218 200.043 249.501 200.429 248.877 200.852C247.682 201.663 246.417 202.3 245.207 203.069C243.577 204.104 242.723 205.884 241.141 206.966C240.392 207.479 239.228 207.539 238.823 207.867C237.806 208.691 238.141 209.939 236.244 209.994C236.417 210.255 236.52 210.537 236.556 210.842C236.104 210.768 235.702 210.592 235.351 210.312C235.429 212.095 233.569 212.731 232.454 213.829C231.811 214.462 231.01 215.351 230.557 216.112C230.482 216.24 230.338 217.256 230.306 217.27C230.134 217.348 229.086 216.48 229.185 216.552C228.893 218.2 227.202 219.757 226.461 221.282C226.071 222.085 225.675 223.377 224.906 223.942C224.697 224.096 224.053 223.935 223.522 224.469C223.132 224.86 222.682 225.584 222.523 226.103C222.418 226.45 222.545 227.348 222.393 227.556C222.115 227.936 221.682 227.554 221.246 227.835C220.441 228.355 220.42 229.167 219.242 229.274C220.054 231.134 224.958 231.707 226.741 232.236C231.781 233.731 237.07 235.225 241.782 237.514C243.001 238.106 244.154 238.595 244.37 239.959C244.671 241.857 243.644 244.382 243.448 246.299C242.917 251.478 242.809 256.809 242.92 262.01C243.025 266.936 243.194 271.908 243.438 276.828C243.663 281.39 244.639 285.861 245.166 290.391C245.311 291.634 245.214 297.241 247.483 296.958C249.376 296.723 248.18 292.893 248.145 291.796C248.066 289.366 248.608 286.886 248.586 284.435C248.575 283.256 249.121 282.241 249.174 281.114C249.226 279.999 248.639 279.119 248.815 277.964C248.984 276.856 252.46 270.481 249.121 271.228C249.317 270.317 249.488 269.398 249.746 268.5C250.103 268.803 250.391 269.156 250.608 269.559C250.905 267.601 250.806 265.647 250.99 263.688C251.073 262.8 251.455 261.828 251.325 260.934C251.349 260.563 251.299 260.199 251.175 259.842C250.97 259.638 250.715 259.53 250.413 259.519C250.254 259.029 250.213 258.895 250.495 258.414C250.616 258.088 250.857 257.884 251.216 257.804C251.901 257.727 251.979 257.356 251.451 256.691C251.726 255.379 251.762 254.55 251.563 253.24C251.396 252.14 252.011 250.009 251.384 249.029C250.652 247.884 250.288 248.995 250.152 247.407C250.123 247.071 250.099 246.371 250.243 246.036C250.4 245.671 250.872 245.82 250.933 245.691C251.343 244.809 251.37 243.071 249.919 243.222C249.976 242.592 250.033 241.962 250.089 241.332C251.137 242.469 250.771 241.506 251.365 240.874C252.166 240.023 252.949 239.876 254.093 239.539C257.143 238.643 260.081 237.294 263.062 236.199C269.372 233.882 275.8 231.812 281.926 229.073C294.81 223.312 307.439 217.059 320.402 211.449C319.476 209.83 320.051 209.751 320.728 208.23C321.632 208.821 321.442 208.409 322.085 208.373C322.026 207.865 322.194 207.712 322.587 207.913C322.899 208.004 323.22 208.036 323.549 208.009C324.351 208.139 325.007 208.555 325.736 208.713C325.975 208.88 326.239 209.004 326.525 209.088C326.783 209.033 327.003 208.913 327.185 208.727C328.366 208.934 328.764 209.772 328.816 210.986C328.824 211.197 328.139 211.413 328.335 211.697C328.678 212.193 329.601 212.075 330.129 212.138C330.013 212.653 329.898 213.168 329.782 213.682C332.1 212.675 331.495 215.829 332.198 216.865C332.394 217.155 332.83 216.924 333.057 217.259C333.353 217.696 333.264 218.315 333.516 218.751C334.087 219.735 334.658 219.616 335.226 220.744C338.197 226.633 342.15 232.119 345.002 238.135C346.359 240.998 347.584 243.91 349.002 246.748C350.306 249.36 351.051 251.581 350.122 254.433C347.965 261.05 345.659 267.787 342.833 274.178C342.692 273.967 342.551 273.756 342.409 273.544ZM191.992 322.934C191.789 323.259 191.587 323.583 191.385 323.908C190.935 321.472 192.133 322.602 191.992 322.934ZM182.48 318.373C181.832 318.19 182.112 317.192 182.133 316.766C182.543 317.247 182.945 317.738 183.286 318.267C183.017 318.302 182.748 318.338 182.48 318.373ZM156.411 309.009C157.092 308.649 157.582 308.39 158.354 307.982C157.569 309.423 157.569 309.423 156.411 309.009ZM115.4 182.082C114.359 184.488 117.531 199.345 114.578 199.83C114.155 198.526 114.102 194.936 112.349 194.507C110.173 193.975 110.388 197.671 110.09 198.814C105.625 195.886 103.641 190.231 101.507 185.75C98.7877 180.038 96.6479 174.097 94.6043 168.145C92.857 163.056 91.4121 157.877 89.6462 152.797C88.5369 149.606 87.341 146.408 86.595 143.119C86.433 142.404 85.7955 140.592 86.3372 139.913C87.1246 138.925 89.9589 140.057 90.8723 140.316C96.7972 141.996 102.943 142.719 109.031 143.696C115.794 144.78 122.542 145.9 129.347 146.741C131.047 146.951 132.748 147.15 134.45 147.343C135.554 147.469 137.225 147.343 138.274 147.81C140.396 148.753 140.848 152.365 141.636 154.238C144.577 161.229 148.038 167.998 151.135 174.925C153.924 181.165 156.039 187.804 160.049 193.486C157.058 192.237 153.268 185.631 149.927 189.439C148.49 191.076 148.852 193.233 148.967 195.192C149.133 198.024 149.185 200.878 149.185 203.715C145.915 202.914 143.718 199.416 142.001 196.938C139.656 193.553 138.179 190.363 137.141 186.483C136.691 184.803 135.499 184.761 134.439 183.756C133.758 183.11 133.416 182.239 132.439 183.179C131.212 184.36 132.028 187.632 132.24 189.027C132.744 192.347 134.395 197.456 132.79 200.575C130.624 204.785 124.819 194.193 124.14 192.663C123.794 191.884 117.618 176.95 115.4 182.082ZM111.345 109.937C111.71 109.99 112.076 110.043 112.441 110.096C112.147 110.341 111.533 111.201 111.033 110.973C111.137 110.628 111.241 110.283 111.345 109.937ZM130.715 106.02C130.601 106.139 130.486 106.257 130.371 106.376C129.847 105.758 130.032 104.857 130.032 104.143C130.725 104.537 130.895 105.327 130.715 106.02ZM132.281 112.875V114.894C130.828 114.301 130.8 113.995 132.281 112.875ZM134.044 115.442C133.027 115.179 132.905 114.967 133.048 113.494C133.47 114.319 133.747 114.863 134.044 115.442ZM139.9 130.397C139.474 131.431 136.981 128.967 137.073 128.23C137.16 127.526 137.543 127.317 138.071 127.769C138.245 127.919 137.986 128.46 138.098 128.648C138.5 129.328 139.311 129.885 139.9 130.397ZM139.928 136.627C139.304 138.096 138.191 135.782 139.822 135.719C139.929 136.015 139.965 136.317 139.928 136.627ZM138.717 134.31C138.475 134.006 138.24 133.698 138.012 133.385C138.852 133.545 139.52 134.699 140.406 133.929C140.301 135.103 139.416 135.136 138.717 134.31ZM84.372 115.224C83.0205 113.834 91.8332 112.858 92.8963 112.619C100.611 110.885 107.896 108.376 115.109 105.298C118.551 103.829 121.974 102.343 125.335 100.715C126.786 100.012 128.775 99.4166 129.987 98.3615C130.852 97.6085 130.818 97.0388 131.942 96.5901C132.897 96.2102 132.945 96.569 133.382 95.8815C133.644 95.469 133.941 93.9575 133.788 93.5102C133.369 92.2897 132.75 93.2792 131.881 92.4382C131.255 91.8318 131.407 90.1076 131.577 89.3935C131.799 89.7336 131.927 90.103 131.961 90.5008C132.904 90.0627 132.523 88.558 133.555 88.3114C134.642 88.052 134.529 88.8499 134.813 89.6658C135.634 88.5291 134.976 87.5598 134.531 86.4497C136.791 86.051 139.22 85.6646 141.46 86.3732C143.08 86.8851 144.466 88.1441 146.177 88.3875C147.851 88.6254 148.173 87.8769 149.408 87.1175C150.41 86.501 151.271 87.227 151.787 86.7614C151.469 88.3334 148.735 88.1185 149.071 90.0828C149.223 90.9669 150.373 91.7612 150.896 92.4492C151.553 93.3126 152.077 94.2673 152.524 95.2403C154.265 99.0252 155.009 103.417 155.739 107.465C157.542 117.455 157.77 127.643 159.465 137.665C160.273 142.439 161.082 147.216 161.502 152.037C161.607 153.242 162.388 155.976 161.749 157.135C161.209 158.114 160.007 158.117 158.951 158.354C156.886 158.817 154.947 159.445 152.967 160.141C151.191 160.765 150.675 161.148 149.535 159.573C148.433 158.05 147.887 156.234 147.099 154.564C146.094 152.436 144.88 150.383 143.715 148.33C146.004 148.33 147.321 147.165 147.261 144.973C147.194 142.545 145.075 141.969 144.202 139.973C143.352 141.013 143.281 141.042 142.675 140.055C141.983 138.926 141.516 136.861 141.092 135.58C141.395 135.885 141.698 136.19 142.001 136.494C142.765 135.503 141.568 133.941 141.168 133.008C140.55 131.567 140.441 130.009 139.855 128.572C139.536 127.788 138.796 127.171 138.614 126.353C138.493 125.805 138.978 125.284 138.863 124.728C138.663 123.76 137.501 122.721 137.14 121.737C136.584 120.223 135.98 118.889 135.291 117.414C134.357 115.417 134.574 113.322 134.403 111.196C134.226 108.993 133.478 106.884 133.213 104.69C133.03 103.175 133.603 101.266 132.386 100.052C132.243 102.07 132.857 102.039 130.845 102.402C128.554 102.815 126.893 104.423 124.728 104.903C124.281 105.002 123.956 103.164 124.13 105.671C123.091 104.949 120.874 105.846 121.701 106.275C121.074 106.907 119.839 106.47 119.633 107.417C117.503 105.465 114.086 112.109 111.549 108.643C111.13 110.992 109.325 112.381 106.903 112.691C105.684 112.847 104.933 113.23 103.852 113.574C103.633 113.643 103.552 113.941 103.293 114.021C102.896 114.143 102.313 113.775 102.027 113.846C101.445 113.992 100.798 114.714 99.9851 114.857C99.0533 115.022 98.0368 114.946 97.1041 114.845C95.9379 114.717 95.4248 114.587 94.2829 114.949C93.2557 115.275 92.1557 116.188 91.2025 115.194C89.7051 117.635 86.1349 117.039 84.372 115.224ZM153.598 85.7613C152.465 85.6334 153.252 84.715 153.776 84.439C155.202 83.6902 154.821 85.8997 153.598 85.7613ZM90.8518 94.5226C97.5029 85.4799 108.879 79.2669 118.889 74.0392C124.356 71.1839 129.937 68.4161 135.677 66.0791C138.531 64.9177 141.419 63.8012 144.333 62.781C145.89 62.2361 147.465 61.7406 149.041 61.2475C149.477 61.1113 150.269 60.6933 150.726 60.7341C150.647 60.7268 151.859 61.0375 151.621 61.1352C152.402 60.8148 152.774 59.9793 153.692 59.6452C154.724 59.2693 156.038 59.114 157.144 59.08C158.122 59.0498 158.968 59.4307 159.9 59.4605C160.512 59.4797 161.033 59.2056 161.633 59.1653C161.939 59.1451 161.912 59.5778 162.097 59.603C162.177 59.614 162.994 59.3248 163.002 59.3298C163.3 59.51 163.563 60.213 163.832 60.4876C164.603 61.275 165.736 61.8236 166.764 62.2379C168.016 62.742 171.07 63.249 169.654 65.1143C170.66 64.9782 171.128 65.8344 169.869 66.0511C169.187 66.1689 168.896 65.5804 168.39 65.179C167.22 64.2531 164.381 62.935 162.696 62.9946C161.748 63.028 161.016 63.7059 160.142 63.952C159.282 64.194 158.856 63.8186 158.101 63.8782C157.219 63.9474 156.651 64.651 155.81 64.7761C155.022 64.8934 154.584 64.3874 153.88 64.4227C153.043 64.4644 152.233 65.1492 151.435 65.3792C150.164 65.745 149.232 65.9943 147.992 66.6007C145.588 67.7763 142.904 68.2227 140.427 69.2347C138.447 70.0436 136.201 70.4694 134.369 71.364C132.331 72.3581 130.284 73.3486 128.289 74.4288C126.847 75.2093 123.917 75.4779 122.327 75.2795C122.305 78.0377 120.864 76.104 119.412 77.3121C119.756 77.5977 120.146 77.8076 120.581 77.9419C119.008 78.534 117.554 79.271 116.03 79.9516C114.454 80.6556 112.774 80.8105 111.739 82.1419C110.785 83.3689 111.108 82.7359 109.686 83.219C109.033 83.4408 108.466 84.1173 107.995 84.5715C107.187 85.3525 107.008 86.535 106.547 84.9299C106.412 85.1256 105.882 86.3718 105.779 86.4034C105.2 85.825 105.117 86.5107 104.794 86.7559C104.964 87.2889 104.721 87.6381 104.064 87.8036C103.732 88.0364 103.396 88.2647 103.056 88.4879C101.822 89.2941 100.253 89.9857 99.384 91.1869C98.7435 90.8308 98.5061 90.2162 98.8962 89.5888C97.6721 90.6521 96.2116 91.7443 95.8805 93.3809C95.7282 93.2425 95.5507 93.1426 95.3494 93.0812C94.8524 93.3974 95.4997 94.3397 95.8148 94.5519C97.1892 94.0487 95.4715 94.2311 96.395 94.3122C96.6581 94.3352 96.9285 94.5208 97.2188 94.524C98.0704 94.5345 98.8704 94.496 99.7147 94.3737C101.576 94.1032 103.406 93.5995 105.208 93.0945C107.171 92.5445 109.134 91.9954 111.054 91.3208C112.634 90.7653 114.189 90.1461 115.743 89.5292C116.363 89.2826 116.983 89.0328 117.605 88.7881C118.785 88.3233 119.408 87.5598 119.243 88.8678C120.183 88.7207 120.997 87.4686 121.719 86.9575C122.735 86.2393 123.876 85.7036 125.08 85.3369C125.567 85.1884 125.925 84.9996 126.429 84.9982C126.676 84.9977 126.824 85.6541 126.979 85.6183C128.059 85.3717 127.567 84.808 128.052 83.9959C129.114 82.2208 131.973 81.239 133.729 80.2307C134.844 79.5905 135.635 78.7293 136.664 78.0202C137.146 77.6889 137.496 77.5422 138 77.402C138.386 77.2943 138.86 78.1302 139.11 77.2901C138.212 76.9441 137.471 76.5174 136.607 76.2649C135.996 76.0857 136.729 75.4729 135.76 75.8377C135.371 75.9844 135.238 76.6939 135.095 76.9908C134.012 76.0802 130.97 77.0238 129.686 77.4052C129.598 77.4313 129.201 77.2342 129.014 77.2461C128.273 77.2929 127.757 78.2329 127.27 78.6381C125.972 79.7147 124.566 80.1647 122.968 80.7793C123.394 78.5909 126.517 77.6944 128.34 76.8561C131.006 75.6305 133.487 74.0663 136.405 73.4072C138.348 72.9677 140.923 72.6143 141.763 74.7437C142.265 76.0201 142.328 79.1913 140.628 79.7802C140.449 79.1844 141.024 78.6752 141.197 78.1582C139.505 78.7668 139.226 80.6822 137.942 81.6818C137.219 82.2432 136.961 82.4233 136.612 82.966C136.265 83.505 136.099 84.0078 135.286 84.5811C133.958 81.9224 134.183 85.5642 133.509 86.0212C133.78 85.8374 132.411 86.3741 132.575 86.3173C132.512 86.3393 131.915 85.429 131.529 85.4483C130.825 85.4831 130.96 86.2132 130.621 86.5808C129.472 87.8247 127.987 88.6405 126.138 88.4448C126.095 89.3298 126.384 90.3872 125.102 90.4678L124.934 88.5057C124.236 89.1712 123.317 89.8033 122.749 90.5737C122.103 91.4505 122.172 91.9904 121.099 92.5747C119.979 93.1857 117.595 94.3892 116.261 94.4933C116.591 94.0524 116.533 93.6541 116.087 93.2993C115.417 93.9511 114.427 94.0152 113.713 94.6037C116.191 95.5795 111.809 95.5291 111.253 95.6395C110.881 95.7138 110.556 96.0332 110.179 96.1052C109.679 96.201 109.614 95.7051 109.183 95.8623C108.553 96.0924 108.809 96.7418 108.149 97.0681C107.675 97.3028 106.872 97.2996 106.337 97.5223C105.064 98.054 102.351 99.2314 101.49 97.8033C101.054 100.253 96.5983 98.7621 94.9491 98.5971C92.6906 98.3711 88.7567 97.372 90.8518 94.5226ZM100.338 69.4533C100.658 69.1961 100.978 69.2149 101.298 69.5101C100.852 67.2927 104.298 66.2161 105.801 65.2734C107.795 64.0231 110.142 61.5972 112.751 61.7892C112.306 62.0999 111.862 62.4107 111.418 62.7214C112.052 62.7989 112.687 62.8763 113.32 62.9538C112.963 63.4488 112.605 63.9433 112.246 64.4378C111.661 61.3964 108.606 65.2362 107.722 65.7959C106.831 66.3591 105.943 66.779 105.152 67.466C104.368 68.1466 103.66 69.3721 102.364 68.7598C102.246 70.4969 100.764 70.0257 99.7395 70.9877C99.6967 70.3841 100.063 69.9574 100.338 69.4533ZM113.875 60.7823C117.028 59.669 119.774 57.6107 122.746 56.1404C125.585 54.7356 128.481 53.4743 131.367 52.164C132.831 51.4989 135.512 49.7793 137.186 50.6556C139.444 51.839 136.335 52.2208 135.528 52.6305C135.229 50.8082 134.183 52.4591 134.808 53.4729C133.085 52.7717 129.327 55.5152 127.683 56.2719C127.311 56.4433 127.478 56.5423 127.055 56.744C126.951 56.7935 125.872 57.0249 125.563 57.1226C124.016 57.6107 122.996 57.2229 122.329 58.9833C122.19 58.569 122.05 58.1542 121.911 57.7395C120.942 59.7895 117.997 60.6869 116.114 61.8992C115.629 62.2118 114.243 63.424 113.627 63.1733C112.77 62.8241 113.114 61.0504 113.875 60.7823ZM170.769 66.9632C172.1 67.0462 170.816 67.6314 171.182 68.0183C171.141 67.9747 171.984 68.6526 171.874 68.4665C172.022 68.7167 172.38 68.7076 172.563 69.2163C173.193 70.9657 170.442 72.7734 169.515 73.7661C167.712 75.697 166.669 78.1422 164.79 80.0112C163.942 80.8554 163.097 81.4384 161.921 81.7533C161.098 81.9737 160.227 81.7377 159.47 82.4838C158.86 83.0847 158.999 83.4262 158.325 83.7456C157.138 84.3089 156.616 83.8148 155.461 85.0321C154.467 82.4866 157.322 82.4907 158.812 81.0681C160.868 79.1042 163.121 77.1228 165.049 75.0219C166.762 73.1551 167.449 71.5185 168.262 69.2507C168.518 68.5357 168.797 67.0026 169.504 66.5539C170.604 65.8554 169.944 66.9114 170.769 66.9632ZM177.317 133.09C180.809 129.409 185.141 126.103 189.837 123.886C191.515 123.093 193.905 122.053 195.644 123.273C197.35 124.469 196.983 126.856 196.296 128.479C195.637 128.235 196.259 125.954 195.917 125.39C195.171 124.16 193.561 124.813 192.466 125.226C191.183 125.709 190.038 126.242 189.022 127.119C188.61 127.474 187.82 127.793 187.556 128.037C187.159 127.882 186.925 127.995 186.855 128.376C186.937 128.61 186.927 128.84 186.826 129.066C186.768 129.138 186.252 128.843 186.178 128.902C185.844 129.172 185.531 129.49 185.201 129.741C184.541 130.244 183.978 130.483 183.37 131.185C182.195 132.542 180.641 133.337 179.46 134.63C179.194 134.922 178.874 135.672 178.814 135.737C178.218 136.394 177.333 136.913 176.66 137.608C175.496 138.808 174.254 139.614 172.911 140.643C172.333 141.086 171.658 141.563 171.273 142.179C171.098 142.46 171 144 170.993 144.006C169.676 145.367 169.933 142.632 170.032 142.289C171.101 138.6 174.717 135.831 177.317 133.09ZM170.128 158.035C170.292 158.614 170.427 159.093 170.593 159.681C169.549 158.874 169.549 158.874 170.128 158.035ZM169 159.933C168.617 160.297 168.231 160.659 167.842 161.019C166.988 160.168 169.157 159.787 169 159.933ZM168.458 145.284C168.05 146.841 166.554 148.729 165.526 149.958C165.639 149.822 164.649 150.095 164.536 150.157C164.17 150.357 165.047 151.652 163.778 151.073C163.327 151.313 164.214 152.291 163.602 152.729C161.834 148.932 166.662 145.642 168.532 142.823C169.446 143.614 168.688 144.411 168.458 145.284ZM156.973 165.814C158.262 166.126 158.932 165.93 159.803 164.736C160.326 164.019 160.517 162.75 161.714 163.822L161.925 162.443C163.634 163.104 163.49 165.491 164.237 166.813C164.6 165.317 165.46 161.137 168.095 161.807C171.052 162.56 166.13 167.353 165.673 168.528C164.668 167.057 165.063 168.425 164.296 168.632C163.638 168.81 162.61 168.354 161.811 168.395C159.378 168.52 157.241 169.551 155.019 170.424C154.456 168.995 153.894 167.565 153.331 166.136C154.64 166.23 157.345 162.949 157.729 165.334C156.759 165.175 156.485 165.215 156.012 166.048C156.314 165.903 156.635 165.825 156.973 165.814ZM162.433 184.473C162.429 184.461 164.949 184.608 165.174 184.53C166.898 183.937 166.261 182.093 166.613 180.79C167.324 181.406 166.948 182.531 167.167 183.328C167.424 184.265 168.169 185.063 168.238 186.065C168.395 188.328 166.424 187.826 164.93 188.559C163.654 189.185 163.512 189.972 162.434 188.285C162.142 187.828 161.515 186.639 161.579 186.055C161.642 185.477 162.614 184.996 162.433 184.473ZM164.464 194.268L163.767 193.532C165.844 194.131 164.619 193.231 165.097 191.999C166.69 192.999 167.99 194.027 169.251 192.025L171.43 200.307C169.967 200.631 168.079 198.5 167.075 197.769C166.495 197.346 163.278 195.716 165.21 195.241C164.961 194.917 164.712 194.592 164.464 194.268ZM178.686 168.262C177.477 169.346 176.258 169.952 174.941 170.804C173.786 171.552 174.184 172.411 173.183 173.245C172.518 173.8 170.959 174.364 170.138 174.787C168.675 175.541 167.364 175.684 165.859 174.841C166.268 177.949 164.01 178.192 161.198 178.808C159.857 179.102 159.064 179.55 158.097 178.393C157.436 177.601 157.176 176.167 158 175.442C159.307 174.291 162.791 174.688 164.469 173.964C165.742 173.415 167.04 170.321 168.61 171.447C167.8 170.23 168.744 169.902 169.448 169.035C170.22 168.084 170.694 166.972 171.493 166.029C173.01 164.236 175.34 162.432 177.495 161.351C179.391 160.4 180.386 161.073 180.67 163.071C180.813 164.075 180.808 165.571 180.211 166.462C180.021 166.746 179.393 166.749 179.203 167.016C178.872 167.482 179.176 167.823 178.686 168.262ZM200.937 144.157C202.45 145.261 202.303 147.58 202.541 149.159C202.877 151.385 202.633 153.539 202.597 155.807C202.559 158.182 201.323 159.73 200.741 161.956C200.094 164.433 199.259 165.745 197.808 167.823C199.381 168.056 197.039 172.486 196.653 173.059C196.234 173.681 192.853 176.55 194.303 176.55C193.503 177.543 192.633 178.563 191.836 179.529C191.522 179.91 190.972 180.059 190.725 180.328C190.222 180.873 190.191 181.36 189.831 181.997C189.284 182.964 189.104 182.706 188.384 183.407C187.888 183.891 187.562 184.531 187.074 184.995C185.502 186.491 185.302 185.265 184.423 184.114C184.289 184.422 184.049 184.616 183.705 184.694C183.43 183.39 185.325 182.074 186.122 181.282C187.426 179.984 188.619 178.554 189.772 177.134C192.243 174.093 194.463 170.862 196.215 167.401C198.078 163.717 199.567 159.73 200.34 155.712C200.93 152.649 201.49 147.395 197.147 146.616C193.988 146.049 190.506 147.858 187.902 149.322C186.316 150.214 184.72 151.101 183.208 152.104C181.568 153.192 180.149 154.732 178.369 155.605C179.343 155.128 176.128 156.565 176.621 156.161C176.39 156.349 176.589 156.926 176.437 157.187C176.238 157.525 175.549 157.86 175.239 158.079C174.422 158.658 173.117 159.249 172.746 160.204C167.563 156.72 177.869 150.535 180.511 148.959C185.751 145.835 194.869 139.73 200.937 144.157ZM214.916 110.272C214.866 107.763 217.035 104.338 218.499 102.292C219.215 101.291 220.36 101.331 220.779 100.149C221.021 99.4693 220.704 98.7561 220.776 98.0732C220.873 97.1497 221.298 96.4091 221.788 95.6153C226.22 88.4393 231.605 82.0879 237.34 75.8272C240.168 72.7408 242.849 69.5358 245.899 66.6364C247.173 65.4255 250.597 61.0724 252.556 61.5078C253.594 61.7383 254.197 63.2302 254.666 63.9914C255.44 65.2504 256.291 66.4297 257.232 67.5874C259.716 70.644 262.581 73.327 265.964 75.4935C268.077 76.8474 270.212 78.1632 272.277 79.5817C273.978 80.7491 276.549 82.0837 277.764 83.7227C278.979 85.3621 277.195 86.7504 276.22 88.1116C274.704 90.2286 273.31 92.4221 271.789 94.5368C271.184 94.1271 271.34 93.2948 270.926 92.77C270.558 92.3048 270.038 92.1155 269.531 91.8281C268.558 91.2786 267.602 90.6067 266.724 91.5275C265.185 93.1389 267.3 96.9481 269.58 96.5301C269.849 98.1204 265.296 100.74 264.155 101.615C260.654 104.3 257.042 106.634 252.416 106.877C250.544 106.975 248.597 106.841 246.818 106.251C245.966 105.968 245.024 105.58 244.371 104.964C243.589 104.226 243.39 103.128 242.631 102.397C241.973 101.763 241.069 101.666 240.412 101.029C239.753 100.393 239.428 99.3872 239.161 98.5627C238.639 96.9517 238.54 95.2527 238.038 93.6381C237.736 92.6669 237.488 91.3684 236.503 92.3016C235.073 93.6573 235.791 97.9202 236.157 99.5445C236.681 101.862 237.909 103.73 239.196 105.724C240.59 107.886 241.105 109.892 241.355 112.395C241.823 117.079 243.25 121.575 245.469 125.789C246.403 127.564 247.522 129.233 248.531 130.967C249.002 131.776 250.058 134.536 251.34 134.521C253.387 134.497 250.471 128.87 250.066 127.926C247.823 122.694 245.681 117.195 245.2 111.53C248.415 112.311 251.92 113.051 255.249 112.557C253.1 117.086 255.345 121.595 255.07 126.257C254.933 128.595 254.834 130.752 254.885 133.083C254.93 135.127 253.951 137.17 253.104 139.019C251.422 142.69 249.305 147.218 246.182 150.03C243.571 152.38 240.078 152.564 236.667 152.023C228.906 150.791 223.807 145.169 220.55 138.783C218.457 134.681 216.857 130.302 215.864 125.848C214.715 120.692 215.018 115.501 214.916 110.272ZM224.995 75.526C217.752 70.5876 228.276 64.9796 233.633 65.7431C234.89 65.9219 237.202 66.4114 237.084 67.9568C236.988 69.22 234.752 70.628 233.894 71.4076C231.446 73.6323 228.955 78.226 224.995 75.526ZM277.681 185.256C277.432 185.046 275.405 185.562 276.208 184.431C276.875 183.492 278.725 184.669 279.397 184.911C278.843 185.271 278.361 185.83 277.681 185.256ZM247.524 244.984C246.901 245.057 246.251 243.475 248.495 244.657C248.171 244.766 247.847 244.875 247.524 244.984ZM247.46 270.77C247.537 271.479 247.767 271.947 247.233 272.462C246.781 271.938 246.722 271.197 247.46 270.77ZM248.371 281.424C248.304 281.81 248.238 282.196 248.173 282.582C247.655 282.335 247.137 282.088 246.619 281.84C247.202 281.702 247.787 281.563 248.371 281.424ZM249.005 272.44C249.777 272.713 249.418 271.842 249.978 271.72C250.179 272.626 249.932 273.402 249.38 274.149C249.327 273.973 249.044 272.454 249.005 272.44ZM268.742 208.149C267.658 208.019 267.494 209.098 266.687 209.516C266.165 209.787 264.578 209.584 264.282 210.101C264.673 210.207 265.064 210.314 265.455 210.421C264.56 210.875 263.665 211.33 262.769 211.785C264.923 211.785 267.167 210.816 269.306 211.1C270.21 211.221 270.872 211.509 271.44 212.202C271.784 212.622 272.086 213.299 272.142 213.814C272.202 214.372 271.741 214.757 271.822 215.023C272.786 215.047 272.672 216.537 272.456 217.145C271.987 218.461 270.123 220.523 268.452 219.688C269.151 220.623 268.973 221.156 267.939 221.698C268.033 221.39 268.102 220.849 267.574 220.903C267.439 221.421 267.491 222.242 267.042 222.633C266.539 223.069 266.091 222.559 265.61 222.843C265.041 223.18 265.212 223.71 264.764 224.075C264.172 224.558 264.087 224.215 263.379 224.309C262.307 224.452 262.991 223.824 262.132 224.643C261.835 224.925 261.885 225.66 261.404 226.073C260.479 226.867 258.011 227.693 257.124 226.676C254.994 229.858 248.608 230.622 245.635 228.109C240.895 224.103 249.734 215.956 252.653 213.374C255.582 210.782 258.835 208.544 262.127 206.383C263.998 205.156 265.917 204.042 267.877 202.948C269.086 202.273 270.605 201.04 272.09 201.159C273.423 201.265 274.561 202.239 275.964 202.432C276.979 202.572 278.95 202.802 277.67 204.099C277.071 204.705 274.72 205.685 273.92 205.832C273.45 205.919 272.954 205.753 272.488 205.843C271.699 205.995 271.158 206.623 270.299 206.543C270.571 207.743 270.075 208.309 268.742 208.149ZM282.772 163.586C282.772 164.525 280.954 164.291 280.574 163.972C279.948 163.447 279.926 161.878 279.694 161.165C280.752 161.415 282.771 162.333 282.772 163.586ZM268.12 132.605C271.94 129.645 275.958 126.932 280.204 124.542C281.725 123.687 283.872 121.961 285.761 122.176C286.553 122.267 288.191 123.124 287.594 124.07C287.483 124.247 286.601 124.318 286.329 124.446C286.02 124.591 285.778 124.992 285.492 125.19C283.507 126.562 281.123 127.405 279.133 128.809C277.497 129.963 275.971 131.254 274.21 132.243C272.521 133.193 270.755 133.794 269.151 134.845C269.183 134.824 267.065 135.542 267.48 135.672C265.621 135.086 267.585 133.019 268.12 132.605ZM293.593 131.502C295.862 130.65 298.083 129.615 300.459 129.043C301.645 128.757 302.862 128.542 304.09 128.67C304.298 128.326 304.576 128.25 304.923 128.442C305.194 128.834 305.551 129.136 305.995 129.346C306.672 129.836 309.164 130.478 308.666 131.561C308.337 132.277 305.838 132.337 305.152 132.497C303.084 132.983 301.157 134.074 299.027 134.343C298.827 134.368 298.174 134.14 298.167 134.141C297.336 134.312 296.645 135.125 295.931 135.514C294.394 136.352 292.186 136.493 291.082 137.94C294.656 140.223 297.756 137.959 300.898 136.235C302.78 135.203 304.8 134.458 306.857 133.796C307.932 133.451 309.016 133.091 310.106 132.788C310.556 132.633 311.02 132.522 311.495 132.453C311.938 132.37 312.255 132.522 312.446 132.909C313.763 132.868 313.876 132.089 314.668 133.541C315.786 135.589 314.076 135.485 312.469 135.737C310.241 136.085 307.974 136.87 305.779 137.39C305.272 137.51 300.832 138.48 300.826 138.515C300.625 139.836 313.37 138.612 314.464 138.414C316.395 138.064 318.466 137.07 320.464 137.31C321.999 137.494 325.495 139.616 323.047 141.025C322.565 138.851 320.911 140.647 320.047 141.381C318.896 142.357 317.248 142.263 315.67 142.646C313.511 143.169 307.986 145.129 306.453 142.63C306.938 144.82 298.131 143.707 296.92 143.635C295.739 143.564 294.216 143.8 293.075 143.483C292.331 143.276 291.917 142.82 291.217 142.718C291.045 142.892 290.839 143.01 290.6 143.073C290.245 142.904 289.924 142.689 289.638 142.428C287.28 141.406 283.63 140.842 284.941 137.587C286.177 134.518 290.595 132.629 293.593 131.502ZM315.701 133.399C315.76 133.208 315.818 133.017 315.877 132.826C315.884 133.412 317.367 133.662 317.196 134.421C316.816 136.103 315.105 133.576 314.958 133.301C315.206 133.334 315.453 133.366 315.701 133.399ZM324.757 136.193C324.929 136.882 326.901 138.349 326.413 138.687C325.635 137.691 323.485 138.143 324.757 136.193ZM291.484 199.048C292.206 197.698 294.389 199.996 294.159 197.692C295.346 197.793 294.605 198.644 296.027 198.27C296.56 198.13 296.921 197.573 297.57 197.445C297.744 197.411 298.492 197.466 298.75 197.459C299.606 197.434 302.958 197.345 300.651 196.287C301.943 195.482 302.102 195.891 303.267 196.628C302.968 195.104 304.684 195.969 305.482 196.159C304.913 195.29 306.326 194.365 306.784 193.777C306.62 194.683 306.707 195.696 308.097 195.117C308.443 194.973 308.365 194.333 308.64 194.229C309.143 194.038 309.424 194.386 309.604 194.366C309.782 194.347 310.156 194.441 310.529 194.309C311.014 194.137 310.78 193.524 311.394 193.432C311.795 193.373 312.087 193.928 312.576 193.932C312.827 193.935 313.245 193.694 313.436 193.707C313.469 193.71 313.708 193.167 314.002 193.154C314.43 193.134 314.605 194.217 314.762 194.427C315.513 195.431 316.511 196.086 317.663 196.621C315.579 198.421 311.376 198.231 308.756 198.837C307.337 199.166 306.127 199.641 304.828 200.252C304.515 200.444 304.245 200.68 304.02 200.959C303.836 200.844 303.651 200.729 303.468 200.614C302.756 200.655 302.083 200.323 301.282 200.451C298.808 200.844 296.871 202.591 294.357 202.98C293.227 203.155 292.299 203.399 291.563 202.476C290.917 201.667 291.024 199.908 291.484 199.048ZM288.092 188.29C288.653 188.736 287.978 190.191 289.064 190.033C289.834 189.921 289.68 188.795 290.285 188.556C291.08 188.243 291.559 188.986 292.306 188.917C293.699 188.788 293.619 187.642 292.443 187.139C293.666 186.834 294.058 188.197 295.141 188.185C296.563 188.169 296.224 186.587 297.434 186.325C297.959 186.211 297.783 186.937 298.123 187.027C298.804 187.207 299.278 186.898 299.881 186.626C300.419 186.382 300.803 185.912 301.392 185.753C301.66 185.68 302.341 185.813 302.537 185.678C302.934 185.406 303.289 184.345 303.679 184.205C303.599 184.233 304.878 184.837 305.061 184.894C304.949 185.342 304.689 185.395 304.28 185.054C304.28 186.065 307.261 186.38 306.649 185.131C308.261 185.76 307.061 186.083 306.9 186.961C306.835 187.314 306.618 187.304 306.682 187.677C306.712 187.849 307.557 187.701 307.546 187.935C307.475 189.444 302.374 189.907 301.408 190.04C299.407 190.316 297.514 190.779 295.585 191.35C294.149 191.775 291.673 192.991 290.145 192.916C287.947 192.807 287.661 190.105 288.092 188.29ZM283.181 172.898C282.646 171.22 284.365 167.754 286.604 168.187C287.154 168.294 287.29 168.724 287.717 168.914C288.313 169.181 289.283 169.041 289.8 169.316C290.959 169.935 290.375 171.51 291.536 172.079C289.703 172.498 284.033 175.565 283.181 172.898ZM285.303 179.417C286.093 179.017 287.374 178.966 287.912 178.196C288.18 178.371 288.688 179.434 289.169 179.272C289.393 179.196 289.625 178.62 289.609 178.62C290.038 178.609 290.123 178.062 290.778 178.123C291.379 178.18 292.052 178.861 292.588 179.115C292.496 177.427 292.955 177.265 294.407 176.362C294.726 176.164 294.992 175.42 295.286 175.12C295.005 176.891 295.713 176.901 297.214 177.167C299.097 177.501 300.269 178.453 301.023 180.167C299.419 179.872 297.351 180.227 296.718 181.852C295.438 179.648 290.786 182.689 289.281 183.312C288.164 183.775 286.864 184.396 285.928 183.319C285.268 182.56 285.646 181.647 285.66 180.972C285.664 180.761 285.896 180.748 285.875 180.433C285.848 180.031 285.292 179.87 285.303 179.417ZM302.427 214.076C302.003 214.227 299.823 214.312 299.809 213.632C299.797 213.03 303.657 213.636 302.427 214.076ZM298.885 211.874C297.236 212.833 295.39 209.456 294.784 208.483C296.514 208.692 297.359 207.328 298.378 206.291C299.348 208.293 300.821 207.235 302.37 206.566C304.196 205.778 306.198 205.772 308.069 205.139C308.653 204.941 309.192 204.647 309.762 204.422C310.221 204.26 310.678 204.094 311.134 203.924C311.458 203.649 311.573 203.31 311.478 202.909C311.325 202.571 311.43 202.358 311.792 202.27C312.223 202.391 312.663 202.462 313.112 202.481C313.833 202.346 314.87 201.705 313.999 201.013C314.932 200.215 315.866 201.009 316.764 201.359C316.551 200.785 316.338 200.212 316.125 199.638C316.57 199.817 317.893 201.558 318.028 201.549C318.883 201.488 318.794 200.407 319.285 199.971C319.569 200.3 319.65 202.757 320.764 201.93C321.241 201.576 320.215 200.37 319.962 200.096C321.237 200.367 322.35 201.802 322.695 202.915C322.09 202.998 321.53 202.883 321.016 202.571C320.687 204.122 323.733 203.493 324.227 204.304C325.192 205.89 318.91 206.992 318.092 207.139C316.454 207.433 314.52 207.543 313.019 208.227C311.581 208.882 311.24 209.069 309.559 209.192C307.641 209.332 305.769 209.928 303.913 210.392C302.302 210.795 300.314 211.045 298.885 211.874ZM333.95 155.092C335.465 154.578 340.567 151.912 341.866 153.098C341.729 152.973 342.803 155.063 342.792 154.932C342.884 156.019 342.856 156.457 341.435 156.978C340.418 157.351 339.532 156.558 338.617 156.873C337.611 157.219 338.315 157.832 337.797 158.259C337.23 158.728 336.137 158.931 335.431 159.136C333.704 159.639 331.963 160.059 330.243 160.601C326.745 161.703 323.041 162.729 319.446 163.508C316.76 164.091 312.2 165.539 309.724 163.829C309.483 164.801 308.892 164.668 308.072 164.81C307.429 164.921 306.266 165.221 305.694 165.236C304.742 165.262 302.096 165.027 302.46 163.769C302.36 164.116 304.518 162.93 304.145 162.856C305.061 163.038 304.764 162.603 305.515 162.361C306.496 162.045 307.521 162.062 308.523 161.727C311.047 160.884 313.165 159.79 315.829 159.261C321.916 158.054 328.078 157.084 333.95 155.092ZM89.9604 285.069C89.4672 285.081 89.0835 283.761 90.5839 284.704C90.3762 284.826 90.1685 284.947 89.9604 285.069ZM78.1086 283.36C77.4379 283.522 77.1704 283.169 77.3071 282.303C78.2423 281.954 78.5093 282.307 78.1086 283.36ZM68.9588 281.592C68.7871 280.819 69.395 280.645 69.946 280.298C69.8906 281.322 69.8906 281.322 68.9588 281.592ZM45.937 275.233C45.0096 275.041 43.7738 274.186 43.5613 275.621C43.4061 275.289 42.6144 273.726 42.9543 273.364C43.1319 273.175 43.804 274.05 43.7325 273.964C44.5442 272.416 45.9433 274.284 46.7253 274.836C46.4627 274.968 46.1996 275.101 45.937 275.233ZM287.066 104.234C287.386 103.596 287.764 103.394 288.198 103.627C287.516 105.119 285.207 105.928 287.066 104.234ZM303.11 90.2263C303.682 91.2369 302.822 91.6641 302.208 92.5042C302.567 91.5981 302.816 90.9702 303.11 90.2263ZM372.839 188.878C374.902 188.877 379.297 187.851 380.541 190.073C381.364 188.563 382.3 191.395 383.014 191.849C383.095 191.901 383.609 191.53 383.848 191.666C384.209 191.872 384.521 192.433 384.727 192.766C385.35 193.771 385.618 194.965 385.964 196.07C382.36 196.07 378.666 195.28 375.065 194.992C372.702 194.804 370.385 194.798 368.019 194.918C367.549 194.942 366.615 194.796 366.213 194.879C365.804 194.964 365.064 195.748 364.613 195.622C365.313 196.86 374.276 199.857 374.959 198.486C374.149 198.024 372.35 197.67 372.351 196.553C372.353 195.302 374.039 195.305 374.933 195.341C376.888 195.422 380.162 196.035 380.964 197.951C381.307 198.772 381.412 200.84 381.035 201.633C380.791 202.145 380.379 202.761 379.725 202.865C379.457 202.907 379.071 202.571 379.03 202.58C377.689 202.848 375.206 203.863 373.744 202.432C372.689 203.718 367.608 202.313 366.052 201.827C363.331 200.979 359.585 199.813 357.933 197.421C355.918 194.505 360.014 192.04 362.365 190.855C365.579 189.235 369.251 188.879 372.839 188.878ZM386.569 195.619C387.202 195.788 387.834 195.956 388.466 196.125C388.297 197.17 385.802 196.343 386.569 195.619ZM405.686 233.604C405.881 229.417 404.596 225.73 403.855 221.681C403.671 220.677 403.858 218.922 403.049 218.097C402.276 217.307 400.551 217.949 400.483 216.554C399.722 217.394 399.799 217.569 398.86 216.603C399.032 217.018 399.056 217.439 398.935 217.868C398.353 217.553 396.243 216.509 396.421 217.937C394.686 217.575 395.188 216.553 394.199 215.772C394.058 215.661 393.493 216.055 393.273 215.887C392.875 215.584 392.678 215.308 392.343 214.916C391.916 215.402 391.335 215.753 390.814 216.137C390.511 215.515 389.921 215.059 389.212 214.908C389.875 216.215 391.514 217.908 389.266 218.652C387.924 219.095 385.727 218.551 384.306 218.655C379.039 219.04 373.27 217.958 368.178 216.775C362.946 215.561 357.656 213.846 352.951 211.34C351.948 210.806 351.317 210.173 350.453 209.51C349.613 208.866 349.003 208.764 347.994 208.352C346.177 207.611 344.516 206.421 343.135 205.096C340.164 202.245 337.403 198.518 338.23 194.345C339.055 190.186 342.089 186.935 345.335 184.196C349.169 180.961 353.498 178.26 358.092 176.083C360.146 175.11 365.4 171.453 367.43 173.593C368.727 174.96 367.997 176.704 366.225 177.007C365.788 177.083 365.331 176.806 364.889 176.996C364.252 177.269 364.476 177.591 364.213 177.819C363.756 178.215 363.271 178.832 362.589 179.174C360.207 180.371 357.905 181.319 355.628 182.777C354.579 183.448 353.569 183.737 352.644 184.323C351.724 184.906 351.514 185.87 350.277 185.275C350.718 186.971 348.072 188.787 347.035 189.826C345.429 191.435 343.503 193.488 344.253 195.868C345.72 200.527 352.349 204.066 356.591 206.114C361.885 208.67 367.724 210.704 373.619 211.546C376.549 211.965 379.578 212.223 382.531 212.488C384.829 212.695 388.357 211.938 390.011 213.89C390.062 211.614 397.602 211.815 399.207 211.524C395.99 201.159 389.672 191.944 382.918 183.334C379.603 179.107 376.347 174.76 372.569 170.886C368.432 166.644 363.706 162.853 359.216 158.95C350.409 151.295 340.448 144.462 330.312 138.444C320.199 132.439 309.726 126.53 298.647 122.248C285.993 117.359 272.671 114.143 259.334 111.404C261.144 109.232 264.086 108.172 266.403 106.582C267.214 106.026 268.31 104.691 269.363 104.508C270.504 104.31 271.403 105.467 272.215 106.048C274.546 107.714 276.158 107.006 278.828 106.906C280.425 106.846 284.209 107.684 284.882 105.648C285.778 106.772 284.479 107.673 283.814 108.497C284.298 109.133 284.688 108.473 285.166 108.374C285.314 108.259 285.46 108.143 285.608 108.028C285.845 107.704 286.059 107.703 286.249 108.022C286.534 108.426 286.821 108.336 287.11 107.753C287.189 107.706 287.268 107.659 287.347 107.612C287.693 107.439 288.026 107.165 288.347 106.949C290.773 105.315 292.935 103.923 295.613 102.72C297.863 101.71 296.653 99.7768 298.136 98.4119C298.472 98.103 299.036 98.2579 299.395 97.9962C299.746 97.7391 299.799 97.4476 300.056 97.1722C300.672 96.5099 299.938 95.7413 301.51 96.5521L300.943 93.545C304.025 96.3628 304.013 88.2541 304.434 87.0542C304.379 87.2128 304.711 85.985 304.71 85.9955C304.801 83.5623 305.153 81.7987 302.129 81.6575C303.274 80.9787 303.624 82.3042 304.153 80.932C304.417 80.2445 303.591 79.0629 304.908 79.5061C305.186 78.045 304.912 76.8625 304.566 75.4426C304.212 73.9893 304.42 73.0195 304.436 71.5661C304.454 69.9176 303.635 68.2607 303.373 66.6373C303.168 65.3659 303.38 63.3608 301.636 63.8278C301.391 63.4662 302.252 62.3538 302.217 61.8039C302.162 60.9495 301.179 60.0815 300.9 59.2611C300.49 59.6598 299.912 59.7927 299.354 59.6126C299.878 58.498 299.386 58.1235 298.885 57.1624C298.598 56.612 298.771 56.0042 298.156 55.6096C297.803 55.3832 297.202 55.7645 296.926 55.4992C296.334 54.9309 296.553 54.1769 296.145 53.428C295.634 52.4889 294.466 51.7716 293.662 51.0667C289.139 47.1045 284.226 44.0764 278.209 42.5282C272.139 40.9662 265.062 40.4066 259.013 42.2083C256.595 42.9283 254.448 42.8545 252.272 44.1992C251.566 44.6355 251.49 44.5187 251.132 45.246C251.049 45.4156 251.801 45.8671 251.341 46.1443C250.841 46.4455 250.289 45.8331 250.034 45.3249C246.885 47.4726 243.935 50.3357 242.142 53.6187C240.36 56.881 240.197 60.7135 239.516 64.2586C236.378 60.8799 232.134 59.2602 227.519 60.8845C223.496 62.2998 220.379 65.4109 219.593 69.4414C219.113 71.8984 219.637 74.3867 220.821 76.6036C221.333 77.5615 221.953 78.622 222.895 79.2669C223.639 79.7765 224.915 79.705 225.265 80.6244C225.803 82.0329 222.699 85.0747 221.893 86.3076C220.435 88.5387 219.081 90.8427 218.05 93.2796C214.353 88.3586 210.815 82.9839 206.612 78.4465C202.645 74.1639 197.915 70.3232 193.277 66.7033C183.651 59.1905 173.641 52.1323 162.873 46.1471C152.847 40.5739 140.735 37.4798 129.049 38.5738C117.632 39.643 108.891 46.4482 101.535 54.297C87.3916 69.3882 78.7291 90.8977 77.8829 110.986C77.6286 117.021 78.1164 122.977 79.6979 128.83C80.4512 131.617 80.3418 134.359 80.7795 137.181C81.2736 140.366 82.1281 143.539 82.9543 146.658C86.1019 158.541 90.1121 170.415 94.6121 181.904C96.9518 187.879 99.7828 193.72 103.613 198.988C105.381 201.422 107.673 203.326 109.576 205.637C111.423 207.878 111.911 210.629 112.317 213.379C113.291 219.972 113.936 226.594 114.522 233.227C114.77 236.038 115.061 238.824 115.456 241.615C115.8 244.049 114.934 243.929 112.761 244.755C113.202 242.569 102.823 244.056 101.843 244.206C100.776 244.368 99.6471 244.37 98.8072 244.5C97.8681 244.643 96.9489 244.852 95.8673 244.823C94.2775 244.78 91.3007 244.397 90.6938 246.31C90.276 244.092 87.5166 246.517 89.5582 246.105C87.4626 246.326 85.3242 245.958 83.2033 246.145C80.7727 246.357 78.3211 246.56 75.9074 246.904C74.2272 247.144 72.6238 247.754 70.9406 247.931C68.7866 248.158 66.5388 248.137 64.364 248.317C56.342 248.984 48.0272 250.633 40.2294 252.522C38.4631 252.949 36.4337 253.253 34.7461 253.94C34.2943 254.123 33.8877 254.534 33.4549 254.691C32.7293 254.955 32.8285 254.773 32.1841 254.894C28.3232 255.621 24.3401 256.809 20.4797 257.741C18.3384 258.259 14.8553 258.725 13.1084 260.134C12.3254 260.765 11.6411 261.883 12.8959 262.6C13.8982 263.173 15.329 262.259 16.1402 261.765C15.4175 263.54 14.0543 264.424 14.7906 266.444C15.3718 268.04 16.6839 270.006 18.7026 268.977C18.973 269.569 19.0824 270.748 19.8786 270.966C20.5939 271.162 21.1119 270.307 21.8127 270.508C22.0636 270.58 21.9683 271.027 22.193 271.144C22.5801 271.345 22.9726 271.43 23.4161 271.572C23.7974 271.694 24.4111 271.944 24.809 271.971C25.0614 271.987 25.6561 271.581 25.6542 271.581C26.2339 271.663 26.5456 272.709 26.9629 273.011C27.5047 273.403 27.9521 273.493 28.6305 273.635C30.0409 273.93 31.8588 274.436 32.7896 273.075C32.5766 274.047 33.9787 273.951 34.5973 274.075C34.5287 273.563 34.2286 273.094 33.7657 272.813C35.1488 272.899 34.588 274.195 35.6103 274.537C36.3388 274.781 36.2561 274.162 36.8135 274.093C37.5478 274.003 38.1052 274.505 39.2519 274.042C39.5004 275.083 39.5914 276.132 40.9478 276.287C41.7439 276.379 43.6002 275.024 43.4951 276.151C45.2736 275.66 45.9487 275.992 46.878 277.469C47.0351 276.562 47.7953 276.826 48.4926 276.77C49.5981 276.681 49.6263 276.765 50.4832 276.175C50.5615 276.121 51.2355 274.666 51.5351 275.57C51.6698 275.975 50.7794 276.929 50.4496 277.171C50.8591 277.366 52.2009 278.05 52.7169 277.924C53.1633 277.816 53.1648 277.096 53.7012 277.059C53.5699 277.473 53.4391 277.887 53.3073 278.3C54.351 278.443 55.2229 277.785 56.0473 277.303C56.8332 279.175 59.0795 278.12 60.3012 279.53C60.9475 280.275 60.9777 280.842 62.209 281.037C63.4691 281.236 64.5697 280.715 65.6406 281.694C65.3011 281.087 64.4554 280.582 65.2958 279.929C65.8677 280.694 66.1629 281.615 66.8224 282.327C66.9133 281.965 67.0042 281.604 67.0952 281.242C68.8144 282.974 70.9785 282.99 73.1806 283.95V282.682C74.7573 284.95 74.8414 283.515 76.725 282.589C76.5971 283.255 76.4687 283.922 76.3408 284.589C77.6962 284.492 78.9626 286.006 80.0753 284.72C80.7474 285.783 81.562 285.26 82.6635 285.597C83.2899 285.789 83.7563 286.37 84.3657 286.58C85.2795 286.896 85.5523 286.881 86.4126 287.156C87.1776 287.4 87.6124 287.874 88.57 288.026C89.192 288.125 89.7561 288.118 90.3514 288.091C90.5814 288.081 90.5056 287.593 91.0167 287.707C91.807 287.883 92.3954 288.817 92.9644 289.296C93.8204 287.268 96.217 289.984 97.3754 290.346C97.4863 289.826 97.4664 289.2 97.8657 288.773C98.3345 289.741 98.5134 290.554 99.4866 291.177C100.048 291.537 100.873 291.795 101.522 291.926C101.932 292.009 102.677 291.91 102.935 292.029C103.374 292.232 103.536 292.774 103.98 292.825C104.241 292.855 104.629 292.207 104.824 292.258C105.719 292.488 106.216 293.512 107.119 294.066C109.808 295.715 113.192 295.875 116.188 296.236C116.94 296.327 117.049 296.133 117.66 296.549C117.986 296.771 117.838 297.447 118.238 297.636C119.748 298.349 119.749 296.828 120.066 295.882C120.566 296.503 120.652 297.323 121.335 297.817C121.708 297.807 122.081 297.815 122.454 297.841C122.664 298.067 122.802 298.328 122.866 298.623C123.771 299.199 124.796 298.999 125.73 299.431C126.036 299.573 126.579 300.429 126.956 300.675C127.632 301.116 128.676 301.352 129.448 301.543C131.067 301.945 133.388 301.411 134.35 303.004C135.629 301.712 135.134 303.255 136.003 303.579C136.515 303.77 137.286 303.01 137.854 303.085C138.878 303.221 139.247 304.265 139.575 305.025C140.198 304.894 139.77 303.231 139.753 302.867C140.527 302.781 140.699 304.703 140.833 305.126C142.056 304.571 140.049 302.844 141.364 302.289C141.243 303.761 142.488 304.973 140.265 305.184C140.572 306.07 147.741 307.055 148.239 306.272C148.349 307.719 149.38 306.368 149.76 305.873C149.803 306.716 149.498 307.914 150.503 308.306C151.186 308.573 152.725 307.884 152.993 307.253C153.299 308.217 153.812 308.185 154.449 308.797C154.887 309.218 155.175 309.946 155.634 310.298C156.479 310.946 158.05 310.847 159.035 310.702C160.96 310.419 160.733 310.071 161.419 311.957C161.574 311.241 162.06 309.744 162.909 310.857C163.448 311.565 162.299 313.123 161.967 313.744C162.709 313.36 163.446 312.905 164.29 312.739C164.337 312.984 164.381 313.505 164.256 313.732C164.282 313.686 165.182 314.255 165.516 314.413C165.436 314.375 165.78 312.957 165.771 313.004C166.959 313.695 166.134 315.016 167.187 315.698C167.459 315.874 168.097 315.668 168.426 315.776C168.998 315.963 169.493 316.468 170.002 316.764C169.596 316.25 169.654 315.389 169.682 314.796C169.94 314.931 170.125 315.435 170.386 315.475C170.485 315.49 171.509 315.618 171.502 315.613C172.568 316.316 172.348 316.405 171.433 317.251C171.76 317.735 173.126 316.893 173.496 316.754C173.573 316.943 173.593 317.63 173.739 317.753C173.827 317.957 173.915 318.16 174.004 318.364C174.277 318.172 174.569 318.108 174.882 318.172C175.079 318.236 176.62 318.827 176.725 318.625C176.388 318.522 176.082 318.365 175.808 318.153C176.698 317.399 177.283 316.998 178.103 318.087C178.206 318.224 177.851 318.716 177.956 318.895C178.348 319.56 179.152 320.089 179.698 320.632C179.924 319.883 179.398 318.009 180.654 318.077C181.657 318.131 182.42 320.422 182.073 321.134C182.472 320.723 184.853 320.315 185.302 320.443C186.573 320.806 186.216 321.914 187.78 320.291C188.846 320.984 187.906 321.247 188.098 322.092C188.38 322.148 188.647 322.082 188.899 321.896C188.71 325.488 191.523 322.743 193.349 323.292C194.066 323.507 194.249 324.274 195.018 324.498C195.426 324.616 195.878 324.336 196.274 324.404C196.591 324.362 196.906 324.309 197.22 324.246C197.616 324.059 197.803 324.268 197.778 324.875C198.416 325.187 198.175 325.309 198.921 325.369C199.402 325.409 199.844 324.938 200.39 325.018C201.332 325.157 201.207 325.839 201.81 326.195C202.351 326.516 202.962 326.505 203.629 326.443C203.969 326.411 204.924 325.999 205.039 325.997C205.752 325.988 205.365 325.845 206.221 326.422C206.887 326.872 207.167 327.164 207.985 327.371C208.923 327.608 210.587 328.126 211.219 327.487C212.071 328.692 212.739 327.808 213.864 327.887C214.44 327.929 214.531 328.14 215.044 328.224C215.875 328.361 216.911 328.242 217.795 328.51C219.187 328.931 219.344 329.143 220.767 329.2C221.024 329.106 221.281 329.011 221.537 328.916C221.614 329.32 221.816 329.65 222.143 329.905C222.939 330.062 223.462 329.683 224.118 329.269C224.608 330.705 226.195 330.83 227.553 331.019C229.744 331.324 231.839 331.49 233.951 332.169C235.736 332.742 237.524 333.385 239.24 334.119C240.75 334.765 242.176 335.731 243.885 335.277C247.757 334.25 251.509 330.504 254.749 328.353C258.586 325.806 262.724 323.706 266.733 321.416C282.695 312.298 299.557 304.585 315.295 295.128C323.887 289.965 331.859 283.831 341.086 279.653C339.773 284.769 337.536 289.962 337.941 295.317C338.103 297.475 338.778 300.025 340.554 301.531C342.749 303.395 345.195 302.208 347.295 300.877C351.795 298.026 354.796 293.866 358.164 289.959C362.147 285.337 365.237 280.372 368.162 275.104C368.863 276.031 368.33 277.585 368.34 278.613C368.354 279.924 368.729 281.188 369.374 282.359C371.041 285.382 374.211 286.114 377.076 284.044C382.59 280.059 385.79 272.961 388.745 267.246C390.43 270.201 392.822 273.919 396.868 271.809C400.208 270.068 402.169 266.177 403.191 262.882C406.173 253.263 405.228 243.464 405.686 233.604Z" fill="black"/>
<path opacity="0.9" fill-rule="evenodd" clip-rule="evenodd" d="M400.62 175.824C400.239 174.952 400.072 175.094 400.772 174.249C401.318 174.756 400.881 175.174 400.62 175.824ZM417.496 228.582C416.425 225.713 417.086 222.598 416.436 219.655C416.137 218.305 415.666 216.995 415.496 215.62C415.421 215.01 414.845 212.264 415.237 211.832C414.029 211.143 414.025 210.633 413.746 209.281C414.177 208.851 414.123 208.484 413.584 208.179C413.232 207.777 412.879 207.375 412.526 206.974C414.068 207.684 413.156 205.867 412.999 204.819C412.874 203.992 412.791 203.128 412.498 202.335C412.137 201.359 411.336 200.866 413.003 200.866C412.454 200.278 411.634 199.671 411.361 198.951C410.968 197.915 411.616 196.546 410.815 195.63C410.368 195.12 408.064 194.92 408.468 193.817C408.674 193.255 409.608 193.675 409.896 193.281C411.032 191.734 407.679 191.093 407.515 190.434C407.302 189.581 408.513 189.39 408.587 188.592C408.66 187.811 407.371 186.528 407.031 185.83C406.567 185.936 406.058 186.628 405.527 186.297C405.427 186.235 405.578 183.531 405.457 183.172C405.339 182.819 405.096 181.883 405.009 181.71C404.665 181.022 403.682 180.687 403.525 179.875C403.432 179.39 405.448 178.656 403.136 178.633C403.967 177.253 402.445 176.415 401.891 175.236C401.179 173.72 400.759 172.083 400.028 170.56C399.317 169.079 398.522 167.674 397.496 166.364C396.569 165.179 396.167 164.038 395.426 162.786C395.277 162.676 395.129 162.566 394.981 162.456C394.362 162.54 394.164 162.275 394.385 161.66C393.912 160.999 393.561 160.294 393.143 159.604C392.658 158.803 392.004 158.149 391.503 157.37C390.839 156.336 390.642 155.171 389.891 154.134C388.967 152.858 387.928 151.734 387.072 150.41C385.999 148.753 384.811 147.722 383.461 146.439C382.819 145.827 382.741 144.3 381.954 143.432C381.097 142.486 380.25 142.23 379.656 140.989C378.882 139.374 377.748 138.604 376.643 137.208C375.732 136.057 375.287 134.734 374.283 133.62C373.42 132.663 372.44 131.789 371.518 130.882C370.355 129.737 369.496 128.345 368.285 127.256C368.46 127.413 367.231 126.496 367.293 126.525C367.021 126.394 366.144 126.289 366.272 126.36C364.444 125.348 362.154 121.642 359.404 123.606C357.957 124.638 358.651 126.532 359.661 127.561C360.095 128.003 362.349 130.181 362.836 129.262C363.362 129.964 364.981 133.359 366.327 132.386C366.19 133.546 366.903 133.161 367.374 133.945C367.684 134.463 367.533 134.717 367.758 135.524C368.38 137.744 370.749 139.913 372.011 141.849C375.152 146.667 378.617 151.237 381.761 156.061C384.758 160.658 388.113 165.02 390.988 169.68C394.258 174.978 398.331 179.979 400.794 185.691C400.877 185.883 401.562 186.187 401.731 186.475C402.028 186.976 401.964 187.842 402.155 188.41C402.815 190.377 403.887 192.313 405.108 193.942C406.178 195.372 406.256 197.315 406.993 198.992C408.032 201.355 409.13 203.694 410.14 206.07C411.711 209.767 412.775 213.311 413.861 217.171C414.565 219.672 415.125 222.172 415.349 224.755C415.555 227.131 415.606 229.605 416.539 231.854C417.175 230.929 417.924 229.729 417.496 228.582Z" fill="black"/>
<path opacity="0.9" fill-rule="evenodd" clip-rule="evenodd" d="M58.0356 279.485C56.9064 279.27 55.8437 278.983 55.6045 277.761C55.4406 278.337 55.2772 278.913 55.1133 279.489C56.4881 279.782 57.8635 280.076 59.2383 280.37C58.9173 279.837 58.6829 279.608 58.0356 279.485Z" fill="black"/>
<path opacity="0.9" fill-rule="evenodd" clip-rule="evenodd" d="M61.0633 78.9496C61.1489 78.605 61.2597 78.2672 61.3964 77.9377C61.4893 78.259 61.9445 78.9538 61.6794 79.2567C61.3419 79.6413 61.0005 79.4236 61.0633 78.9496ZM66.5991 69.0233C66.9697 69.1773 67.7717 69.2071 68.2317 69.3372C67.0383 70.3048 66.8282 70.0201 65.2851 69.9079C65.2165 68.9289 65.6386 68.625 66.5991 69.0233ZM56.2544 93.2585C56.4145 93.2626 56.5749 93.2663 56.7359 93.2699C56.7456 92.8437 56.734 92.4179 56.6999 91.9926C58.3272 92.3276 57.4061 89.6478 56.8949 89.0923C58.4823 89.1423 59.2556 84.406 59.7584 83.4935C60.2049 82.6831 60.7107 82.3697 61.037 81.3815C61.3225 80.5167 61.6313 79.7384 62.0432 78.9203C62.9896 77.0394 64.2312 75.3312 64.0021 73.139C64.8041 74.7839 65.5093 73.1418 66.018 72.3553C66.8374 71.088 68.8367 69.4711 69.0493 67.9659C69.237 66.6409 68.1923 66.5708 68.809 65.342C69.4325 64.0982 69.9451 64.2228 71.0374 63.825C71.7639 63.5601 71.9084 63.8818 72.421 63.0174C72.7531 62.4578 72.6359 62.0407 73.0615 61.582C73.237 61.7259 73.4369 61.7855 73.6606 61.7607C74.0059 61.3313 74.2325 60.8528 74.34 60.3252C74.6216 59.613 74.7578 58.959 75.1819 58.2807C75.5841 57.6381 76.298 55.9189 76.6763 55.6091C77.0781 55.28 79.3565 55.4473 79.3468 55.4592C80.2878 54.3437 78.5609 53.2322 80.9521 53.4674C80.4799 52.6387 82.1388 51.6102 82.6202 51.1492C83.8229 49.9983 83.9187 49.4657 84.1726 48.0184C84.3015 47.2805 83.4601 47.3657 84.5879 47.1975C85.0543 47.1283 85.5017 47.6902 85.8383 47.6077C87.324 47.2447 85.7697 47.3139 86.1797 46.7433C86.309 46.5623 86.97 45.8317 86.9636 45.8395C86.9316 45.8762 87.1125 45.2038 87.2623 45.031C87.5463 45.0081 87.8259 44.9613 88.1007 44.8908C88.2403 44.6249 88.3638 44.3527 88.4708 44.074C89.5461 43.2289 91.1548 42.8508 91.8984 41.9222C92.3794 41.3218 92.2354 40.7338 92.857 40.1352C93.4488 39.565 94.2318 39.978 94.349 38.6901C94.4983 37.0516 92.6308 36.3224 91.8668 37.976C89.7951 35.5712 81.1355 44.3944 80.1351 45.5471C75.7898 50.551 71.5188 55.6788 67.9545 61.2121C64.4817 66.6038 61.6313 72.2769 59.4034 78.2237C58.3291 81.0909 57.675 83.9454 57.019 86.9112C56.7987 87.9044 55.1524 92.3304 55.8377 93.3208C55.9763 93.3002 56.1154 93.2791 56.2544 93.2585Z" fill="black"/>
<path opacity="0.9" fill-rule="evenodd" clip-rule="evenodd" d="M398.293 215.969C399.025 215.509 399.025 215.509 399.153 214.64C398.172 214.808 398.172 214.808 398.293 215.969Z" fill="black"/>
<path opacity="0.9" fill-rule="evenodd" clip-rule="evenodd" d="M37.5161 274.463C37.525 274.462 37.5316 274.465 37.5368 274.47C37.5217 274.451 37.4671 274.396 37.5161 274.463Z" fill="black"/>
<path opacity="0.9" fill-rule="evenodd" clip-rule="evenodd" d="M37.0237 274.93C37.2498 275.39 37.6131 275.505 38.114 275.272C38.3115 275.538 36.4012 273.614 37.0237 274.93Z" fill="black"/>
<path opacity="0.9" fill-rule="evenodd" clip-rule="evenodd" d="M70.0589 64.6992C68.9126 66.8171 70.3483 65.2767 70.2749 65.9646C70.323 65.5127 70.5219 64.8688 70.0589 64.6992Z" fill="black"/>
<path opacity="0.9" fill-rule="evenodd" clip-rule="evenodd" d="M256.418 97.4789C256.915 101.277 262.428 99.4804 263.668 97.1833C264.571 95.5109 266.851 88.9023 264.398 87.5062C262.579 86.4713 262.19 90.9317 261.742 91.9281C260.991 93.5969 260.404 92.4144 258.733 92.8425C256.889 93.315 256.213 95.9041 256.418 97.4789Z" fill="black"/>
<path opacity="0.9" fill-rule="evenodd" clip-rule="evenodd" d="M250.394 90.5282C252.365 90.9407 254.297 90.7281 255.696 89.2614C256.471 88.4493 257.503 86.8383 256.107 86.0523C254.842 85.3405 253.408 87.0074 252.076 86.6628C250.264 86.1939 251.197 84.3634 250.576 83.1543C248.292 84.3936 247.018 89.8215 250.394 90.5282Z" fill="black"/>
<path opacity="0.9" fill-rule="evenodd" clip-rule="evenodd" d="M252.434 100.117C250.535 100.114 250.519 102.315 251.511 103.259C252.46 104.162 254.859 105.076 256.146 104.374C258.683 102.988 253.972 100.26 252.434 100.117Z" fill="black"/>
<path opacity="0.9" fill-rule="evenodd" clip-rule="evenodd" d="M141.91 187.674C142.316 187.86 143.511 188.815 144.015 188.384C143.304 187.709 142.592 187.034 141.881 186.358C141.488 186.764 141.219 187.358 141.91 187.674Z" fill="black"/>
<path opacity="0.9" fill-rule="evenodd" clip-rule="evenodd" d="M132.934 91.0771C132.732 91.2192 132.53 91.3609 132.328 91.5025C133.009 92.0373 132.992 92.1964 133.679 91.6899C133.475 91.4369 133.227 91.233 132.934 91.0771Z" fill="black"/>
<path opacity="0.9" fill-rule="evenodd" clip-rule="evenodd" d="M261.678 217.077C261.296 216.431 260.575 217.622 260.087 217.816C259.293 218.131 258.642 216.463 258.87 218.463C257.076 217.688 255.987 219.464 254.83 220.389C253.195 221.696 251.196 222.405 250.105 224.262C255.238 225.393 260.877 221.223 264.704 218.485C265.328 218.037 268.449 215.781 266.334 215.563C265.469 215.474 262.32 218.163 261.678 217.077Z" fill="black"/>
<path opacity="0.9" fill-rule="evenodd" clip-rule="evenodd" d="M260.154 213.162C261.16 212.416 258.991 212.348 258.648 212.27C258.678 212.863 258.707 213.456 258.736 214.05C259.222 213.772 259.695 213.476 260.154 213.162Z" fill="black"/>
<path opacity="0.9" fill-rule="evenodd" clip-rule="evenodd" d="M256.38 215.651C256.68 215.474 257.518 214.921 256.948 214.51C256.433 214.819 256.065 215.323 255.984 215.898C256.116 215.816 256.248 215.733 256.38 215.651Z" fill="black"/>
<path opacity="0.9" fill-rule="evenodd" clip-rule="evenodd" d="M173.259 167.523C172.617 167.761 172.329 168.136 172.396 168.65C173.384 168.46 173.195 167.582 173.259 167.523Z" fill="black"/>
</svg>
